<svg width="930" height="801" viewBox="0 0 930 801" fill="none" xmlns="http://www.w3.org/2000/svg">
<path d="M24.2642 0L0 24.2642V0H24.2642Z" fill="#101E34"/>
<path d="M152.743 0L0 152.743V95.1157L95.1157 0H152.743Z" fill="#101E34"/>
<path d="M281.101 0L0 281.101V223.595L223.595 0H281.101Z" fill="#101E34"/>
<path d="M409.458 0L0 409.458V351.952L351.952 0H409.458Z" fill="#101E34"/>
<path d="M537.937 0L0 537.816V480.31L480.31 0H537.937Z" fill="#101E34"/>
<path d="M635.601 0V30.6942L30.8155 635.479H0V608.667L608.789 0H635.601Z" fill="#101E34"/>
<path d="M635.594 101.545V159.051L159.288 635.479H101.66L635.594 101.545Z" fill="#101E34"/>
<path d="M635.613 229.902V287.53L287.664 635.479H230.158L635.613 229.902Z" fill="#101E34"/>
<path d="M635.612 358.381V415.887L416.021 635.478H358.515L635.612 358.381Z" fill="#101E34"/>
<path d="M635.611 486.738V544.366L544.377 635.478H486.871L635.611 486.738Z" fill="#101E34"/>
<path d="M635.61 615.096V635.478H615.229L635.61 615.096Z" fill="#101E34"/>
<path d="M449.159 235.463L324.707 114.083C322.906 112.327 320.49 111.344 317.974 111.344H159.585C154.259 111.344 149.942 115.661 149.942 120.986V579.825C149.942 582.382 150.958 584.835 152.767 586.643L364.071 797.948C365.879 799.756 368.332 800.772 370.889 800.772H746.161C751.487 800.772 755.804 796.455 755.804 791.13V600.669C755.804 598.112 754.788 595.66 752.979 593.851L556.138 397.01C554.33 395.202 551.877 394.186 549.32 394.186H461.712C456.386 394.186 452.069 389.869 452.069 384.544V242.366C452.069 239.767 451.02 237.278 449.159 235.463Z" fill="#FA0339"/>
<path d="M774.783 638.082L899.236 759.462C901.037 761.218 903.453 762.201 905.968 762.201L920.358 762.201C925.683 762.201 930 757.884 930 752.559L930 291.304C930 290.259 929.83 289.221 929.497 288.23L859.256 79.3421C857.936 75.417 854.258 72.773 850.117 72.773L477.781 72.773C472.456 72.773 468.139 77.09 468.139 82.4153L468.139 272.875C468.139 275.433 469.155 277.885 470.963 279.694L667.804 476.535C669.612 478.343 672.065 479.359 674.622 479.359L762.231 479.359C767.556 479.359 771.873 483.676 771.873 489.001L771.873 631.179C771.873 633.778 772.922 636.267 774.783 638.082Z" fill="#FA0339"/>
</svg>
