<svg width="17" height="14" viewBox="0 0 17 14" fill="none" xmlns="http://www.w3.org/2000/svg">
<path d="M14.768 9.32532C14.2165 9.32532 13.6807 9.32532 13.1145 9.32532C13.1145 9.02166 13.1145 8.77291 13.1145 8.45693C13.6975 8.45693 14.2501 8.45693 14.8321 8.45693C14.7197 6.89494 14.2312 5.5761 13.2931 4.39173C12.8687 4.81752 12.4569 5.23099 12.0084 5.68031C11.8372 5.44837 11.689 5.24668 11.4863 4.97327C11.8718 4.62592 12.2973 4.2427 12.7521 3.83372C11.5861 2.75467 10.3581 2.2101 8.89477 2.04651C8.89477 2.6527 8.89477 3.24097 8.89477 3.87069C8.59223 3.87069 8.35903 3.87069 8.067 3.87069C8.067 3.28579 8.067 2.69752 8.067 2.05099C6.58373 2.13391 5.35887 2.68968 4.25062 3.68133C4.69077 4.12169 5.0952 4.52619 5.54271 4.97439C5.27589 5.23771 5.08995 5.42147 4.83258 5.67471C4.46387 5.20186 4.10986 4.74693 3.71488 4.24158C2.6518 5.49767 2.16123 6.82099 2.03727 8.3897C2.61923 8.3897 3.16863 8.3897 3.74955 8.3897C3.74955 8.71801 3.74955 8.98357 3.74955 9.29731C3.16233 9.29731 2.61083 9.29731 1.91016 9.29731C2.14127 10.1231 2.34191 10.8638 2.55621 11.5999C2.61818 11.8128 2.73899 12.0067 2.78836 12.2218C2.90181 12.7115 2.68226 13.1317 2.25787 13.2953C1.82402 13.4622 1.4343 13.2942 1.2179 12.8202C-0.93032 8.14431 1.02987 2.63814 5.55951 0.800505C10.6942 -1.28252 16.1693 2.51376 16.5023 8.36168C16.5821 9.76456 16.3678 11.1058 15.8332 12.3888C15.5569 13.0532 15.0884 13.3143 14.6031 13.0857C14.1419 12.8684 14.0148 12.3384 14.2764 11.6851C14.5715 10.9478 14.8363 10.206 14.768 9.32532Z" fill="#C7D5FA"/>
<path d="M7.16805 8.84006C7.17436 8.22602 7.62816 7.65792 8.20592 7.54139C8.77948 7.42598 9.36039 7.82376 9.62301 8.44228C9.71651 8.66077 9.90769 8.87591 10.1062 8.99244C10.6703 9.32187 11.2712 9.58071 11.8353 9.91014C11.9729 9.99082 12.0254 10.2373 12.1168 10.4065C11.9372 10.4693 11.7355 10.6217 11.5811 10.5791C11.0096 10.4188 10.4497 10.206 9.89298 9.9897C9.56734 9.86308 9.30367 9.8586 8.96752 10.0502C8.14079 10.5242 7.15755 9.83619 7.16805 8.84006Z" fill="#C7D5FA"/>
</svg>
