<svg width="22" height="22" viewBox="0 0 22 22" fill="none" xmlns="http://www.w3.org/2000/svg">
<path d="M19.3203 6.23947C19.218 6.16164 19.1435 6.05296 19.1079 5.92955C18.5602 4.03712 16.8004 2.71541 14.8281 2.71541C14.4648 2.71541 14.1029 2.75948 13.7521 2.84645C13.5101 2.90644 13.2562 2.81012 13.1148 2.60479C12.1944 1.2676 10.6774 0.469303 9.05703 0.469303C7.82487 0.469303 6.64581 0.926824 5.73711 1.75748C4.834 2.58297 4.27296 3.70516 4.15708 4.91744C4.13708 5.12706 4.0084 5.31078 3.81824 5.40119C3.7589 5.42935 3.69923 5.4601 3.64086 5.49235C3.59098 5.51998 3.53734 5.54029 3.48154 5.55276C2.65078 5.7382 1.89614 6.20507 1.3567 6.86749C0.802323 7.54796 0.509277 8.37249 0.509277 9.24969C0.509277 11.3395 2.21885 13.0391 4.32015 13.0391H17.0059C19.1072 13.0391 20.8167 11.3395 20.8167 9.24969C20.8167 8.06074 20.2712 6.9637 19.3203 6.23947Z" fill="#61C9E7"/>
<path d="M19.1606 15.619C19.1606 15.2879 18.8925 15.0202 18.5618 15.0202H2.83744C2.50677 15.0202 2.23877 15.2879 2.23877 15.619C2.23877 15.949 2.50677 16.2178 2.83744 16.2178H18.5618C18.8925 16.2178 19.1606 15.949 19.1606 15.619Z" fill="#61C9E7"/>
<path d="M17.6956 19.9421H1.97133C1.64066 19.9421 1.37256 20.2108 1.37256 20.5409C1.37256 20.8719 1.64066 21.1396 1.97133 21.1396H17.6956C18.0262 21.1396 18.2943 20.8719 18.2943 20.5409C18.2943 20.2108 18.0262 19.9421 17.6956 19.9421Z" fill="#61C9E7"/>
<path d="M5.53139 17.5153C5.20072 17.5153 4.93262 17.783 4.93262 18.1141C4.93262 18.4441 5.20072 18.7129 5.53139 18.7129H11.294C11.6247 18.7129 11.8927 18.4441 11.8927 18.1141C11.8927 17.783 11.6247 17.5153 11.294 17.5153H5.53139Z" fill="#61C9E7"/>
<path d="M20.4248 17.5153H14.6623C14.3316 17.5153 14.0635 17.783 14.0635 18.1141C14.0635 18.4441 14.3316 18.7129 14.6623 18.7129H20.4248C20.7555 18.7129 21.0236 18.4441 21.0236 18.1141C21.0236 17.783 20.7555 17.5153 20.4248 17.5153Z" fill="#61C9E7"/>
</svg>
