<svg width="21" height="22" viewBox="0 0 21 22" fill="none" xmlns="http://www.w3.org/2000/svg">
<path d="M20.6478 9.28397C20.6478 8.09502 20.1024 6.99777 19.1513 6.27365C19.0491 6.19571 18.9746 6.08714 18.9389 5.96362C18.3914 4.07119 16.6315 2.74948 14.6592 2.74948C14.2959 2.74948 13.9339 2.79355 13.5832 2.88052C13.3412 2.9404 13.0873 2.84429 12.9459 2.63886C12.0255 1.30178 10.5085 0.503485 8.88809 0.503485C7.65592 0.503485 6.47686 0.960891 5.56817 1.79154C4.66517 2.61704 4.10401 3.73923 3.98824 4.95151C3.96813 5.16113 3.83946 5.34485 3.64929 5.43526C3.58995 5.46353 3.53029 5.49417 3.47191 5.52642C3.42203 5.55405 3.36839 5.57436 3.3126 5.58683C2.48184 5.77216 1.72719 6.23915 1.18775 6.90156C0.633375 7.58225 0.340332 8.40602 0.340332 9.28397C0.340332 11.3733 2.0499 13.0732 4.15121 13.0732H16.837C18.9383 13.0732 20.6478 11.3733 20.6478 9.28397Z" fill="#4492A8"/>
<path d="M5.71603 18.5195C5.77419 18.5195 5.83331 18.511 5.89168 18.4931C6.20784 18.3962 6.38565 18.0614 6.28868 17.7452L5.56779 15.3929C5.47093 15.0767 5.13607 14.8989 4.81991 14.9959C4.50375 15.0928 4.32605 15.4276 4.42291 15.7438L5.14381 18.0961C5.22282 18.3539 5.45986 18.5195 5.71603 18.5195Z" fill="#61C9E7"/>
<path d="M9.00128 21.3564C9.05944 21.3564 9.11845 21.348 9.17693 21.33C9.49309 21.2331 9.67079 20.8983 9.57393 20.5821L8.85304 18.2298C8.75618 17.9135 8.42143 17.7358 8.10516 17.8327C7.78901 17.9297 7.6112 18.2644 7.70806 18.5806L8.42906 20.933C8.50796 21.1907 8.74511 21.3564 9.00128 21.3564Z" fill="#61C9E7"/>
<path d="M13.1783 17.6823C12.8622 17.7792 12.6845 18.114 12.7813 18.4302L13.5022 20.7825C13.5812 21.0403 13.8183 21.2061 14.0744 21.2061C14.1326 21.2061 14.1917 21.1975 14.2501 21.1795C14.5662 21.0826 14.744 20.7478 14.6471 20.4316L13.9262 18.0793C13.8293 17.7632 13.4944 17.5853 13.1783 17.6823Z" fill="#61C9E7"/>
<path d="M10.7297 18.5195C10.7878 18.5195 10.8469 18.511 10.9054 18.4931C11.2216 18.3962 11.3993 18.0614 11.3024 17.7452L10.5815 15.3929C10.4846 15.0767 10.1497 14.8989 9.83362 14.9959C9.51747 15.0928 9.33966 15.4276 9.43662 15.7438L10.1575 18.0961C10.2365 18.3539 10.4736 18.5195 10.7297 18.5195Z" fill="#61C9E7"/>
<path d="M15.7434 18.5195C15.8015 18.5195 15.8606 18.511 15.9191 18.4931C16.2352 18.3962 16.4129 18.0614 16.3161 17.7452L15.5952 15.3929C15.4983 15.0767 15.1635 14.8989 14.8473 14.9959C14.5311 15.0928 14.3533 15.4276 14.4503 15.7438L15.1712 18.0961C15.2501 18.3539 15.4872 18.5195 15.7434 18.5195Z" fill="#61C9E7"/>
</svg>
