<svg width="25" height="16" viewBox="0 0 25 16" fill="none" xmlns="http://www.w3.org/2000/svg">
<path d="M9.27382 9.88718C9.27382 7.534 11.4031 5.61835 14.0202 5.61835C14.5855 5.61835 15.1336 5.70542 15.6553 5.8785C16.1956 5.32487 16.8982 4.92605 17.6743 4.72072C16.9829 3.3243 15.536 2.39657 13.9396 2.39657C13.6002 2.39657 13.2619 2.4385 12.9341 2.51912C12.6921 2.57932 12.4382 2.48364 12.2968 2.27832C11.4359 1.02702 10.0172 0.280972 8.50165 0.280972C7.34925 0.280972 6.24651 0.708821 5.39673 1.48497C4.55221 2.25682 4.02739 3.3071 3.91903 4.44015C3.89904 4.64978 3.77036 4.8336 3.58019 4.9239C3.52472 4.95078 3.46914 4.97872 3.41496 5.00882C3.36497 5.03677 3.31134 5.0572 3.25554 5.0701C2.48025 5.24317 1.77613 5.67855 1.2727 6.29668C0.755307 6.932 0.481934 7.70062 0.481934 8.51978C0.481934 10.4698 2.07724 12.0557 4.03825 12.0557H8.30826C8.42597 11.3277 8.75858 10.6429 9.27823 10.0699C9.27533 10.0087 9.27382 9.94845 9.27382 9.88718Z" fill="#61C9E7"/>
<path d="M22.1918 9.98758C21.8811 9.8747 21.7203 9.53178 21.8324 9.2211C21.9246 8.96525 21.9713 8.69973 21.9713 8.42991C21.9713 7.29363 21.1429 6.32075 19.9799 5.93805C19.6374 5.82518 19.2663 5.76176 18.8784 5.76176C18.6754 5.76176 18.4753 5.78003 18.2802 5.81335C17.4817 5.9488 16.7692 6.35301 16.3052 6.95178C16.1379 7.16678 15.846 7.24311 15.5953 7.13453C15.1033 6.92276 14.5733 6.81526 14.0201 6.81526C12.0633 6.81526 10.4713 8.19341 10.4713 9.88653C10.4713 9.99511 10.4782 10.1069 10.4918 10.2176C10.515 10.4047 10.4486 10.5917 10.3125 10.7218C9.91659 11.1034 9.64924 11.5628 9.52927 12.055C9.48208 12.2486 9.45703 12.4472 9.45703 12.6481C9.45703 12.8554 9.48305 13.0575 9.53143 13.2525C9.85382 14.553 11.1936 15.5312 12.7934 15.5312H20.9069C22.7464 15.5312 24.2431 14.2378 24.2431 12.6481C24.2431 11.4829 23.4379 10.438 22.1918 9.98758Z" fill="#4492A8"/>
</svg>
