<svg width="23" height="24" viewBox="0 0 23 24" fill="none" xmlns="http://www.w3.org/2000/svg">
<path d="M11.3626 17.9316C14.4649 17.9316 16.9888 15.4078 16.9888 12.3054C16.9888 9.20307 14.4649 6.67908 11.3626 6.67908C8.26032 6.67908 5.73633 9.20307 5.73633 12.3054C5.73633 15.4078 8.26032 17.9316 11.3626 17.9316Z" fill="#DEC60F"/>
<path d="M10.7642 4.13278C10.7642 4.46345 11.0323 4.73145 11.3628 4.73145C11.6935 4.73145 11.9616 4.46345 11.9616 4.13278V1.59642C11.9616 1.26586 11.6935 0.997752 11.3628 0.997752C11.0323 0.997752 10.7642 1.26586 10.7642 1.59642V4.13278Z" fill="#DEC60F"/>
<path d="M10.7642 20.4772V23.0135C10.7642 23.3442 11.0323 23.6123 11.3628 23.6123C11.6935 23.6123 11.9616 23.3442 11.9616 23.0135V20.4772C11.9616 20.1466 11.6935 19.8785 11.3628 19.8785C11.0323 19.8785 10.7642 20.1466 10.7642 20.4772Z" fill="#DEC60F"/>
<path d="M7.27667 5.82617C7.37837 5.82617 7.48124 5.80026 7.57552 5.74587C7.8619 5.58053 7.96005 5.21428 7.79472 4.9279L6.52654 2.73146C6.36121 2.44508 5.99495 2.34693 5.70868 2.51227C5.4223 2.6776 5.32415 3.04374 5.48949 3.33012L6.75767 5.52667C6.8685 5.71878 7.06974 5.82617 7.27667 5.82617Z" fill="#DEC60F"/>
<path d="M15.1495 18.8639C14.8632 19.0293 14.7651 19.3954 14.9304 19.6818L16.1986 21.8783C16.3095 22.0703 16.5107 22.1777 16.7177 22.1777C16.8192 22.1777 16.9222 22.1519 17.0165 22.0974C17.3029 21.9321 17.401 21.566 17.2357 21.2796L15.9675 19.083C15.8022 18.7968 15.4359 18.6986 15.1495 18.8639Z" fill="#DEC60F"/>
<path d="M1.57005 6.65104C1.40472 6.93742 1.50286 7.30367 1.78924 7.46901L3.98579 8.73708C4.08007 8.79158 4.18306 8.81738 4.28464 8.81738C4.49147 8.81738 4.69282 8.70999 4.80365 8.51799C4.96899 8.23161 4.87084 7.86536 4.58457 7.70003L2.38802 6.43196C2.10164 6.26662 1.73539 6.36466 1.57005 6.65104Z" fill="#DEC60F"/>
<path d="M20.936 17.1405L18.7396 15.8723C18.4533 15.7071 18.087 15.805 17.9216 16.0915C17.7563 16.3777 17.8544 16.744 18.1408 16.9093L20.3374 18.1775C20.4316 18.2319 20.5345 18.2578 20.6362 18.2578C20.843 18.2578 21.0444 18.1504 21.1552 17.9583C21.3205 17.672 21.2224 17.3058 20.936 17.1405Z" fill="#DEC60F"/>
<path d="M3.78897 12.3045C3.78897 11.9739 3.52087 11.7058 3.1902 11.7058H0.653948C0.323278 11.7058 0.0551758 11.9739 0.0551758 12.3045C0.0551758 12.6352 0.323278 12.9033 0.653948 12.9033H3.1902C3.52087 12.9033 3.78897 12.6352 3.78897 12.3045Z" fill="#DEC60F"/>
<path d="M22.0716 11.7058H19.5353C19.2046 11.7058 18.9365 11.9739 18.9365 12.3045C18.9365 12.6352 19.2046 12.9033 19.5353 12.9033H22.0716C22.4023 12.9033 22.6704 12.6352 22.6704 12.3045C22.6704 11.9739 22.4023 11.7058 22.0716 11.7058Z" fill="#DEC60F"/>
<path d="M3.98579 15.8723L1.78924 17.1405C1.50286 17.3058 1.40472 17.672 1.57005 17.9583C1.68099 18.1504 1.88223 18.2578 2.08917 18.2578C2.19076 18.2578 2.29374 18.2319 2.38802 18.1775L4.58457 16.9093C4.87084 16.744 4.96899 16.3777 4.80365 16.0915C4.63832 15.805 4.27206 15.7069 3.98579 15.8723Z" fill="#DEC60F"/>
<path d="M20.3374 6.43196L18.1408 7.70003C17.8544 7.86536 17.7563 8.23161 17.9216 8.51799C18.0326 8.70999 18.2338 8.81738 18.4407 8.81738C18.5423 8.81738 18.6453 8.79158 18.7396 8.73708L20.936 7.46901C21.2224 7.30367 21.3205 6.93742 21.1552 6.65104C20.9899 6.36466 20.6236 6.26662 20.3374 6.43196Z" fill="#DEC60F"/>
<path d="M6.75767 19.083L5.48949 21.2796C5.32415 21.566 5.4223 21.9322 5.70868 22.0974C5.80296 22.1519 5.90594 22.1777 6.00753 22.1777C6.21436 22.1777 6.41571 22.0703 6.52654 21.8783L7.79472 19.6818C7.96005 19.3954 7.8619 19.0292 7.57552 18.8639C7.28925 18.6986 6.923 18.7966 6.75767 19.083Z" fill="#DEC60F"/>
<path d="M15.1495 5.74587C15.2438 5.80026 15.3468 5.82617 15.4484 5.82617C15.6553 5.82617 15.8566 5.71878 15.9675 5.52667L17.2357 3.33013C17.401 3.04375 17.3029 2.6776 17.0165 2.51227C16.7302 2.34704 16.3639 2.44508 16.1986 2.73146L14.9304 4.9279C14.7651 5.21428 14.8632 5.58042 15.1495 5.74587Z" fill="#DEC60F"/>
</svg>
