<svg width="22" height="20" viewBox="0 0 22 20" fill="none" xmlns="http://www.w3.org/2000/svg">
<path d="M19.6806 6.27365C19.5784 6.19571 19.5039 6.08714 19.4682 5.96362C18.9206 4.07119 17.1607 2.74948 15.1884 2.74948C14.8252 2.74948 14.4631 2.79355 14.1124 2.88052C13.8708 2.9404 13.6165 2.84429 13.4752 2.63886C12.5547 1.30178 11.0377 0.503485 9.41739 0.503485C8.18511 0.503485 7.00605 0.960891 6.09746 1.79154C5.19435 2.61704 4.63331 3.73923 4.51743 4.95151C4.49743 5.16113 4.36864 5.34485 4.17848 5.43537C4.11924 5.46343 4.05969 5.49406 4.0011 5.52642C3.95122 5.55405 3.89758 5.57436 3.84179 5.58683C3.01114 5.77216 2.25649 6.23915 1.71705 6.90156C1.16267 7.58225 0.869629 8.40602 0.869629 9.28397C0.869629 11.3733 2.5792 13.0732 4.6805 13.0732H17.3661C19.4675 13.0732 21.177 11.3733 21.177 9.28397C21.177 8.09502 20.6316 6.99777 19.6806 6.27365Z" fill="#61C9E7"/>
<path d="M4.27792 15.5689C3.98272 15.5689 3.74332 15.8082 3.74332 16.1034V16.927L2.86784 16.6897C2.58275 16.6124 2.28928 16.7808 2.21209 17.0658C2.13491 17.3507 2.30325 17.6443 2.58813 17.7215L3.43039 17.9498L2.92138 18.7343C2.76066 18.9819 2.83118 19.3129 3.07886 19.4736C3.16873 19.532 3.26957 19.5598 3.36922 19.5598C3.54423 19.5598 3.7158 19.4739 3.81814 19.3161L4.28566 18.5957L4.79198 19.3494C4.89518 19.5031 5.06417 19.5859 5.23617 19.5859C5.33873 19.5859 5.44236 19.5565 5.53384 19.4951C5.77883 19.3304 5.84409 18.9983 5.6794 18.7532L5.13738 17.9465L5.96749 17.7215C6.25248 17.6443 6.42082 17.3507 6.34363 17.0658C6.26645 16.7808 5.97308 16.6125 5.68788 16.6897L4.81241 16.927V16.1034C4.81241 15.8082 4.57311 15.5689 4.27792 15.5689Z" fill="#61C9E7"/>
<path d="M11.0235 15.5689C10.7283 15.5689 10.489 15.8082 10.489 16.1034V16.927L9.61337 16.6897C9.32839 16.6124 9.03492 16.7808 8.95773 17.0658C8.88044 17.3507 9.04889 17.6443 9.33377 17.7215L10.176 17.9498L9.66702 18.7343C9.50631 18.9819 9.57682 19.3129 9.8244 19.4736C9.91437 19.532 10.0152 19.5598 10.1149 19.5598C10.2899 19.5598 10.4614 19.4739 10.5638 19.3161L11.0312 18.5957L11.5376 19.3494C11.6408 19.5031 11.8097 19.5859 11.9818 19.5859C12.0843 19.5859 12.1879 19.5565 12.2794 19.4951C12.5245 19.3304 12.5896 18.9983 12.425 18.7532L11.883 17.9465L12.7131 17.7215C12.998 17.6443 13.1665 17.3507 13.0893 17.0658C13.012 16.7808 12.7186 16.6125 12.4335 16.6897L11.5579 16.927V16.1034C11.5579 15.8082 11.3186 15.5689 11.0235 15.5689Z" fill="#61C9E7"/>
<path d="M17.7686 15.5689C17.4734 15.5689 17.2342 15.8082 17.2342 16.1034V16.927L16.3586 16.6897C16.0736 16.6124 15.7801 16.7808 15.7028 17.0658C15.6256 17.3507 15.794 17.6443 16.079 17.7215L16.9212 17.9498L16.4121 18.7343C16.2515 18.9819 16.3219 19.3129 16.5696 19.4736C16.6595 19.532 16.7603 19.5598 16.8601 19.5598C17.0351 19.5598 17.2065 19.4739 17.309 19.3161L17.7764 18.5957L18.2828 19.3494C18.386 19.5031 18.5549 19.5859 18.727 19.5859C18.8295 19.5859 18.9331 19.5565 19.0246 19.4951C19.2696 19.3304 19.3348 18.9983 19.1701 18.7532L18.6281 17.9465L19.4583 17.7215C19.7432 17.6443 19.9117 17.3507 19.8344 17.0658C19.7572 16.7808 19.4638 16.6125 19.1786 16.6897L18.3031 16.927V16.1034C18.3031 15.8082 18.0638 15.5689 17.7686 15.5689Z" fill="#61C9E7"/>
</svg>
