<svg width="377" height="143" viewBox="0 0 377 143" fill="none" xmlns="http://www.w3.org/2000/svg">
<g clip-path="url(#clip0_5604_61147)">
<path d="M136.835 6.41797L122.805 38.9275H137.114L151.179 6.41797H136.835Z" fill="#FA0339"/>
<path d="M119.004 6.41759L112.12 22.3563L105.235 6.41759H90.8915L92.3729 9.78924L80.0508 38.908H94.3598L99.693 26.6858L104.974 38.908H119.283L133.348 6.39844H119.004V6.41759Z" fill="#FA0339"/>
<path d="M269.782 12.318L254.898 0L251.953 6.76245H224.694H214.097H213.993C212.999 6.76245 212.058 7.04981 211.222 7.54789C210.071 8.21839 209.113 9.29119 208.538 10.6513L205.644 17.8544L201.217 28.295L200.485 29.9617C198.586 34.2146 201.409 39.1762 205.714 39.1762H230.114C232.502 39.1762 234.663 37.6628 235.674 35.2874L238.742 28.2567H238.707L242.837 19.023H228.197L224.206 28.2567H215.091L219.744 17.8736H247.125L244.197 24.5785L269.782 12.318Z" fill="#FA0339"/>
<path d="M172.232 17.5099C175.177 17.0118 176.537 16.8394 177.896 13.736L181.068 6.41797H154.768L150.062 17.5099H155.169L152.398 23.9467L145.932 38.9275H160.241L167.857 21.303C167.857 21.303 169.269 18.008 172.232 17.5099Z" fill="#FA0339"/>
<path d="M199.63 25.1161L200.85 22.2809L204.667 13.3728C207.141 6.4188 201.39 6.36133 201.39 6.36133H198.933H184.449L180.545 15.346H187.43C187.43 15.346 189.033 15.4993 188.928 16.9935C188.824 18.4878 187.656 18.6219 187.656 18.6219L183.229 18.8134C183.229 18.8134 181.068 18.7368 176.118 19.2349C172.075 19.8862 169.757 24.8862 169.757 24.8862L163.482 38.8518H177.791L181.033 31.1314C181.033 31.1123 181.051 31.0931 181.051 31.074C181.417 30.097 181.626 29.6947 182.114 29.6947C182.549 29.6947 182.95 31.0931 182.95 31.0931L185.234 38.8518H199.56L195.917 29.2924C198.166 28.277 199.63 25.1161 199.63 25.1161Z" fill="#FA0339"/>
<path d="M221.902 76.6471C223.541 68.1605 226.12 61.9728 229.693 58.1031C233.249 54.2142 238.896 52.2793 246.616 52.2793H244.525C236.804 52.2793 231.157 54.2142 227.602 58.1031C224.046 61.9919 221.449 68.1605 219.811 76.6471C219.375 78.8693 219.114 80.9191 218.957 82.8157H221.048C221.205 80.9191 221.484 78.8693 221.902 76.6471Z" fill="#FA0339"/>
<path d="M263.712 35.3633H261.621L258.379 52.279H260.453L263.712 35.3633Z" fill="#FA0339"/>
<path d="M221.396 91.6855H219.305C220.838 100.555 226.119 105 235.217 105H237.309C228.211 105 222.912 100.555 221.396 91.6855Z" fill="#FA0339"/>
<path d="M253.222 89.5789L258.294 63.7168H256.203L251.131 89.5789C250.834 91.1114 250.381 92.1459 249.771 92.7206C249.161 93.2762 248.168 93.5635 246.791 93.5635H248.882C250.277 93.5635 251.27 93.2762 251.863 92.7206C252.473 92.1459 252.926 91.1114 253.222 89.5789Z" fill="#FA0339"/>
<path d="M276.122 44.2344L266.345 95.0581C265.683 98.4489 264.497 100.939 262.772 102.568C261.047 104.196 258.572 105.001 255.312 105.001H257.596C260.855 105.001 263.347 104.196 265.055 102.568C266.781 100.939 267.966 98.4489 268.628 95.0581L278.406 44.2344H276.122Z" fill="#00EDE6"/>
<path d="M237.273 91.6855C238.511 92.9308 240.358 93.5629 242.816 93.5629H245.099C242.642 93.5629 240.794 92.9308 239.557 91.6855H237.273Z" fill="#00EDE6"/>
<path d="M238.584 78.6382C239.49 74.0022 240.797 70.3432 242.523 67.6995C244.248 65.0558 246.967 63.7148 250.714 63.7148H248.431C244.684 63.7148 241.965 65.0367 240.24 67.6995C238.514 70.3432 237.207 74.0022 236.301 78.6382C235.987 80.1708 235.76 81.5693 235.604 82.8145H237.887C238.061 81.5501 238.288 80.1708 238.584 78.6382Z" fill="#00EDE6"/>
<path d="M266.349 95.0568L276.126 44.233H278.41H283.969V35.3633H280.118H277.834H275.743H275.098H266H264.292H263.717L260.458 52.279H258.367H248.903H246.62C238.899 52.279 233.252 54.2139 229.696 58.1027C226.141 61.9916 223.544 68.1602 221.906 76.6468C221.47 78.869 221.208 80.9188 221.052 82.8154H218.96H218.176V91.6851H219.291H221.383C222.916 100.555 228.197 104.999 237.295 104.999H239.578H253.208H255.299C258.558 104.999 261.051 104.195 262.759 102.566C264.501 100.938 265.687 98.4284 266.349 95.0568ZM246.794 93.5625H245.103H242.82C240.363 93.5625 238.515 92.9303 237.278 91.6851H234.733H232.189V82.8154H234.733H235.622C235.779 81.5702 236.005 80.1717 236.319 78.6391C237.225 74.0031 238.533 70.3441 240.258 67.7004C241.983 65.0568 244.702 63.7158 248.45 63.7158H250.733H256.205H258.297L253.225 89.5778C252.929 91.1104 252.476 92.1449 251.866 92.7196C251.256 93.2752 250.262 93.5625 248.885 93.5625H246.794Z" fill="white"/>
<path d="M24.0009 40.6504H21.3691V49.5201H24.0009V40.6504Z" fill="#00EDE6"/>
<path d="M13.2814 40.6504H10.3359V49.5201H13.2814V40.6504Z" fill="#FA0339"/>
<path d="M15.9286 49.5201H18.4035H21.3664V40.6504H18.4035H15.9286H13.2969V49.5201H15.9286Z" fill="white"/>
<path d="M61.3138 36.264C59.571 35.1337 57.1135 34.5781 53.9763 34.5781C53.558 34.5781 53.192 34.6164 52.8086 34.6356C55.4055 34.7505 57.4969 35.2869 59.0132 36.2831C60.7561 37.4134 61.9413 39.559 62.5513 42.7582L74.2285 105.038H76.5117L64.8344 42.7199C64.2244 39.5398 63.0567 37.3942 61.3138 36.264Z" fill="#00EDE6"/>
<path d="M19.9199 105H22.2031L30.9872 89.0801H28.704L19.9199 105Z" fill="#00EDE6"/>
<path d="M48.136 53.4662C48.0837 53.198 48.0489 52.9682 47.9966 52.7383C47.8746 52.9682 47.7352 53.1789 47.5957 53.4662L35.291 75.5544H37.5742L48.5369 55.88L48.136 53.4662Z" fill="#00EDE6"/>
<path d="M121.059 63.7161L123.237 52.2793H120.937L118.775 63.7161H121.059Z" fill="#00EDE6"/>
<path d="M103.613 66.9907C101.661 69.1746 100.18 72.757 99.221 77.7378L95.6133 96.1286H96.3801H97.8964L101.504 77.7378C102.463 72.757 103.927 69.1746 105.896 66.9907C107.848 64.8068 111.038 63.7148 115.447 63.7148H113.164C108.755 63.7148 105.565 64.8068 103.613 66.9907Z" fill="#00EDE6"/>
<path d="M161.25 104.997L163.516 93.5605H161.233L158.967 104.997H161.25Z" fill="#00EDE6"/>
<path d="M141.293 67.4505C143.315 64.9601 146.504 63.7148 150.844 63.7148H148.561C144.221 63.7148 141.032 64.9601 139.01 67.4505C136.988 69.9409 135.489 73.6765 134.531 78.6382C134.043 81.167 133.799 83.3125 133.799 85.1133C133.799 87.8911 134.479 89.9984 135.838 91.4352C137.197 92.8528 139.498 93.5807 142.757 93.5807H145.04C141.781 93.5807 139.481 92.8719 138.121 91.4352C136.762 90.0175 136.082 87.9102 136.082 85.1133C136.082 83.3317 136.326 81.167 136.814 78.6382C137.773 73.6574 139.271 69.9217 141.293 67.4505Z" fill="#00EDE6"/>
<path d="M168.311 63.7161L170.489 52.2793H168.189L166.027 63.7161H168.311Z" fill="#00EDE6"/>
<path d="M322.903 55.2105C319.155 52.8541 313.665 51.6855 306.432 51.6855C305.909 51.6855 305.421 51.7047 304.916 51.7047C311.766 51.7813 317.012 52.9499 320.602 55.2105C324.349 57.5668 326.214 61.6855 326.214 67.5859C326.214 69.4442 325.918 71.858 325.308 74.8465C324.698 77.9691 323.669 80.2296 322.188 81.6664C320.706 83.084 318.545 83.812 315.722 83.812H318.005C320.846 83.812 322.99 83.1032 324.471 81.6664C325.953 80.2488 326.998 77.9691 327.591 74.8465C328.201 71.858 328.497 69.4442 328.497 67.5859C328.515 61.6855 326.632 57.5668 322.903 55.2105Z" fill="#00EDE6"/>
<path d="M319.818 104.999L321.997 93.8496H319.696L317.535 104.999H319.818Z" fill="#00EDE6"/>
<path d="M288.287 87.5864C288.287 89.7129 288.897 91.2838 290.1 92.3182C291.302 93.3527 293.394 93.8508 296.339 93.8508H298.622C295.659 93.8508 293.585 93.3336 292.383 92.3182C291.18 91.2838 290.57 89.7129 290.57 87.5864C290.57 86.3221 290.692 85.0577 290.936 83.8125H288.653C288.409 85.0769 288.287 86.3221 288.287 87.5864Z" fill="#00EDE6"/>
<path d="M296.918 65.057C298.312 63.9075 300.282 63.1987 302.809 62.9497C302.512 62.9114 302.199 62.8922 301.885 62.873C298.713 63.0071 296.273 63.716 294.635 65.057C292.822 66.5512 291.532 69.214 290.748 73.0646H293.031C293.816 69.214 295.105 66.5512 296.918 65.057Z" fill="#00EDE6"/>
<path d="M13.2982 84.4238H11.747L0 104.999H2.09145L13.8384 84.4238H13.2982Z" fill="#FA0339"/>
<path d="M37.6632 42.7195C39.3538 39.8076 41.2012 37.7195 43.1881 36.4551C44.9833 35.3249 47.4756 34.731 50.6302 34.6161C50.2816 34.5969 49.9679 34.5586 49.6019 34.5586C45.9244 34.5586 43.0835 35.1908 41.0966 36.4551C39.1098 37.7195 37.2623 39.8076 35.5717 42.7195L16.8184 75.5547H18.9098L37.6632 42.7195Z" fill="#FA0339"/>
<path d="M49.4293 51.2832C49.0284 51.2832 48.5579 51.7813 48.0176 52.7391C48.0699 52.969 48.1047 53.1798 48.157 53.4671L48.5753 55.8809L51.9565 75.5552H54.0479L50.2485 53.4671C50.0045 52.0112 49.7256 51.2832 49.4293 51.2832Z" fill="#FA0339"/>
<path d="M53.3164 89.0801L55.9307 105H58.0222L55.3904 89.0801H53.3164Z" fill="#FA0339"/>
<path d="M81.6534 84.4238L77.6797 104.999H79.7711L83.7449 84.4238H81.6534Z" fill="#FA0339"/>
<path d="M85.4528 75.5552L85.9059 73.1605C87.4048 65.1337 90.1063 59.6548 93.958 56.7046C97.8098 53.7544 103.648 52.2793 111.422 52.2793H109.33C101.54 52.2793 95.7183 53.7544 91.8666 56.7046C87.9974 59.6548 85.3133 65.1529 83.8145 73.1605L83.3613 75.5552H84.6336H85.4528Z" fill="#FA0339"/>
<path d="M119.232 86.3007C119.232 83.1781 119.528 79.9597 120.138 76.6455C120.87 72.4693 121.777 68.9827 122.857 66.2049C123.938 63.4271 125.419 60.9176 127.302 58.6953C129.166 56.4731 131.589 54.8448 134.535 53.8294C137.497 52.795 141.088 52.2969 145.306 52.2969H143.214C138.996 52.2969 135.406 52.8141 132.443 53.8294C129.48 54.8639 127.075 56.4731 125.21 58.6953C123.345 60.9176 121.864 63.4271 120.766 66.2049C119.685 68.9827 118.779 72.4693 118.047 76.6455C117.437 79.9597 117.141 83.1781 117.141 86.3007C117.141 92.3352 118.413 96.9712 120.94 100.17C123.467 103.389 127.79 104.998 133.89 104.998H135.981C129.881 104.998 125.576 103.389 123.032 100.17C120.504 96.952 119.232 92.3352 119.232 86.3007Z" fill="#FA0339"/>
<path d="M194.853 82.8145V91.6842H197.398V82.8145H188.648H194.853Z" fill="#FA0339"/>
<path d="M166.185 92.0684C166.185 90.2676 166.342 88.2944 166.638 86.0913C167.423 81.1871 169.044 77.6239 171.484 75.4017C173.924 73.1795 177.357 72.0684 181.749 72.0684H179.658C175.248 72.0684 171.832 73.1795 169.392 75.4017C166.952 77.6239 165.331 81.1871 164.547 86.0913C164.251 88.2753 164.094 90.2676 164.094 92.0684C164.094 96.053 165.052 99.1948 166.952 101.513C168.852 103.831 171.553 104.999 175.056 104.999H177.148C173.645 104.999 170.943 103.831 169.044 101.513C167.126 99.1948 166.185 96.0339 166.185 92.0684Z" fill="#FA0339"/>
<path d="M174.952 52.2793L172.773 63.4096H174.865L177.043 52.2793H174.952Z" fill="#FA0339"/>
<path d="M199.683 91.6855H197.592C196.982 93.3905 195.779 94.2526 193.967 94.2526H196.058C197.853 94.2526 199.073 93.3905 199.683 91.6855Z" fill="#FA0339"/>
<path d="M204.005 69.7879C204.127 68.8683 204.179 68.2553 204.179 68.0063C204.179 64.9603 202.488 63.4277 199.107 63.4277H197.016C200.397 63.4277 202.087 64.9603 202.087 68.0063C202.087 68.2745 202.018 68.8683 201.913 69.7879L201.46 72.0676H203.551L204.005 69.7879Z" fill="#FA0339"/>
<path d="M311.556 69.8854C311.678 69.2149 311.73 68.7551 311.73 68.4869C311.73 66.4946 310.859 65.0578 309.098 64.1574C307.355 63.257 305.264 62.8164 302.859 62.8164C302.51 62.8164 302.214 62.8547 301.883 62.8739C302.197 62.893 302.51 62.9122 302.807 62.9505C304.375 63.1421 305.787 63.5252 307.024 64.1574C308.767 65.0578 309.656 66.4946 309.656 68.4869C309.656 68.7551 309.586 69.2149 309.482 69.8854C309.063 72.0118 307.965 73.0654 306.223 73.0654H308.314C310.039 73.0654 311.137 72.0118 311.556 69.8854Z" fill="#FA0339"/>
<path d="M273.826 88.8886C273.826 85.1721 274.366 80.7085 275.447 75.4595C276.353 71.1491 277.329 67.6242 278.392 64.8656C279.455 62.107 280.658 59.8465 282.017 58.0457C283.377 56.2641 285.137 54.9039 287.316 54.0227C289.494 53.1223 291.83 52.5093 294.322 52.1836C296.518 51.8963 299.359 51.743 302.758 51.7047C302.514 51.7047 302.287 51.6855 302.043 51.6855C298 51.6855 294.723 51.858 292.231 52.1836C289.721 52.5093 287.385 53.1223 285.224 54.0227C283.046 54.9231 281.285 56.2641 279.926 58.0457C278.566 59.8465 277.364 62.107 276.301 64.8656C275.238 67.6242 274.262 71.1491 273.355 75.4595C272.275 80.7085 271.734 85.1721 271.734 88.8886C271.734 94.3867 273.059 98.448 275.708 101.073C278.357 103.697 282.558 105 288.292 105H290.383C284.649 105 280.449 103.697 277.8 101.073C275.15 98.448 273.826 94.3867 273.826 88.8886Z" fill="#FA0339"/>
<path d="M59.0142 36.2636C57.4804 35.2866 55.389 34.7502 52.8095 34.6161C52.4435 34.5969 52.0775 34.5586 51.6941 34.5586C51.3106 34.5586 50.9795 34.5969 50.6309 34.6161C47.4763 34.731 44.984 35.3249 43.1888 36.4551C41.202 37.7195 39.3545 39.8076 37.6639 42.7195L18.9106 75.5547H16.8191H13.2985H5.87384V84.4245H11.7473H13.2811H13.8388L2.0918 104.999H4.37497H17.83H19.9214L28.7055 89.0797H30.9887H53.3149H55.4064L58.0381 104.999H60.3213H72.138H74.2295L62.5522 42.7195C61.9422 39.5394 60.757 37.3938 59.0142 36.2636ZM51.9555 75.5547H37.5942H35.311L47.6157 53.4666C47.7552 53.1984 47.8772 52.9686 48.0166 52.7387C48.5743 51.7808 49.0449 51.2827 49.4283 51.2827C49.7246 51.2827 50.0035 52.0107 50.2475 53.4666L54.047 75.5547H51.9555Z" fill="white"/>
<path d="M120.938 52.2793H118.847H113.723H111.44C103.649 52.2793 97.8277 53.7544 93.9759 56.7046C90.1067 59.6548 87.4227 65.1529 85.9238 73.1605L85.4707 75.5552H84.6515H83.3792H81.1658V84.4249H81.6538H83.7452L79.7715 105H82.0547H83.6232H91.7799H93.8714H96.1545H96.3811H99.1523V96.1299H97.8974H96.3811H95.6142L99.222 77.7391C100.181 72.7582 101.645 69.1758 103.614 66.9919C105.566 64.808 108.756 63.7161 113.165 63.7161H115.448H116.686H118.777L120.938 52.2793Z" fill="white"/>
<path d="M135.842 91.4169C134.483 89.9992 133.803 87.8919 133.803 85.095C133.803 83.3134 134.047 81.1487 134.535 78.6199C135.493 73.6391 136.992 69.9226 139.014 67.4322C141.036 64.9418 144.225 63.6965 148.565 63.6965H150.848H163.937H166.029L168.207 52.2598H166.116H147.589H145.306C141.088 52.2598 137.498 52.777 134.535 53.7923C131.572 54.8268 129.167 56.436 127.302 58.6582C125.437 60.8805 123.956 63.39 122.858 66.1678C121.777 68.9456 120.871 72.4322 120.139 76.6084C119.529 79.9226 119.232 83.141 119.232 86.2636C119.232 92.2981 120.505 96.9341 123.032 100.133C125.559 103.352 129.881 104.961 135.981 104.961H138.265H156.879H158.97L161.236 93.5241H159.144H145.062H142.779C139.502 93.5624 137.201 92.8345 135.842 91.4169Z" fill="white"/>
<path d="M325.309 74.8465C325.919 71.858 326.215 69.4442 326.215 67.5859C326.215 61.6855 324.35 57.5476 320.603 55.2105C316.995 52.9499 311.767 51.7813 304.917 51.7047C304.656 51.7047 304.412 51.6855 304.133 51.6855C303.645 51.6855 303.209 51.7047 302.756 51.7047C299.357 51.743 296.516 51.8963 294.32 52.1836C291.811 52.5093 289.475 53.1223 287.314 54.0227C285.135 54.9231 283.375 56.2641 282.016 58.0457C280.656 59.8465 279.454 62.107 278.391 64.8656C277.327 67.6242 276.351 71.1491 275.445 75.4595C274.364 80.7085 273.824 85.1721 273.824 88.8886C273.824 94.3867 275.149 98.448 277.798 101.073C280.447 103.697 284.647 105 290.382 105H292.665H315.427H317.518L319.697 93.8503H317.605H298.643H296.36C293.397 93.8503 291.323 93.3331 290.12 92.3177C288.918 91.2832 288.308 89.7124 288.308 87.5859C288.308 86.3216 288.43 85.0572 288.674 83.812H290.957H313.632H315.723C318.564 83.812 320.708 83.1032 322.189 81.6664C323.67 80.2488 324.716 77.9691 325.309 74.8465ZM306.207 73.0649H293.031H290.748C291.532 69.2143 292.822 66.5514 294.634 65.0572C296.272 63.7162 298.713 63.0074 301.885 62.8733C302.216 62.8541 302.512 62.8158 302.861 62.8158C305.266 62.8158 307.357 63.2564 309.1 64.1568C310.843 65.0572 311.732 66.494 311.732 68.4863C311.732 68.7545 311.662 69.2143 311.557 69.8848C311.139 72.0112 310.041 73.0649 308.298 73.0649H306.207Z" fill="white"/>
<path d="M323.306 35.3633H320.674V44.233H323.306V35.3633Z" fill="#00EDE6"/>
<path d="M312.584 35.3633H309.639V44.233H312.584V35.3633Z" fill="#FA0339"/>
<path d="M315.233 44.233H317.726H320.671V35.3633H317.726H315.233H312.602V44.233H315.233Z" fill="white"/>
<path d="M234.713 82.8145H232.186V91.6842H234.713V82.8145Z" fill="#00EDE6"/>
<path d="M218.573 64.9034C218.573 66.2253 218.451 67.5854 218.207 68.9839L215.558 82.8153H217.841L220.49 68.9839C220.734 67.5854 220.856 66.2253 220.856 64.9034C220.856 61.1295 219.828 58.0644 217.772 55.7464C215.715 53.4283 212.77 52.2598 208.9 52.2598H206.617C210.486 52.2598 213.432 53.4283 215.488 55.7464C217.562 58.0835 218.573 61.1295 218.573 64.9034Z" fill="#00EDE6"/>
<path d="M213.888 91.6855L213.243 95.0572C212.581 98.448 211.396 100.938 209.67 102.567C207.945 104.195 205.453 105 202.211 105H204.494C207.753 105 210.246 104.195 211.954 102.567C213.679 100.938 214.864 98.448 215.527 95.0572L216.171 91.6855H215.631H213.888Z" fill="#00EDE6"/>
<path d="M182.949 90.5727C182.949 89.5191 183.106 88.3888 183.402 87.1819C183.821 85.4578 184.448 84.2892 185.25 83.6953C186.069 83.1014 187.202 82.7949 188.648 82.7949H186.365C184.919 82.7949 183.786 83.1014 182.967 83.6953C182.147 84.2892 181.537 85.4578 181.119 87.1819C180.823 88.3696 180.666 89.4999 180.666 90.5727C180.666 93.0248 181.781 94.2509 184.012 94.2509H186.296C184.065 94.2509 182.949 93.0248 182.949 90.5727Z" fill="#00EDE6"/>
<path d="M213.239 95.0567L213.884 91.6851H212.804V82.8153H215.575L218.224 68.9839C218.468 67.5854 218.59 66.2253 218.59 64.9034C218.59 61.1295 217.562 58.0644 215.505 55.7464C213.448 53.4283 210.503 52.2598 206.634 52.2598H179.323H177.04L174.861 63.4092H177.144H197.013H199.105C202.486 63.4092 204.176 64.9418 204.176 67.9877C204.176 68.2559 204.107 68.8498 204.002 69.7693L203.549 72.049H201.457H184.029H181.746C177.336 72.049 173.92 73.1601 171.48 75.3824C169.04 77.6046 167.419 81.1678 166.635 86.072C166.339 88.2559 166.182 90.2483 166.182 92.049C166.182 96.0337 167.14 99.1755 169.04 101.493C170.94 103.811 173.641 104.98 177.144 104.98H179.428H200.115H202.207C205.466 104.98 207.958 104.175 209.666 102.547C211.392 100.938 212.577 98.4283 213.239 95.0567ZM193.963 94.2521H186.312H184.029C181.798 94.2521 180.682 93.0261 180.682 90.5739C180.682 89.5203 180.839 88.39 181.136 87.1831C181.554 85.459 182.181 84.2904 182.983 83.6965C183.802 83.1027 184.935 82.7962 186.382 82.7962H188.665H197.414V91.6659H197.606H199.697C199.087 93.3709 197.885 94.2329 196.072 94.2329H193.963V94.2521Z" fill="white"/>
<path d="M215.645 82.8145V91.6842H216.167H218.172V82.8145H215.645Z" fill="#FA0339"/>
<path d="M81.1637 75.5547H78.6191V84.4244H81.1637V75.5547Z" fill="#FA0339"/>
<path d="M5.87242 75.5547H3.51953V84.4244H5.87242V75.5547Z" fill="#FA0339"/>
<path d="M101.525 96.1289H99.1719V104.999H101.525V96.1289Z" fill="#00EDE6"/>
<path d="M286.337 35.3633H283.984V44.233H286.337V35.3633Z" fill="#00EDE6"/>
</g>
<path d="M162.473 132L175.049 111.968C175.646 111.029 176.297 110.357 177.001 109.952C177.705 109.547 178.708 109.344 180.009 109.344C181.118 109.344 181.982 109.525 182.601 109.888C183.22 110.251 183.636 110.944 183.849 111.968L187.977 132H182.249L181.321 126.88H171.881L168.777 132H162.473ZM178.569 115.424L174.217 122.528H180.841L179.497 115.424C179.412 114.955 179.316 114.72 179.209 114.72C179.038 114.72 178.825 114.955 178.569 115.424ZM188.963 132L193.731 109.6H198.723L193.955 132H188.963ZM203.434 115.04H209.77C211.968 115.04 213.493 115.573 214.346 116.64C215.2 117.707 215.626 119.243 215.626 121.248C215.626 121.931 215.509 122.901 215.274 124.16C214.698 126.997 213.781 129.013 212.522 130.208C211.285 131.403 209.269 132 206.474 132H201.61L200.458 137.44H195.498L199.562 118.24C200.032 116.107 201.322 115.04 203.434 115.04ZM204.202 119.936L202.41 128.32H205.93C207.232 128.32 208.181 127.893 208.778 127.04C209.397 126.187 209.866 125.013 210.186 123.52C210.4 122.56 210.506 121.771 210.506 121.152C210.506 120.363 210.314 119.765 209.93 119.36C209.546 118.933 208.874 118.72 207.914 118.72H205.738C205.269 118.72 204.917 118.816 204.682 119.008C204.448 119.179 204.288 119.488 204.202 119.936ZM215.775 132L220.543 109.6H225.535L224.383 115.04H229.023C230.815 115.04 232.255 115.445 233.343 116.256C234.453 117.067 235.007 118.219 235.007 119.712C235.007 120.096 234.954 120.576 234.847 121.152L232.543 132H227.551L229.599 122.432C229.706 121.899 229.759 121.429 229.759 121.024C229.759 120.235 229.525 119.659 229.055 119.296C228.607 118.912 227.882 118.72 226.879 118.72H223.615L220.767 132H215.775ZM239.564 115.04H250.028C251.393 115.04 252.439 115.413 253.164 116.16C253.889 116.907 254.252 117.888 254.252 119.104C254.252 119.531 254.209 119.968 254.124 120.416L252.364 128.8C252.129 129.888 251.703 130.699 251.084 131.232C250.487 131.744 249.612 132 248.46 132H239.596C238.359 132 237.399 131.627 236.716 130.88C236.055 130.133 235.724 129.12 235.724 127.84C235.724 127.264 235.777 126.624 235.884 125.92C236.161 124.341 236.727 123.2 237.58 122.496C238.455 121.771 239.671 121.408 241.228 121.408H248.94L249.1 120.672C249.143 120.373 249.164 120.181 249.164 120.096C249.164 119.115 248.567 118.624 247.372 118.624H238.796L239.564 115.04ZM248.204 124.864H242.86C242.348 124.864 241.943 124.96 241.644 125.152C241.367 125.344 241.153 125.717 241.004 126.272C240.897 126.656 240.844 127.019 240.844 127.36C240.844 128.149 241.239 128.544 242.028 128.544H246.284C247.031 128.544 247.489 128.171 247.66 127.424L248.204 124.864ZM280.719 132H265.327C264.452 132 263.769 131.776 263.279 131.328C262.809 130.88 262.575 130.272 262.575 129.504C262.575 129.205 262.607 128.896 262.671 128.576L266.703 109.6H272.463L268.975 126.016C268.932 126.315 268.911 126.517 268.911 126.624C268.911 126.965 269.007 127.2 269.199 127.328C269.391 127.456 269.711 127.52 270.159 127.52H281.679L280.719 132ZM286.658 115.04H297.122C298.487 115.04 299.533 115.413 300.258 116.16C300.983 116.907 301.346 117.888 301.346 119.104C301.346 119.531 301.303 119.968 301.218 120.416L299.458 128.8C299.223 129.888 298.797 130.699 298.178 131.232C297.581 131.744 296.706 132 295.554 132H286.69C285.453 132 284.493 131.627 283.81 130.88C283.149 130.133 282.818 129.12 282.818 127.84C282.818 127.264 282.871 126.624 282.978 125.92C283.255 124.341 283.821 123.2 284.674 122.496C285.549 121.771 286.765 121.408 288.322 121.408H296.034L296.194 120.672C296.237 120.373 296.258 120.181 296.258 120.096C296.258 119.115 295.661 118.624 294.466 118.624H285.89L286.658 115.04ZM295.298 124.864H289.954C289.442 124.864 289.037 124.96 288.738 125.152C288.461 125.344 288.247 125.717 288.098 126.272C287.991 126.656 287.938 127.019 287.938 127.36C287.938 128.149 288.333 128.544 289.122 128.544H293.378C294.125 128.544 294.583 128.171 294.754 127.424L295.298 124.864ZM322.072 115.04L319.16 128.8C318.925 129.931 318.509 130.752 317.912 131.264C317.314 131.755 316.429 132 315.256 132H308.408C306.637 132 305.218 131.605 304.152 130.816C303.106 130.027 302.584 128.896 302.584 127.424C302.584 126.891 302.637 126.389 302.744 125.92L305.048 115.04H310.04L307.992 124.64C307.885 125.216 307.832 125.675 307.832 126.016C307.832 126.827 308.066 127.424 308.536 127.808C309.005 128.171 309.752 128.352 310.776 128.352H313.112C313.858 128.352 314.306 127.979 314.456 127.232L317.048 115.04H322.072ZM321.15 132L324.094 118.24C324.329 117.088 324.734 116.267 325.31 115.776C325.908 115.285 326.793 115.04 327.966 115.04H334.558C336.329 115.04 337.737 115.435 338.782 116.224C339.849 117.013 340.382 118.155 340.382 119.648C340.382 120.117 340.329 120.619 340.222 121.152L337.918 132H332.926L334.974 122.432C335.081 121.899 335.134 121.429 335.134 121.024C335.134 120.235 334.9 119.659 334.43 119.296C333.982 118.912 333.257 118.72 332.254 118.72H330.11C329.342 118.72 328.884 119.093 328.734 119.84L326.142 132H321.15ZM355.723 132H347.595C345.44 132 343.915 131.488 343.019 130.464C342.123 129.419 341.675 127.925 341.675 125.984C341.675 124.981 341.782 123.947 341.995 122.88C342.251 121.536 342.571 120.416 342.955 119.52C343.339 118.624 343.862 117.824 344.523 117.12C345.184 116.395 346.038 115.872 347.083 115.552C348.128 115.211 349.398 115.04 350.891 115.04H358.987L358.219 118.72H352.043C350.507 118.72 349.376 119.125 348.651 119.936C347.947 120.725 347.424 121.92 347.083 123.52C346.912 124.331 346.827 125.024 346.827 125.6C346.827 126.496 347.062 127.179 347.531 127.648C348.022 128.096 348.843 128.32 349.995 128.32H356.523L355.723 132ZM357.65 132L362.418 109.6H367.41L366.258 115.04H370.898C372.69 115.04 374.13 115.445 375.218 116.256C376.328 117.067 376.882 118.219 376.882 119.712C376.882 120.096 376.829 120.576 376.722 121.152L374.418 132H369.426L371.474 122.432C371.581 121.899 371.634 121.429 371.634 121.024C371.634 120.235 371.4 119.659 370.93 119.296C370.482 118.912 369.757 118.72 368.754 118.72H365.49L362.642 132H357.65Z" fill="white"/>
<path d="M162.473 132L162.049 131.734L161.569 132.5H162.473V132ZM175.049 111.968L174.627 111.7L174.625 111.702L175.049 111.968ZM182.601 109.888L182.854 109.457V109.457L182.601 109.888ZM183.849 111.968L184.339 111.867L184.338 111.866L183.849 111.968ZM187.977 132V132.5H188.59L188.467 131.899L187.977 132ZM182.249 132L181.757 132.089L181.831 132.5H182.249V132ZM181.321 126.88L181.813 126.791L181.738 126.38H181.321V126.88ZM171.881 126.88V126.38H171.599L171.453 126.621L171.881 126.88ZM168.777 132V132.5H169.058L169.204 132.259L168.777 132ZM178.569 115.424L178.995 115.685L179.002 115.674L179.008 115.663L178.569 115.424ZM174.217 122.528L173.791 122.267L173.324 123.028H174.217V122.528ZM180.841 122.528V123.028H181.444L181.332 122.435L180.841 122.528ZM179.497 115.424L179.005 115.513L179.006 115.517L179.497 115.424ZM162.896 132.266L175.472 112.234L174.625 111.702L162.049 131.734L162.896 132.266ZM175.471 112.236C176.04 111.342 176.637 110.738 177.25 110.385L176.751 109.519C175.956 109.976 175.252 110.717 174.627 111.7L175.471 112.236ZM177.25 110.385C177.846 110.042 178.748 109.844 180.009 109.844V108.844C178.667 108.844 177.564 109.051 176.751 109.519L177.25 110.385ZM180.009 109.844C181.074 109.844 181.837 110.02 182.348 110.319L182.854 109.457C182.127 109.031 181.163 108.844 180.009 108.844V109.844ZM182.348 110.319C182.798 110.583 183.161 111.12 183.359 112.07L184.338 111.866C184.11 110.768 183.641 109.918 182.854 109.457L182.348 110.319ZM183.359 112.069L187.487 132.101L188.467 131.899L184.339 111.867L183.359 112.069ZM187.977 131.5H182.249V132.5H187.977V131.5ZM182.741 131.911L181.813 126.791L180.829 126.969L181.757 132.089L182.741 131.911ZM181.321 126.38H171.881V127.38H181.321V126.38ZM171.453 126.621L168.349 131.741L169.204 132.259L172.308 127.139L171.453 126.621ZM168.777 131.5H162.473V132.5H168.777V131.5ZM178.143 115.163L173.791 122.267L174.643 122.789L178.995 115.685L178.143 115.163ZM174.217 123.028H180.841V122.028H174.217V123.028ZM181.332 122.435L179.988 115.331L179.006 115.517L180.35 122.621L181.332 122.435ZM179.989 115.335C179.944 115.09 179.892 114.873 179.824 114.707C179.79 114.626 179.741 114.525 179.665 114.437C179.589 114.349 179.437 114.22 179.209 114.22V115.22C179.034 115.22 178.934 115.12 178.908 115.091C178.883 115.061 178.883 115.049 178.898 115.085C178.926 115.154 178.964 115.289 179.005 115.513L179.989 115.335ZM179.209 114.22C178.901 114.22 178.678 114.42 178.551 114.56C178.405 114.72 178.266 114.935 178.13 115.185L179.008 115.663C179.128 115.443 179.223 115.307 179.291 115.232C179.324 115.196 179.339 115.187 179.334 115.191C179.327 115.194 179.283 115.22 179.209 115.22V114.22ZM188.963 132L188.474 131.896L188.345 132.5H188.963V132ZM193.731 109.6V109.1H193.326L193.242 109.496L193.731 109.6ZM198.723 109.6L199.212 109.704L199.341 109.1H198.723V109.6ZM193.955 132V132.5H194.36L194.444 132.104L193.955 132ZM189.452 132.104L194.22 109.704L193.242 109.496L188.474 131.896L189.452 132.104ZM193.731 110.1H198.723V109.1H193.731V110.1ZM198.234 109.496L193.466 131.896L194.444 132.104L199.212 109.704L198.234 109.496ZM193.955 131.5H188.963V132.5H193.955V131.5ZM214.346 116.64L214.737 116.328L214.346 116.64ZM215.274 124.16L215.764 124.259L215.766 124.252L215.274 124.16ZM212.522 130.208L212.178 129.845L212.175 129.848L212.522 130.208ZM201.61 132V131.5H201.205L201.121 131.896L201.61 132ZM200.458 137.44V137.94H200.864L200.948 137.544L200.458 137.44ZM195.498 137.44L195.009 137.336L194.881 137.94H195.498V137.44ZM199.562 118.24L199.074 118.133L199.073 118.136L199.562 118.24ZM204.202 119.936L204.691 120.041L204.694 120.03L204.202 119.936ZM202.41 128.32L201.921 128.215L201.792 128.82H202.41V128.32ZM208.778 127.04L208.374 126.746L208.369 126.753L208.778 127.04ZM210.186 123.52L209.698 123.412L209.697 123.415L210.186 123.52ZM209.93 119.36L209.559 119.695L209.567 119.704L209.93 119.36ZM204.682 119.008L204.976 119.412L204.988 119.404L204.999 119.395L204.682 119.008ZM203.434 115.54H209.77V114.54H203.434V115.54ZM209.77 115.54C211.908 115.54 213.243 116.061 213.956 116.952L214.737 116.328C213.743 115.085 212.028 114.54 209.77 114.54V115.54ZM213.956 116.952C214.712 117.897 215.126 119.305 215.126 121.248H216.126C216.126 119.18 215.688 117.516 214.737 116.328L213.956 116.952ZM215.126 121.248C215.126 121.884 215.016 122.819 214.783 124.068L215.766 124.252C216.002 122.984 216.126 121.977 216.126 121.248H215.126ZM214.784 124.061C214.216 126.858 213.327 128.755 212.178 129.845L212.867 130.571C214.235 129.272 215.18 127.137 215.764 124.259L214.784 124.061ZM212.175 129.848C211.075 130.911 209.216 131.5 206.474 131.5V132.5C209.322 132.5 211.495 131.894 212.87 130.568L212.175 129.848ZM206.474 131.5H201.61V132.5H206.474V131.5ZM201.121 131.896L199.969 137.336L200.948 137.544L202.1 132.104L201.121 131.896ZM200.458 136.94H195.498V137.94H200.458V136.94ZM195.988 137.544L200.052 118.344L199.073 118.136L195.009 137.336L195.988 137.544ZM200.051 118.347C200.269 117.356 200.665 116.669 201.201 116.225C201.735 115.784 202.464 115.54 203.434 115.54V114.54C202.293 114.54 201.32 114.83 200.564 115.455C199.809 116.078 199.325 116.99 199.074 118.133L200.051 118.347ZM203.713 119.831L201.921 128.215L202.899 128.425L204.691 120.041L203.713 119.831ZM202.41 128.82H205.93V127.82H202.41V128.82ZM205.93 128.82C207.349 128.82 208.474 128.347 209.188 127.327L208.369 126.753C207.888 127.439 207.114 127.82 205.93 127.82V128.82ZM209.183 127.333C209.857 126.404 210.347 125.158 210.675 123.625L209.697 123.415C209.386 124.869 208.937 125.969 208.374 126.747L209.183 127.333ZM210.674 123.628C210.892 122.651 211.006 121.822 211.006 121.152H210.006C210.006 121.719 209.908 122.469 209.698 123.412L210.674 123.628ZM211.006 121.152C211.006 120.288 210.796 119.547 210.293 119.016L209.567 119.704C209.833 119.984 210.006 120.438 210.006 121.152H211.006ZM210.302 119.026C209.776 118.441 208.925 118.22 207.914 118.22V119.22C208.824 119.22 209.317 119.426 209.559 119.694L210.302 119.026ZM207.914 118.22H205.738V119.22H207.914V118.22ZM205.738 118.22C205.214 118.22 204.727 118.325 204.366 118.621L204.999 119.395C205.107 119.307 205.324 119.22 205.738 119.22V118.22ZM204.388 118.604C204.006 118.882 203.807 119.338 203.711 119.842L204.694 120.03C204.768 119.638 204.89 119.475 204.976 119.412L204.388 118.604ZM215.775 132L215.286 131.896L215.158 132.5H215.775V132ZM220.543 109.6V109.1H220.139L220.054 109.496L220.543 109.6ZM225.535 109.6L226.025 109.704L226.152 109.1H225.535V109.6ZM224.383 115.04L223.894 114.936L223.766 115.54H224.383V115.04ZM233.343 116.256L233.045 116.657L233.048 116.66L233.343 116.256ZM234.847 121.152L235.337 121.256L235.339 121.243L234.847 121.152ZM232.543 132V132.5H232.948L233.032 132.104L232.543 132ZM227.551 132L227.062 131.895L226.933 132.5H227.551V132ZM229.599 122.432L230.088 122.537L230.09 122.53L229.599 122.432ZM229.055 119.296L228.73 119.676L228.74 119.684L228.75 119.692L229.055 119.296ZM223.615 118.72V118.22H223.211L223.126 118.615L223.615 118.72ZM220.767 132V132.5H221.172L221.256 132.105L220.767 132ZM216.264 132.104L221.032 109.704L220.054 109.496L215.286 131.896L216.264 132.104ZM220.543 110.1H225.535V109.1H220.543V110.1ZM225.046 109.496L223.894 114.936L224.873 115.144L226.025 109.704L225.046 109.496ZM224.383 115.54H229.023V114.54H224.383V115.54ZM229.023 115.54C230.742 115.54 232.067 115.928 233.045 116.657L233.642 115.855C232.444 114.962 230.889 114.54 229.023 114.54V115.54ZM233.048 116.66C234.016 117.367 234.507 118.362 234.507 119.712H235.507C235.507 118.075 234.889 116.766 233.638 115.852L233.048 116.66ZM234.507 119.712C234.507 120.054 234.459 120.501 234.356 121.061L235.339 121.243C235.449 120.651 235.507 120.138 235.507 119.712H234.507ZM234.358 121.048L232.054 131.896L233.032 132.104L235.336 121.256L234.358 121.048ZM232.543 131.5H227.551V132.5H232.543V131.5ZM228.04 132.105L230.088 122.537L229.11 122.327L227.062 131.895L228.04 132.105ZM230.09 122.53C230.201 121.975 230.259 121.471 230.259 121.024H229.259C229.259 121.387 229.211 121.823 229.109 122.334L230.09 122.53ZM230.259 121.024C230.259 120.135 229.991 119.387 229.361 118.9L228.75 119.692C229.058 119.93 229.259 120.334 229.259 121.024H230.259ZM229.381 118.916C228.797 118.416 227.925 118.22 226.879 118.22V119.22C227.839 119.22 228.417 119.408 228.73 119.676L229.381 118.916ZM226.879 118.22H223.615V119.22H226.879V118.22ZM223.126 118.615L220.278 131.895L221.256 132.105L224.104 118.825L223.126 118.615ZM220.767 131.5H215.775V132.5H220.767V131.5ZM239.564 115.04V114.54H239.16L239.075 114.935L239.564 115.04ZM253.164 116.16L252.805 116.508L253.164 116.16ZM254.124 120.416L254.614 120.519L254.615 120.51L254.124 120.416ZM252.364 128.8L252.853 128.905L252.853 128.903L252.364 128.8ZM251.084 131.232L251.41 131.612L251.411 131.611L251.084 131.232ZM236.716 130.88L236.342 131.212L236.347 131.217L236.716 130.88ZM235.884 125.92L235.392 125.833L235.39 125.845L235.884 125.92ZM237.58 122.496L237.898 122.882L237.899 122.881L237.58 122.496ZM248.94 121.408V121.908H249.343L249.429 121.514L248.94 121.408ZM249.1 120.672L249.589 120.778L249.593 120.761L249.595 120.743L249.1 120.672ZM238.796 118.624L238.307 118.519L238.178 119.124H238.796V118.624ZM248.204 124.864L248.693 124.968L248.822 124.364H248.204V124.864ZM241.644 125.152L241.374 124.731L241.367 124.736L241.36 124.741L241.644 125.152ZM241.004 126.272L241.486 126.406L241.487 126.402L241.004 126.272ZM247.66 127.424L248.148 127.535L248.149 127.528L247.66 127.424ZM239.564 115.54H250.028V114.54H239.564V115.54ZM250.028 115.54C251.302 115.54 252.201 115.886 252.805 116.508L253.523 115.812C252.677 114.94 251.485 114.54 250.028 114.54V115.54ZM252.805 116.508C253.425 117.146 253.752 117.995 253.752 119.104H254.752C254.752 117.781 254.354 116.667 253.523 115.812L252.805 116.508ZM253.752 119.104C253.752 119.497 253.713 119.903 253.633 120.322L254.615 120.51C254.706 120.033 254.752 119.564 254.752 119.104H253.752ZM253.635 120.313L251.875 128.697L252.853 128.903L254.613 120.519L253.635 120.313ZM251.875 128.695C251.655 129.714 251.269 130.413 250.758 130.853L251.411 131.611C252.137 130.985 252.603 130.062 252.853 128.905L251.875 128.695ZM250.759 130.852C250.286 131.258 249.547 131.5 248.46 131.5V132.5C249.677 132.5 250.688 132.23 251.41 131.612L250.759 130.852ZM248.46 131.5H239.596V132.5H248.46V131.5ZM239.596 131.5C238.465 131.5 237.652 131.163 237.085 130.543L236.347 131.217C237.145 132.09 238.252 132.5 239.596 132.5V131.5ZM237.09 130.548C236.531 129.917 236.224 129.033 236.224 127.84H235.224C235.224 129.207 235.579 130.35 236.342 131.212L237.09 130.548ZM236.224 127.84C236.224 127.294 236.275 126.68 236.378 125.995L235.39 125.845C235.28 126.568 235.224 127.234 235.224 127.84H236.224ZM236.377 126.007C236.642 124.494 237.17 123.482 237.898 122.882L237.262 122.11C236.283 122.918 235.681 124.189 235.392 125.833L236.377 126.007ZM237.899 122.881C238.656 122.253 239.744 121.908 241.228 121.908V120.908C239.597 120.908 238.254 121.288 237.261 122.111L237.899 122.881ZM241.228 121.908H248.94V120.908H241.228V121.908ZM249.429 121.514L249.589 120.778L248.612 120.566L248.452 121.302L249.429 121.514ZM249.595 120.743C249.636 120.454 249.664 120.224 249.664 120.096H248.664C248.664 120.139 248.649 120.292 248.605 120.601L249.595 120.743ZM249.664 120.096C249.664 119.499 249.478 118.971 249.033 118.606C248.608 118.256 248.025 118.124 247.372 118.124V119.124C247.914 119.124 248.227 119.237 248.399 119.378C248.552 119.504 248.664 119.711 248.664 120.096H249.664ZM247.372 118.124H238.796V119.124H247.372V118.124ZM239.285 118.729L240.053 115.145L239.075 114.935L238.307 118.519L239.285 118.729ZM248.204 124.364H242.86V125.364H248.204V124.364ZM242.86 124.364C242.292 124.364 241.781 124.469 241.374 124.731L241.915 125.573C242.104 125.451 242.404 125.364 242.86 125.364V124.364ZM241.36 124.741C240.937 125.034 240.682 125.547 240.521 126.142L241.487 126.402C241.625 125.888 241.797 125.654 241.929 125.563L241.36 124.741ZM240.522 126.138C240.406 126.559 240.344 126.967 240.344 127.36H241.344C241.344 127.071 241.389 126.753 241.486 126.406L240.522 126.138ZM240.344 127.36C240.344 127.832 240.462 128.277 240.787 128.602C241.111 128.926 241.556 129.044 242.028 129.044V128.044C241.711 128.044 241.564 127.965 241.494 127.894C241.423 127.824 241.344 127.678 241.344 127.36H240.344ZM242.028 129.044H246.284V128.044H242.028V129.044ZM246.284 129.044C246.742 129.044 247.164 128.928 247.504 128.652C247.842 128.376 248.045 127.985 248.148 127.535L247.173 127.313C247.105 127.61 246.993 127.778 246.872 127.876C246.754 127.973 246.573 128.044 246.284 128.044V129.044ZM248.149 127.528L248.693 124.968L247.715 124.76L247.171 127.32L248.149 127.528ZM280.719 132V132.5H281.123L281.208 132.105L280.719 132ZM263.279 131.328L262.933 131.69L262.941 131.697L263.279 131.328ZM262.671 128.576L262.182 128.472L262.18 128.478L262.671 128.576ZM266.703 109.6V109.1H266.298L266.214 109.496L266.703 109.6ZM272.463 109.6L272.952 109.704L273.08 109.1H272.463V109.6ZM268.975 126.016L268.486 125.912L268.482 125.929L268.48 125.945L268.975 126.016ZM269.199 127.328L269.476 126.912L269.199 127.328ZM281.679 127.52L282.168 127.625L282.297 127.02H281.679V127.52ZM280.719 131.5H265.327V132.5H280.719V131.5ZM265.327 131.5C264.536 131.5 263.988 131.299 263.616 130.959L262.941 131.697C263.55 132.253 264.368 132.5 265.327 132.5V131.5ZM263.624 130.966C263.271 130.63 263.075 130.163 263.075 129.504H262.075C262.075 130.381 262.347 131.13 262.933 131.69L263.624 130.966ZM263.075 129.504C263.075 129.241 263.103 128.965 263.161 128.674L262.18 128.478C262.11 128.827 262.075 129.17 262.075 129.504H263.075ZM263.16 128.68L267.192 109.704L266.214 109.496L262.182 128.472L263.16 128.68ZM266.703 110.1H272.463V109.1H266.703V110.1ZM271.974 109.496L268.486 125.912L269.464 126.12L272.952 109.704L271.974 109.496ZM268.48 125.945C268.438 126.24 268.411 126.476 268.411 126.624H269.411C269.411 126.558 269.426 126.39 269.47 126.087L268.48 125.945ZM268.411 126.624C268.411 127.047 268.532 127.484 268.921 127.744L269.476 126.912C269.471 126.909 269.46 126.901 269.445 126.867C269.429 126.826 269.411 126.751 269.411 126.624H268.411ZM268.921 127.744C269.242 127.958 269.69 128.02 270.159 128.02V127.02C269.731 127.02 269.539 126.954 269.476 126.912L268.921 127.744ZM270.159 128.02H281.679V127.02H270.159V128.02ZM281.19 127.415L280.23 131.895L281.208 132.105L282.168 127.625L281.19 127.415ZM286.658 115.04V114.54H286.254L286.169 114.935L286.658 115.04ZM300.258 116.16L299.899 116.508L300.258 116.16ZM301.218 120.416L301.707 120.519L301.709 120.51L301.218 120.416ZM299.458 128.8L299.947 128.905L299.947 128.903L299.458 128.8ZM298.178 131.232L298.503 131.612L298.504 131.611L298.178 131.232ZM283.81 130.88L283.436 131.212L283.441 131.217L283.81 130.88ZM282.978 125.92L282.485 125.833L282.484 125.845L282.978 125.92ZM284.674 122.496L284.992 122.882L284.993 122.881L284.674 122.496ZM296.034 121.408V121.908H296.437L296.522 121.514L296.034 121.408ZM296.194 120.672L296.682 120.778L296.686 120.761L296.689 120.743L296.194 120.672ZM285.89 118.624L285.401 118.519L285.271 119.124H285.89V118.624ZM295.298 124.864L295.787 124.968L295.915 124.364H295.298V124.864ZM288.738 125.152L288.467 124.731L288.46 124.736L288.453 124.741L288.738 125.152ZM288.098 126.272L288.58 126.406L288.581 126.402L288.098 126.272ZM294.754 127.424L295.241 127.535L295.243 127.528L294.754 127.424ZM286.658 115.54H297.122V114.54H286.658V115.54ZM297.122 115.54C298.396 115.54 299.295 115.886 299.899 116.508L300.617 115.812C299.77 114.94 298.578 114.54 297.122 114.54V115.54ZM299.899 116.508C300.519 117.146 300.846 117.995 300.846 119.104H301.846C301.846 117.781 301.448 116.667 300.617 115.812L299.899 116.508ZM300.846 119.104C300.846 119.497 300.807 119.903 300.727 120.322L301.709 120.51C301.8 120.033 301.846 119.564 301.846 119.104H300.846ZM300.729 120.313L298.969 128.697L299.947 128.903L301.707 120.519L300.729 120.313ZM298.969 128.695C298.749 129.714 298.362 130.413 297.851 130.853L298.504 131.611C299.231 130.985 299.697 130.062 299.947 128.905L298.969 128.695ZM297.852 130.852C297.38 131.258 296.641 131.5 295.554 131.5V132.5C296.771 132.5 297.781 132.23 298.503 131.612L297.852 130.852ZM295.554 131.5H286.69V132.5H295.554V131.5ZM286.69 131.5C285.559 131.5 284.746 131.163 284.179 130.543L283.441 131.217C284.239 132.09 285.346 132.5 286.69 132.5V131.5ZM284.184 130.548C283.625 129.917 283.318 129.033 283.318 127.84H282.318C282.318 129.207 282.672 130.35 283.436 131.212L284.184 130.548ZM283.318 127.84C283.318 127.294 283.368 126.68 283.472 125.995L282.484 125.845C282.374 126.568 282.318 127.234 282.318 127.84H283.318ZM283.47 126.007C283.736 124.494 284.264 123.482 284.992 122.882L284.356 122.11C283.377 122.918 282.774 124.189 282.485 125.833L283.47 126.007ZM284.993 122.881C285.75 122.253 286.838 121.908 288.322 121.908V120.908C286.691 120.908 285.347 121.288 284.355 122.111L284.993 122.881ZM288.322 121.908H296.034V120.908H288.322V121.908ZM296.522 121.514L296.682 120.778L295.705 120.566L295.545 121.302L296.522 121.514ZM296.689 120.743C296.73 120.454 296.758 120.224 296.758 120.096H295.758C295.758 120.139 295.743 120.292 295.699 120.601L296.689 120.743ZM296.758 120.096C296.758 119.499 296.572 118.971 296.127 118.606C295.702 118.256 295.119 118.124 294.466 118.124V119.124C295.007 119.124 295.321 119.237 295.493 119.378C295.646 119.504 295.758 119.711 295.758 120.096H296.758ZM294.466 118.124H285.89V119.124H294.466V118.124ZM286.379 118.729L287.147 115.145L286.169 114.935L285.401 118.519L286.379 118.729ZM295.298 124.364H289.954V125.364H295.298V124.364ZM289.954 124.364C289.386 124.364 288.875 124.469 288.467 124.731L289.008 125.573C289.198 125.451 289.498 125.364 289.954 125.364V124.364ZM288.453 124.741C288.031 125.034 287.775 125.547 287.615 126.142L288.581 126.402C288.719 125.888 288.891 125.654 289.022 125.563L288.453 124.741ZM287.616 126.138C287.499 126.559 287.438 126.967 287.438 127.36H288.438C288.438 127.071 288.483 126.753 288.58 126.406L287.616 126.138ZM287.438 127.36C287.438 127.832 287.556 128.277 287.88 128.602C288.204 128.926 288.65 129.044 289.122 129.044V128.044C288.804 128.044 288.658 127.965 288.587 127.894C288.517 127.824 288.438 127.678 288.438 127.36H287.438ZM289.122 129.044H293.378V128.044H289.122V129.044ZM293.378 129.044C293.835 129.044 294.258 128.928 294.598 128.652C294.936 128.376 295.139 127.985 295.241 127.535L294.266 127.313C294.199 127.61 294.086 127.778 293.966 127.876C293.847 127.973 293.667 128.044 293.378 128.044V129.044ZM295.243 127.528L295.787 124.968L294.809 124.76L294.265 127.32L295.243 127.528ZM322.072 115.04L322.561 115.144L322.689 114.54H322.072V115.04ZM319.16 128.8L318.67 128.696L318.67 128.698L319.16 128.8ZM317.912 131.264L318.229 131.65L318.237 131.644L317.912 131.264ZM304.152 130.816L303.85 131.215L303.854 131.218L304.152 130.816ZM302.744 125.92L303.231 126.031L303.233 126.024L302.744 125.92ZM305.048 115.04V114.54H304.642L304.558 114.936L305.048 115.04ZM310.04 115.04L310.529 115.144L310.658 114.54H310.04V115.04ZM307.992 124.64L307.502 124.536L307.5 124.549L307.992 124.64ZM308.536 127.808L308.219 128.195L308.23 128.204L308.536 127.808ZM314.456 127.232L313.967 127.128L313.965 127.134L314.456 127.232ZM317.048 115.04V114.54H316.643L316.559 114.936L317.048 115.04ZM321.582 114.936L318.67 128.696L319.649 128.904L322.561 115.144L321.582 114.936ZM318.67 128.698C318.448 129.77 318.068 130.471 317.586 130.884L318.237 131.644C318.95 131.033 319.402 130.092 319.649 128.902L318.67 128.698ZM317.594 130.878C317.122 131.265 316.371 131.5 315.256 131.5V132.5C316.487 132.5 317.506 132.244 318.229 131.65L317.594 130.878ZM315.256 131.5H308.408V132.5H315.256V131.5ZM308.408 131.5C306.709 131.5 305.405 131.121 304.449 130.414L303.854 131.218C305.032 132.089 306.565 132.5 308.408 132.5V131.5ZM304.453 130.417C303.549 129.735 303.084 128.761 303.084 127.424H302.084C302.084 129.031 302.663 130.319 303.85 131.215L304.453 130.417ZM303.084 127.424C303.084 126.924 303.134 126.46 303.231 126.031L302.256 125.809C302.14 126.319 302.084 126.857 302.084 127.424H303.084ZM303.233 126.024L305.537 115.144L304.558 114.936L302.254 125.816L303.233 126.024ZM305.048 115.54H310.04V114.54H305.048V115.54ZM309.551 114.936L307.503 124.536L308.481 124.744L310.529 115.144L309.551 114.936ZM307.5 124.549C307.391 125.137 307.332 125.63 307.332 126.016H308.332C308.332 125.719 308.379 125.295 308.483 124.731L307.5 124.549ZM307.332 126.016C307.332 126.923 307.598 127.686 308.219 128.195L308.852 127.421C308.535 127.162 308.332 126.731 308.332 126.016H307.332ZM308.23 128.204C308.831 128.668 309.713 128.852 310.776 128.852V127.852C309.79 127.852 309.179 127.674 308.841 127.412L308.23 128.204ZM310.776 128.852H313.112V127.852H310.776V128.852ZM313.112 128.852C313.568 128.852 313.991 128.737 314.328 128.456C314.663 128.177 314.856 127.781 314.946 127.33L313.965 127.134C313.906 127.43 313.8 127.594 313.688 127.688C313.576 127.781 313.401 127.852 313.112 127.852V128.852ZM314.945 127.336L317.537 115.144L316.559 114.936L313.967 127.128L314.945 127.336ZM317.048 115.54H322.072V114.54H317.048V115.54ZM321.15 132L320.661 131.895L320.532 132.5H321.15V132ZM324.094 118.24L324.583 118.345L324.584 118.34L324.094 118.24ZM325.31 115.776L324.993 115.39L324.986 115.395L325.31 115.776ZM338.782 116.224L338.481 116.623L338.485 116.626L338.782 116.224ZM340.222 121.152L340.712 121.256L340.713 121.25L340.222 121.152ZM337.918 132V132.5H338.323L338.407 132.104L337.918 132ZM332.926 132L332.437 131.895L332.308 132.5H332.926V132ZM334.974 122.432L335.463 122.537L335.465 122.53L334.974 122.432ZM334.43 119.296L334.105 119.676L334.115 119.684L334.125 119.692L334.43 119.296ZM328.734 119.84L329.223 119.944L329.225 119.938L328.734 119.84ZM326.142 132V132.5H326.547L326.631 132.104L326.142 132ZM321.639 132.105L324.583 118.345L323.605 118.135L320.661 131.895L321.639 132.105ZM324.584 118.34C324.808 117.24 325.179 116.544 325.635 116.157L324.986 115.395C324.289 115.989 323.85 116.936 323.604 118.14L324.584 118.34ZM325.628 116.162C326.1 115.775 326.851 115.54 327.966 115.54V114.54C326.735 114.54 325.716 114.796 324.993 115.39L325.628 116.162ZM327.966 115.54H334.558V114.54H327.966V115.54ZM334.558 115.54C336.258 115.54 337.549 115.919 338.481 116.623L339.084 115.825C337.926 114.95 336.4 114.54 334.558 114.54V115.54ZM338.485 116.626C339.407 117.308 339.882 118.29 339.882 119.648H340.882C340.882 118.019 340.291 116.719 339.08 115.822L338.485 116.626ZM339.882 119.648C339.882 120.08 339.833 120.548 339.732 121.054L340.713 121.25C340.825 120.689 340.882 120.155 340.882 119.648H339.882ZM339.733 121.048L337.429 131.896L338.407 132.104L340.711 121.256L339.733 121.048ZM337.918 131.5H332.926V132.5H337.918V131.5ZM333.415 132.105L335.463 122.537L334.485 122.327L332.437 131.895L333.415 132.105ZM335.465 122.53C335.576 121.975 335.634 121.471 335.634 121.024H334.634C334.634 121.387 334.586 121.823 334.484 122.334L335.465 122.53ZM335.634 121.024C335.634 120.135 335.366 119.387 334.736 118.9L334.125 119.692C334.433 119.93 334.634 120.334 334.634 121.024H335.634ZM334.756 118.916C334.172 118.416 333.3 118.22 332.254 118.22V119.22C333.214 119.22 333.792 119.408 334.105 119.676L334.756 118.916ZM332.254 118.22H330.11V119.22H332.254V118.22ZM330.11 118.22C329.646 118.22 329.217 118.334 328.875 118.612C328.532 118.891 328.335 119.288 328.244 119.742L329.225 119.938C329.283 119.645 329.39 119.482 329.506 119.388C329.622 119.293 329.807 119.22 330.11 119.22V118.22ZM328.245 119.736L325.653 131.896L326.631 132.104L329.223 119.944L328.245 119.736ZM326.142 131.5H321.15V132.5H326.142V131.5ZM355.723 132V132.5H356.126L356.212 132.106L355.723 132ZM343.019 130.464L342.639 130.789L342.643 130.793L343.019 130.464ZM341.995 122.88L342.485 122.978L342.486 122.974L341.995 122.88ZM344.523 117.12L344.888 117.462L344.893 117.457L344.523 117.12ZM347.083 115.552L347.23 116.03L347.238 116.027L347.083 115.552ZM358.987 115.04L359.477 115.142L359.602 114.54H358.987V115.04ZM358.219 118.72V119.22H358.626L358.709 118.822L358.219 118.72ZM348.651 119.936L348.279 119.603L348.278 119.603L348.651 119.936ZM347.083 123.52L346.594 123.416L346.594 123.417L347.083 123.52ZM347.531 127.648L347.178 128.002L347.186 128.01L347.194 128.017L347.531 127.648ZM356.523 128.32L357.012 128.426L357.143 127.82H356.523V128.32ZM355.723 131.5H347.595V132.5H355.723V131.5ZM347.595 131.5C345.502 131.5 344.153 131 343.395 130.135L342.643 130.793C343.677 131.976 345.379 132.5 347.595 132.5V131.5ZM343.399 130.139C342.607 129.215 342.175 127.854 342.175 125.984H341.175C341.175 127.996 341.639 129.622 342.639 130.789L343.399 130.139ZM342.175 125.984C342.175 125.017 342.278 124.015 342.485 122.978L341.505 122.782C341.286 123.878 341.175 124.946 341.175 125.984H342.175ZM342.486 122.974C342.738 121.652 343.049 120.569 343.415 119.717L342.496 119.323C342.093 120.263 341.764 121.42 341.504 122.786L342.486 122.974ZM343.415 119.717C343.776 118.874 344.267 118.123 344.888 117.462L344.159 116.778C343.457 117.525 342.902 118.374 342.496 119.323L343.415 119.717ZM344.893 117.457C345.487 116.805 346.26 116.327 347.229 116.03L346.937 115.074C345.816 115.417 344.882 115.984 344.154 116.783L344.893 117.457ZM347.238 116.027C348.219 115.707 349.433 115.54 350.891 115.54V114.54C349.363 114.54 348.038 114.714 346.928 115.077L347.238 116.027ZM350.891 115.54H358.987V114.54H350.891V115.54ZM358.498 114.938L357.73 118.618L358.709 118.822L359.477 115.142L358.498 114.938ZM358.219 118.22H352.043V119.22H358.219V118.22ZM352.043 118.22C350.425 118.22 349.133 118.648 348.279 119.603L349.024 120.269C349.62 119.603 350.589 119.22 352.043 119.22V118.22ZM348.278 119.603C347.493 120.483 346.945 121.773 346.594 123.416L347.572 123.624C347.904 122.067 348.401 120.967 349.024 120.269L348.278 119.603ZM346.594 123.417C346.419 124.248 346.327 124.978 346.327 125.6H347.327C347.327 125.07 347.406 124.413 347.572 123.623L346.594 123.417ZM346.327 125.6C346.327 126.581 346.585 127.409 347.178 128.002L347.885 127.294C347.538 126.948 347.327 126.411 347.327 125.6H346.327ZM347.194 128.017C347.824 128.593 348.802 128.82 349.995 128.82V127.82C348.884 127.82 348.219 127.599 347.868 127.279L347.194 128.017ZM349.995 128.82H356.523V127.82H349.995V128.82ZM356.035 128.214L355.235 131.894L356.212 132.106L357.012 128.426L356.035 128.214ZM357.65 132L357.161 131.896L357.033 132.5H357.65V132ZM362.418 109.6V109.1H362.014L361.929 109.496L362.418 109.6ZM367.41 109.6L367.9 109.704L368.027 109.1H367.41V109.6ZM366.258 115.04L365.769 114.936L365.641 115.54H366.258V115.04ZM375.218 116.256L374.92 116.657L374.923 116.66L375.218 116.256ZM376.722 121.152L377.212 121.256L377.214 121.243L376.722 121.152ZM374.418 132V132.5H374.823L374.907 132.104L374.418 132ZM369.426 132L368.937 131.895L368.808 132.5H369.426V132ZM371.474 122.432L371.963 122.537L371.965 122.53L371.474 122.432ZM370.93 119.296L370.605 119.676L370.615 119.684L370.625 119.692L370.93 119.296ZM365.49 118.72V118.22H365.086L365.001 118.615L365.49 118.72ZM362.642 132V132.5H363.047L363.131 132.105L362.642 132ZM358.139 132.104L362.907 109.704L361.929 109.496L357.161 131.896L358.139 132.104ZM362.418 110.1H367.41V109.1H362.418V110.1ZM366.921 109.496L365.769 114.936L366.748 115.144L367.9 109.704L366.921 109.496ZM366.258 115.54H370.898V114.54H366.258V115.54ZM370.898 115.54C372.617 115.54 373.942 115.928 374.92 116.657L375.517 115.855C374.319 114.962 372.764 114.54 370.898 114.54V115.54ZM374.923 116.66C375.891 117.367 376.382 118.362 376.382 119.712H377.382C377.382 118.075 376.764 116.766 375.513 115.852L374.923 116.66ZM376.382 119.712C376.382 120.054 376.334 120.501 376.231 121.061L377.214 121.243C377.324 120.651 377.382 120.138 377.382 119.712H376.382ZM376.233 121.048L373.929 131.896L374.907 132.104L377.211 121.256L376.233 121.048ZM374.418 131.5H369.426V132.5H374.418V131.5ZM369.915 132.105L371.963 122.537L370.985 122.327L368.937 131.895L369.915 132.105ZM371.965 122.53C372.076 121.975 372.134 121.471 372.134 121.024H371.134C371.134 121.387 371.086 121.823 370.984 122.334L371.965 122.53ZM372.134 121.024C372.134 120.135 371.866 119.387 371.236 118.9L370.625 119.692C370.933 119.93 371.134 120.334 371.134 121.024H372.134ZM371.256 118.916C370.672 118.416 369.8 118.22 368.754 118.22V119.22C369.714 119.22 370.292 119.408 370.605 119.676L371.256 118.916ZM368.754 118.22H365.49V119.22H368.754V118.22ZM365.001 118.615L362.153 131.895L363.131 132.105L365.979 118.825L365.001 118.615ZM362.642 131.5H357.65V132.5H362.642V131.5Z" fill="#FA0339"/>
<defs>
<clipPath id="clip0_5604_61147">
<rect width="328.515" height="105" fill="white"/>
</clipPath>
</defs>
</svg>
