<svg width="60" height="54" viewBox="0 0 60 54" fill="none" xmlns="http://www.w3.org/2000/svg">
<path d="M30.1239 44.3062L30.0073 50.0727L29.2924 50.1116L22.1093 37.5717L22.4279 36.8374L15.6524 25.6377L15.1397 25.8807L10.8844 18.392L11.1605 17.7556L16.1718 20.6858L30.1239 44.3062Z" fill="#FA0339"/>
<path d="M29.6974 44.3064L29.814 50.073L30.5289 50.1118L37.712 37.572L37.3934 36.8376L44.1689 25.6379L44.6815 25.8809L48.9369 18.3923L48.6608 17.7558L43.6495 20.6861L29.6974 44.3064Z" fill="#FA0339"/>
<path d="M43.5082 20.98L48.4099 17.9403L48.0789 17.3054L33.629 17.5175L33.1596 18.1659L20.0705 18.0455L20.0182 17.4806L11.4064 17.6368L10.9996 18.1988L16.075 21.0165L43.5082 20.98Z" fill="#FA0339"/>
</svg>
