<svg width="366" height="117" viewBox="0 0 366 117" fill="none" xmlns="http://www.w3.org/2000/svg">
<g clip-path="url(#clip0_4005_64807)">
<path d="M152.304 7.15234L136.688 43.3773H152.614L168.269 7.15234H152.304Z" fill="#FA0339"/>
<path d="M132.459 7.15025L124.796 24.9105L117.133 7.15025H101.168L102.817 10.9072L89.1016 43.3539H105.028L110.964 29.7348L116.842 43.3539H132.769L148.424 7.12891H132.459V7.15025Z" fill="#FA0339"/>
<path d="M300.282 13.7258L283.715 0L280.437 7.5353H250.097H238.302H238.186C237.08 7.5353 236.032 7.8555 235.101 8.41051C233.821 9.15763 232.754 10.353 232.114 11.8686L228.893 19.8949L223.966 31.5287L223.151 33.3859C221.037 38.1248 224.179 43.6535 228.971 43.6535H256.13C258.787 43.6535 261.193 41.9672 262.318 39.3202L265.732 31.486H265.693L270.291 21.197H253.996L249.553 31.486H239.408L244.587 19.9163H275.063L271.804 27.3875L300.282 13.7258Z" fill="#FA0339"/>
<path d="M191.703 19.512C194.981 18.9569 196.495 18.7648 198.008 15.3067L201.538 7.15234H172.265L167.027 19.512H172.711L169.627 26.6844L162.43 43.3773H178.356L186.834 23.7386C186.834 23.7386 188.405 20.067 191.703 19.512Z" fill="#FA0339"/>
<path d="M222.199 27.9861L223.557 24.8268L227.805 14.9007C230.56 7.15193 224.158 7.08789 224.158 7.08789H221.423H205.302L200.957 17.0994H208.619C208.619 17.0994 210.404 17.2702 210.288 18.9352C210.171 20.6002 208.871 20.7496 208.871 20.7496L203.944 20.9631C203.944 20.9631 201.539 20.8777 196.029 21.4327C191.529 22.1585 188.949 27.7299 188.949 27.7299L181.965 43.2915H197.892L201.5 34.6889C201.5 34.6675 201.519 34.6462 201.519 34.6248C201.927 33.5362 202.159 33.0879 202.702 33.0879C203.187 33.0879 203.634 34.6462 203.634 34.6462L206.175 43.2915H222.121L218.067 32.6396C220.569 31.5083 222.199 27.9861 222.199 27.9861Z" fill="#FA0339"/>
<path d="M246.989 85.4066C248.813 75.9501 251.684 69.0552 255.661 64.7432C259.618 60.4099 265.904 58.2539 274.497 58.2539H272.169C263.576 58.2539 257.29 60.4099 253.333 64.7432C249.375 69.0766 246.485 75.9501 244.662 85.4066C244.177 87.8828 243.886 90.1669 243.711 92.2802H246.039C246.213 90.1669 246.524 87.8828 246.989 85.4066Z" fill="#FA0339"/>
<path d="M293.526 39.4043H291.198L287.59 58.2532H289.898L293.526 39.4043Z" fill="#FA0339"/>
<path d="M246.426 102.164H244.098C245.805 112.047 251.683 117 261.809 117H264.137C254.011 117 248.113 112.047 246.426 102.164Z" fill="#FA0339"/>
<path d="M281.85 99.8158L287.495 70.998H285.167L279.522 99.8158C279.192 101.524 278.688 102.676 278.009 103.317C277.33 103.936 276.224 104.256 274.691 104.256H277.019C278.571 104.256 279.677 103.936 280.337 103.317C281.015 102.676 281.52 101.524 281.85 99.8158Z" fill="#FA0339"/>
<path d="M307.338 49.2891L296.455 105.921C295.718 109.7 294.399 112.475 292.479 114.289C290.558 116.104 287.803 117 284.176 117H286.717C290.345 117 293.119 116.104 295.02 114.289C296.94 112.475 298.26 109.7 298.997 105.921L309.88 49.2891H307.338Z" fill="#00EDE6"/>
<path d="M264.098 102.164C265.475 103.552 267.531 104.256 270.267 104.256H272.808C270.073 104.256 268.016 103.552 266.639 102.164H264.098Z" fill="#00EDE6"/>
<path d="M265.556 87.625C266.564 82.4591 268.019 78.382 269.94 75.4362C271.86 72.4904 274.887 70.9961 279.057 70.9961H276.516C272.345 70.9961 269.319 72.469 267.398 75.4362C265.478 78.382 264.023 82.4591 263.014 87.625C262.665 89.3327 262.413 90.891 262.238 92.2785H264.78C264.974 90.8697 265.226 89.3327 265.556 87.625Z" fill="#00EDE6"/>
<path d="M296.459 105.92L307.342 49.2877H309.883H316.071V39.4043H311.784H309.243H306.915H306.197H296.071H294.17H293.53L289.902 58.2532H287.574H277.04H274.499C265.905 58.2532 259.62 60.4092 255.663 64.7426C251.705 69.0759 248.815 75.9495 246.991 85.4059C246.506 87.8821 246.215 90.1662 246.041 92.2795H243.713H242.84V102.163H244.081H246.409C248.116 112.046 253.994 116.999 264.121 116.999H266.662H281.832H284.16C287.788 116.999 290.562 116.102 292.463 114.288C294.403 112.473 295.722 109.677 296.459 105.92ZM274.693 104.255H272.811H270.27C267.535 104.255 265.479 103.55 264.101 102.163H261.269H258.437V92.2795H261.269H262.258C262.433 90.892 262.685 89.3337 263.034 87.626C264.043 82.4601 265.498 78.3829 267.419 75.4371C269.339 72.4913 272.365 70.9971 276.536 70.9971H279.077H285.169H287.497L281.851 99.8148C281.522 101.523 281.017 102.675 280.338 103.316C279.659 103.935 278.554 104.255 277.021 104.255H274.693Z" fill="white"/>
<path d="M26.7144 45.2969H23.7852V55.1803H26.7144V45.2969Z" fill="#00EDE6"/>
<path d="M14.7824 45.2969H11.5039V55.1803H14.7824V45.2969Z" fill="#FA0339"/>
<path d="M17.73 55.1803H20.4847H23.7826V45.2969H20.4847H17.73H14.8008V55.1803H17.73Z" fill="white"/>
<path d="M68.2441 40.4078C66.3042 39.1483 63.5689 38.5293 60.0771 38.5293C59.6115 38.5293 59.2041 38.572 58.7773 38.5933C61.6678 38.7214 63.9957 39.3191 65.6834 40.4291C67.6233 41.6886 68.9425 44.0794 69.6214 47.6442L82.6188 117.042H85.1601L72.1627 47.6015C71.4838 44.058 70.184 41.6672 68.2441 40.4078Z" fill="#00EDE6"/>
<path d="M22.1719 116.999H24.7132L34.4903 99.2598H31.949L22.1719 116.999Z" fill="#00EDE6"/>
<path d="M53.5784 59.5768C53.5202 59.2779 53.4814 59.0218 53.4232 58.7656C53.2874 59.0218 53.1322 59.2566 52.977 59.5768L39.2812 84.1893H41.8225L54.0246 62.2664L53.5784 59.5768Z" fill="#00EDE6"/>
<path d="M134.744 70.9977L137.169 58.2539H134.609L132.203 70.9977H134.744Z" fill="#00EDE6"/>
<path d="M115.326 74.6463C113.153 77.0798 111.504 81.0716 110.437 86.6217L106.422 107.114H107.275H108.963L112.979 86.6217C114.046 81.0716 115.675 77.0798 117.867 74.6463C120.04 72.2128 123.59 70.9961 128.498 70.9961H125.957C121.049 70.9961 117.499 72.2128 115.326 74.6463Z" fill="#00EDE6"/>
<path d="M179.479 116.998L182.001 104.254H179.459L176.938 116.998H179.479Z" fill="#00EDE6"/>
<path d="M157.267 75.1587C159.518 72.3836 163.068 70.9961 167.898 70.9961H165.357C160.526 70.9961 156.976 72.3836 154.726 75.1587C152.476 77.9337 150.808 82.0963 149.741 87.625C149.197 90.4427 148.926 92.8335 148.926 94.8401C148.926 97.9353 149.682 100.283 151.195 101.884C152.709 103.464 155.269 104.275 158.897 104.275H161.438C157.811 104.275 155.25 103.485 153.737 101.884C152.224 100.305 151.467 97.9567 151.467 94.8401C151.467 92.8549 151.739 90.4427 152.282 87.625C153.349 82.0749 155.017 77.9124 157.267 75.1587Z" fill="#00EDE6"/>
<path d="M187.338 70.9977L189.763 58.2539H187.202L184.797 70.9977H187.338Z" fill="#00EDE6"/>
<path d="M359.407 61.5195C355.236 58.8939 349.125 57.5918 341.074 57.5918C340.492 57.5918 339.949 57.6131 339.387 57.6131C347.011 57.6985 352.85 59.0007 356.846 61.5195C361.017 64.1452 363.092 68.7347 363.092 75.3094C363.092 77.38 362.763 80.0696 362.084 83.3997C361.405 86.8791 360.26 89.398 358.611 90.999C356.962 92.5787 354.557 93.3898 351.414 93.3898H353.955C357.118 93.3898 359.504 92.6 361.153 90.999C362.801 89.4194 363.965 86.8791 364.625 83.3997C365.304 80.0696 365.634 77.38 365.634 75.3094C365.653 68.7347 363.558 64.1452 359.407 61.5195Z" fill="#00EDE6"/>
<path d="M355.975 116.998L358.4 104.574H355.839L353.434 116.998H355.975Z" fill="#00EDE6"/>
<path d="M320.879 97.5959C320.879 99.9653 321.558 101.716 322.896 102.868C324.235 104.021 326.563 104.576 329.841 104.576H332.383C329.085 104.576 326.776 104 325.438 102.868C324.099 101.716 323.42 99.9653 323.42 97.5959C323.42 96.187 323.556 94.7781 323.828 93.3906H321.286C321.015 94.7995 320.879 96.187 320.879 97.5959Z" fill="#00EDE6"/>
<path d="M330.484 72.4921C332.036 71.2113 334.228 70.4215 337.041 70.144C336.712 70.1013 336.362 70.0799 336.013 70.0586C332.483 70.208 329.767 70.9978 327.943 72.4921C325.926 74.1571 324.49 77.1243 323.617 81.4149H326.158C327.031 77.1243 328.467 74.1571 330.484 72.4921Z" fill="#00EDE6"/>
<path d="M14.8015 94.0723H13.075L0 116.998H2.32789L15.4029 94.0723H14.8015Z" fill="#FA0339"/>
<path d="M41.9201 47.6014C43.8018 44.3567 45.8581 42.03 48.0696 40.6211C50.0677 39.3617 52.8418 38.6999 56.353 38.5718C55.965 38.5505 55.6158 38.5078 55.2085 38.5078C51.1153 38.5078 47.9532 39.2122 45.7417 40.6211C43.5302 42.03 41.4739 44.3567 39.5922 47.6014L18.7188 84.1893H21.0466L41.9201 47.6014Z" fill="#FA0339"/>
<path d="M55.0166 57.1445C54.5705 57.1445 54.0467 57.6995 53.4453 58.7669C53.5035 59.023 53.5423 59.2578 53.6005 59.578L54.0661 62.2677L57.8295 84.1905H60.1574L55.9284 59.578C55.6568 57.9557 55.3464 57.1445 55.0166 57.1445Z" fill="#FA0339"/>
<path d="M59.3438 99.2598L62.2536 116.999H64.5815L61.6522 99.2598H59.3438Z" fill="#FA0339"/>
<path d="M90.8839 94.0723L86.4609 116.998H88.7888L93.2118 94.0723H90.8839Z" fill="#FA0339"/>
<path d="M95.113 84.1899L95.6174 81.5216C97.2857 72.5774 100.293 66.4723 104.58 63.1849C108.867 59.8976 115.366 58.2539 124.018 58.2539H121.69C113.018 58.2539 106.539 59.8976 102.252 63.1849C97.9453 66.4723 94.9579 72.5987 93.2895 81.5216L92.7852 84.1899H94.2013H95.113Z" fill="#FA0339"/>
<path d="M132.711 96.1634C132.711 92.6839 133.04 89.0977 133.719 85.4048C134.534 80.7513 135.543 76.8662 136.746 73.771C137.948 70.6757 139.597 67.8793 141.692 65.4032C143.768 62.927 146.465 61.1125 149.743 59.9812C153.041 58.8284 157.037 58.2734 161.732 58.2734H159.404C154.709 58.2734 150.713 58.8498 147.415 59.9812C144.117 61.1339 141.44 62.927 139.365 65.4032C137.289 67.8793 135.64 70.6757 134.418 73.771C133.215 76.8662 132.206 80.7513 131.392 85.4048C130.713 89.0977 130.383 92.6839 130.383 96.1634C130.383 102.888 131.799 108.053 134.612 111.618C137.425 115.204 142.236 116.998 149.025 116.998H151.353C144.564 116.998 139.772 115.204 136.94 111.618C134.127 108.032 132.711 102.888 132.711 96.1634Z" fill="#FA0339"/>
<path d="M216.883 92.2793V102.163H219.715V92.2793H209.977H216.883Z" fill="#FA0339"/>
<path d="M184.972 102.59C184.972 100.584 185.147 98.3851 185.477 95.9303C186.35 90.4656 188.154 86.4952 190.87 84.019C193.586 81.5428 197.407 80.3047 202.296 80.3047H199.968C195.06 80.3047 191.258 81.5428 188.542 84.019C185.826 86.4952 184.022 90.4656 183.149 95.9303C182.819 98.3638 182.645 100.584 182.645 102.59C182.645 107.03 183.711 110.531 185.826 113.114C187.94 115.697 190.947 116.999 194.847 116.999H197.174C193.275 116.999 190.268 115.697 188.154 113.114C186.02 110.531 184.972 107.009 184.972 102.59Z" fill="#FA0339"/>
<path d="M194.73 58.2539L192.305 70.6562H194.633L197.057 58.2539H194.73Z" fill="#FA0339"/>
<path d="M222.257 102.164H219.93C219.251 104.064 217.912 105.024 215.895 105.024H218.222C220.221 105.024 221.578 104.064 222.257 102.164Z" fill="#FA0339"/>
<path d="M227.068 77.7628C227.204 76.7382 227.262 76.0551 227.262 75.7776C227.262 72.3835 225.38 70.6758 221.617 70.6758H219.289C223.052 70.6758 224.934 72.3835 224.934 75.7776C224.934 76.0764 224.857 76.7382 224.74 77.7628L224.236 80.303H226.564L227.068 77.7628Z" fill="#FA0339"/>
<path d="M346.778 77.871C346.914 77.1239 346.972 76.6115 346.972 76.3127C346.972 74.0927 346.002 72.4917 344.043 71.4884C342.103 70.4851 339.775 69.9941 337.098 69.9941C336.71 69.9941 336.38 70.0368 336.012 70.0582C336.361 70.0795 336.71 70.1009 337.04 70.1436C338.786 70.357 340.357 70.784 341.734 71.4884C343.674 72.4917 344.664 74.0927 344.664 76.3127C344.664 76.6115 344.586 77.1239 344.47 77.871C344.004 80.2404 342.782 81.4145 340.842 81.4145H343.17C345.09 81.4145 346.313 80.2404 346.778 77.871Z" fill="#FA0339"/>
<path d="M304.781 99.0466C304.781 94.9054 305.382 89.9317 306.585 84.0828C307.594 79.2798 308.68 75.3521 309.864 72.2782C311.047 69.2043 312.385 66.6854 313.899 64.6788C315.412 62.6936 317.371 61.178 319.796 60.1961C322.221 59.1928 324.82 58.5097 327.594 58.1468C330.039 57.8266 333.201 57.6558 336.984 57.6131C336.712 57.6131 336.46 57.5918 336.188 57.5918C331.688 57.5918 328.041 57.7839 325.266 58.1468C322.473 58.5097 319.874 59.1928 317.468 60.1961C315.043 61.1994 313.084 62.6936 311.571 64.6788C310.058 66.6854 308.719 69.2043 307.536 72.2782C306.352 75.3521 305.266 79.2798 304.257 84.0828C303.054 89.9317 302.453 94.9054 302.453 99.0466C302.453 105.173 303.927 109.699 306.876 112.623C309.825 115.547 314.5 116.999 320.882 116.999H323.21C316.828 116.999 312.153 115.547 309.204 112.623C306.255 109.699 304.781 105.173 304.781 99.0466Z" fill="#FA0339"/>
<path d="M65.6856 40.4076C63.9785 39.319 61.6506 38.7213 58.7795 38.5718C58.3721 38.5505 57.9648 38.5078 57.538 38.5078C57.1112 38.5078 56.7426 38.5505 56.3546 38.5718C52.8434 38.6999 50.0693 39.3617 48.0712 40.6211C45.8597 42.03 43.8034 44.3567 41.9217 47.6014L21.0483 84.1892H18.7204H14.8017H6.53773V94.0727H13.0752H14.7823H15.4031L2.32812 116.999H4.86941H19.8455H22.1734L31.9506 99.2599H34.4918H59.3421H61.67L64.5992 116.999H67.1405H80.2931H82.621L69.6236 47.6014C68.9446 44.0579 67.6255 41.6671 65.6856 40.4076ZM57.829 84.1892H41.8441H39.3028L52.9986 59.5768C53.1538 59.2779 53.2896 59.0218 53.4448 58.7656C54.0655 57.6983 54.5893 57.1433 55.0161 57.1433C55.3459 57.1433 55.6563 57.9544 55.9278 59.5768L60.1569 84.1892H57.829Z" fill="white"/>
<path d="M134.61 58.2539H132.282H126.579H124.037C115.366 58.2539 108.887 59.8976 104.599 63.1849C100.293 66.4723 97.3053 72.5987 95.6369 81.5216L95.1326 84.1899H94.2208H92.8047H90.341V94.0733H90.8842H93.2121L88.7891 116.999H91.3303H93.0763H102.155H104.483H107.024H107.276H110.361V107.116H108.964H107.276H106.423L110.438 86.6234C111.505 81.0733 113.135 77.0815 115.327 74.648C117.5 72.2145 121.05 70.9977 125.958 70.9977H128.499H129.876H132.204L134.61 58.2539Z" fill="white"/>
<path d="M151.198 101.865C149.685 100.285 148.929 97.9369 148.929 94.8203C148.929 92.835 149.2 90.4229 149.743 87.6052C150.81 82.0551 152.479 77.9139 154.729 75.1388C156.979 72.3638 160.529 70.9763 165.36 70.9763H167.901H182.47H184.798L187.222 58.2324H184.895H164.273H161.732C157.037 58.2324 153.041 58.8088 149.743 59.9401C146.446 61.0928 143.768 62.886 141.693 65.3621C139.617 67.8383 137.968 70.6347 136.746 73.73C135.543 76.8252 134.534 80.7103 133.72 85.3638C133.041 89.0567 132.711 92.6429 132.711 96.1224C132.711 102.847 134.127 108.012 136.94 111.577C139.753 115.163 144.564 116.957 151.353 116.957H153.895H174.613H176.941L179.463 104.213H177.135H161.46H158.919C155.272 104.255 152.711 103.444 151.198 101.865Z" fill="white"/>
<path d="M362.086 83.3997C362.765 80.0696 363.095 77.38 363.095 75.3094C363.095 68.7347 361.019 64.1238 356.848 61.5195C352.833 59.0007 347.013 57.6985 339.389 57.6131C339.098 57.6131 338.827 57.5918 338.516 57.5918C337.973 57.5918 337.488 57.6131 336.984 57.6131C333.201 57.6558 330.039 57.8266 327.595 58.1468C324.801 58.5097 322.202 59.1928 319.796 60.1961C317.371 61.1994 315.412 62.6936 313.899 64.6788C312.386 66.6854 311.047 69.2043 309.864 72.2782C308.68 75.3521 307.594 79.2798 306.585 84.0828C305.383 89.9317 304.781 94.9054 304.781 99.0466C304.781 105.173 306.256 109.699 309.204 112.623C312.153 115.547 316.828 116.999 323.21 116.999H325.752H351.087H353.415L355.84 104.575H353.512H332.406H329.864C326.566 104.575 324.258 103.999 322.919 102.868C321.581 101.715 320.902 99.9645 320.902 97.5951C320.902 96.1862 321.038 94.7773 321.309 93.3898H323.851H349.089H351.417C354.579 93.3898 356.965 92.6 358.614 90.999C360.263 89.4194 361.427 86.8791 362.086 83.3997ZM340.825 81.4145H326.159H323.618C324.491 77.1238 325.926 74.1567 327.944 72.4916C329.767 70.9974 332.483 70.2076 336.014 70.0581C336.382 70.0368 336.712 69.9941 337.1 69.9941C339.777 69.9941 342.105 70.4851 344.045 71.4884C345.985 72.4916 346.974 74.0926 346.974 76.3126C346.974 76.6115 346.897 77.1238 346.78 77.8709C346.315 80.2404 345.093 81.4145 343.153 81.4145H340.825Z" fill="white"/>
<path d="M359.855 39.4043H356.926V49.2877H359.855V39.4043Z" fill="#00EDE6"/>
<path d="M347.923 39.4043H344.645V49.2877H347.923V39.4043Z" fill="#FA0339"/>
<path d="M350.871 49.2877H353.645H356.923V39.4043H353.645H350.871H347.941V49.2877H350.871Z" fill="white"/>
<path d="M261.246 92.2793H258.434V102.163H261.246V92.2793Z" fill="#00EDE6"/>
<path d="M243.284 72.3211C243.284 73.794 243.149 75.3096 242.877 76.8679L239.928 92.28H242.47L245.418 76.8679C245.69 75.3096 245.826 73.794 245.826 72.3211C245.826 68.1158 244.681 64.7004 242.392 62.1175C240.103 59.5346 236.824 58.2324 232.518 58.2324H229.977C234.283 58.2324 237.562 59.5346 239.851 62.1175C242.159 64.7217 243.284 68.1158 243.284 72.3211Z" fill="#00EDE6"/>
<path d="M238.068 102.164L237.35 105.921C236.613 109.699 235.294 112.474 233.373 114.289C231.453 116.103 228.679 117 225.07 117H227.612C231.239 117 234.013 116.103 235.914 114.289C237.835 112.474 239.154 109.699 239.891 105.921L240.609 102.164H240.008H238.068Z" fill="#00EDE6"/>
<path d="M203.631 100.924C203.631 99.7504 203.806 98.491 204.136 97.1461C204.601 95.225 205.299 93.9228 206.192 93.2611C207.104 92.5994 208.364 92.2578 209.975 92.2578H207.433C205.823 92.2578 204.562 92.5994 203.651 93.2611C202.739 93.9228 202.06 95.225 201.594 97.1461C201.264 98.4696 201.09 99.7291 201.09 100.924C201.09 103.657 202.331 105.023 204.814 105.023H207.356C204.873 105.023 203.631 103.657 203.631 100.924Z" fill="#00EDE6"/>
<path d="M237.346 105.92L238.064 102.163H236.861V92.28H239.946L242.894 76.8679C243.166 75.3096 243.302 73.794 243.302 72.3211C243.302 68.1158 242.157 64.7004 239.868 62.1175C237.579 59.5346 234.301 58.2324 229.994 58.2324H199.596H197.054L194.63 70.6561H197.171H219.286H221.614C225.377 70.6561 227.259 72.3638 227.259 75.7579C227.259 76.0567 227.181 76.7185 227.065 77.7431L226.56 80.2833H224.233H204.833H202.292C197.384 80.2833 193.582 81.5214 190.866 83.9976C188.15 86.4738 186.346 90.4442 185.473 95.9089C185.143 98.3424 184.969 100.562 184.969 102.569C184.969 107.009 186.036 110.51 188.15 113.093C190.265 115.676 193.272 116.978 197.171 116.978H199.712H222.739H225.067C228.694 116.978 231.468 116.081 233.37 114.267C235.29 112.474 236.609 109.677 237.346 105.92ZM215.891 105.024H207.375H204.833C202.35 105.024 201.109 103.658 201.109 100.925C201.109 99.7513 201.283 98.4919 201.613 97.147C202.079 95.2259 202.777 93.9237 203.669 93.262C204.581 92.6002 205.842 92.2587 207.452 92.2587H209.994H219.732V102.142H219.945H222.273C221.594 104.042 220.256 105.003 218.238 105.003H215.891V105.024Z" fill="white"/>
<path d="M240.023 92.2793V102.163H240.605H242.836V92.2793H240.023Z" fill="#FA0339"/>
<path d="M90.3401 84.1895H87.5078V94.0729H90.3401V84.1895Z" fill="#FA0339"/>
<path d="M6.53685 84.1895H3.91797V94.0729H6.53685V84.1895Z" fill="#FA0339"/>
<path d="M113.002 107.115H110.383V116.999H113.002V107.115Z" fill="#00EDE6"/>
<path d="M318.709 39.4043H316.09V49.2877H318.709V39.4043Z" fill="#00EDE6"/>
</g>
<defs>
<clipPath id="clip0_4005_64807">
<rect width="365.654" height="117" fill="white"/>
</clipPath>
</defs>
</svg>
