<svg width="200" height="200" viewBox="0 0 200 200" fill="none" xmlns="http://www.w3.org/2000/svg">
<path fill-rule="evenodd" clip-rule="evenodd" d="M40 54.1162V72.6972C40 72.6972 54.1942 56.9602 71.2633 56.9602C88.3325 56.9602 115.052 75.5413 127.014 75.5413C141.084 75.5413 150.065 71.21 160.587 61.1315V38.3792C160.587 38.3792 145.341 56.9602 127.014 56.9602C112.582 56.9602 90.5106 38 70.1853 38C54.5228 38 40 54.1162 40 54.1162Z" fill="white"/>
<path fill-rule="evenodd" clip-rule="evenodd" d="M40 97.3447V115.926C40 115.926 54.1942 100.189 71.2633 100.189C88.3325 100.189 115.052 118.77 127.014 118.77C141.084 118.77 150.065 114.439 160.587 104.36V81.6077C160.587 81.6077 145.341 100.189 127.014 100.189C112.582 100.189 90.5106 81.2285 70.1853 81.2285C54.5228 81.2285 40 97.3447 40 97.3447Z" fill="white"/>
<path fill-rule="evenodd" clip-rule="evenodd" d="M40 140.575V159.156C40 159.156 54.1942 143.419 71.2633 143.419C88.3325 143.419 115.052 162 127.014 162C141.084 162 150.065 157.67 160.587 147.59V124.838C160.587 124.838 145.341 143.419 127.014 143.419C112.582 143.419 90.5106 124.459 70.1853 124.459C54.5228 124.459 40 140.575 40 140.575Z" fill="white"/>
</svg>
