<svg width="14" height="13" viewBox="0 0 14 13" fill="none" xmlns="http://www.w3.org/2000/svg">
<path d="M8.8335 12.833H2.8335V11.583H8.85433C9.82655 11.583 10.6634 11.2601 11.3647 10.6143C12.0661 9.96842 12.4168 9.16634 12.4168 8.20801C12.4168 7.24967 12.0661 6.44759 11.3647 5.80176C10.6634 5.15592 9.82655 4.83301 8.85433 4.83301H2.7085L5.0835 7.20801L4.2085 8.08301L0.333496 4.20801L4.2085 0.333008L5.0835 1.20801L2.7085 3.58301H8.8335C10.1529 3.58301 11.2884 4.02745 12.2397 4.91634C13.1911 5.80523 13.6668 6.90245 13.6668 8.20801C13.6668 9.51356 13.1911 10.6108 12.2397 11.4997C11.2884 12.3886 10.1529 12.833 8.8335 12.833Z" fill="#A1A7B0"/>
</svg>
