<svg width="289" height="78" viewBox="0 0 289 78" fill="none" xmlns="http://www.w3.org/2000/svg">
<path d="M86.5091 8.87964L65.1357 53.92L86.9382 53.92L108.366 8.87964L86.5091 8.87964Z" fill="#FA0339"/>
<path d="M59.3549 8.87964L48.8798 30.9507L38.4048 8.87964L16.5505 8.87964L18.782 13.5691L0 53.92L21.8024 53.92L29.9222 36.9903L37.9786 53.92H37.9815H59.781H59.7839L81.212 8.87964L59.3549 8.87964Z" fill="#FA0339"/>
<path d="M289 17.0593L266.34 0L261.842 9.37309L220.325 9.37309L204.178 9.37309H204.019C202.513 9.37309 201.068 9.76459 199.801 10.4641C198.042 11.3968 196.588 12.8851 195.712 14.762L191.298 24.7425H191.301L184.563 39.1994L183.438 41.5024C180.555 47.3923 184.846 54.2609 191.402 54.2609L228.577 54.2609C232.208 54.2609 235.508 52.1594 237.042 48.8719L241.704 39.1303H241.641L247.932 26.3489L225.632 26.3489L219.565 39.1303H205.681L212.761 24.7425L254.463 24.7425L250.002 34.035L289 17.0593Z" fill="#FA0339"/>
<path d="M140.405 24.2446C144.903 23.5451 146.967 23.3119 149.023 19.0083L153.863 8.87231L113.823 8.87231L106.645 24.2446H114.431L110.201 33.1571L100.351 53.9155L122.153 53.9155L133.765 29.5069C133.763 29.5069 135.905 24.947 140.405 24.2446Z" fill="#FA0339"/>
<path d="M182.149 34.7839L184.018 30.8689L189.837 18.5163C193.594 8.87553 184.841 8.79492 184.841 8.79492L181.095 8.79492L159.031 8.79492L153.079 21.2482H163.569C163.569 21.2482 166.01 21.4497 165.846 23.5253C165.679 25.6008 163.905 25.7736 163.905 25.7736L157.156 26.0499C157.156 26.0499 153.862 25.9434 146.33 26.6372C140.18 27.5526 136.65 34.4788 136.65 34.4788L127.104 53.8381L148.907 53.8381L153.845 43.1322C153.857 43.1092 153.868 43.0861 153.877 43.0631C154.438 41.7044 154.749 41.1632 155.495 41.1632C156.16 41.1632 156.773 43.089 156.773 43.089L160.246 53.8381H182.074L176.531 40.5989C179.917 39.1769 182.149 34.7839 182.149 34.7839Z" fill="#FA0339"/>
<path d="M253.562 72.0034C252.584 72.0034 251.652 72.0034 250.687 72.0034C250.87 71.4503 251.047 70.9202 251.219 70.3883C251.258 70.2683 251.346 70.2789 251.439 70.2789C253.563 70.2798 255.686 70.2816 257.81 70.2763C258.008 70.2754 257.996 70.3477 257.948 70.4933C257.276 72.4973 256.617 74.5058 255.936 76.5063C255.711 77.1661 255.115 77.3487 254.512 77.4792C254.081 77.5727 253.639 77.6027 253.197 77.6027C250.499 77.6036 247.802 77.6045 245.104 77.6018C244.632 77.601 244.16 77.5745 243.707 77.4263C243.141 77.2411 242.997 76.9597 243.184 76.3969C244.424 72.6667 245.672 68.9391 246.903 65.2053C247.103 64.5975 247.53 64.295 248.1 64.1336C248.616 63.9872 249.148 63.9431 249.683 63.9422C252.38 63.9395 255.078 63.9395 257.776 63.9422C258.259 63.9431 258.741 63.9739 259.204 64.1248C259.765 64.3082 259.909 64.5967 259.725 65.1532C259.424 66.0644 259.116 66.9738 258.824 67.8877C258.764 68.0746 258.678 68.1337 258.48 68.132C257.371 68.1205 256.263 68.117 255.156 68.1329C254.868 68.1373 254.871 68.0517 254.951 67.8259C255.17 67.2093 255.364 66.584 255.579 65.9665C255.638 65.7972 255.662 65.7195 255.425 65.7213C253.886 65.731 252.348 65.7292 250.809 65.7222C250.645 65.7213 250.58 65.7786 250.531 65.9251C249.46 69.1534 248.387 72.3818 247.307 75.6066C247.24 75.8077 247.293 75.8218 247.467 75.8209C249.006 75.8165 250.544 75.8183 252.083 75.8183C252.194 75.8183 252.294 75.8324 252.343 75.6816C252.738 74.4687 253.144 73.2585 253.562 72.0034Z" fill="white"/>
<path d="M266.585 63.941C265.264 67.9077 263.95 71.8487 262.628 75.8189C263.491 75.8189 264.32 75.8189 265.148 75.8189C265.959 75.8189 266.769 75.8101 267.58 75.8251C267.791 75.8286 267.874 75.766 267.94 75.5658C269.186 71.8002 270.444 68.0373 271.69 64.2718C271.773 64.0204 271.876 63.9278 272.155 63.9331C273.313 63.9534 274.471 63.9419 275.667 63.9419C275.428 64.6546 275.198 65.34 274.97 66.0253C273.834 69.4372 272.69 72.8455 271.571 76.2626C271.358 76.9144 270.927 77.2558 270.304 77.4207C269.796 77.5557 269.275 77.6024 268.751 77.6024C266.002 77.606 263.252 77.606 260.503 77.6024C260.021 77.6016 259.538 77.5707 259.077 77.4163C258.535 77.2355 258.393 76.9462 258.575 76.3993C259.931 72.3198 261.29 68.2411 262.647 64.1624C262.689 64.0363 262.716 63.934 262.903 63.9357C264.113 63.9472 265.324 63.941 266.585 63.941Z" fill="white"/>
<path d="M227.045 77.6022C228.234 75.9025 229.389 74.2504 230.544 72.5991C232.522 69.7712 234.501 66.9442 236.474 64.1137C236.59 63.947 236.703 63.8702 236.917 63.8729C238.086 63.8852 239.255 63.8835 240.424 63.8738C240.634 63.872 240.723 63.8993 240.729 64.1472C240.826 67.9692 240.934 71.7912 241.041 75.6132C241.058 76.1971 241.073 76.781 241.101 77.3649C241.11 77.5431 241.077 77.611 240.875 77.6084C239.747 77.5969 238.619 77.5996 237.491 77.6066C237.316 77.6075 237.266 77.5608 237.274 77.3861C237.306 76.6796 237.314 75.9722 237.352 75.2656C237.364 75.0575 237.304 75.0134 237.105 75.0142C235.649 75.0222 234.193 75.0222 232.736 75.0142C232.557 75.0134 232.464 75.0786 232.375 75.2215C231.921 75.9519 231.458 76.6761 230.997 77.4011C230.935 77.4999 230.892 77.6075 230.728 77.6066C229.52 77.5987 228.311 77.6022 227.045 77.6022ZM233.615 73.2325C234.865 73.2325 236.063 73.2289 237.26 73.236C237.456 73.2369 237.407 73.1072 237.41 73.0084C237.468 71.1023 237.524 69.1961 237.578 67.2909C237.58 67.2406 237.622 67.1683 237.524 67.1356C236.234 69.1494 234.941 71.1649 233.615 73.2325Z" fill="white"/>
<path d="M226.459 75.809C226.268 76.3753 226.084 76.8948 225.923 77.4205C225.876 77.5722 225.807 77.6199 225.665 77.6031C225.635 77.5996 225.603 77.6022 225.572 77.6022C222.196 77.6022 218.821 77.5996 215.445 77.6075C215.181 77.6084 215.151 77.5537 215.233 77.3085C216.699 72.9299 218.157 68.5478 219.615 64.1657C219.662 64.0237 219.704 63.932 219.899 63.9329C223.326 63.9417 226.752 63.939 230.179 63.9399C230.209 63.9399 230.24 63.947 230.305 63.9549C230.122 64.5133 229.941 65.0646 229.759 65.615C229.703 65.787 229.556 65.7226 229.446 65.7226C227.384 65.7261 225.321 65.7296 223.26 65.7191C223.025 65.7182 222.933 65.7834 222.861 66.0101C222.488 67.178 222.092 68.3388 221.705 69.5022C221.683 69.5684 221.633 69.6292 221.669 69.721C223.58 69.721 225.496 69.721 227.449 69.721C227.257 70.2934 227.067 70.8412 226.893 71.3934C226.834 71.5813 226.694 71.5054 226.59 71.5063C224.846 71.5116 223.102 71.5151 221.357 71.5036C221.117 71.5019 221.003 71.5583 220.925 71.8C220.513 73.0843 220.081 74.3624 219.656 75.6423C219.64 75.689 219.627 75.7375 219.607 75.8081C221.89 75.809 224.153 75.809 226.459 75.809Z" fill="white"/>
<path d="M280.184 69.728C282.145 69.728 284.061 69.728 286.007 69.728C285.818 70.2917 285.626 70.8297 285.46 71.3749C285.403 71.5592 285.28 71.508 285.17 71.508C283.744 71.5107 282.318 71.5098 280.892 71.5098C280.522 71.5098 280.154 71.5142 279.784 71.5072C279.658 71.5045 279.579 71.5274 279.534 71.6651C279.088 73.0243 278.633 74.3809 278.184 75.7384C278.178 75.7561 278.188 75.7781 278.192 75.8134C280.456 75.8134 282.721 75.8134 285.014 75.8134C284.823 76.3859 284.636 76.9345 284.461 77.4867C284.408 77.6534 284.284 77.5978 284.184 77.5987C282.912 77.6022 281.639 77.6014 280.367 77.6014C278.244 77.6014 276.12 77.5978 273.995 77.6066C273.756 77.6075 273.703 77.5784 273.787 77.3279C275.257 72.9388 276.716 68.5469 278.177 64.1551C278.221 64.0255 278.254 63.9329 278.438 63.9329C281.875 63.9408 285.311 63.939 288.749 63.9399C288.777 63.9399 288.805 63.9514 288.862 63.9637C288.678 64.523 288.499 65.0743 288.314 65.6238C288.257 65.7914 288.105 65.7217 287.995 65.7217C285.933 65.7252 283.871 65.7279 281.809 65.719C281.592 65.7182 281.496 65.7764 281.428 65.9898C281.029 67.2247 280.611 68.4517 280.184 69.728Z" fill="white"/>
<path d="M207.673 75.7612C209.782 75.7612 211.86 75.7612 213.968 75.7612C213.773 76.346 213.58 76.9044 213.405 77.4671C213.344 77.6656 213.199 77.6012 213.081 77.6012C210.907 77.6047 208.733 77.6039 206.559 77.6039C205.453 77.6039 204.346 77.6039 203.202 77.6039C203.432 76.9097 203.649 76.242 203.872 75.576C205.134 71.7884 206.4 68.0026 207.658 64.2132C207.725 64.0077 207.806 63.9327 208.032 63.9354C209.21 63.9486 210.39 63.9415 211.611 63.9415C210.297 67.8861 208.99 71.8105 207.673 75.7612Z" fill="white"/>
<path d="M201.708 68.9131L86.4502 69.4771L200.257 72.4509L201.708 68.9131Z" fill="white"/>
</svg>
