<svg width="16" height="15" viewBox="0 0 16 15" fill="none" xmlns="http://www.w3.org/2000/svg">
<path d="M14.2637 5.14177C13.2316 5.05455 12.1705 4.96733 11.1239 4.91646C10.9049 4.9162 10.6919 4.84534 10.5165 4.71441C10.341 4.58347 10.2125 4.39944 10.1499 4.18964C9.67021 2.96131 9.17597 1.73298 8.69627 0.511917C8.67225 0.417711 8.61472 0.335488 8.53445 0.280638C8.45418 0.225787 8.35668 0.202068 8.26018 0.21392C8.16557 0.207338 8.07145 0.232303 7.99255 0.284907C7.91364 0.337512 7.85439 0.41479 7.82408 0.50465C7.82408 0.584601 7.7514 0.657282 7.72233 0.737233V0.773573L6.3123 4.20417C6.25913 4.38047 6.15196 4.53562 6.00591 4.64777C5.85987 4.75991 5.6823 4.82338 5.49826 4.82924L3.0416 4.98914L1.37718 5.09816C1.26774 5.1069 1.16525 5.1553 1.08897 5.23426C1.01268 5.31322 0.967854 5.41731 0.962891 5.52699C0.962891 5.73777 1.04284 5.87586 1.39171 6.16659L2.80175 7.35131L4.20451 8.53603C4.34978 8.64874 4.45742 8.80289 4.51322 8.97808C4.56902 9.15327 4.57036 9.34127 4.51705 9.51724C4.25539 10.5203 4.001 11.5233 3.74661 12.5335L3.50677 13.4857C3.48973 13.5465 3.48545 13.6102 3.49421 13.6727C3.50296 13.7352 3.52456 13.7953 3.55764 13.8491C3.58499 13.8955 3.62176 13.9356 3.66558 13.9669C3.70939 13.9982 3.75928 14.02 3.81203 14.0308C3.91207 14.0492 4.01487 14.0465 4.11378 14.0227C4.21269 13.9989 4.30551 13.9546 4.38622 13.8927C4.85865 13.5874 5.35289 13.2822 5.83986 12.9769L7.52609 11.923C7.70847 11.7978 7.92279 11.7272 8.14389 11.7195C8.35948 11.7266 8.56865 11.7946 8.74715 11.9157C9.64114 12.4972 10.5715 13.0787 11.4655 13.6456L12.0396 14.0017C12.1217 14.0676 12.2214 14.1076 12.3263 14.1167C12.4311 14.1258 12.5363 14.1035 12.6284 14.0526C12.7196 13.9885 12.7864 13.8955 12.8181 13.7886C12.8498 13.6817 12.8444 13.5673 12.8028 13.4639L12.6574 12.8606C12.4176 11.8649 12.1632 10.8328 11.9306 9.8225C11.8556 9.58883 11.8559 9.33748 11.9316 9.104C12.0072 8.87053 12.1544 8.66675 12.3522 8.52149C13.079 7.96911 13.7331 7.39492 14.4018 6.84254L15.3103 6.11571C15.5211 5.94854 15.5139 5.86132 15.5139 5.81045V5.76684C15.529 5.66075 15.5059 5.55272 15.4486 5.46214C15.3914 5.37156 15.3037 5.30436 15.2013 5.2726C15.0635 5.23608 14.9222 5.21416 14.7798 5.20718L14.2637 5.14177Z" fill="#C7D5FA"/>
<path d="M5.42589 3.9419V3.86921L6.41437 1.4707C4.90639 1.88579 3.59512 2.82351 2.71484 4.11633H2.91835L5.42589 3.9419Z" fill="#C7D5FA"/>
<path d="M11.1603 4.02348C12.0179 4.06709 12.8756 4.1325 13.7114 4.19792C12.8461 2.88789 11.5422 1.92926 10.0337 1.49414C10.3462 2.26457 10.666 3.07134 10.9786 3.87084C11.044 4.01621 11.0512 4.01621 11.1603 4.02348Z" fill="#C7D5FA"/>
<path d="M12.8758 9.2251C12.7305 9.33412 12.7014 9.39226 12.7595 9.61031C12.963 10.4025 13.1593 11.1948 13.3483 11.9798C14.2956 10.8075 14.8091 9.34405 14.8019 7.83686C14.8019 7.77145 14.8019 7.70604 14.8019 7.64062C14.1768 8.15667 13.53 8.70178 12.8758 9.2251Z" fill="#C7D5FA"/>
<path d="M3.63749 9.25556L2.2638 8.09265L2.13297 7.98362L1.646 7.56934C1.646 7.67109 1.646 7.76557 1.646 7.86733C1.64639 9.32325 2.12665 10.7385 3.01242 11.8939C3.23047 11.0435 3.44851 10.1786 3.67383 9.32824C3.63022 9.28463 3.63749 9.2701 3.63749 9.25556Z" fill="#C7D5FA"/>
<path d="M8.12967 12.6279C8.07983 12.6366 8.03261 12.6565 7.99157 12.6861C7.41738 13.0568 6.85046 13.4129 6.29808 13.7472L5.88379 14.0089C7.34754 14.5611 8.95963 14.5765 10.4337 14.0525C9.70687 13.6019 8.98005 13.1367 8.25323 12.6715C8.21627 12.647 8.17382 12.6321 8.12967 12.6279Z" fill="#C7D5FA"/>
</svg>
