<svg width="152" height="73" viewBox="0 0 152 73" fill="none" xmlns="http://www.w3.org/2000/svg">
<g opacity="0.2">
<path d="M15.3259 72.7776L0.444323 72.7776L32.1382 5.54152e-06L47.0197 8.1435e-06L15.3259 72.7776Z" fill="url(#paint0_linear_1178_5121)"/>
<path d="M36.2143 72.7776L21.3328 72.7776L53.0266 5.54152e-06L67.9081 8.1435e-06L36.2143 72.7776Z" fill="url(#paint1_linear_1178_5121)"/>
<path d="M57.1035 72.7776L42.2219 72.7776L73.9157 5.54152e-06L88.7973 8.1435e-06L57.1035 72.7776Z" fill="url(#paint2_linear_1178_5121)"/>
<path d="M77.9924 72.7776L63.1108 72.7776L94.8047 5.54152e-06L109.686 8.1435e-06L77.9924 72.7776Z" fill="url(#paint3_linear_1178_5121)"/>
<path d="M98.8808 72.7776L83.9993 72.7776L115.693 5.54152e-06L130.575 8.1435e-06L98.8808 72.7776Z" fill="url(#paint4_linear_1178_5121)"/>
<path d="M119.77 72.7776L104.888 72.7776L136.582 5.54152e-06L151.464 8.1435e-06L119.77 72.7776Z" fill="url(#paint5_linear_1178_5121)"/>
</g>
<defs>
<linearGradient id="paint0_linear_1178_5121" x1="49.9554" y1="-67.4263" x2="-42.3437" y2="-34.5479" gradientUnits="userSpaceOnUse">
<stop stop-color="white"/>
<stop offset="0.771572" stop-color="white" stop-opacity="0"/>
</linearGradient>
<linearGradient id="paint1_linear_1178_5121" x1="70.8439" y1="-67.4263" x2="-21.4552" y2="-34.5479" gradientUnits="userSpaceOnUse">
<stop stop-color="white"/>
<stop offset="0.771572" stop-color="white" stop-opacity="0"/>
</linearGradient>
<linearGradient id="paint2_linear_1178_5121" x1="91.733" y1="-67.4263" x2="-0.566067" y2="-34.5479" gradientUnits="userSpaceOnUse">
<stop stop-color="white"/>
<stop offset="0.771572" stop-color="white" stop-opacity="0"/>
</linearGradient>
<linearGradient id="paint3_linear_1178_5121" x1="112.622" y1="-67.4263" x2="20.3228" y2="-34.5479" gradientUnits="userSpaceOnUse">
<stop stop-color="white"/>
<stop offset="0.771572" stop-color="white" stop-opacity="0"/>
</linearGradient>
<linearGradient id="paint4_linear_1178_5121" x1="133.51" y1="-67.4263" x2="41.2113" y2="-34.5479" gradientUnits="userSpaceOnUse">
<stop stop-color="white"/>
<stop offset="0.771572" stop-color="white" stop-opacity="0"/>
</linearGradient>
<linearGradient id="paint5_linear_1178_5121" x1="154.4" y1="-67.4263" x2="62.1004" y2="-34.5479" gradientUnits="userSpaceOnUse">
<stop stop-color="white"/>
<stop offset="0.771572" stop-color="white" stop-opacity="0"/>
</linearGradient>
</defs>
</svg>
