<svg width="200" height="200" viewBox="0 0 200 200" fill="none" xmlns="http://www.w3.org/2000/svg">
<path fill-rule="evenodd" clip-rule="evenodd" d="M166.551 72.1387L96.9844 144.217V168.317C96.9844 168.317 102.087 172.862 115.236 172.862C117.069 172.862 166.551 119.935 166.551 119.935V72.1387Z" fill="white"/>
<path fill-rule="evenodd" clip-rule="evenodd" d="M163.559 27.1284V54.985C163.559 54.985 53.5443 168.663 52.2519 169.93C50.9595 171.197 45.3471 175.02 34 173.742V139.141L149.346 28.008C149.346 28.008 150.479 26.5712 163.559 27.1284Z" fill="white"/>
<path fill-rule="evenodd" clip-rule="evenodd" d="M96.8344 35.0452V56.744C96.8344 56.744 94.2328 64.5219 88.0077 69.7926C81.7826 75.0634 46.7352 108.702 42.9763 108.938C39.2175 109.175 34 106.886 34 106.886V75.2173L82.0235 35.0452C82.0235 35.0452 93.2699 32.5793 96.8344 35.0452Z" fill="white"/>
</svg>
