<svg width="32" height="33" viewBox="0 0 32 33" fill="none" xmlns="http://www.w3.org/2000/svg">
<path d="M29.1211 9.43259C28.9629 9.31211 28.8476 9.14386 28.7923 8.95281C27.9446 6.02315 25.2201 3.97702 22.1668 3.97702C21.6045 3.97702 21.0441 4.04525 20.5011 4.17989C20.1265 4.27275 19.7334 4.12364 19.5146 3.80577C18.0897 1.73568 15.7412 0.499842 13.2327 0.499842C11.3252 0.499842 9.49991 1.20812 8.09317 2.49405C6.69507 3.77199 5.82653 5.50925 5.64713 7.38596C5.61617 7.71048 5.41697 7.99489 5.12257 8.13485C5.03071 8.17845 4.93834 8.22605 4.84798 8.27598C4.77076 8.31875 4.68771 8.3502 4.60134 8.36951C3.31525 8.65658 2.14698 9.37934 1.31189 10.4048C0.453662 11.4583 0 12.7347 0 14.0927C0 17.3279 2.64657 19.959 5.89958 19.959H25.5383C28.7913 19.959 31.4377 17.3279 31.4377 14.0927C31.4377 12.2521 30.5933 10.5538 29.1211 9.43259Z" fill="#5A6474"/>
<path d="M28.8742 23.9549C28.8742 23.4423 28.4592 23.0279 27.9473 23.0279H3.60453C3.09262 23.0279 2.67773 23.4423 2.67773 23.9549C2.67773 24.4658 3.09262 24.8818 3.60453 24.8818H27.9473C28.4592 24.8818 28.8742 24.4658 28.8742 23.9549Z" fill="#5A6474"/>
<path d="M26.6064 30.646H2.26387C1.75196 30.646 1.33691 31.0621 1.33691 31.5731C1.33691 32.0856 1.75196 32.5 2.26387 32.5H26.6064C27.1183 32.5 27.5334 32.0856 27.5334 31.5731C27.5334 31.0621 27.1183 30.646 26.6064 30.646Z" fill="#5A6474"/>
<path d="M7.77559 26.8883C7.26368 26.8883 6.84863 27.3027 6.84863 27.8152C6.84863 28.3261 7.26368 28.7422 7.77559 28.7422H16.6967C17.2086 28.7422 17.6235 28.3261 17.6235 27.8152C17.6235 27.3027 17.2086 26.8883 16.6967 26.8883H7.77559Z" fill="#5A6474"/>
<path d="M30.8308 26.8883H21.9099C21.398 26.8883 20.9829 27.3027 20.9829 27.8152C20.9829 28.3261 21.398 28.7422 21.9099 28.7422H30.8308C31.3427 28.7422 31.7578 28.3261 31.7578 27.8152C31.7578 27.3027 31.3427 26.8883 30.8308 26.8883Z" fill="#5A6474"/>
</svg>
