<svg width="32" height="33" viewBox="0 0 32 33" fill="none" xmlns="http://www.w3.org/2000/svg">
<g clip-path="url(#clip0_903_3334)">
<path d="M11.8448 19.437C11.8448 16.2679 14.7123 13.688 18.2369 13.688C18.9983 13.688 19.7365 13.8053 20.439 14.0384C21.1667 13.2928 22.1128 12.7557 23.1581 12.4792C22.2269 10.5985 20.2783 9.34912 18.1284 9.34912C17.6712 9.34912 17.2156 9.40559 16.7742 9.51417C16.4483 9.59525 16.1064 9.46639 15.916 9.18987C14.7565 7.50469 12.8459 6.49996 10.8049 6.49996C9.25289 6.49996 7.76779 7.07616 6.62335 8.12144C5.486 9.16092 4.77921 10.5754 4.63327 12.1013C4.60635 12.3836 4.43305 12.6312 4.17694 12.7528C4.10224 12.789 4.02739 12.8266 3.95442 12.8671C3.8871 12.9048 3.81487 12.9323 3.73973 12.9497C2.69561 13.1828 1.74734 13.7691 1.06936 14.6016C0.372557 15.4572 0.00439453 16.4923 0.00439453 17.5955C0.00439453 20.2217 2.15286 22.3574 4.79383 22.3574H10.5444C10.703 21.377 11.1509 20.4548 11.8507 19.6831C11.8468 19.6006 11.8448 19.5196 11.8448 19.437Z" fill="#5A6474"/>
<path d="M29.2418 19.5712C28.8234 19.4192 28.6068 18.9574 28.7578 18.539C28.8818 18.1944 28.9448 17.8368 28.9448 17.4734C28.9448 15.9432 27.8292 14.633 26.2629 14.1176C25.8016 13.9655 25.3019 13.8801 24.7795 13.8801C24.506 13.8801 24.2366 13.9047 23.9738 13.9496C22.8985 14.132 21.9389 14.6764 21.314 15.4828C21.0888 15.7723 20.6956 15.8751 20.3579 15.7289C19.6953 15.4437 18.9816 15.2989 18.2366 15.2989C15.6012 15.2989 13.4573 17.1549 13.4573 19.4351C13.4573 19.5814 13.4665 19.7319 13.4849 19.881C13.5162 20.1329 13.4267 20.3848 13.2434 20.56C12.7102 21.074 12.3502 21.6926 12.1886 22.3555C12.125 22.6163 12.0913 22.8837 12.0913 23.1543C12.0913 23.4334 12.1264 23.7055 12.1915 23.9682C12.6257 25.7197 14.43 27.0371 16.5845 27.0371H27.5113C29.9886 27.0371 32.0043 25.2952 32.0043 23.1543C32.0043 21.585 30.92 20.1778 29.2418 19.5712Z" fill="#5A6474"/>
</g>
<defs>
<clipPath id="clip0_903_3334">
<rect width="32" height="32" fill="white" transform="translate(0 0.5)"/>
</clipPath>
</defs>
</svg>
