<svg width="61" height="220" viewBox="0 0 61 220" fill="none" xmlns="http://www.w3.org/2000/svg">
<path d="M3.65844 90.7619L3.65833 90.762C1.15794 93.1756 0.170327 95.6836 0.257123 99.0844C0.379655 103.698 0.357732 108.319 0.335832 112.934C0.324628 115.295 0.313432 117.655 0.321596 120.011L3.65844 90.7619ZM3.65844 90.7619C7.7395 86.8178 11.7428 82.8047 15.7434 78.7944C21.3999 73.1242 27.0508 67.4595 32.908 62.0032C34.9527 60.101 36.2948 58.1176 37.04 55.9612C37.785 53.8054 37.9277 51.4929 37.598 48.9408L37.598 48.9408M3.65844 90.7619L37.598 48.9408M37.598 48.9408C37.5034 48.2093 37.0939 47.3223 36.5081 46.8537L36.5076 46.8533L37.598 48.9408ZM27.216 54.1826L27.2163 54.1824C28.6882 52.4091 30.4022 50.8289 32.1012 49.2625C32.7756 48.6407 33.4476 48.0211 34.1013 47.3925C34.1014 47.3923 34.1016 47.3922 34.1018 47.392L34.2751 47.5722L27.216 54.1826ZM27.216 54.1826C24.2291 57.7918 20.4391 57.3741 16.4143 56.9304L16.3841 56.9271C15.3346 56.8097 14.794 55.8788 14.779 54.8616C14.7136 50.0695 14.7173 45.2777 14.7209 40.4838C14.7218 39.3773 14.7226 38.2706 14.7226 37.1638C14.7226 35.5137 15.7182 34.3721 16.8712 33.2191C19.6811 30.4252 22.4993 27.6393 25.3174 24.8534C32.4188 17.8332 39.5201 10.8132 46.4885 3.66615L46.4885 3.66614M27.216 54.1826L46.4885 3.66614M46.4885 3.66614C48.1504 1.96137 49.9384 1.41148 51.8017 1.28182C52.7388 1.21661 53.6936 1.25789 54.6662 1.3142C54.8083 1.32243 54.9508 1.33099 55.0937 1.33956C55.9243 1.38941 56.7673 1.44001 57.6059 1.43133L57.6071 1.43131C57.673 1.43032 57.7825 1.46119 57.9283 1.54713C58.0686 1.62986 58.2196 1.75011 58.3616 1.89171C58.5034 2.03299 58.6307 2.18997 58.7262 2.34215C58.8238 2.49754 58.8787 2.63262 58.8936 2.73195L58.8936 2.73195L58.8937 2.73263C59.1724 4.54791 59.2128 6.42345 59.2128 8.28929L59.2128 8.28964C59.2203 13.6528 59.2094 19.0168 59.1985 24.381C59.1741 36.4524 59.1497 48.525 59.3336 60.5925L59.3336 60.5925C59.4049 65.2321 57.8452 68.4365 54.6113 71.5908M46.4885 3.66614L54.6113 71.5908M54.6113 71.5908C42.2297 83.6518 29.9365 95.8018 17.644 107.951C12.9611 112.579 8.27837 117.207 3.5909 121.83L3.59064 121.831C3.49334 121.927 3.39908 122.023 3.30647 122.117C2.67626 122.759 2.12283 123.323 1.21488 123.351L54.6113 71.5908ZM16.6944 33.0423C19.5056 30.2471 22.3247 27.4603 25.1434 24.6739C32.2442 17.6544 39.3428 10.6369 46.3095 3.49163C49.0075 0.723975 52.0443 0.906161 55.1103 1.0901C55.9412 1.13995 56.7743 1.18992 57.6033 1.18134C58.1346 1.17329 59.0523 2.10707 59.1408 2.6947C59.4226 4.53005 59.4628 6.42174 59.4628 8.28929C59.4703 13.6543 59.4594 19.0193 59.4485 24.3841C59.4241 36.4543 59.3997 48.5234 59.5836 60.5887C59.656 65.3058 58.0622 68.574 54.7859 71.7698L16.6944 33.0423Z" stroke="#A6ACB4" stroke-width="0.5"/>
<path d="M19.321 186.35L19.3207 186.349C15.1113 182.214 10.8776 178.108 6.42661 173.792C4.72733 172.144 2.99637 170.465 1.22299 168.742C1.13905 169.034 1.05606 169.297 0.981122 169.534C0.933014 169.687 0.888226 169.829 0.848645 169.961C0.716923 170.401 0.641076 170.738 0.651726 171.061L0.652047 171.071L0.65186 171.071C0.633385 174.15 0.636132 177.232 0.638882 180.314C0.643311 185.282 0.64774 190.252 0.563279 195.215L0.563275 195.215C0.516248 197.786 1.30964 199.676 3.11276 201.448L3.11292 201.448C8.27412 206.529 13.3793 211.674 18.3882 216.901C20.1432 218.726 22.0001 219.503 24.5546 219.456L24.555 219.456C31.5574 219.337 38.5648 219.314 45.5714 219.291C48.4896 219.281 51.4076 219.272 54.3251 219.255M19.321 186.35L54.3273 219.505M19.321 186.35C20.8527 187.849 22.3585 189.375 23.8639 190.904L24.1422 191.186C25.5543 192.62 26.9673 194.055 28.4 195.469M19.321 186.35L28.4 195.469M54.3251 219.255C54.3254 219.255 54.3256 219.255 54.3259 219.255L54.3273 219.505M54.3251 219.255C54.325 219.255 54.3249 219.255 54.3248 219.255L54.3273 219.505M54.3251 219.255C54.5013 219.253 54.6766 219.253 54.851 219.252C55.4837 219.25 56.1054 219.248 56.7196 219.192L56.72 219.192C57.8784 219.089 58.5923 218.836 59.0436 218.352C59.4974 217.864 59.7333 217.091 59.801 215.821M54.3273 219.505C54.4998 219.503 54.6727 219.503 54.8457 219.502C55.48 219.5 56.1161 219.498 56.7422 219.441C59.0927 219.231 59.9138 218.402 60.0507 215.834M59.801 215.821L60.0507 215.834M59.801 215.821C59.801 215.821 59.801 215.821 59.801 215.821L60.0507 215.834M59.801 215.821C59.8851 214.23 59.8746 212.632 59.8641 211.022C59.8605 210.484 59.857 209.944 59.857 209.403L59.857 209.26L59.857 209.117L59.857 208.974L59.857 208.831L59.857 208.688L59.857 208.545L59.857 208.402L59.857 208.259L59.857 208.115L59.857 207.972L59.857 207.829L59.857 207.686L59.857 207.543L59.857 207.4L59.857 207.257L59.857 207.114L59.857 206.971L59.857 206.828L59.857 206.685L59.857 206.542L59.857 206.399L59.857 206.256L59.857 206.113L59.857 205.97L59.857 205.827L59.857 205.684L59.857 205.541L59.857 205.398L59.857 205.255L59.857 205.112L59.857 204.969L59.857 204.826L59.857 204.683L59.857 204.54L59.857 204.397L59.857 204.254L59.857 204.111L59.857 203.968L59.857 203.825L59.857 203.682L59.857 203.539L59.857 203.396L59.857 203.253L59.857 203.11L59.857 202.967L59.857 202.824L59.857 202.681L59.857 202.538L59.857 202.395L59.857 202.252L59.857 202.109L59.857 201.966L59.857 201.823L59.857 201.68L59.857 201.537L59.857 201.394L59.857 201.251L59.857 201.108L59.857 200.965L59.857 200.822L59.857 200.679L59.857 200.536L59.857 200.393L59.857 200.25L59.857 200.107L59.857 199.964L59.857 199.821L59.857 199.678L59.857 199.535L59.857 199.392L59.857 199.249L59.857 199.105L59.857 198.962L59.857 198.819L59.857 198.676L59.857 198.533L59.857 198.39L59.857 198.247L59.857 198.104L59.857 197.961L59.857 197.818L59.857 197.675L59.857 197.532L59.857 197.389L59.857 197.246L59.857 197.103L59.857 196.96L59.857 196.817L59.857 196.674L59.857 196.531L59.857 196.388L59.857 196.245L59.857 196.102L59.857 195.959L59.857 195.816L59.857 195.673L59.857 195.53L59.857 195.387L59.857 195.244L59.857 195.101L59.857 194.958L59.857 194.815L59.857 194.672L59.857 194.529L59.857 194.386L59.857 194.243L59.857 194.1L59.857 193.957L59.857 193.814L59.857 193.671L59.857 193.528L59.857 193.385L59.857 193.242L59.857 193.099L59.857 192.955L59.857 192.812L59.857 192.669L59.857 192.526L59.857 192.383L59.857 192.24L59.857 192.097L59.857 191.954L59.857 191.811L59.857 191.668L59.857 191.525L59.857 191.382L59.857 191.239L59.857 191.096L59.857 190.953L59.857 190.81L59.857 190.667L59.857 190.524L59.857 190.381L59.857 190.238L59.857 190.095L59.857 189.952L59.857 189.809L59.857 189.666L59.857 189.523L59.857 189.38L59.857 189.237L59.857 189.094L59.857 188.951L59.857 188.808L59.857 188.665L59.857 188.522L59.857 188.379L59.857 188.236L59.857 188.093L59.857 187.95L59.857 187.806L59.857 187.663L59.857 187.52L59.857 187.377L59.857 187.234L59.857 187.091L59.857 186.948L59.857 186.805L59.857 186.662L59.857 186.519L59.857 186.376L59.857 186.233L59.857 186.09L59.857 185.947L59.857 185.804L59.857 185.661L59.857 185.518L59.857 185.375L59.857 185.232L59.857 185.089L59.857 184.946L59.857 184.803L59.857 184.66L59.857 184.517L59.857 184.374L59.857 184.231L59.857 184.088L59.857 183.945L59.857 183.802L59.857 183.659L59.857 183.516L59.857 183.373L59.857 183.23L59.857 183.087L59.857 182.943L59.857 182.8L59.857 182.657L59.857 182.514L59.857 182.371L59.857 182.228L59.857 182.085L59.857 181.942L59.857 181.799L59.857 181.656L59.857 181.513L59.857 181.37L59.857 181.227L59.857 181.084L59.857 180.941L59.857 180.798L59.857 180.655L59.857 180.512L59.857 180.369L59.857 180.226L59.857 180.083L59.857 179.94L59.857 179.797L59.857 179.654L59.857 179.511L59.857 179.368L59.857 179.225L59.857 179.082L59.857 178.939L59.857 178.796L59.857 178.653L59.857 178.509L59.857 178.366L59.857 178.223L59.857 178.08L59.857 177.937L59.857 177.794L59.857 177.651L59.857 177.508L59.857 177.365L59.857 177.222L59.857 177.079L59.857 176.936L59.857 176.793L59.857 176.65L59.857 176.507L59.857 176.364L59.857 176.221L59.857 176.078L59.857 175.935L59.857 175.792L59.857 175.649L59.857 175.506L59.857 175.363L59.857 175.22L59.857 175.077L59.857 174.934L59.857 174.791L59.857 174.648L59.857 174.505L59.857 174.362L59.857 174.219L59.857 174.075L59.857 173.932L59.857 173.789L59.857 173.646L59.857 173.503L59.857 173.36L59.857 173.217L59.857 173.074L59.857 172.931L59.857 172.788L59.857 172.645L59.857 172.502L59.857 172.359L59.857 172.216L59.857 172.073L59.857 171.93L59.857 171.787L59.857 171.644L59.857 171.501L59.857 171.358L59.857 171.215L59.857 171.072L59.857 170.929L59.857 170.786L59.857 170.643L59.857 170.5L59.857 170.357L59.857 170.214L59.857 170.071L59.857 169.928L59.857 169.784L59.857 169.641L59.857 169.498L59.857 169.355L59.857 169.212L59.857 169.069L59.857 168.926L59.857 168.783L59.857 168.64L59.857 168.497L59.857 168.354L59.857 168.211L59.857 168.068L59.857 167.925L59.857 167.782L59.857 167.639L59.857 167.496L59.857 167.353L59.857 167.21L59.857 167.067L59.857 166.924L59.857 166.781L59.857 166.638L59.857 166.495L59.857 166.352L59.857 166.209L59.857 166.066L59.857 165.923L59.857 165.78L59.857 165.637L59.857 165.494L59.857 165.35L59.857 165.207L59.857 165.064L59.857 164.921L59.857 164.778L59.857 164.635L59.857 164.492L59.857 164.349L59.857 164.206L59.857 164.063L59.857 163.92L59.857 163.777L59.857 163.634L59.857 163.491L59.857 163.348L59.857 163.205L59.857 163.062L59.857 162.919L59.857 162.776L59.857 162.633L59.857 162.49L59.857 162.347L59.857 162.204L59.857 162.061L59.857 161.918L59.857 161.775L59.857 161.632L59.857 161.489L59.857 161.346L59.857 161.203L59.857 161.06L59.857 160.917L59.857 160.773L59.857 160.63L59.857 160.487L59.857 160.344L59.857 160.201L59.857 160.058L59.857 159.915L59.857 159.772L59.857 159.629L59.857 159.486L59.857 159.343L59.857 159.2L59.857 159.057L59.857 158.914L59.857 158.771L59.857 158.628L59.857 158.485L59.857 158.342L59.857 158.199L59.857 158.056L59.857 157.913L59.857 157.77L59.857 157.627L59.857 157.484L59.857 157.341L59.857 157.198L59.857 157.055L59.857 156.912L59.857 156.769L59.857 156.626L59.857 156.483L59.857 156.34L59.857 156.197L59.857 156.054L59.857 155.911L59.857 155.767L59.857 155.624L59.857 155.481L59.857 155.338L59.857 155.195L59.857 155.052L59.857 154.909L59.857 154.766L59.857 154.623L59.857 154.48L59.857 154.337L59.857 154.194L59.857 154.051L59.857 153.908L59.857 153.765L59.857 153.622L59.857 153.479L59.857 153.336L59.857 153.193L59.857 153.05L59.857 152.907L59.857 152.764L59.857 152.621L59.857 152.478L59.857 152.335L59.857 152.192L59.857 152.049L59.857 151.906L59.857 151.763L59.857 151.62L59.857 151.477L59.857 151.334L59.857 151.191L59.857 151.048L59.857 150.905L59.857 150.762L59.857 150.619L59.857 150.476L59.857 150.332L59.857 150.189L59.857 150.046L59.857 149.903L59.857 149.76L59.857 149.617L59.857 149.474L59.857 149.331L59.857 149.188L59.857 149.045L59.857 148.902L59.857 148.759L59.857 148.616L59.857 148.473L59.857 148.33L59.857 148.187L59.857 148.044L59.857 147.901L59.857 147.758L59.857 147.615L59.857 147.472L59.857 147.329L59.857 147.186L59.857 147.043L59.857 146.9L59.857 146.757L59.857 146.614L59.857 146.471L59.857 146.328L59.857 146.185L59.857 146.042L59.857 145.899L59.857 145.756L59.857 145.613L59.857 145.47L59.857 145.327L59.857 145.184L59.857 145.041L59.857 144.898L59.857 144.755L59.857 144.612L59.857 144.469L59.857 144.326L59.857 144.183L59.857 144.04L59.857 143.897L59.857 143.754L59.857 143.61L59.857 143.467L59.857 143.324L59.857 143.181L59.857 143.038L59.857 142.895L59.857 142.752L59.857 142.609L59.857 142.466L59.857 142.323L59.857 142.18L59.857 142.037L59.857 141.894L59.857 141.751L59.857 141.608L59.857 141.465L59.857 141.322L59.857 141.179L59.857 141.036L59.857 140.893L59.857 140.75L59.857 140.607L59.857 140.464L59.857 140.321L59.857 140.178L59.857 140.035L59.857 139.892L59.857 139.749L59.857 139.606L59.857 139.463L59.857 139.32L59.857 139.177L59.857 139.034L59.857 138.891L59.857 138.748L59.857 138.605L59.857 138.462L59.857 138.319L59.857 138.176L59.857 138.033L59.857 137.89L59.857 137.747L59.857 137.604L59.857 137.461L59.857 137.318L59.857 137.175L59.857 137.032L59.857 136.889L59.857 136.746L59.857 136.603L59.857 136.46L59.857 136.317L59.857 136.174C59.857 134.947 59.8583 133.721 59.8596 132.495C59.8629 129.431 59.8662 126.368 59.849 123.304C59.849 123.304 59.849 123.305 59.849 123.305L60.099 123.302M60.0507 215.834C60.1352 214.235 60.1246 212.626 60.1141 211.015C60.1105 210.478 60.107 209.94 60.107 209.403L60.107 136.174C60.107 134.948 60.1083 133.722 60.1096 132.496C60.1129 129.432 60.1162 126.367 60.099 123.302M60.099 123.302C60.0978 123.199 60.1002 123.093 60.1027 122.986C60.1178 122.315 60.134 121.6 59.294 121.274L59.849 123.304L60.099 123.302ZM28.4 195.469C29.3449 196.406 30.4258 197.339 31.9915 197.425M28.4 195.469L59.8521 123.01C59.8523 123 59.8525 122.991 59.8527 122.981C59.8547 122.893 59.8566 122.808 59.8568 122.722C59.857 122.533 59.8479 122.359 59.8143 122.201C59.781 122.046 59.725 121.914 59.6349 121.802C59.5455 121.691 59.4119 121.588 59.2035 121.507L59.2023 121.506L59.2023 121.506C58.8355 121.362 58.5214 121.363 58.2336 121.459C57.9384 121.556 57.6526 121.759 57.3607 122.047C55.9878 123.406 54.6255 124.781 53.2621 126.156C49.9006 129.548 46.5323 132.946 42.9832 136.134L42.9831 136.134C41.0757 137.847 39.7156 139.622 38.8475 141.622C37.9794 143.623 37.5969 145.864 37.6646 148.516M31.9915 197.425C31.9914 197.425 31.9912 197.425 31.991 197.425L32.0053 197.175L31.9915 197.425ZM31.9915 197.425C33.1213 197.489 34.0516 197.512 34.8076 197.441C35.5632 197.37 36.172 197.203 36.6396 196.864C37.1138 196.521 37.4133 196.023 37.5921 195.354C37.7692 194.69 37.8318 193.843 37.8257 192.778C37.7969 187.498 37.8176 182.215 37.8383 176.93C37.8755 167.458 37.9127 157.983 37.6646 148.516M37.6646 148.516C37.6646 148.516 37.6646 148.516 37.6646 148.516L37.4147 148.522L37.6646 148.516Z" stroke="#A6ACB4" stroke-width="0.5"/>
<path d="M14.6906 130.265L14.6906 130.298C14.6906 131.536 14.6824 132.629 14.6748 133.626C14.66 135.581 14.6481 137.167 14.7065 138.757C14.7366 139.533 14.7972 140.145 14.9139 140.627C15.0301 141.107 15.1981 141.442 15.4315 141.681C15.8984 142.159 16.7076 142.332 18.2333 142.292C18.2334 142.292 18.2334 142.292 18.2335 142.292L18.2401 142.542C18.9217 142.522 19.6107 142.554 20.3 142.586C22.7364 142.698 25.1752 142.811 27.2961 140.658L14.6906 130.265ZM14.6906 130.265L14.6818 130.232C13.0312 124.18 16.3041 119.194 21.6368 114.311C30.3206 106.368 38.6246 97.9673 46.6614 89.3668L46.6614 89.3667C50.3131 85.4559 54.3715 85.7336 58.8958 86.2327C59.5115 86.3028 60.1387 86.7627 60.1387 87.5942L60.1387 87.5952C60.1456 89.358 60.1539 91.1199 60.1621 92.8813C60.1826 97.274 60.2031 101.663 60.2031 106.052C60.2031 107.352 59.3398 108.214 58.4117 109.141C58.3813 109.171 58.3508 109.202 58.3203 109.232C55.2852 112.267 52.245 115.298 49.2047 118.329C41.8201 125.69 34.4345 133.052 27.118 140.483L14.6906 130.265Z" stroke="#A6ACB4" stroke-width="0.5"/>
</svg>
