<svg width="181" height="442" viewBox="0 0 181 442" fill="none" xmlns="http://www.w3.org/2000/svg">
<rect x="29.3867" y="436.676" width="1.91515" height="4.78788" fill="#888888"/>
<rect x="32.8984" y="363.531" width="1.59596" height="4.78788" transform="rotate(90 32.8984 363.531)" fill="#888888"/>
<rect x="33.2188" y="353" width="1.59596" height="4.78788" transform="rotate(90 33.2188 353)" fill="#888888"/>
<path d="M35.96 418.527L33.688 418.127L33.688 415.871L35.96 415.455L35.96 414.015L25.112 416.127L25.112 417.775L35.96 419.871L35.96 418.527ZM27.432 417.007L27.432 416.991L32.536 416.079L32.536 417.919L27.432 417.007Z" fill="#888888"/>
<path d="M30.888 414.006L30.888 411.622L29.752 411.622L29.752 414.006L30.888 414.006Z" fill="#888888"/>
<path d="M34.904 408.269C34.904 409.085 34.296 409.437 33.48 409.437L27.592 409.437C26.776 409.437 26.168 409.085 26.168 408.269C26.168 407.453 26.776 407.101 27.592 407.101L33.48 407.101C34.296 407.101 34.904 407.453 34.904 408.269ZM36.072 408.269C36.072 406.509 34.856 405.693 33.256 405.693L27.816 405.693C26.216 405.693 25 406.509 25 408.269C25 410.029 26.216 410.845 27.816 410.845L33.256 410.845C34.856 410.845 36.072 410.029 36.072 408.269Z" fill="#888888"/>
<path d="M34.904 402.205C34.904 403.021 34.296 403.373 33.48 403.373L27.592 403.373C26.776 403.373 26.168 403.021 26.168 402.205C26.168 401.389 26.776 401.037 27.592 401.037L33.48 401.037C34.296 401.037 34.904 401.389 34.904 402.205ZM36.072 402.205C36.072 400.445 34.856 399.629 33.256 399.629L27.816 399.629C26.216 399.629 25 400.445 25 402.205C25 403.965 26.216 404.781 27.816 404.781L33.256 404.781C34.856 404.781 36.072 403.965 36.072 402.205Z" fill="#888888"/>
<path d="M35.96 398.748L35.96 394.204L34.808 394.204L34.808 397.404L34.072 397.404C33.128 397.404 32.792 397.084 32.2 396.54L30.888 395.308C29.912 394.412 29.24 394.14 28.232 394.14L27.192 394.14C25.736 394.14 25 394.892 25 396.412C25 397.9 25.8 398.716 27.288 398.716L28.568 398.716L28.568 397.404L27.256 397.404C26.424 397.404 26.136 397.004 26.136 396.444C26.136 395.916 26.376 395.516 27.192 395.516L28.12 395.516C28.968 395.516 29.432 395.708 30.104 396.332L31.272 397.42C32.312 398.364 32.952 398.748 34.072 398.748L35.96 398.748Z" fill="#888888"/>
<rect x="28.9609" y="179" width="3.67341" height="3.67341" fill="#FA0339"/>
<rect x="28.9609" y="259.082" width="3.67341" height="3.67341" fill="#FA0339"/>
<rect x="28.9609" y="269.734" width="3.67341" height="3.67341" fill="#FA0339"/>
<g clip-path="url(#clip0_295_3069)">
<path d="M29.5664 124.133H30.7532V128.88H29.5664V124.133Z" fill="#717A88"/>
<path d="M32.5312 54.1133L32.5312 55.8935L27.784 55.8935L27.784 54.1133L32.5312 54.1133Z" fill="#717A88"/>
<path d="M31.9375 167.449L31.9375 169.229L28.3771 169.229L28.3771 167.449L31.9375 167.449Z" fill="#717A88"/>
<path d="M33.125 44.0234L33.125 45.2102L28.3778 45.2102L28.3778 44.0234L33.125 44.0234Z" fill="#717A88"/>
<path d="M57.4531 124.133H59.2333V128.88H57.4531V124.133Z" fill="#717A88"/>
<path d="M85.3438 124.133H87.124V128.88H85.3438V124.133Z" fill="#717A88"/>
<path d="M158.336 167.449H161.896V169.229H158.336V167.449Z" fill="#717A88"/>
<path d="M113.828 124.133H115.015V128.88H113.828V124.133Z" fill="#717A88"/>
<path d="M31.8843 98.56L30.7884 98.3663L30.7884 97.2737L31.8843 97.0723L31.8843 96.3749L26.6517 97.3977L26.6517 98.1958L31.8843 99.2109L31.8843 98.56ZM27.7707 97.8239L27.7707 97.8162L30.2327 97.3745L30.2327 98.2656L27.7707 97.8239Z" fill="#717A88"/>
<path d="M29.4378 96.3705L29.4378 95.2159L28.8898 95.2159L28.8898 96.3705L29.4378 96.3705Z" fill="#717A88"/>
<path d="M31.3749 93.592C31.3749 93.9872 31.0816 94.1577 30.688 94.1577L27.8479 94.1577C27.4543 94.1577 27.161 93.9872 27.161 93.592C27.161 93.1968 27.4543 93.0264 27.8479 93.0264L30.688 93.0264C31.0816 93.0264 31.3749 93.1968 31.3749 93.592ZM31.9383 93.592C31.9383 92.7397 31.3517 92.3445 30.58 92.3445L27.956 92.3445C27.1842 92.3445 26.5977 92.7397 26.5977 93.592C26.5977 94.4444 27.1842 94.8396 27.956 94.8396L30.58 94.8396C31.3517 94.8396 31.9383 94.4444 31.9383 93.592Z" fill="#717A88"/>
<path d="M31.3749 90.6551C31.3749 91.0502 31.0816 91.2207 30.688 91.2207L27.8479 91.2207C27.4543 91.2207 27.161 91.0502 27.161 90.6551C27.161 90.2599 27.4543 90.0894 27.8479 90.0894L30.688 90.0894C31.0816 90.0894 31.3749 90.2599 31.3749 90.6551ZM31.9383 90.6551C31.9383 89.8027 31.3517 89.4075 30.58 89.4075L27.956 89.4075C27.1842 89.4075 26.5977 89.8027 26.5977 90.6551C26.5977 91.5074 27.1842 91.9026 27.956 91.9026L30.58 91.9026C31.3517 91.9026 31.9383 91.5074 31.9383 90.6551Z" fill="#717A88"/>
<path d="M31.8843 88.9811L31.8843 86.7805L31.3286 86.7805L31.3286 88.3302L30.9736 88.3302C30.5182 88.3302 30.3562 88.1753 30.0706 87.9118L29.4378 87.3151C28.967 86.8812 28.6428 86.7495 28.1566 86.7495L27.655 86.7495C26.9527 86.7495 26.5977 87.1137 26.5977 87.8498C26.5977 88.5704 26.9835 88.9656 27.7013 88.9656L28.3187 88.9656L28.3187 88.3302L27.6858 88.3302C27.2845 88.3302 27.1456 88.1365 27.1456 87.8653C27.1456 87.6096 27.2614 87.4159 27.655 87.4159L28.1026 87.4159C28.5116 87.4159 28.7355 87.5089 29.0596 87.8111L29.623 88.338C30.1246 88.7952 30.4333 88.9811 30.9736 88.9811L31.8843 88.9811Z" fill="#717A88"/>
<path d="M132.353 97.3449L132.353 96.8269L133.379 96.8269C133.788 96.8269 134.035 96.9945 134.035 97.383C134.035 97.7868 133.734 97.9468 133.34 97.9468L130.516 97.9468C130.122 97.9468 129.821 97.7792 129.821 97.3602C129.821 96.9336 130.06 96.8117 130.469 96.8117L130.979 96.8117L130.979 96.187L130.516 96.187C129.775 96.187 129.258 96.4612 129.258 97.3754C129.258 98.2439 129.844 98.6172 130.616 98.6172L133.24 98.6172C134.004 98.6172 134.598 98.282 134.598 97.5202C134.598 97.0326 134.359 96.8117 134.027 96.6974L134.544 96.6974L134.544 96.187L131.812 96.187L131.812 97.3449L132.353 97.3449Z" fill="#717A88"/>
<path d="M134.544 94.008L134.544 93.2919L132.144 94.3051C132.059 93.6956 131.727 93.4442 131.118 93.4442L130.4 93.4442C129.713 93.4442 129.312 93.7566 129.312 94.5717L129.312 95.7221L134.544 95.7221L134.544 95.0517L132.028 95.0517L134.544 94.008ZM129.868 94.6479C129.868 94.2898 130.037 94.1146 130.377 94.1146L131.172 94.1146C131.519 94.1146 131.689 94.2898 131.689 94.6479L131.689 95.0517L129.868 95.0517L129.868 94.6479Z" fill="#717A88"/>
<path d="M129.312 91.0999L133.325 91.8084L133.325 91.816L129.312 92.5169L129.312 93.1949L134.544 92.1969L134.544 91.4579L129.312 90.4676L129.312 91.0999Z" fill="#717A88"/>
<path d="M134.544 90.0843L133.449 89.8938L133.449 88.8196L134.544 88.6216L134.544 87.9359L129.312 88.9415L129.312 89.7262L134.544 90.7242L134.544 90.0843ZM130.431 89.3605L130.431 89.3529L132.893 88.9187L132.893 89.7948L130.431 89.3605Z" fill="#717A88"/>
<path fill-rule="evenodd" clip-rule="evenodd" d="M84.5331 64.7929H133.128L180.882 -35.4922H132.172L108.827 13.6505L85.4828 -35.4922H36.7787L41.7518 -25.0509L-0.105469 64.7929H48.4831L66.5787 27.0979L84.5331 64.7929ZM48.2015 64.3462L66.5803 26.0613L84.8156 64.3462H132.846L180.174 -35.0454H132.455L108.827 14.6926L85.2 -35.0454H37.4868L42.2461 -25.053L0.596001 64.3462H48.2015Z" fill="#717A88"/>
</g>
<defs>
<clipPath id="clip0_295_3069">
<rect width="181" height="169" fill="white"/>
</clipPath>
</defs>
</svg>
