<svg width="20" height="16" viewBox="0 0 20 16" fill="none" xmlns="http://www.w3.org/2000/svg">
<path d="M16.9308 2.04163C15.6561 1.49351 14.2892 1.08968 12.8599 0.858392C12.8339 0.853928 12.8079 0.865084 12.7945 0.887395C12.6187 1.18041 12.4239 1.56267 12.2876 1.86313C10.7503 1.64746 9.22099 1.64746 7.71527 1.86313C7.57887 1.55599 7.37707 1.18041 7.20048 0.887395C7.18707 0.865828 7.16107 0.854673 7.13504 0.858392C5.70659 1.08894 4.33963 1.49277 3.06411 2.04163C3.05307 2.04609 3.04361 2.05353 3.03732 2.0632C0.444493 5.69323 -0.265792 9.23403 0.0826501 12.7309C0.0842267 12.748 0.0944749 12.7644 0.108665 12.7748C1.81934 13.9521 3.47642 14.6668 5.10273 15.1405C5.12876 15.148 5.15634 15.1391 5.1729 15.119C5.55761 14.6267 5.90054 14.1075 6.19456 13.5616C6.21192 13.5297 6.19535 13.4917 6.15989 13.4791C5.61594 13.2857 5.098 13.05 4.59977 12.7823C4.56037 12.7607 4.55721 12.7079 4.59347 12.6826C4.69831 12.609 4.80318 12.5323 4.9033 12.455C4.92141 12.4409 4.94665 12.4379 4.96794 12.4468C8.24107 13.8472 11.7846 13.8472 15.0191 12.4468C15.0404 12.4372 15.0657 12.4401 15.0846 12.4543C15.1847 12.5316 15.2895 12.609 15.3952 12.6826C15.4314 12.7079 15.4291 12.7607 15.3897 12.7823C14.8914 13.0552 14.3735 13.2857 13.8288 13.4784C13.7933 13.491 13.7775 13.5297 13.7949 13.5616C14.0952 14.1068 14.4381 14.6259 14.8157 15.1182C14.8315 15.1391 14.8599 15.148 14.8859 15.1405C16.5201 14.6668 18.1772 13.9521 19.8879 12.7748C19.9028 12.7644 19.9123 12.7488 19.9139 12.7317C20.3309 8.68887 19.2154 5.1771 16.9568 2.06394C16.9513 2.05353 16.9419 2.04609 16.9308 2.04163ZM6.68335 10.6017C5.69792 10.6017 4.88594 9.75388 4.88594 8.71268C4.88594 7.67148 5.68217 6.82367 6.68335 6.82367C7.69239 6.82367 8.49651 7.67893 8.48073 8.71268C8.48073 9.75388 7.68451 10.6017 6.68335 10.6017ZM13.329 10.6017C12.3435 10.6017 11.5316 9.75388 11.5316 8.71268C11.5316 7.67148 12.3278 6.82367 13.329 6.82367C14.338 6.82367 15.1421 7.67893 15.1264 8.71268C15.1264 9.75388 14.338 10.6017 13.329 10.6017Z" fill="white"/>
</svg>
