<svg width="40" height="32" viewBox="0 0 40 32" fill="none" xmlns="http://www.w3.org/2000/svg">
<g clip-path="url(#clip0_6498_66010)">
<path d="M33.8837 3.09328C31.2605 1.86589 28.4853 0.993781 25.6316 0.5C25.2761 1.14266 24.8608 2.00703 24.5744 2.69469C21.4975 2.23203 18.4489 2.23203 15.4286 2.69469C15.1423 2.00719 14.7176 1.14266 14.3589 0.5C11.5023 0.994008 8.72477 1.86834 6.1003 3.09969C0.877802 10.9917 -0.53798 18.6875 0.169833 26.2744C3.63374 28.8611 6.99061 30.4325 10.2909 31.4608C11.1111 30.3328 11.8362 29.1387 12.4586 27.8906C11.2736 27.4395 10.1313 26.8835 9.04515 26.2294C9.33097 26.0175 9.61007 25.7967 9.88202 25.5673C16.4636 28.6458 23.6148 28.6458 30.118 25.5673C30.3911 25.7952 30.6701 26.016 30.9547 26.2294C29.8668 26.8853 28.7223 27.4423 27.535 27.8939C28.1609 29.147 28.8847 30.3423 29.7026 31.4639C33.0061 30.4358 36.3661 28.8644 39.83 26.2744C40.6606 17.4794 38.4112 9.85406 33.8837 3.09313V3.09328ZM13.3553 21.6086C11.3795 21.6086 9.75921 19.7641 9.75921 17.518C9.75921 15.2719 11.345 13.4242 13.3553 13.4242C15.3658 13.4242 16.9859 15.2686 16.9514 17.518C16.9545 19.7641 15.3658 21.6086 13.3553 21.6086ZM26.6445 21.6086C24.6687 21.6086 23.0486 19.7641 23.0486 17.518C23.0486 15.2719 24.6342 13.4242 26.6445 13.4242C28.655 13.4242 30.2751 15.2686 30.2406 17.518C30.2406 19.7641 28.655 21.6086 26.6445 21.6086Z" fill="#5865F2"/>
</g>
<defs>
<clipPath id="clip0_6498_66010">
<rect width="40" height="31.0938" fill="white" transform="translate(0 0.5)"/>
</clipPath>
</defs>
</svg>
