<svg width="44" height="44" viewBox="0 0 44 44" fill="none" xmlns="http://www.w3.org/2000/svg">
<path opacity="0.2" d="M42.9992 1H1V43H42.9992V1Z" stroke="#FA0339" stroke-miterlimit="10"/>
<path d="M39.0703 1H43.001V4.93073" stroke="#FA0339" stroke-width="2" stroke-miterlimit="10"/>
<path d="M1 4.93073V1H4.93066" stroke="#FA0339" stroke-width="2" stroke-miterlimit="10"/>
<path d="M1 39.0693V43.0001H4.93066" stroke="#FA0339" stroke-width="2" stroke-miterlimit="10"/>
<path d="M43.001 39.0693V43.0001H39.0703" stroke="#FA0339" stroke-width="2" stroke-miterlimit="10"/>
<path d="M35.9999 21.9571C36.0093 23.8005 35.654 25.6275 34.9543 27.3329C34.2547 29.0383 33.2246 30.5883 31.9235 31.8937C30.6223 33.199 29.0758 34.2339 27.3731 34.9386C25.6703 35.6434 23.845 36.0041 22.0023 36C20.1654 36.0029 18.346 35.6436 16.648 34.9428C14.9499 34.2419 13.4066 33.2132 12.1063 31.9153C10.8059 30.6175 9.77395 29.076 9.0694 27.379C8.36484 25.682 8.0015 23.8628 8.00014 22.0252C7.99192 20.1824 8.34846 18.3561 9.04919 16.6517C9.74991 14.9474 10.781 13.3987 12.0829 12.0949C13.3848 10.7911 14.9319 9.75798 16.6349 9.0552C18.3378 8.35241 20.163 7.99381 22.0052 8.00009C23.8412 7.99365 25.6604 8.34995 27.3584 9.04855C29.0565 9.74714 30.5999 10.7743 31.9001 12.071C33.2004 13.3678 34.2319 14.9086 34.9355 16.6051C35.639 18.3016 36.0007 20.1204 35.9999 21.9571ZM22.836 30.323C23.7083 30.0267 24.5361 29.8533 25.2766 29.4918C26.9204 28.6889 27.6979 27.2978 27.6668 25.4785C27.6372 23.7245 26.7027 22.5748 25.1374 21.9037C24.5908 21.6793 24.0321 21.4854 23.4639 21.323C22.3103 20.9734 21.127 20.7052 19.9971 20.286C18.9871 19.9141 18.4199 19.1008 18.4199 18C18.4199 16.8549 18.9797 16.0356 20.0252 15.5556C20.9702 15.1066 22.0447 15.0107 23.0542 15.2851C24.0638 15.5595 24.9419 16.1862 25.5298 17.0519C25.6986 17.2949 25.826 17.606 26.0615 17.7512C26.3192 17.9112 26.7397 18.0578 26.9663 17.9497C27.1929 17.8415 27.4002 17.3971 27.3706 17.1275C27.3062 16.6912 27.1414 16.2759 26.8893 15.9141C26.2813 15.0301 25.3951 14.3751 24.3718 14.0534C23.9112 13.8964 23.4373 13.7808 22.9471 13.6401C22.9471 13.2652 22.9471 12.9201 22.9471 12.5764C22.9352 12.0312 22.7116 11.6667 22.1119 11.6727C21.5506 11.6801 21.3373 12.0341 21.3181 12.5423C21.3062 12.9023 21.3181 13.2638 21.3181 13.6386C20.9641 13.6993 20.6976 13.7393 20.4295 13.7867C17.6913 14.3349 16.1526 16.6371 16.8501 19.1778C17.33 20.926 18.6731 21.7334 20.2829 22.2119C21.6039 22.6045 22.9486 22.92 24.2518 23.3719C25.3195 23.7437 25.9371 24.5319 25.9119 25.7422C25.8867 26.9526 25.2944 27.7956 24.2014 28.2785C23.1449 28.7488 21.9576 28.8362 20.8436 28.5259C19.7297 28.2155 18.7585 27.5267 18.0971 26.5778C17.9697 26.397 17.8735 26.16 17.6987 26.0533C17.4499 25.9052 17.0723 25.6963 16.8768 25.7867C16.631 25.9022 16.357 26.3037 16.3762 26.56C16.4237 27.0223 16.5817 27.4664 16.8368 27.8548C17.1662 28.3664 17.5956 28.806 18.0993 29.1472C18.6029 29.4883 19.1704 29.724 19.7676 29.84C20.8042 30.0489 21.4913 30.3037 21.2722 31.5689C21.1922 32.0326 21.5683 32.3363 22.0807 32.3096C22.5931 32.2829 22.836 32 22.836 31.5007C22.8449 31.0874 22.836 30.6667 22.836 30.323Z" fill="#FA0339"/>
</svg>
