<svg width="200" height="200" viewBox="0 0 200 200" fill="none" xmlns="http://www.w3.org/2000/svg">
<path fill-rule="evenodd" clip-rule="evenodd" d="M66.8203 163.368C66.8203 163.368 68.3316 173.943 68.5493 175C68.5493 175 101.324 154.35 141.637 175L142.894 163.368C142.894 163.368 113.793 142.333 66.8203 163.368Z" fill="white"/>
<path fill-rule="evenodd" clip-rule="evenodd" d="M143.68 155.667C143.68 155.667 105.942 134.673 66.0344 157.711C66.0344 157.711 57.9503 109.885 50.1595 84.1516C47.7135 76.0727 49.7916 72.8506 50.4739 72.8349C51.4641 72.8121 55.8022 73.5796 62.4193 86.1949C69.111 98.953 78.4608 121.747 81.595 127.061C82.0707 127.781 83.3634 132.971 86.7818 130.047C88.7599 128.356 94.663 41.3171 99.0416 28.5109C101.568 21.1208 110.115 14.5577 117.746 129.419C117.853 131.027 120.404 132.193 121.989 128.947C123.156 126.561 132.517 104.659 138.941 90.5971C142.058 83.7756 146.586 72.8415 149.024 72.8349C149.973 72.8322 152.333 73.5893 151.539 81.794C151.218 85.1104 145.527 129.36 143.68 155.667Z" fill="white"/>
</svg>
