<svg width="44" height="44" viewBox="0 0 44 44" fill="none" xmlns="http://www.w3.org/2000/svg">
<path opacity="0.5" d="M42.9989 1.00024H1V42.9992H42.9989V1.00024Z" stroke="#FA0339" stroke-miterlimit="10"/>
<path d="M31.332 10.3335H12.6654C11.4987 10.3335 10.332 11.3835 10.332 12.6668V16.1785C10.332 17.0185 10.8337 17.7418 11.4987 18.1502V31.3335C11.4987 32.6168 12.782 33.6668 13.832 33.6668H30.1654C31.2154 33.6668 32.4987 32.6168 32.4987 31.3335V18.1502C33.1637 17.7418 33.6654 17.0185 33.6654 16.1785V12.6668C33.6654 11.3835 32.4987 10.3335 31.332 10.3335ZM25.4987 24.3335H18.4987V22.0002H25.4987V24.3335ZM31.332 16.1668H12.6654V12.6668H31.332V16.1668Z" fill="#FA0339"/>
<path d="M39.0703 1.00024H43.0009V4.93088" stroke="#FA0339" stroke-width="2" stroke-miterlimit="10"/>
<path d="M1 4.93088V1.00024H4.93063" stroke="#FA0339" stroke-width="2" stroke-miterlimit="10"/>
<path d="M1 39.0696V43.0002H4.93063" stroke="#FA0339" stroke-width="2" stroke-miterlimit="10"/>
<path d="M43.0009 39.0696V43.0002H39.0703" stroke="#FA0339" stroke-width="2" stroke-miterlimit="10"/>
</svg>
