<svg width="45" height="44" viewBox="0 0 45 44" fill="none" xmlns="http://www.w3.org/2000/svg">
<path opacity="0.2" d="M43.6669 1.00024H1.66797V42.9999H43.6669V1.00024Z" stroke="#FA0339" stroke-miterlimit="10"/>
<path d="M39.7383 1.00024H43.6689V4.93094" stroke="#FA0339" stroke-width="2" stroke-miterlimit="10"/>
<path d="M1.66797 4.93094V1.00024H5.5986" stroke="#FA0339" stroke-width="2" stroke-miterlimit="10"/>
<path d="M1.66797 39.0696V43.0003H5.5986" stroke="#FA0339" stroke-width="2" stroke-miterlimit="10"/>
<path d="M43.6689 39.0696V43.0003H39.7383" stroke="#FA0339" stroke-width="2" stroke-miterlimit="10"/>
<g clip-path="url(#clip0_1480_7314)">
<path d="M22.6677 28.789C18.9185 28.789 15.879 25.7494 15.879 22.0002C15.879 18.251 18.9185 15.2114 22.6677 15.2114C26.4169 15.2114 29.4564 18.251 29.4564 22.0002C29.4564 25.7494 26.4169 28.789 22.6677 28.789ZM22.6677 8.87524C15.4192 8.87524 9.54297 14.7516 9.54297 22.0002C9.54297 29.2488 15.4192 35.1251 22.6677 35.1251C29.9162 35.1251 35.7924 29.2488 35.7924 22.0002C35.7924 14.7516 29.9162 8.87524 22.6677 8.87524Z" fill="#FA0339" stroke="#FA0339"/>
<path d="M20.4232 12.7497C20.2169 12.7497 20.0308 12.6085 19.9824 12.399C19.9263 12.1555 20.0784 11.912 20.3219 11.8559C20.9269 11.7169 21.5488 11.6314 22.1697 11.6025C22.4173 11.5844 22.6314 11.7835 22.6432 12.0333C22.655 12.2832 22.4621 12.495 22.2123 12.5067C21.6448 12.533 21.0772 12.6108 20.5256 12.7385C20.4911 12.7461 20.4567 12.7497 20.4232 12.7497ZM26.552 13.282C26.4928 13.282 26.433 13.2702 26.375 13.2463C25.8541 13.0245 25.3083 12.8493 24.7535 12.7249C24.51 12.6706 24.3561 12.4285 24.4113 12.1845C24.4656 11.941 24.7073 11.7876 24.9517 11.8419C25.5595 11.9782 26.1574 12.1705 26.7289 12.4127C26.9588 12.5104 27.0661 12.7765 26.9684 13.006C26.8955 13.1783 26.7281 13.282 26.552 13.282ZM16.4396 14.6827C16.3075 14.6827 16.1762 14.6252 16.0866 14.5134C15.93 14.3188 15.9612 14.0342 16.1563 13.8775C16.641 13.4883 17.1637 13.1403 17.7095 12.8447C17.9294 12.7257 18.2042 12.8076 18.3227 13.0267C18.4422 13.2466 18.3608 13.5214 18.1408 13.6404C17.6425 13.9101 17.1655 14.2278 16.7228 14.5831C16.6392 14.6501 16.5392 14.6827 16.4396 14.6827ZM30.1428 15.8758C30.0169 15.8758 29.892 15.8237 29.8029 15.7219C29.4281 15.2965 29.0126 14.9018 28.5678 14.5488C28.3718 14.3936 28.3388 14.1089 28.494 13.9129C28.6497 13.7174 28.9348 13.6839 29.1299 13.8396C29.6173 14.2261 30.0722 14.6583 30.4827 15.1245C30.6474 15.3119 30.6293 15.5979 30.4415 15.7631C30.3555 15.8386 30.2487 15.8758 30.1428 15.8758ZM13.6844 18.1522C13.6183 18.1522 13.5518 18.1378 13.4888 18.1074C13.2634 17.9992 13.1684 17.729 13.2766 17.5037C13.545 16.9443 13.8663 16.4048 14.231 15.9011C14.3777 15.6988 14.661 15.6535 14.8628 15.7993C15.0656 15.9459 15.1109 16.2287 14.9642 16.4315C14.6311 16.8918 14.3374 17.3847 14.0925 17.8952C14.0147 18.0576 13.8527 18.1522 13.6844 18.1522ZM32.2568 19.767C32.059 19.767 31.8771 19.6363 31.8214 19.4362C31.6689 18.8899 31.4652 18.3545 31.2172 17.8444C31.1077 17.62 31.2009 17.3489 31.4259 17.2394C31.6503 17.1303 31.9214 17.224 32.0305 17.4484C32.303 18.0069 32.5261 18.594 32.6931 19.1923C32.7605 19.4335 32.6198 19.6829 32.379 19.7503C32.3382 19.7616 32.297 19.767 32.2568 19.767ZM12.7104 22.4626C12.4606 22.4626 12.2578 22.2698 12.2578 22.0196V21.9997C12.2578 21.3828 12.3121 20.765 12.4194 20.1631C12.4632 19.9169 12.6977 19.7513 12.9443 19.7969C13.1905 19.8408 13.3544 20.0757 13.3105 20.3219C13.2127 20.8714 13.163 21.4358 13.163 21.9997C13.163 22.2499 12.9602 22.4626 12.7104 22.4626ZM32.4663 24.2295C32.4396 24.2295 32.4129 24.2273 32.3858 24.2228C32.1396 24.1784 31.9762 23.9426 32.0205 23.6968C32.1205 23.1411 32.1712 22.5699 32.1712 21.9997C32.1712 21.7498 32.374 21.5281 32.6238 21.5281C32.8737 21.5281 33.0764 21.7105 33.0764 21.9608V21.9997C33.0764 22.6238 33.0208 23.2483 32.9113 23.8571C32.8718 24.0761 32.6808 24.2295 32.4663 24.2295ZM13.7016 26.7889C13.5337 26.7889 13.3725 26.6948 13.2943 26.5336C13.0231 25.9742 12.8014 25.3872 12.6353 24.7885C12.5688 24.5472 12.71 24.2979 12.9503 24.2309C13.1933 24.1657 13.4409 24.3056 13.5074 24.5459C13.6595 25.0921 13.8613 25.6285 14.1089 26.1385C14.218 26.3634 14.1238 26.6345 13.8989 26.7432C13.8351 26.774 13.7681 26.7889 13.7016 26.7889ZM30.7243 28.3024C30.6325 28.3024 30.5392 28.2743 30.4587 28.2159C30.2568 28.0693 30.2116 27.786 30.3587 27.5837C30.6931 27.1238 30.9873 26.6323 31.233 26.1218C31.3417 25.8964 31.6123 25.8005 31.8372 25.9109C32.0626 26.0191 32.1572 26.2897 32.0486 26.5151C31.7793 27.0736 31.457 27.6126 31.0909 28.1159C31.0022 28.2381 30.8642 28.3024 30.7243 28.3024ZM16.4695 30.2457C16.3704 30.2457 16.2713 30.2136 16.188 30.1471C15.7019 29.7606 15.248 29.3274 14.8384 28.8604C14.6737 28.6726 14.6922 28.3865 14.8805 28.2218C15.0688 28.0566 15.3543 28.0751 15.5191 28.2634C15.8934 28.6902 16.3079 29.0858 16.7519 29.4392C16.9474 29.5949 16.9795 29.8796 16.8239 30.0751C16.7347 30.1873 16.6026 30.2457 16.4695 30.2457ZM27.3915 31.2192C27.2309 31.2192 27.0748 31.1328 26.9928 30.9812C26.8742 30.7612 26.9566 30.4865 27.1766 30.3684C27.6744 30.0995 28.1523 29.7836 28.5963 29.4283C28.7918 29.2722 29.076 29.3039 29.2326 29.4994C29.3888 29.694 29.3567 29.9791 29.1616 30.1353C28.675 30.5241 28.1519 30.8708 27.6061 31.1645C27.5378 31.2021 27.4644 31.2192 27.3915 31.2192ZM20.4626 32.1642C20.4296 32.1642 20.3961 32.161 20.3626 32.1534C19.7566 32.0162 19.1592 31.8234 18.5862 31.579C18.3568 31.4813 18.2495 31.2152 18.3477 30.9852C18.4455 30.7553 18.7116 30.6485 18.9415 30.7467C19.4638 30.9694 20.0087 31.1455 20.5618 31.2704C20.8057 31.3256 20.9587 31.5678 20.9039 31.8112C20.8564 32.0217 20.6694 32.1642 20.4626 32.1642ZM23.1228 32.3991C22.8825 32.3991 22.682 32.21 22.6712 31.9669C22.6598 31.7171 22.8531 31.5058 23.1025 31.4944C23.6709 31.4687 24.2389 31.3917 24.7906 31.2663C25.0341 31.2093 25.2767 31.3637 25.3323 31.6067C25.388 31.8506 25.2355 32.0932 24.9916 32.1484C24.3874 32.2865 23.766 32.3706 23.1437 32.3987C23.1369 32.3991 23.1296 32.3991 23.1228 32.3991Z" fill="white" stroke="white" stroke-width="0.5"/>
</g>
<defs>
<clipPath id="clip0_1480_7314">
<rect width="27.9994" height="27.9999" fill="white" transform="translate(8.66797 8.00024)"/>
</clipPath>
</defs>
</svg>
