<svg width="45" height="44" viewBox="0 0 45 44" fill="none" xmlns="http://www.w3.org/2000/svg">
<path opacity="0.2" d="M43.3313 1H1.33203V42.9992H43.3313V1Z" stroke="#FA0339" stroke-miterlimit="10"/>
<path d="M23.1667 11.5H15V32.5H19.6667V25.5H23.1667C27.0283 25.5 30.1667 22.3617 30.1667 18.5C30.1667 14.6383 27.0283 11.5 23.1667 11.5ZM23.4 20.8333H19.6667V16.1667H23.4C24.6833 16.1667 25.7333 17.2167 25.7333 18.5C25.7333 19.7833 24.6833 20.8333 23.4 20.8333Z" fill="#FA0339"/>
<path d="M39.4023 1H43.333V4.93066" stroke="#FA0339" stroke-width="2" stroke-miterlimit="10"/>
<path d="M1.33203 4.93066V1H5.26269" stroke="#FA0339" stroke-width="2" stroke-miterlimit="10"/>
<path d="M1.33203 39.0693V43H5.26269" stroke="#FA0339" stroke-width="2" stroke-miterlimit="10"/>
<path d="M43.333 39.0693V43H39.4023" stroke="#FA0339" stroke-width="2" stroke-miterlimit="10"/>
</svg>
