<svg width="44" height="44" viewBox="0 0 44 44" fill="none" xmlns="http://www.w3.org/2000/svg">
<path opacity="0.5" d="M42.9989 1.00024H1V42.9992H42.9989V1.00024Z" stroke="#FA0339" stroke-miterlimit="10"/>
<path d="M29.0206 22.1643C29.0206 25.9917 25.8767 29.0951 21.9978 29.0951C18.1188 29.0951 14.9749 25.9917 14.9749 22.1643C14.9749 18.3368 18.1188 15.2335 21.9978 15.2335C25.8767 15.2335 29.0206 18.3368 29.0206 22.1643Z" fill="#FA0339" stroke="#FA0339" stroke-width="0.0514524"/>
<path d="M19.0479 12.5317C19.0479 14.247 17.6389 15.6381 15.9001 15.6381C14.1613 15.6381 12.7523 14.247 12.7523 12.5317C12.7523 10.8165 14.1613 9.42538 15.9001 9.42538C17.6389 9.42538 19.0479 10.8165 19.0479 12.5317Z" fill="#FA0339" stroke="#FA0339" stroke-width="0.0514524"/>
<path d="M14.2618 15.784C12.7977 17.5108 11.9171 19.7355 11.9171 22.1637C11.9171 27.6588 16.4309 32.1131 21.9978 32.1131C27.5654 32.1131 32.0791 27.6588 32.0791 22.1637C32.0791 16.668 27.5654 12.2136 21.9978 12.2136C21.1631 12.2136 20.3522 12.3139 19.5765 12.5028C19.5698 11.6196 19.2431 10.8104 18.7054 10.1847C19.7548 9.90424 20.8587 9.75449 21.9978 9.75449C28.9429 9.75449 34.5721 15.3107 34.5721 22.1637C34.5721 29.0166 28.9429 34.5728 21.9978 34.5728C15.0534 34.5728 9.42416 29.0166 9.42416 22.1637C9.42416 19.036 10.5968 16.1784 12.5317 13.9959C12.8787 14.7731 13.494 15.4072 14.2618 15.784Z" fill="#FA0339" stroke="#FA0339" stroke-width="0.0514524"/>
<path d="M39.0703 1.00024H43.0009V4.93088" stroke="#FA0339" stroke-width="2" stroke-miterlimit="10"/>
<path d="M1 4.93088V1.00024H4.93063" stroke="#FA0339" stroke-width="2" stroke-miterlimit="10"/>
<path d="M1 39.0696V43.0002H4.93063" stroke="#FA0339" stroke-width="2" stroke-miterlimit="10"/>
<path d="M43.0009 39.0696V43.0002H39.0703" stroke="#FA0339" stroke-width="2" stroke-miterlimit="10"/>
</svg>
