<svg width="45" height="44" viewBox="0 0 45 44" fill="none" xmlns="http://www.w3.org/2000/svg">
<path opacity="0.2" d="M43.6669 1H1.66797V42.9996H43.6669V1Z" stroke="#FA0339" stroke-miterlimit="10"/>
<path d="M39.7383 1H43.6689V4.9307" stroke="#FA0339" stroke-width="2" stroke-miterlimit="10"/>
<path d="M1.66797 4.9307V1H5.5986" stroke="#FA0339" stroke-width="2" stroke-miterlimit="10"/>
<path d="M1.66797 39.0693V43H5.5986" stroke="#FA0339" stroke-width="2" stroke-miterlimit="10"/>
<path d="M43.6689 39.0693V43H39.7383" stroke="#FA0339" stroke-width="2" stroke-miterlimit="10"/>
<path d="M31.1667 13.8333H28.8333V11.5H17.1667V13.8333H14.8333C13.55 13.8333 12.5 14.8833 12.5 16.1667V17.3333C12.5 20.3083 14.74 22.735 17.6217 23.0967C18.3567 24.8467 19.9317 26.165 21.8333 26.55V30.1667H17.1667V32.5H28.8333V30.1667H24.1667V26.55C26.0683 26.165 27.6433 24.8467 28.3783 23.0967C31.26 22.735 33.5 20.3083 33.5 17.3333V16.1667C33.5 14.8833 32.45 13.8333 31.1667 13.8333ZM14.8333 17.3333V16.1667H17.1667V20.6233C15.8133 20.1333 14.8333 18.85 14.8333 17.3333ZM23 24.3333C21.075 24.3333 19.5 22.7583 19.5 20.8333V13.8333H26.5V20.8333C26.5 22.7583 24.925 24.3333 23 24.3333ZM31.1667 17.3333C31.1667 18.85 30.1867 20.1333 28.8333 20.6233V16.1667H31.1667V17.3333Z" fill="#FA0339"/>
</svg>
