<svg width="44" height="44" viewBox="0 0 44 44" fill="none" xmlns="http://www.w3.org/2000/svg">
<path opacity="0.2" d="M42.9992 1H1V43H42.9992V1Z" stroke="#FA0339" stroke-miterlimit="10"/>
<path d="M39.0703 1H43.001V4.93073" stroke="#FA0339" stroke-width="2" stroke-miterlimit="10"/>
<path d="M1 4.93073V1H4.93066" stroke="#FA0339" stroke-width="2" stroke-miterlimit="10"/>
<path d="M1 39.0693V43.0001H4.93066" stroke="#FA0339" stroke-width="2" stroke-miterlimit="10"/>
<path d="M43.001 39.0693V43.0001H39.0703" stroke="#FA0339" stroke-width="2" stroke-miterlimit="10"/>
<path d="M27.9796 22C28.943 22 29.708 21.235 29.708 20.2717C29.708 19.3225 28.943 18.5433 27.9796 18.5433C27.0163 18.5433 26.2513 19.3225 26.2513 20.2717C26.2513 21.235 27.0305 22 27.9796 22ZM14.2946 20.2717C14.2946 21.2208 15.0596 22 16.023 22C16.9863 22 17.7513 21.235 17.7513 20.2717C17.7513 19.3225 16.9863 18.5433 16.023 18.5433C15.0596 18.5433 14.2946 19.3225 14.2946 20.2717ZM15.7821 10.6667L13.898 16.3333H30.0905L28.2063 10.6667H15.7821ZM28.0646 9.25C28.0646 9.25 28.8296 9.26417 29.368 10.015C29.3963 10.0433 29.4105 10.0717 29.4388 10.1142C29.538 10.27 29.6371 10.4542 29.708 10.6808C30.0196 11.6017 31.918 17.3108 31.918 17.3108V26.5192C31.918 27.1567 31.4221 27.6667 30.813 27.6667H30.1896C29.5805 27.6667 29.0846 27.1567 29.0846 26.5192V24.8333H14.918V26.5192C14.918 27.1567 14.4221 27.6667 13.813 27.6667H13.1896C12.5805 27.6667 12.0846 27.1567 12.0846 26.5192V17.3108C12.0846 17.3108 13.983 11.6158 14.2805 10.6667C14.3513 10.44 14.4505 10.27 14.5496 10.1C14.5921 10.0717 14.6063 10.0433 14.6346 10.015C15.173 9.26417 15.938 9.25 15.938 9.25H28.0646ZM10.668 29.0975H33.3346V31.9167H23.418V36.1667H20.5846V31.9167H10.668V29.0975Z" fill="#FA0339"/>
</svg>
