<svg width="44" height="44" viewBox="0 0 44 44" fill="none" xmlns="http://www.w3.org/2000/svg">
<path opacity="0.2" d="M42.9992 1H1V43H42.9992V1Z" stroke="#FA0339" stroke-miterlimit="10"/>
<path d="M39.0703 1H43.001V4.93073" stroke="#FA0339" stroke-width="2" stroke-miterlimit="10"/>
<path d="M1 4.93073V1H4.93066" stroke="#FA0339" stroke-width="2" stroke-miterlimit="10"/>
<path d="M1 39.0693V43.0001H4.93066" stroke="#FA0339" stroke-width="2" stroke-miterlimit="10"/>
<path d="M43.001 39.0693V43.0001H39.0703" stroke="#FA0339" stroke-width="2" stroke-miterlimit="10"/>
<path d="M8 27.0975H36.6667V29.9166H23.75V34.1666H20.9167V29.9166H8V27.0975Z" fill="#FA0339"/>
<path d="M32.5188 15.1088C32.3056 14.7278 32.0791 14.3527 31.838 13.9444C32.428 13.8563 32.9563 13.7742 33.4855 13.7001C33.7925 13.6574 34.0212 13.5667 33.9984 13.2224C33.9794 12.9001 33.7867 12.6525 33.4525 12.6138C33.0289 12.5644 32.6031 12.5297 32.1781 12.4964C31.915 12.4763 31.7713 12.5844 31.7383 12.8347C31.7259 12.9374 31.6438 13.0349 31.5918 13.1316C31.5016 13.0562 31.3836 12.9982 31.3257 12.9027C30.7006 11.9111 30.0631 10.9242 29.4775 9.91329C29.1968 9.42951 28.8048 9.22131 28.2317 9.20062C26.4281 9.13389 24.6246 8.9911 22.8218 9.00044C20.4694 9.00911 18.1176 9.13389 15.7652 9.20062C15.1877 9.21731 14.7964 9.42884 14.5194 9.91262C13.9272 10.9329 13.2823 11.9285 12.6513 12.9308C12.5993 13.0135 12.4887 13.0642 12.4051 13.1309C12.3553 13.0435 12.2688 12.9575 12.2585 12.864C12.2366 12.5564 12.0629 12.4637 11.7455 12.4984C11.3945 12.5391 11.0413 12.5651 10.6895 12.5951C10.2498 12.6325 10.0094 12.8353 10.0006 13.1837C9.99111 13.556 10.0835 13.6327 10.6206 13.7108C11.1182 13.7836 11.6151 13.8596 12.2439 13.9537C11.6429 14.8105 11.1314 15.6139 10.5349 16.3613C10.2242 16.7503 10.016 17.114 10.0541 17.6038C10.1428 18.7442 10.2293 19.8859 10.2674 21.0283C10.3033 22.1053 10.2674 23.1836 10.2769 24.2613C10.2769 24.7471 10.5356 24.99 11.0545 24.9953C12.3365 25.0016 13.6177 25.0016 14.8983 24.9953C15.3687 24.9953 15.6186 24.7591 15.6311 24.3334C15.6406 24.0571 15.6311 23.7802 15.6311 23.4659C19.8613 23.0772 24.1238 23.0772 28.3541 23.4659C28.3541 23.7562 28.3504 24.0104 28.3541 24.2666C28.3628 24.7745 28.6032 24.9953 29.1602 24.9967C30.4046 25.0007 31.6504 25.0007 32.8977 24.9967C33.4481 24.9967 33.7119 24.7611 33.7112 24.2626C33.7075 21.9939 33.6716 19.7298 33.9361 17.471C33.9631 17.2931 33.9429 17.112 33.8774 16.9426C33.8119 16.7733 33.7029 16.6206 33.5595 16.4974C33.1051 16.103 32.8024 15.6153 32.5188 15.1088ZM14.4615 11.1718C15.2544 9.69776 15.2024 9.97068 16.5706 9.87859C20.262 9.62836 23.9526 9.66839 27.6476 9.87058C28.5827 9.92196 29.1067 10.2436 29.4497 10.987C29.8894 11.9352 30.3665 12.8667 30.8274 13.8056L30.7461 13.9177C24.9211 13.5817 19.0787 13.5817 13.2537 13.9177L13.1805 13.8103C13.604 12.9308 13.9969 12.0366 14.4615 11.1738V11.1718ZM10.7906 17.4543C10.8317 16.9999 11.1344 16.6943 11.5902 16.6976C12.1259 16.7016 12.6609 16.741 13.1958 16.7643V16.769C13.7059 16.797 14.2165 16.8246 14.7275 16.8517C15.2852 16.8804 15.5512 17.072 15.6912 17.5537C15.7718 17.832 15.8473 18.1122 15.9242 18.3912C15.9814 18.596 15.8979 18.6868 15.6641 18.6634C14.2599 18.524 12.8543 18.3965 11.4517 18.2424C11.0164 18.1977 10.7547 17.8507 10.7906 17.4563V17.4543ZM16.1324 22.3515C15.5717 22.3555 15.0104 22.3515 14.4468 22.3515C13.8833 22.3515 13.3248 22.3555 12.7613 22.3515C12.2908 22.3462 11.9815 22.0953 11.9735 21.7283C11.9654 21.3613 12.304 21.0717 12.7759 21.0717C13.8996 21.065 15.0216 21.065 16.1419 21.0717C16.6483 21.0717 16.9722 21.3486 16.9612 21.739C16.9502 22.1293 16.6476 22.3495 16.1324 22.3535V22.3515ZM26.6011 17.8253C26.3079 19.0384 26.0097 20.2516 25.6975 21.462C25.5663 21.9725 25.2358 22.2281 24.662 22.2401C23.773 22.2594 22.8826 22.2454 21.9929 22.2454C21.1033 22.2454 20.2136 22.2588 19.3239 22.2394C18.7691 22.2274 18.4357 21.9725 18.3082 21.4821C17.9931 20.2616 17.6933 19.0371 17.3958 17.812C17.3225 17.4983 17.4214 17.3923 17.7879 17.3629C20.595 17.136 23.4187 17.136 26.2259 17.3629C26.5813 17.3956 26.6788 17.5077 26.6011 17.8273V17.8253ZM31.2253 22.3502C30.6523 22.3562 30.0792 22.3502 29.5061 22.3502C28.9455 22.3502 28.3848 22.3555 27.8205 22.3502C27.3383 22.3449 27.0437 22.1053 27.0342 21.7303C27.0254 21.3446 27.3376 21.0677 27.8183 21.063C28.9523 21.0603 30.086 21.0646 31.2195 21.0757C31.7083 21.0804 32.0256 21.3533 32.0176 21.7276C32.0095 22.0973 31.6951 22.3475 31.2253 22.3522V22.3502ZM32.3898 18.2691C31.1069 18.3958 29.8239 18.5235 28.5409 18.6521C28.0338 18.7028 28.0045 18.6741 28.1269 18.225C28.1914 17.9881 28.2515 17.7506 28.3225 17.5157C28.453 17.0866 28.7212 16.8884 29.2122 16.8604C30.0995 16.8106 30.9869 16.7626 31.8747 16.7163C32.008 16.7096 32.1421 16.7003 32.2755 16.6969C32.8318 16.6836 33.1711 16.9639 33.2092 17.469C33.2436 17.9127 32.9343 18.2123 32.3898 18.2691Z" fill="#FA0339"/>
<path d="M25.4838 17.802C23.1639 17.6032 20.8285 17.6032 18.5086 17.802C18.1158 17.8354 17.9648 17.9855 18.0579 18.3245C18.34 19.3581 18.6295 20.3931 18.9476 21.4161C18.9871 21.5428 19.2092 21.699 19.358 21.7097C20.233 21.7711 21.1109 21.7931 22.0028 21.8298C22.8654 21.7944 23.744 21.7731 24.6191 21.7103C24.7774 21.6983 25.0155 21.5388 25.0588 21.4067C25.3768 20.3931 25.6612 19.3708 25.9426 18.3479C26.0408 17.9869 25.895 17.8361 25.4838 17.802Z" fill="#FA0339"/>
</svg>
