<svg width="45" height="44" viewBox="0 0 45 44" fill="none" xmlns="http://www.w3.org/2000/svg">
<path opacity="0.2" d="M43.6672 1H1.66797V43H43.6672V1Z" stroke="#FA0339" stroke-miterlimit="10"/>
<path d="M39.7383 1H43.6689V4.93073" stroke="#FA0339" stroke-width="2" stroke-miterlimit="10"/>
<path d="M1.66797 4.93073V1H5.59863" stroke="#FA0339" stroke-width="2" stroke-miterlimit="10"/>
<path d="M1.66797 39.0693V43.0001H5.59863" stroke="#FA0339" stroke-width="2" stroke-miterlimit="10"/>
<path d="M43.6689 39.0693V43.0001H39.7383" stroke="#FA0339" stroke-width="2" stroke-miterlimit="10"/>
<path d="M31.6641 14.9999H29.1207C29.2491 14.6383 29.3307 14.2416 29.3307 13.8333C29.3307 11.8966 27.7674 10.3333 25.8307 10.3333C24.6057 10.3333 23.5441 10.9633 22.9141 11.9083L22.3307 12.6899L21.7474 11.8966C21.1174 10.9633 20.0557 10.3333 18.8307 10.3333C16.8941 10.3333 15.3307 11.8966 15.3307 13.8333C15.3307 14.2416 15.4124 14.6383 15.5407 14.9999H12.9974C11.7024 14.9999 10.6757 16.0383 10.6757 17.3333L10.6641 30.1666C10.6641 31.4616 11.7024 32.4999 12.9974 32.4999H31.6641C32.9591 32.4999 33.9974 31.4616 33.9974 30.1666V17.3333C33.9974 16.0383 32.9591 14.9999 31.6641 14.9999ZM25.8307 12.6666C26.4724 12.6666 26.9974 13.1916 26.9974 13.8333C26.9974 14.4749 26.4724 14.9999 25.8307 14.9999C25.1891 14.9999 24.6641 14.4749 24.6641 13.8333C24.6641 13.1916 25.1891 12.6666 25.8307 12.6666ZM18.8307 12.6666C19.4724 12.6666 19.9974 13.1916 19.9974 13.8333C19.9974 14.4749 19.4724 14.9999 18.8307 14.9999C18.1891 14.9999 17.6641 14.4749 17.6641 13.8333C17.6641 13.1916 18.1891 12.6666 18.8307 12.6666ZM31.6641 30.1666H12.9974V27.8333H31.6641V30.1666ZM31.6641 24.3333H12.9974V17.3333H18.9241L16.4974 20.6349L18.3874 21.9999L21.1641 18.2199L22.3307 16.6333L23.4974 18.2199L26.2741 21.9999L28.1641 20.6349L25.7374 17.3333H31.6641V24.3333Z" fill="#FA0339"/>
</svg>
