<svg width="45" height="44" viewBox="0 0 45 44" fill="none" xmlns="http://www.w3.org/2000/svg">
<path opacity="0.2" d="M43.331 1H1.33203V42.9996H43.331V1Z" stroke="#FA0339" stroke-miterlimit="10"/>
<path d="M39.4023 1H43.333V4.9307" stroke="#FA0339" stroke-width="2" stroke-miterlimit="10"/>
<path d="M1.33203 4.9307V1H5.26266" stroke="#FA0339" stroke-width="2" stroke-miterlimit="10"/>
<path d="M1.33203 39.0693V43H5.26266" stroke="#FA0339" stroke-width="2" stroke-miterlimit="10"/>
<path d="M43.333 39.0693V43H39.4023" stroke="#FA0339" stroke-width="2" stroke-miterlimit="10"/>
<path d="M33.6654 11.5L31.717 13.4483L29.7804 11.5L27.832 13.4483L25.8837 11.5L23.947 13.4483L21.9987 11.5L20.0504 13.4483L18.1137 11.5L16.1654 13.4483L14.217 11.5L12.2804 13.4483L10.332 11.5V30.1667C10.332 31.45 11.382 32.5 12.6654 32.5H31.332C32.6154 32.5 33.6654 31.45 33.6654 30.1667V11.5ZM20.832 30.1667H12.6654V23.1667H20.832V30.1667ZM31.332 30.1667H23.1654V27.8333H31.332V30.1667ZM31.332 25.5H23.1654V23.1667H31.332V25.5ZM31.332 20.8333H12.6654V17.3333H31.332V20.8333Z" fill="#FA0339"/>
</svg>
