<svg width="25" height="64" viewBox="0 0 25 64" fill="none" xmlns="http://www.w3.org/2000/svg">
<circle cx="12.3454" cy="51.1665" r="3.7792" fill="#3F4857"/>
<circle cx="12.3454" cy="51.1665" r="3.7792" fill="#3F4857"/>
<circle cx="12.3286" cy="51.0929" r="8.93277" transform="rotate(-0.170449 12.3286 51.0929)" stroke="#3F4857" stroke-width="0.6897"/>
<circle cx="12.2588" cy="51.0792" r="11.8236" transform="rotate(-0.170451 12.2588 51.0792)" stroke="#3F4857" stroke-width="0.797631"/>
<path d="M1.05778 31.3859C0.622578 31.3859 0.423111 31.0534 0.423111 30.6424V28.3818C0.423111 27.9647 0.622578 27.6383 1.05778 27.6383C1.49902 27.6383 1.70453 27.9647 1.70453 28.3818V30.6424C1.70453 31.0534 1.49902 31.3859 1.05778 31.3859ZM1.05778 31.5914C1.66827 31.5914 1.95236 31.1622 1.95236 30.6122V28.412C1.95236 27.862 1.66827 27.4328 1.05778 27.4328C0.447289 27.4328 0.175289 27.862 0.175289 28.412V30.6122C0.175289 31.1622 0.447289 31.5914 1.05778 31.5914ZM3.61207 31.5612H5.20781V31.3556H3.85385V30.9204C3.85385 30.4973 3.98683 30.3644 4.25883 30.0621L4.74239 29.5302C5.05065 29.1857 5.20781 28.9197 5.20781 28.5873V28.2004C5.20781 27.6685 4.93581 27.4328 4.42807 27.4328C3.92639 27.4328 3.62416 27.6988 3.62416 28.2488V28.7142H3.87199V28.2428C3.87199 27.8076 4.08959 27.6383 4.42203 27.6383C4.74239 27.6383 4.95999 27.7894 4.95999 28.2004V28.5631C4.95999 28.8714 4.80283 29.1192 4.55501 29.3912L4.10772 29.8868C3.76923 30.2556 3.61207 30.4671 3.61207 30.9204V31.5612ZM7.68934 27.4328C7.13325 27.4328 6.8552 27.735 6.8552 28.2488V28.6477H7.09698V28.2367C7.09698 27.8499 7.2904 27.6383 7.67725 27.6383C8.03991 27.6383 8.23334 27.8136 8.23334 28.273V28.7384C8.23334 29.0769 8.03387 29.2824 7.66516 29.2824H7.43547V29.4819H7.6712C8.05805 29.4819 8.26356 29.6813 8.26356 30.0682V30.7391C8.26356 31.1562 8.09431 31.3859 7.66516 31.3859C7.24809 31.3859 7.05467 31.1864 7.05467 30.7452V30.1951H6.80685V30.727C6.80685 31.3012 7.06676 31.5914 7.66516 31.5914C8.2696 31.5914 8.51138 31.271 8.51138 30.7391V30.0863C8.51138 29.6511 8.28774 29.4396 7.97342 29.3731C8.25751 29.3005 8.46907 29.1011 8.46907 28.7142V28.273C8.46907 27.6927 8.2152 27.4328 7.68934 27.4328ZM11.0143 27.4328C10.4582 27.4328 10.1801 27.735 10.1801 28.2488V28.6477H10.4219V28.2367C10.4219 27.8499 10.6153 27.6383 11.0022 27.6383C11.3648 27.6383 11.5583 27.8136 11.5583 28.273V28.7384C11.5583 29.0769 11.3588 29.2824 10.9901 29.2824H10.7604V29.4819H10.9961C11.383 29.4819 11.5885 29.6813 11.5885 30.0682V30.7391C11.5885 31.1562 11.4192 31.3859 10.9901 31.3859C10.573 31.3859 10.3796 31.1864 10.3796 30.7452V30.1951H10.1318V30.727C10.1318 31.3012 10.3917 31.5914 10.9901 31.5914C11.5945 31.5914 11.8363 31.271 11.8363 30.7391V30.0863C11.8363 29.6511 11.6127 29.4396 11.2983 29.3731C11.5824 29.3005 11.794 29.1011 11.794 28.7142V28.273C11.794 27.6927 11.5401 27.4328 11.0143 27.4328ZM13.3372 27.6625H14.6247V27.8861L13.6394 31.5612H13.8873L14.8604 27.9103V27.463H13.3372V27.6625ZM17.2631 31.5914C17.8857 31.5914 18.1577 31.2045 18.1577 30.6726V30.1226C18.1577 29.7116 17.9945 29.3972 17.6137 29.2824C17.9522 29.1676 18.067 28.8774 18.067 28.5148V28.2911C18.067 27.7592 17.8192 27.4328 17.2631 27.4328C16.707 27.4328 16.4592 27.7592 16.4592 28.2911V28.5148C16.4592 28.8774 16.5741 29.1676 16.9065 29.2824C16.5378 29.4033 16.3746 29.7116 16.3746 30.1226V30.6726C16.3746 31.2045 16.6405 31.5914 17.2631 31.5914ZM17.2631 31.3859C16.8098 31.3859 16.6224 31.0897 16.6224 30.6847V30.0863C16.6224 29.6813 16.8098 29.3912 17.2631 29.3912C17.7225 29.3912 17.9099 29.6813 17.9099 30.0863V30.6847C17.9099 31.0897 17.7165 31.3859 17.2631 31.3859ZM17.2631 29.1857C16.8219 29.1857 16.6949 28.8956 16.6949 28.5268V28.2911C16.6949 27.8861 16.8521 27.6383 17.2631 27.6383C17.6741 27.6383 17.8313 27.8861 17.8313 28.2911V28.5268C17.8313 28.9076 17.7044 29.1857 17.2631 29.1857ZM19.7043 29.5604H20.478V29.361H19.7043V29.5604ZM22.9207 27.4328C22.3465 27.4328 22.0564 27.7471 22.0564 28.3697V29.1071C22.0564 29.7539 22.3465 30.038 22.8361 30.038C23.2229 30.038 23.4405 29.8324 23.5373 29.6148H23.5433V30.6726C23.5433 31.1985 23.2894 31.3859 22.9207 31.3859C22.552 31.3859 22.3344 31.1985 22.3344 30.721V30.4188H22.0987V30.7028C22.0987 31.3133 22.3949 31.5914 22.9268 31.5914C23.4587 31.5914 23.7911 31.3133 23.7911 30.6424V28.418C23.7911 27.7834 23.4829 27.4328 22.9207 27.4328ZM22.9207 27.6383C23.3076 27.6383 23.5433 27.8922 23.5433 28.3818V29.1313C23.5433 29.5907 23.2471 29.8324 22.9086 29.8324C22.5157 29.8324 22.2981 29.6269 22.2981 29.1192V28.3576C22.2981 27.8499 22.5278 27.6383 22.9207 27.6383Z" fill="#E5E5E5"/>
<path d="M1.89444 -0.00012207L1.02148 0.87283V-0.00012207H1.89444Z" fill="#3F4857"/>
<path d="M6.51672 -0.00012207L1.02148 5.49511V3.42185L4.44346 -0.00012207H6.51672Z" fill="#3F4857"/>
<path d="M11.1346 -0.00012207L1.02148 10.113V8.04413L9.06574 -0.00012207H11.1346Z" fill="#3F4857"/>
<path d="M15.7526 -0.00012207L1.02148 14.7309V12.662L13.6837 -0.00012207H15.7526Z" fill="#3F4857"/>
<path d="M20.3748 -0.00012207L1.02148 19.3489V17.28L18.3016 -0.00012207H20.3748Z" fill="#3F4857"/>
<path d="M23.8885 -0.00012207V1.10416L2.13013 22.8625H1.02148V21.8979L22.9238 -0.00012207H23.8885Z" fill="#3F4857"/>
<path d="M23.889 3.65125V5.72014L6.75295 22.8606H4.67969L23.889 3.65125Z" fill="#3F4857"/>
<path d="M23.8878 8.2699V10.3432L11.3697 22.8613H9.30078L23.8878 8.2699Z" fill="#3F4857"/>
<path d="M23.889 12.8939V14.9628L15.9888 22.863H13.9199L23.889 12.8939Z" fill="#3F4857"/>
<path d="M23.8883 17.5123V19.5856L20.606 22.8635H18.5371L23.8883 17.5123Z" fill="#3F4857"/>
<path d="M23.8895 22.1281V22.8613H23.1562L23.8895 22.1281Z" fill="#3F4857"/>
</svg>
