<svg width="328" height="76" viewBox="0 0 328 76" fill="none" xmlns="http://www.w3.org/2000/svg">
<path d="M98.1034 10.0698L73.8672 61.1542L98.5899 61.1542L122.888 10.0698L98.1034 10.0698Z" fill="#FA0339"/>
<path d="M67.3049 10.0698L55.4268 35.1027L43.5487 10.0698L18.7673 10.0698L21.2977 15.3885L0 61.1542L24.7227 61.1542L33.93 41.9527L43.0655 61.1542H43.0688H67.7882H67.7914L92.0896 10.0698L67.3049 10.0698Z" fill="#FA0339"/>
<path d="M327.718 19.3485L302.022 0L296.922 10.6309L249.844 10.6309L231.534 10.6309H231.354C229.647 10.6309 228.008 11.0749 226.571 11.8683C224.576 12.9262 222.927 14.6142 221.935 16.743L216.93 28.0628H216.933L209.293 44.4597L208.016 47.0717C204.748 53.7519 209.613 61.5422 217.047 61.5422L259.202 61.5422C263.319 61.5422 267.06 59.1588 268.801 55.4301L274.087 44.3813H274.015L281.149 29.8847L255.861 29.8847L248.982 44.3813H233.238L241.267 28.0628L288.554 28.0628L283.497 38.6022L327.718 19.3485Z" fill="#FA0339"/>
<path d="M159.218 27.5011C164.318 26.7077 166.659 26.4432 168.991 21.562L174.479 10.0659L129.076 10.0659L120.936 27.5011L129.765 27.5011L124.968 37.6096L113.799 61.1535L138.521 61.1535L151.689 33.4695C151.686 33.4695 154.115 28.2977 159.218 27.5011Z" fill="#FA0339"/>
<path d="M206.548 39.4506L208.667 35.0102L215.266 21.0001C219.527 10.0655 209.601 9.97412 209.601 9.97412L205.353 9.97412L180.333 9.97412L173.585 24.0986H185.479C185.479 24.0986 188.248 24.3271 188.062 26.6812C187.872 29.0353 185.861 29.2312 185.861 29.2312L178.208 29.5446C178.208 29.5446 174.473 29.4238 165.931 30.2107C158.957 31.2489 154.954 39.1046 154.954 39.1046L144.131 61.0618L168.854 61.0618L174.453 48.9192C174.466 48.8931 174.479 48.8669 174.489 48.8408C175.126 47.2997 175.478 46.6859 176.324 46.6859C177.078 46.6859 177.774 48.8702 177.774 48.8702L181.711 61.0618H206.463L200.178 46.046C204.018 44.433 206.548 39.4506 206.548 39.4506Z" fill="#FA0339"/>
<path d="M274.085 71.6415C273.435 71.6415 272.815 71.6415 272.173 71.6415C272.295 71.2736 272.413 70.9211 272.527 70.5673C272.553 70.4875 272.612 70.4946 272.673 70.4946C274.086 70.4952 275.498 70.4963 276.91 70.4928C277.041 70.4922 277.033 70.5403 277.001 70.6371C276.555 71.97 276.116 73.3058 275.664 74.6363C275.514 75.0751 275.117 75.1965 274.717 75.2833C274.43 75.3455 274.137 75.3655 273.843 75.3655C272.049 75.366 270.255 75.3666 268.461 75.3649C268.147 75.3643 267.834 75.3467 267.532 75.2481C267.155 75.1249 267.06 74.9378 267.184 74.5635C268.009 72.0826 268.839 69.6035 269.657 67.1202C269.79 66.716 270.074 66.5148 270.453 66.4074C270.796 66.31 271.15 66.2807 271.505 66.2801C273.299 66.2784 275.093 66.2784 276.887 66.2801C277.208 66.2807 277.529 66.3012 277.836 66.4016C278.21 66.5236 278.305 66.7154 278.183 67.0856C277.983 67.6916 277.778 68.2964 277.584 68.9042C277.544 69.0285 277.487 69.0679 277.355 69.0667C276.618 69.0591 275.881 69.0567 275.145 69.0673C274.954 69.0702 274.955 69.0133 275.009 68.8631C275.154 68.4531 275.283 68.0371 275.426 67.6265C275.465 67.5138 275.481 67.4622 275.324 67.4634C274.301 67.4698 273.278 67.4687 272.255 67.464C272.145 67.4634 272.102 67.5015 272.07 67.5989C271.358 69.746 270.644 71.8931 269.926 74.0379C269.881 74.1716 269.917 74.181 270.032 74.1804C271.055 74.1775 272.079 74.1787 273.102 74.1787C273.176 74.1787 273.242 74.1881 273.275 74.0878C273.537 73.2811 273.807 72.4762 274.085 71.6415Z" fill="white"/>
<path d="M282.743 66.2789C281.865 68.917 280.991 71.5381 280.112 74.1786C280.686 74.1786 281.237 74.1786 281.788 74.1786C282.327 74.1786 282.866 74.1727 283.405 74.1827C283.545 74.185 283.6 74.1434 283.644 74.0102C284.473 71.5058 285.309 69.0032 286.138 66.4989C286.193 66.3317 286.261 66.2701 286.447 66.2736C287.217 66.2871 287.987 66.2794 288.782 66.2794C288.623 66.7535 288.47 67.2093 288.318 67.6651C287.563 69.9342 286.802 72.201 286.059 74.4737C285.917 74.9072 285.63 75.1342 285.216 75.2439C284.878 75.3337 284.532 75.3648 284.184 75.3648C282.356 75.3671 280.527 75.3671 278.699 75.3648C278.378 75.3642 278.057 75.3437 277.751 75.241C277.39 75.1207 277.296 74.9283 277.417 74.5646C278.319 71.8514 279.222 69.1387 280.125 66.4261C280.152 66.3422 280.17 66.2742 280.295 66.2753C281.1 66.283 281.905 66.2789 282.743 66.2789Z" fill="white"/>
<path d="M256.461 75.366C257.252 74.2355 258.02 73.1368 258.788 72.0386C260.103 70.1578 261.419 68.2776 262.73 66.3951C262.808 66.2842 262.883 66.2331 263.025 66.2349C263.802 66.2431 264.579 66.2419 265.357 66.2355C265.497 66.2343 265.556 66.2525 265.56 66.4174C265.624 68.9593 265.696 71.5012 265.767 74.0431C265.779 74.4315 265.789 74.8198 265.807 75.2082C265.813 75.3267 265.791 75.3719 265.657 75.3701C264.907 75.3625 264.157 75.3642 263.407 75.3689C263.291 75.3695 263.257 75.3384 263.262 75.2223C263.284 74.7524 263.289 74.2819 263.315 73.812C263.322 73.6735 263.282 73.6442 263.15 73.6448C262.182 73.6501 261.214 73.6501 260.245 73.6448C260.126 73.6442 260.064 73.6876 260.005 73.7826C259.703 74.2684 259.395 74.75 259.089 75.2322C259.047 75.2979 259.019 75.3695 258.91 75.3689C258.106 75.3636 257.303 75.366 256.461 75.366ZM260.83 72.4598C261.661 72.4598 262.457 72.4574 263.253 72.4621C263.384 72.4627 263.351 72.3765 263.353 72.3108C263.392 71.043 263.429 69.7753 263.465 68.5081C263.466 68.4747 263.494 68.4266 263.429 68.4049C262.571 69.7442 261.711 71.0847 260.83 72.4598Z" fill="white"/>
<path d="M256.065 74.173C255.939 74.5496 255.816 74.8951 255.709 75.2448C255.678 75.3457 255.632 75.3773 255.538 75.3662C255.518 75.3639 255.496 75.3656 255.476 75.3656C253.231 75.3656 250.987 75.3639 248.742 75.3691C248.566 75.3697 248.546 75.3333 248.601 75.1703C249.576 72.2582 250.545 69.3437 251.515 66.4293C251.546 66.3348 251.574 66.2738 251.704 66.2744C253.982 66.2803 256.261 66.2785 258.539 66.2791C258.559 66.2791 258.58 66.2838 258.623 66.2891C258.501 66.6604 258.381 67.0271 258.26 67.3931C258.223 67.5075 258.125 67.4647 258.052 67.4647C256.681 67.4671 255.309 67.4694 253.938 67.4624C253.782 67.4618 253.721 67.5052 253.673 67.656C253.426 68.4327 253.162 69.2047 252.905 69.9785C252.89 70.0225 252.857 70.063 252.881 70.124C254.151 70.124 255.425 70.124 256.724 70.124C256.596 70.5047 256.47 70.869 256.354 71.2362C256.315 71.3612 256.222 71.3107 256.153 71.3113C254.993 71.3148 253.833 71.3172 252.674 71.3096C252.514 71.3084 252.438 71.3459 252.386 71.5067C252.112 72.3608 251.825 73.2109 251.542 74.0621C251.531 74.0932 251.523 74.1255 251.51 74.1724C253.028 74.173 254.533 74.173 256.065 74.173Z" fill="white"/>
<path d="M291.784 70.1291C293.088 70.1291 294.362 70.1291 295.656 70.1291C295.53 70.504 295.403 70.8619 295.292 71.2244C295.254 71.347 295.172 71.313 295.099 71.313C294.151 71.3147 293.203 71.3142 292.255 71.3142C292.009 71.3142 291.764 71.3171 291.518 71.3124C291.434 71.3106 291.382 71.3259 291.352 71.4174C291.055 72.3214 290.753 73.2237 290.454 74.1265C290.45 74.1383 290.457 74.1529 290.46 74.1764C291.965 74.1764 293.471 74.1764 294.996 74.1764C294.869 74.5571 294.745 74.922 294.628 75.2893C294.593 75.4001 294.51 75.3632 294.444 75.3638C293.598 75.3661 292.752 75.3655 291.906 75.3655C290.494 75.3655 289.082 75.3632 287.669 75.369C287.51 75.3696 287.475 75.3503 287.531 75.1837C288.508 72.2645 289.478 69.3436 290.45 66.4227C290.478 66.3365 290.501 66.2749 290.623 66.2749C292.908 66.2802 295.193 66.279 297.479 66.2796C297.498 66.2796 297.516 66.2872 297.555 66.2954C297.432 66.6674 297.313 67.034 297.19 67.3995C297.152 67.511 297.051 67.4646 296.978 67.4646C295.607 67.467 294.235 67.4687 292.864 67.4629C292.72 67.4623 292.657 67.501 292.611 67.643C292.346 68.4643 292.068 69.2803 291.784 70.1291Z" fill="white"/>
<path d="M243.573 74.1396C244.975 74.1396 246.356 74.1396 247.758 74.1396C247.629 74.5285 247.5 74.8999 247.384 75.2741C247.343 75.4061 247.247 75.3633 247.168 75.3633C245.723 75.3657 244.277 75.3651 242.832 75.3651C242.096 75.3651 241.36 75.3651 240.6 75.3651C240.752 74.9034 240.897 74.4593 241.045 74.0164C241.884 71.4973 242.726 68.9795 243.562 66.4593C243.607 66.3226 243.661 66.2727 243.811 66.2745C244.595 66.2833 245.379 66.2786 246.191 66.2786C245.317 68.902 244.448 71.512 243.573 74.1396Z" fill="white"/>
<path d="M239.604 69.584L162.965 69.9591L238.639 71.9369L239.604 69.584Z" fill="#FA0339"/>
</svg>
