<svg width="45" height="44" viewBox="0 0 45 44" fill="none" xmlns="http://www.w3.org/2000/svg">
<path opacity="0.2" d="M43.0002 1H1.00098V43H43.0002V1Z" stroke="#FA0339" stroke-miterlimit="10"/>
<path d="M39.0713 1H43.0019V4.93073" stroke="#FA0339" stroke-width="2" stroke-miterlimit="10"/>
<path d="M1.00098 4.93073V1H4.93164" stroke="#FA0339" stroke-width="2" stroke-miterlimit="10"/>
<path d="M1.00098 39.0693V43.0001H4.93164" stroke="#FA0339" stroke-width="2" stroke-miterlimit="10"/>
<path d="M43.0019 39.0693V43.0001H39.0713" stroke="#FA0339" stroke-width="2" stroke-miterlimit="10"/>
<path d="M28.3893 19.1395C27.3666 19.3206 26.1973 19.7885 25.2576 20.3998C24.6568 20.7868 23.6664 21.7287 23.2187 22.3276C21.6592 24.4488 21.2566 27.2123 22.1513 29.6768C22.5539 30.781 23.1035 31.6358 23.9727 32.5092C25.5897 34.1373 27.5707 34.961 29.8525 34.961C32.1023 34.961 34.0004 34.1874 35.6043 32.6153C37.2212 31.0245 38.001 29.2029 38.001 27.0007C38.001 24.8049 37.202 22.9268 35.6108 21.3733C34.3902 20.1818 32.8947 19.4143 31.265 19.1335C30.562 19.0149 29.0796 19.0149 28.3893 19.1395ZM31.4825 21.2171C33.5788 21.8096 35.1638 23.3696 35.7773 25.4407C35.905 25.8714 35.9243 26.0645 35.9181 27.0252C35.9181 28.0296 35.9053 28.1606 35.7453 28.6661C35.4257 29.6705 35.0103 30.3692 34.2691 31.1303C33.0867 32.347 31.5847 32.9644 29.8466 32.9644C28.7857 32.9644 28.006 32.7833 27.0727 32.3218C25.2194 31.4175 23.9475 29.6019 23.7555 27.6057C23.5766 25.7028 24.2222 23.9873 25.6089 22.6833C26.4912 21.8597 27.3794 21.4042 28.613 21.1297C29.2393 20.9927 30.8562 21.0424 31.4825 21.2171Z" fill="#FA0339"/>
<path d="M28.8112 25.0101L28.8304 26.994L29.84 27.0128L30.8435 27.0316V25.0289V23.0326H29.8208H28.7981L28.8112 25.0101Z" fill="#FA0339"/>
<path d="M28.8111 30.0013L28.8304 30.9869L29.84 31.0057L30.8434 31.0245V30.0201V29.0218H29.8208H28.7919L28.8111 30.0013Z" fill="#FA0339"/>
<path d="M16.8148 9.03916C15.9009 9.15773 14.8592 9.55075 14.0922 10.0623C13.2103 10.6488 12.341 11.6844 11.9257 12.6515C11.4591 13.7556 11.3951 14.3421 11.4336 17.3928C11.4591 19.6198 11.4718 19.8634 11.5933 20.3373C11.8872 21.4478 12.3858 22.3024 13.223 23.1448L13.7405 23.6564L13.4529 23.7625C12.8266 23.9933 11.414 24.742 10.8452 25.1411C10.1422 25.6339 9.12605 26.5512 8.6085 27.175C7.13227 28.9405 6.28231 30.9744 6.04558 33.3201C5.98158 33.9438 5.98158 34.0624 6.07758 34.2996C6.20525 34.624 6.46745 34.8612 6.80606 34.9485C6.97227 34.9922 10.1422 35.0046 16.4053 34.9986L25.762 34.9798L25.3147 34.7178C24.6756 34.356 23.8308 33.8797 23.2878 33.3745L22.56 33.0023H15.7219L8.31462 32.9835L8.33389 32.7964C8.34662 32.6902 8.42336 32.3409 8.50662 32.0164C8.9285 30.3819 9.77845 28.8908 10.967 27.7178C12.2134 26.4888 13.6001 25.7152 15.3706 25.2661C16.0223 25.0978 16.246 25.0726 17.2752 25.0477C18.5663 25.0104 19.3268 25.0978 20.2597 25.3846C20.5346 25.4656 20.7838 25.5156 20.8092 25.4844C20.8347 25.4595 20.8922 25.2536 20.9369 25.0289C20.9751 24.8042 21.0776 24.4236 21.154 24.1868C21.2817 23.7874 21.3522 23.7001 21.8698 23.1885C22.771 22.3088 23.3271 21.3293 23.5635 20.2003C23.6722 19.7011 23.685 19.3269 23.685 17.0061C23.685 14.1113 23.653 13.762 23.2951 12.8638C22.9692 12.0401 22.5728 11.454 21.8698 10.7738C21.1093 10.0375 20.4638 9.6384 19.5498 9.33272C18.6682 9.04554 17.6331 8.93334 16.8148 9.03916ZM18.8602 11.2104C19.5247 11.4224 19.9851 11.7032 20.4579 12.1711C20.9118 12.6202 21.2758 13.1819 21.4675 13.7371C21.6017 14.1241 21.6082 14.2551 21.6272 16.7942C21.6464 19.7075 21.6272 19.9571 21.2628 20.6934C20.0612 23.1639 16.6933 23.7441 14.7054 21.8227C14.2006 21.336 13.8682 20.8119 13.6445 20.1321C13.5038 19.7142 13.4976 19.5832 13.4721 17.3246C13.4467 14.723 13.4849 14.2426 13.7787 13.5063C14.5461 11.5658 16.8213 10.5366 18.8602 11.2104Z" fill="#FA0339"/>
<path d="M12.7236 14.6249C12.7236 12.0361 14.8735 9.93748 17.5255 9.93748C20.1775 9.93748 22.3274 12.0361 22.3274 14.6249V19.3123C22.3274 21.9011 20.1775 23.9997 17.5255 23.9997C14.8735 23.9997 12.7236 21.9011 12.7236 19.3123V14.6249Z" fill="#FA0339"/>
<path d="M23.2878 33.3745C19.8304 30.7495 20.6948 25.7184 21.175 23.9997L17.0453 24.4684L13.2038 24.9372L9.36231 27.7496L6.96137 32.437L7.92175 33.8432H11.7633L23.2878 34.312L23.2878 33.3745Z" fill="#FA0339"/>
</svg>
