<svg width="38" height="29" viewBox="0 0 38 29" fill="none" xmlns="http://www.w3.org/2000/svg">
<path d="M32.2163 2.7017C29.8124 1.61641 27.2347 0.816815 24.5395 0.358855C24.4905 0.350016 24.4414 0.372104 24.4161 0.416281C24.0846 0.99646 23.7174 1.75335 23.4603 2.34826C20.5614 1.92124 17.6775 1.92124 14.8381 2.34826C14.5809 1.74013 14.2003 0.99646 13.8673 0.416281C13.842 0.373578 13.793 0.35149 13.7439 0.358855C11.0502 0.815352 8.47249 1.61495 6.06719 2.7017C6.04636 2.71053 6.02852 2.72527 6.01667 2.7444C1.12726 9.93196 -0.212152 16.9429 0.444919 23.8668C0.447892 23.9007 0.467218 23.9331 0.493977 23.9537C3.71987 26.2847 6.8447 27.6999 9.9115 28.6379C9.96058 28.6526 10.0126 28.635 10.0438 28.5952C10.7693 27.6204 11.4159 26.5926 11.9704 25.5117C12.0031 25.4484 11.9719 25.3733 11.905 25.3482C10.8793 24.9654 9.90257 24.4985 8.96305 23.9684C8.88874 23.9257 8.88279 23.8212 8.95115 23.7711C9.14886 23.6253 9.34663 23.4736 9.53541 23.3205C9.56957 23.2925 9.61716 23.2866 9.65732 23.3043C15.8296 26.0771 22.5118 26.0771 28.6113 23.3043C28.6514 23.2852 28.699 23.2911 28.7347 23.319C28.9235 23.4722 29.1212 23.6253 29.3204 23.7711C29.3888 23.8212 29.3843 23.9257 29.31 23.9684C28.3705 24.5088 27.3938 24.9654 26.3665 25.3468C26.2997 25.3718 26.2699 25.4484 26.3026 25.5117C26.869 26.591 27.5157 27.6189 28.2277 28.5937C28.2575 28.635 28.311 28.6526 28.3601 28.6379C31.4417 27.6999 34.5665 26.2847 37.7924 23.9537C37.8207 23.9331 37.8385 23.9022 37.8415 23.8683C38.6279 15.8634 36.5244 8.91002 32.2653 2.74587C32.2549 2.72527 32.2371 2.71053 32.2163 2.7017ZM12.8921 19.6509C11.0339 19.6509 9.50269 17.9722 9.50269 15.9106C9.50269 13.849 11.0042 12.1703 12.8921 12.1703C14.7949 12.1703 16.3113 13.8637 16.2815 15.9106C16.2815 17.9722 14.7801 19.6509 12.8921 19.6509ZM25.424 19.6509C23.5658 19.6509 22.0346 17.9722 22.0346 15.9106C22.0346 13.849 23.5361 12.1703 25.424 12.1703C27.3269 12.1703 28.8432 13.8637 28.8135 15.9106C28.8135 17.9722 27.3269 19.6509 25.424 19.6509Z" fill="white"/>
</svg>
