<svg width="29" height="29" viewBox="0 0 29 29" fill="none" xmlns="http://www.w3.org/2000/svg">
<path d="M0.47668 9.74411H6.34191V28.6431H0.47668V9.74411ZM3.39893 0.356934C5.28493 0.356934 6.79786 1.873 6.79786 3.7629C6.79786 5.63203 5.28493 7.16886 3.39893 7.16886C1.51294 7.16886 0 5.63203 0 3.7629C0 1.873 1.51294 0.356934 3.39893 0.356934Z" fill="white"/>
<path d="M10.0078 9.74134H15.6243V12.3166H15.7072C16.4948 10.8213 18.4015 9.26367 21.2616 9.26367C27.189 9.26367 28.2874 13.1681 28.2874 18.2563V28.6195H22.4222V19.44C22.4222 17.2386 22.3808 14.4349 19.3756 14.4349C16.329 14.4349 15.8523 16.8233 15.8523 19.2947V28.6403H10.0078V9.74134Z" fill="white"/>
</svg>
