<svg width="39" height="35" viewBox="0 0 39 35" fill="none" xmlns="http://www.w3.org/2000/svg">
<path d="M29.8572 34.6177L20.8036 27.4788L15.7296 32.6048C15.4396 32.8544 15.1424 32.9793 14.8308 32.9793C14.1276 32.9793 13.6565 32.6594 13.4245 32.0118L9.83643 20.3321L0.935077 17.3518C0.391428 17.1879 0.0797352 16.7666 0 16.0956C0 15.4247 0.311692 14.9643 0.935077 14.7069C25.2906 4.89969 37.548 0 37.7075 0C37.9902 0 38.2874 0.140437 38.5846 0.421311C38.8818 0.702185 39.0195 1.06888 38.9978 1.5136L32.7929 33.3616C32.5827 34.4539 31.9738 35 30.959 35C30.5603 35 30.1979 34.8752 29.8572 34.6177ZM15.2657 22.938C26.3996 12.1244 31.9811 6.68636 31.9883 6.61614C32.0028 6.54592 32.0101 6.49911 32.0101 6.4679C32.0101 6.21824 31.8434 6.0934 31.5027 6.0934C31.4229 6.0934 24.9209 10.5484 11.9893 19.4505L14.7148 29.0782L15.2657 22.938Z" fill="white"/>
</svg>
