<svg width="35" height="25" viewBox="0 0 35 25" fill="none" xmlns="http://www.w3.org/2000/svg">
<path d="M35 2.95866C33.7098 3.46217 32.3268 3.80023 30.8729 3.95368C32.3568 3.17205 33.497 1.93488 34.0316 0.462741C32.6459 1.18442 31.1047 1.7095 29.4708 1.99242C28.1615 0.764841 26.2957 0 24.2308 0C20.2646 0 17.0486 2.8244 17.0486 6.31054C17.0486 6.80445 17.114 7.28637 17.2368 7.74911C11.2684 7.48537 5.97927 4.97267 2.4359 1.15326C1.81669 2.08833 1.46481 3.17205 1.46481 4.32771C1.46481 6.51673 2.7305 8.44922 4.65903 9.58329C3.48063 9.54973 2.37316 9.26441 1.4048 8.79208C1.4048 8.81845 1.4048 8.84483 1.4048 8.8712C1.4048 11.9306 3.88161 14.4792 7.16312 15.0619C6.56301 15.2057 5.92744 15.2824 5.27278 15.2824C4.80906 15.2824 4.35897 15.2441 3.9198 15.1674C4.83633 17.6729 7.48773 19.5023 10.6274 19.5526C8.17239 21.2453 5.07638 22.2523 1.71031 22.2523C1.1293 22.2523 0.559193 22.2236 0 22.1636C3.17512 23.957 6.95035 25 11.0065 25C24.2144 25 31.4375 15.3831 31.4375 7.04421C31.4375 6.77088 31.4294 6.49516 31.4184 6.22662C32.8205 5.33711 34.0371 4.22461 35 2.95866Z" fill="white"/>
</svg>
