<svg width="298" height="80" viewBox="0 0 298 80" fill="none" xmlns="http://www.w3.org/2000/svg">
<path d="M89.1716 9.15137L67.1406 55.5774L89.6138 55.5774L111.701 9.15137L89.1716 9.15137Z" fill="#FA0339"/>
<path d="M61.181 9.15137L50.3837 31.9015L39.5863 9.15137L17.0597 9.15137L19.3598 13.9851L0 55.5774L22.4732 55.5774L30.8428 38.1269L39.1471 55.5774H39.15H61.6203H61.6232L83.7106 9.15137L61.181 9.15137Z" fill="#FA0339"/>
<path d="M297.892 17.5841L274.535 0L269.899 9.66146L227.104 9.66146L210.46 9.66146H210.297C208.745 9.66146 207.255 10.065 205.949 10.7861C204.135 11.7475 202.637 13.2815 201.734 15.2162L197.184 25.5038H197.187L190.242 40.4055L189.082 42.7793C186.111 48.8503 190.533 55.9303 197.291 55.9303L235.61 55.9303C239.353 55.9303 242.754 53.7642 244.336 50.3755L249.141 40.3342H249.076L255.561 27.1595L232.574 27.1595L226.321 40.3342H212.009L219.307 25.5038L262.292 25.5038L257.695 35.0822L297.892 17.5841Z" fill="#FA0339"/>
<path d="M144.724 24.9903C149.36 24.2692 151.488 24.0289 153.607 19.5928L158.597 9.14502L117.324 9.14502L109.925 24.9903H117.951L113.591 34.177L103.438 55.574L125.911 55.574L137.88 30.4145C137.877 30.4145 140.086 25.7143 144.724 24.9903Z" fill="#FA0339"/>
<path d="M187.754 35.8545L189.68 31.819L195.678 19.0864C199.551 9.149 190.529 9.06592 190.529 9.06592L186.667 9.06592L163.924 9.06592L157.789 21.9024H168.602C168.602 21.9024 171.118 22.1101 170.949 24.2495C170.777 26.3889 168.949 26.5669 168.949 26.5669L161.992 26.8518C161.992 26.8518 158.597 26.742 150.833 27.4571C144.493 28.4007 140.854 35.54 140.854 35.54L131.016 55.4949L153.489 55.4949L158.579 44.4596C158.591 44.4359 158.603 44.4122 158.611 44.3884C159.19 42.9879 159.511 42.43 160.279 42.43C160.965 42.43 161.597 44.4151 161.597 44.4151L165.177 55.4949H187.676L181.963 41.8484C185.453 40.3826 187.754 35.8545 187.754 35.8545Z" fill="#FA0339"/>
<path d="M261.363 74.2165C260.355 74.2165 259.394 74.2165 258.399 74.2165C258.588 73.6465 258.771 73.1 258.949 72.5518C258.989 72.4281 259.079 72.439 259.175 72.439C261.364 72.4399 263.553 72.4418 265.742 72.4363C265.945 72.4354 265.934 72.51 265.884 72.66C265.192 74.7257 264.512 76.7959 263.81 78.858C263.578 79.5381 262.964 79.7263 262.342 79.8609C261.898 79.9572 261.443 79.9882 260.987 79.9882C258.206 79.9891 255.425 79.99 252.645 79.9872C252.158 79.9863 251.672 79.9591 251.205 79.8063C250.621 79.6154 250.473 79.3253 250.666 78.7453C251.944 74.9003 253.23 71.058 254.499 67.2093C254.705 66.5829 255.145 66.271 255.733 66.1046C256.265 65.9537 256.813 65.9082 257.364 65.9073C260.145 65.9046 262.926 65.9046 265.707 65.9073C266.205 65.9082 266.701 65.9401 267.179 66.0955C267.757 66.2846 267.905 66.5819 267.716 67.1557C267.406 68.0949 267.088 69.0323 266.787 69.9742C266.725 70.1669 266.637 70.2279 266.432 70.226C265.29 70.2142 264.148 70.2106 263.006 70.2269C262.71 70.2315 262.713 70.1433 262.795 69.9105C263.021 69.275 263.221 68.6304 263.442 67.9939C263.503 67.8194 263.527 67.7394 263.284 67.7412C261.698 67.7512 260.112 67.7494 258.526 67.7421C258.356 67.7412 258.289 67.8003 258.239 67.9512C257.135 71.2789 256.029 74.6066 254.915 77.9306C254.846 78.1379 254.902 78.1525 255.081 78.1516C256.667 78.147 258.253 78.1488 259.839 78.1488C259.953 78.1488 260.056 78.1634 260.107 78.0079C260.514 76.7578 260.932 75.5103 261.363 74.2165Z" fill="white"/>
<path d="M274.787 65.9088C273.425 69.9975 272.071 74.0598 270.708 78.1521C271.598 78.1521 272.452 78.1521 273.306 78.1521C274.142 78.1521 274.977 78.143 275.812 78.1585C276.03 78.1621 276.115 78.0976 276.183 77.8912C277.468 74.0098 278.765 70.1311 280.049 66.2497C280.135 65.9906 280.24 65.8952 280.528 65.9006C281.722 65.9215 282.916 65.9097 284.148 65.9097C283.902 66.6443 283.665 67.3508 283.429 68.0572C282.259 71.574 281.08 75.0872 279.926 78.6095C279.706 79.2814 279.263 79.6332 278.621 79.8032C278.097 79.9423 277.559 79.9905 277.02 79.9905C274.186 79.9942 271.352 79.9942 268.518 79.9905C268.021 79.9896 267.523 79.9578 267.047 79.7987C266.489 79.6123 266.343 79.3141 266.531 78.7504C267.929 74.5453 269.329 70.3412 270.728 66.137C270.771 66.007 270.799 65.9015 270.992 65.9033C272.239 65.9152 273.487 65.9088 274.787 65.9088Z" fill="white"/>
<path d="M234.031 79.9897C235.257 78.2377 236.448 76.5347 237.638 74.8327C239.677 71.9178 241.717 69.0038 243.75 66.0862C243.87 65.9143 243.986 65.8352 244.207 65.838C245.412 65.8507 246.616 65.8489 247.821 65.8389C248.039 65.837 248.13 65.8652 248.136 66.1207C248.236 70.0603 248.348 73.9999 248.458 77.9395C248.475 78.5413 248.491 79.1432 248.52 79.7451C248.529 79.9288 248.495 79.9988 248.287 79.9961C247.124 79.9843 245.962 79.987 244.799 79.9943C244.619 79.9952 244.567 79.947 244.575 79.767C244.608 79.0387 244.617 78.3095 244.656 77.5812C244.668 77.3667 244.606 77.3212 244.401 77.3221C242.9 77.3303 241.399 77.3303 239.898 77.3221C239.713 77.3212 239.617 77.3885 239.525 77.5358C239.058 78.2886 238.58 79.035 238.105 79.7824C238.041 79.8842 237.997 79.9952 237.828 79.9943C236.582 79.9861 235.336 79.9897 234.031 79.9897ZM240.804 75.4855C242.092 75.4855 243.326 75.4819 244.56 75.4892C244.763 75.4901 244.712 75.3564 244.715 75.2546C244.775 73.2898 244.833 71.325 244.889 69.3611C244.89 69.3093 244.934 69.2347 244.833 69.2011C243.503 71.2768 242.17 73.3543 240.804 75.4855Z" fill="white"/>
<path d="M233.425 78.1419C233.229 78.7256 233.039 79.2611 232.873 79.803C232.825 79.9594 232.753 80.0085 232.607 79.9912C232.576 79.9876 232.543 79.9903 232.511 79.9903C229.032 79.9903 225.553 79.9876 222.073 79.9958C221.8 79.9967 221.77 79.9403 221.854 79.6876C223.366 75.1743 224.868 70.6573 226.371 66.1404C226.419 65.994 226.463 65.8995 226.664 65.9004C230.196 65.9095 233.728 65.9068 237.26 65.9077C237.291 65.9077 237.323 65.9149 237.39 65.9231C237.201 66.4987 237.015 67.0669 236.827 67.6342C236.769 67.8115 236.618 67.7452 236.505 67.7452C234.379 67.7488 232.253 67.7524 230.128 67.7415C229.886 67.7406 229.791 67.8079 229.717 68.0416C229.333 69.2454 228.925 70.4419 228.525 71.6411C228.503 71.7093 228.451 71.772 228.488 71.8666C230.458 71.8666 232.433 71.8666 234.446 71.8666C234.248 72.4567 234.053 73.0213 233.873 73.5904C233.812 73.7841 233.668 73.7059 233.561 73.7068C231.763 73.7123 229.965 73.7159 228.167 73.7041C227.92 73.7023 227.802 73.7605 227.722 74.0096C227.297 75.3334 226.851 76.6508 226.413 77.9701C226.397 78.0183 226.384 78.0683 226.363 78.141C228.716 78.1419 231.049 78.1419 233.425 78.1419Z" fill="white"/>
<path d="M288.804 71.8739C290.825 71.8739 292.8 71.8739 294.805 71.8739C294.611 72.4548 294.414 73.0095 294.242 73.5713C294.183 73.7614 294.056 73.7086 293.943 73.7086C292.474 73.7114 291.003 73.7104 289.534 73.7104C289.153 73.7104 288.772 73.715 288.391 73.7077C288.261 73.705 288.18 73.7286 288.134 73.8705C287.674 75.2716 287.206 76.6699 286.742 78.0692C286.736 78.0874 286.746 78.1101 286.751 78.1465C289.084 78.1465 291.419 78.1465 293.782 78.1465C293.586 78.7365 293.393 79.3021 293.212 79.8712C293.158 80.0431 293.03 79.9858 292.927 79.9867C291.615 79.9903 290.304 79.9894 288.993 79.9894C286.804 79.9894 284.615 79.9858 282.425 79.9949C282.178 79.9958 282.124 79.9658 282.21 79.7076C283.725 75.1834 285.229 70.6564 286.735 66.1295C286.78 65.9959 286.815 65.9004 287.004 65.9004C290.547 65.9086 294.089 65.9068 297.632 65.9077C297.661 65.9077 297.69 65.9195 297.749 65.9322C297.559 66.5086 297.375 67.0769 297.184 67.6433C297.125 67.8161 296.969 67.7443 296.855 67.7443C294.73 67.7479 292.604 67.7506 290.479 67.7415C290.255 67.7406 290.157 67.8006 290.086 68.0207C289.675 69.2935 289.244 70.5582 288.804 71.8739Z" fill="white"/>
<path d="M214.062 78.0931C216.235 78.0931 218.377 78.0931 220.551 78.0931C220.35 78.6959 220.15 79.2714 219.97 79.8515C219.907 80.0561 219.758 79.9897 219.636 79.9897C217.395 79.9933 215.154 79.9924 212.913 79.9924C211.773 79.9924 210.633 79.9924 209.453 79.9924C209.69 79.2769 209.914 78.5886 210.143 77.9021C211.445 73.998 212.75 70.0957 214.046 66.1898C214.116 65.9779 214.198 65.9007 214.431 65.9034C215.646 65.917 216.862 65.9098 218.121 65.9098C216.767 69.9757 215.419 74.0208 214.062 78.0931Z" fill="white"/>
<path d="M207.914 71.0332L89.1094 71.6146L206.418 74.6799L207.914 71.0332Z" fill="white"/>
</svg>
