<svg width="166" height="166" viewBox="0 0 166 166" fill="none" xmlns="http://www.w3.org/2000/svg">
<rect x="0.529297" y="0.333984" width="165.188" height="165.188" fill="#FA0339"/>
<path d="M85.8084 26.103C54.4555 26.103 28.9512 51.6112 28.9512 82.9641C28.9512 87.08 29.3901 91.0959 30.2295 94.9654L33.7602 87.3765C33.6331 85.9211 33.5715 84.4503 33.5715 82.9641C33.5715 70.8665 37.7067 59.716 44.6295 50.8527C44.9376 50.46 45.2494 50.0711 45.5652 49.6899C45.6845 49.5474 45.8 49.405 45.9194 49.2664C46.3044 48.812 46.701 48.3615 47.1053 47.9188C56.6655 37.3651 70.4765 30.7234 85.8084 30.7234C101.144 30.7234 114.955 37.3651 124.519 47.9188H130.556C120.138 34.6468 103.951 26.103 85.8084 26.103ZM138.322 61.1638L135.554 66.9892C137.175 72.0254 138.049 77.3927 138.049 82.9641C138.049 111.768 114.616 135.201 85.8084 135.201C70.4765 135.201 56.6617 128.559 47.1014 118.006H41.0642C51.4792 131.281 67.6658 139.821 85.8084 139.821C117.161 139.821 142.669 114.317 142.669 82.9641C142.669 75.2443 141.122 67.8825 138.322 61.1638ZM34.4147 92.3549L31.2806 99.0929C33.0132 104.945 35.6661 110.409 39.0736 115.31H44.8182C39.628 108.746 35.9779 100.91 34.4147 92.3549ZM132.547 50.614H126.802C129.863 54.4835 132.385 58.792 134.264 63.4316L136.867 57.9526C135.608 55.3922 134.164 52.9395 132.547 50.614Z" fill="white"/>
<path d="M45.5574 49.6912L45.3564 49.2661H45.913C45.7932 49.4052 45.6772 49.5482 45.5574 49.6912Z" fill="white"/>
<path d="M140.359 50.6172L136.866 57.9558L134.264 63.4348L109.587 115.314H78.2727L66.7026 90.9952L55.0439 115.314H23.7334L31.28 99.0962L34.4141 92.3582L50.7047 57.3552L47.4974 50.6172H78.8849L93.928 82.3205L108.971 50.6172H140.359Z" fill="white"/>
</svg>
