<svg width="200" height="200" viewBox="0 0 200 200" fill="none" xmlns="http://www.w3.org/2000/svg">
<path fill-rule="evenodd" clip-rule="evenodd" d="M88.4172 45.4162L67.5898 23.9414L79.7841 47.6824L79.0287 112.862H89.1726L88.4172 45.4162Z" fill="white"/>
<path fill-rule="evenodd" clip-rule="evenodd" d="M111.08 45.4162L131.907 23.9414L119.713 47.6824L120.468 112.862H110.324L111.08 45.4162Z" fill="white"/>
<path d="M100.234 172.001C119.693 172.001 135.468 157.192 135.468 138.925C135.468 120.658 119.693 105.85 100.234 105.85C80.7747 105.85 65 120.658 65 138.925C65 157.192 80.7747 172.001 100.234 172.001Z" fill="white"/>
<path fill-rule="evenodd" clip-rule="evenodd" d="M100.234 117.215C113.005 117.215 123.358 126.935 123.358 138.924C123.358 150.913 113.005 160.633 100.234 160.633C87.4621 160.633 77.1084 150.913 77.1084 138.924C77.1084 126.935 87.4619 117.215 100.234 117.215Z" fill="black"/>
<path d="M111.295 22H88.5254V148.799H111.295V22Z" fill="black"/>
</svg>
