<svg width="80" height="80" viewBox="0 0 80 80" fill="none" xmlns="http://www.w3.org/2000/svg">
<rect width="80" height="80" fill="#FA0339"/>
<path d="M41.3053 12.4805C26.1212 12.4805 13.7695 24.834 13.7695 40.0181C13.7695 42.0114 13.9821 43.9563 14.3886 45.8303L16.0985 42.155C16.037 41.4501 16.0071 40.7378 16.0071 40.0181C16.0071 34.1592 18.0098 28.7591 21.3625 24.4666C21.5117 24.2764 21.6627 24.0881 21.8156 23.9035C21.8734 23.8345 21.9294 23.7655 21.9872 23.6984C22.1736 23.4784 22.3657 23.2602 22.5615 23.0457C27.1915 17.9347 33.8801 14.7181 41.3053 14.7181C48.7323 14.7181 55.4209 17.9347 60.0528 23.0457H62.9766C57.9308 16.6182 50.0916 12.4805 41.3053 12.4805ZM66.7376 29.4603L65.3969 32.2815C66.182 34.7205 66.6053 37.3199 66.6053 40.0181C66.6053 53.9677 55.2568 65.3162 41.3053 65.3162C33.8801 65.3162 27.1896 62.0996 22.5596 56.9885H19.6358C24.6798 63.4179 32.5189 67.5538 41.3053 67.5538C56.4894 67.5538 68.8429 55.2022 68.8429 40.0181C68.8429 36.2794 68.0933 32.7141 66.7376 29.4603ZM16.4155 44.566L14.8977 47.8292C15.7368 50.6635 17.0215 53.3095 18.6718 55.6833H21.4539C18.9403 52.504 17.1726 48.7094 16.4155 44.566ZM63.9406 24.351H61.1585C62.6409 26.225 63.8623 28.3116 64.7723 30.5585L66.0328 27.9051C65.423 26.6651 64.7238 25.4773 63.9406 24.351Z" fill="white"/>
<path d="M21.8157 23.9043L21.7188 23.6992H21.9873C21.9295 23.7663 21.8735 23.8353 21.8157 23.9043Z" fill="white"/>
<path d="M67.7234 24.3516L66.0321 27.9056L64.7716 30.5591L52.8208 55.6838H37.6554L32.052 43.9065L26.4058 55.6838H11.2422L14.897 47.8298L16.4148 44.5666L24.3043 27.6148L22.751 24.3516H37.9519L45.2372 39.7053L52.5225 24.3516H67.7234Z" fill="white"/>
</svg>
