<svg width="40" height="29" viewBox="0 0 40 29" fill="none" xmlns="http://www.w3.org/2000/svg">
<path d="M39.987 25.7037C40.1387 25.2939 22.728 12.1475 22.728 12.1475C20.5483 10.539 19.4019 10.5137 17.2464 12.1475C17.2464 12.1475 -0.138906 25.2833 0.00742188 25.6875L0.00390625 25.6904C0.00570313 25.6939 0.00859375 25.6964 0.0110156 25.6996C0.158432 26.1014 0.372903 26.4754 0.645312 26.8056C0.760391 26.9451 0.899063 27.062 1.03242 27.1835L1.02594 27.1885C1.03656 27.1979 1.0507 27.2023 1.06133 27.2118C1.62656 27.716 2.33938 28.0425 3.13125 28.1357C3.14367 28.1372 3.15367 28.1437 3.16609 28.1452H3.21391C3.3343 28.1567 3.44875 28.1856 3.57203 28.1856H36.4409C38.0594 28.1856 39.4306 27.1678 39.9753 25.741C39.9818 25.7304 39.9918 25.7227 39.9977 25.7118L39.987 25.7037Z" fill="#96A9B2"/>
<path d="M20.0111 10.6388L0.0957031 25.5754V4.41529C0.0957031 2.35279 1.76734 0.681152 3.82984 0.681152H36.1923C38.2548 0.681152 39.9265 2.35279 39.9265 4.41529V25.5754L20.0111 10.6388Z" fill="#B9C5C6"/>
<path d="M0.328125 3.11681L17.3316 16.4722C19.4777 18.0559 20.6065 18.0809 22.7288 16.4722L39.7055 3.13798C39.411 2.60407 38.9701 2.18228 38.4658 1.84595L38.6993 1.66298C38.1294 1.14415 37.4009 0.807822 36.5922 0.720947L3.43164 0.72212C2.62523 0.807823 1.89555 1.14532 1.3268 1.66298L1.55859 1.84368C1.06016 2.17532 0.623281 2.58985 0.328125 3.11681Z" fill="#EDECE6"/>
<path d="M0.321016 3.14484C0.171719 3.54836 17.3141 16.4921 17.3141 16.4921C19.4602 18.0758 20.589 18.1008 22.7113 16.4921C22.7113 16.4921 39.8287 3.55883 39.6845 3.16086L39.688 3.15797C39.6863 3.15445 39.6834 3.15219 39.6811 3.14898C39.5359 2.75331 39.3248 2.38509 39.0566 2.06C38.9433 1.92258 38.8067 1.80758 38.6755 1.68789L38.6819 1.68297C38.6714 1.67367 38.6575 1.6693 38.647 1.66C38.0905 1.16359 37.3887 0.842031 36.6091 0.750234C36.5969 0.74875 36.587 0.742422 36.5748 0.740938H36.5277C36.4092 0.72961 36.2965 0.701172 36.1751 0.701172H3.81258C2.21898 0.701172 0.868828 1.70336 0.332656 3.10812C0.32625 3.11859 0.316406 3.12617 0.310547 3.13687L0.321016 3.14484Z" fill="#DCE2E2"/>
</svg>
