<svg width="44" height="44" viewBox="0 0 44 44" fill="none" xmlns="http://www.w3.org/2000/svg">
<path opacity="0.2" d="M42.9992 1H1V43H42.9992V1Z" stroke="#FA0339" stroke-miterlimit="10"/>
<path d="M39.0703 1H43.001V4.93073" stroke="#FA0339" stroke-width="2" stroke-miterlimit="10"/>
<path d="M1 4.93073V1H4.93066" stroke="#FA0339" stroke-width="2" stroke-miterlimit="10"/>
<path d="M1 39.0693V43.0001H4.93066" stroke="#FA0339" stroke-width="2" stroke-miterlimit="10"/>
<path d="M43.001 39.0693V43.0001H39.0703" stroke="#FA0339" stroke-width="2" stroke-miterlimit="10"/>
<path d="M36.9583 7L23.8242 16.7183L26.2666 10.991L36.9583 7Z" fill="#E17726" stroke="#E17726" stroke-width="0.25" stroke-linecap="round" stroke-linejoin="round"/>
<path d="M6.66284 7L19.68 16.809L17.3546 10.991L6.66284 7Z" fill="#E27625" stroke="#E27625" stroke-width="0.25" stroke-linecap="round" stroke-linejoin="round"/>
<path d="M32.2292 29.5334L28.7346 34.872L36.2175 36.9323L38.3611 29.6501L32.2292 29.5334Z" fill="#E27625" stroke="#E27625" stroke-width="0.25" stroke-linecap="round" stroke-linejoin="round"/>
<path d="M5.27271 29.6501L7.40324 36.9323L14.8732 34.872L11.3915 29.5334L5.27271 29.6501Z" fill="#E27625" stroke="#E27625" stroke-width="0.25" stroke-linecap="round" stroke-linejoin="round"/>
<path d="M14.4704 20.5149L12.3918 23.6507L19.7968 23.9876L19.55 16.0186L14.4704 20.5149Z" fill="#E27625" stroke="#E27625" stroke-width="0.25" stroke-linecap="round" stroke-linejoin="round"/>
<path d="M29.1503 20.515L23.9929 15.928L23.824 23.9877L31.2289 23.6508L29.1503 20.515Z" fill="#E27625" stroke="#E27625" stroke-width="0.25" stroke-linecap="round" stroke-linejoin="round"/>
<path d="M14.8733 34.872L19.3552 32.7081L15.4969 29.7019L14.8733 34.872Z" fill="#E27625" stroke="#E27625" stroke-width="0.25" stroke-linecap="round" stroke-linejoin="round"/>
<path d="M24.2659 32.7081L28.7348 34.872L28.1242 29.7019L24.2659 32.7081Z" fill="#E27625" stroke="#E27625" stroke-width="0.25" stroke-linecap="round" stroke-linejoin="round"/>
<path d="M28.7348 34.8722L24.2659 32.7083L24.6296 35.6108L24.5906 36.8418L28.7348 34.8722Z" fill="#D5BFB2" stroke="#D5BFB2" stroke-width="0.25" stroke-linecap="round" stroke-linejoin="round"/>
<path d="M14.8733 34.8722L19.0305 36.8418L19.0045 35.6108L19.3552 32.7083L14.8733 34.8722Z" fill="#D5BFB2" stroke="#D5BFB2" stroke-width="0.25" stroke-linecap="round" stroke-linejoin="round"/>
<path d="M19.1083 27.7842L15.3928 26.6958L18.017 25.4907L19.1083 27.7842Z" fill="#233447" stroke="#233447" stroke-width="0.25" stroke-linecap="round" stroke-linejoin="round"/>
<path d="M24.5127 27.7842L25.604 25.4907L28.2412 26.6958L24.5127 27.7842Z" fill="#233447" stroke="#233447" stroke-width="0.25" stroke-linecap="round" stroke-linejoin="round"/>
<path d="M14.8732 34.872L15.5228 29.5334L11.3916 29.6501L14.8732 34.872Z" fill="#CC6228" stroke="#CC6228" stroke-width="0.25" stroke-linecap="round" stroke-linejoin="round"/>
<path d="M28.0981 29.5334L28.7347 34.872L32.2293 29.6501L28.0981 29.5334Z" fill="#CC6228" stroke="#CC6228" stroke-width="0.25" stroke-linecap="round" stroke-linejoin="round"/>
<path d="M31.2289 23.6506L23.824 23.9875L24.5125 27.7842L25.6038 25.4906L28.241 26.6957L31.2289 23.6506Z" fill="#CC6228" stroke="#CC6228" stroke-width="0.25" stroke-linecap="round" stroke-linejoin="round"/>
<path d="M15.3928 26.6957L18.017 25.4906L19.1083 27.7842L19.7968 23.9875L12.3918 23.6506L15.3928 26.6957Z" fill="#CC6228" stroke="#CC6228" stroke-width="0.25" stroke-linecap="round" stroke-linejoin="round"/>
<path d="M12.3921 23.6506L15.497 29.7019L15.393 26.6957L12.3921 23.6506Z" fill="#E27525" stroke="#E27525" stroke-width="0.25" stroke-linecap="round" stroke-linejoin="round"/>
<path d="M28.2412 26.6957L28.1243 29.7019L31.2292 23.6506L28.2412 26.6957Z" fill="#E27525" stroke="#E27525" stroke-width="0.25" stroke-linecap="round" stroke-linejoin="round"/>
<path d="M19.7972 23.9875L19.1086 27.7842L19.979 32.2675L20.1739 26.3588L19.7972 23.9875Z" fill="#E27525" stroke="#E27525" stroke-width="0.25" stroke-linecap="round" stroke-linejoin="round"/>
<path d="M23.8242 23.9875L23.4604 26.3459L23.6423 32.2675L24.5127 27.7842L23.8242 23.9875Z" fill="#E27525" stroke="#E27525" stroke-width="0.25" stroke-linecap="round" stroke-linejoin="round"/>
<path d="M24.5127 27.7843L23.6423 32.2676L24.2659 32.7082L28.1243 29.702L28.2412 26.6958L24.5127 27.7843Z" fill="#F5841F" stroke="#F5841F" stroke-width="0.25" stroke-linecap="round" stroke-linejoin="round"/>
<path d="M15.3928 26.6958L15.4968 29.702L19.3551 32.7082L19.9787 32.2676L19.1083 27.7843L15.3928 26.6958Z" fill="#F5841F" stroke="#F5841F" stroke-width="0.25" stroke-linecap="round" stroke-linejoin="round"/>
<path d="M24.5907 36.8417L24.6296 35.6107L24.2919 35.3256H19.3293L19.0045 35.6107L19.0305 36.8417L14.8733 34.8721L16.3283 36.0642L19.2773 38.0986H24.3308L27.2928 36.0642L28.7348 34.8721L24.5907 36.8417Z" fill="#C0AC9D" stroke="#C0AC9D" stroke-width="0.25" stroke-linecap="round" stroke-linejoin="round"/>
<path d="M24.2658 32.7081L23.6422 32.2676H19.9787L19.3552 32.7081L19.0044 35.6107L19.3292 35.3256H24.2918L24.6296 35.6107L24.2658 32.7081Z" fill="#161616" stroke="#161616" stroke-width="0.25" stroke-linecap="round" stroke-linejoin="round"/>
<path d="M37.5168 17.3532L38.6211 11.9887L36.9582 7L24.2659 16.3944L29.1505 20.5149L36.0488 22.5234L37.5688 20.7482L36.9063 20.2687L37.9585 19.3099L37.1531 18.6879L38.2054 17.8845L37.5168 17.3532Z" fill="#763E1A" stroke="#763E1A" stroke-width="0.25" stroke-linecap="round" stroke-linejoin="round"/>
<path d="M5 11.9887L6.11724 17.3532L5.40273 17.8845L6.468 18.6879L5.66255 19.3099L6.71483 20.2687L6.05228 20.7482L7.57225 22.5234L14.4706 20.5149L19.3552 16.3944L6.66287 7L5 11.9887Z" fill="#763E1A" stroke="#763E1A" stroke-width="0.25" stroke-linecap="round" stroke-linejoin="round"/>
<path d="M36.0489 22.5233L29.1506 20.5149L31.2292 23.6507L28.1243 29.7019L32.2295 29.6501H38.3613L36.0489 22.5233Z" fill="#F5841F" stroke="#F5841F" stroke-width="0.25" stroke-linecap="round" stroke-linejoin="round"/>
<path d="M14.4704 20.5149L7.57213 22.5233L5.27271 29.6501H11.3915L15.4967 29.7019L12.3919 23.6507L14.4704 20.5149Z" fill="#F5841F" stroke="#F5841F" stroke-width="0.25" stroke-linecap="round" stroke-linejoin="round"/>
<path d="M23.8241 23.9876L24.2658 16.3943L26.2664 10.991H17.3545L19.3551 16.3943L19.7968 23.9876L19.9657 26.3718L19.9787 32.2676H23.6422L23.6552 26.3718L23.8241 23.9876Z" fill="#F5841F" stroke="#F5841F" stroke-width="0.25" stroke-linecap="round" stroke-linejoin="round"/>
</svg>
