<svg width="168" height="40" viewBox="0 0 168 40" fill="none" xmlns="http://www.w3.org/2000/svg">
<path d="M50.0481 6.07617L37.6836 32.1378H50.2963L62.6925 6.07617L50.0481 6.07617Z" fill="#FA0339"/>
<path d="M34.3368 6.07617L28.277 18.8471L22.2171 6.07617L9.57446 6.07617L10.8654 8.7896L0 32.1378H12.6127L17.31 22.3418L21.9706 32.1378H21.9723L34.5833 32.1378H34.585L46.9811 6.07617L34.3368 6.07617Z" fill="#FA0339"/>
<path d="M167.19 10.8104L154.081 0.939453L151.479 6.36298L127.461 6.36298L118.12 6.36298H118.028C117.157 6.36298 116.321 6.58952 115.588 6.99428C114.57 7.53397 113.729 8.39514 113.223 9.48118L110.669 15.2562H110.671L106.773 23.6213L106.122 24.9539C104.455 28.3619 106.937 32.3363 110.729 32.3363H132.235C134.336 32.3363 136.245 31.1203 137.132 29.2181L139.829 23.5813H139.793L143.432 16.1856L130.531 16.1856L127.022 23.5813H118.99L123.086 15.2562L147.21 15.2562L144.63 20.6331L167.19 10.8104Z" fill="#FA0339"/>
<path d="M81.2263 14.9691C83.8281 14.5643 85.0224 14.4294 86.2117 11.9392L89.0118 6.07422L65.8485 6.07422L61.6959 14.9691L66.2 14.9691L63.7531 20.1261L58.0547 32.1375H70.6674L77.3852 18.014C77.3835 18.014 78.6228 15.3755 81.2263 14.9691Z" fill="#FA0339"/>
<path d="M105.374 21.0653L106.456 18.8L109.822 11.6524C111.996 6.07398 106.932 6.02734 106.932 6.02734H104.765L92.0006 6.02734L88.5576 13.2332H94.6257C94.6257 13.2332 96.0382 13.3498 95.9433 14.5507C95.8467 15.7517 94.8206 15.8517 94.8206 15.8517L90.9162 16.0116C90.9162 16.0116 89.0106 15.9499 84.6531 16.3514C81.0952 16.8811 79.0531 20.8887 79.0531 20.8887L73.5312 32.0906H86.1439L89.0006 25.8958C89.0073 25.8825 89.0139 25.8692 89.0189 25.8559C89.3438 25.0697 89.5237 24.7565 89.9551 24.7565C90.3398 24.7565 90.6946 25.8709 90.6946 25.8709L92.7035 32.0906H105.331L102.125 24.43C104.084 23.6072 105.374 21.0653 105.374 21.0653Z" fill="#FA0339"/>
<path d="M139.83 37.4878C139.498 37.4878 139.182 37.4878 138.855 37.4878C138.917 37.3001 138.977 37.1203 139.035 36.9398C139.049 36.8991 139.078 36.9027 139.11 36.9027C139.83 36.903 140.551 36.9036 141.271 36.9018C141.338 36.9015 141.334 36.926 141.318 36.9754C141.09 37.6554 140.866 38.3369 140.635 39.0157C140.559 39.2395 140.357 39.3015 140.152 39.3458C140.006 39.3775 139.856 39.3877 139.706 39.3877C138.791 39.388 137.876 39.3883 136.961 39.3874C136.801 39.3871 136.641 39.3781 136.487 39.3278C136.295 39.265 136.246 39.1695 136.309 38.9785C136.73 37.7129 137.153 36.4481 137.571 35.1812C137.639 34.975 137.784 34.8723 137.977 34.8176C138.152 34.7679 138.333 34.7529 138.514 34.7526C139.429 34.7517 140.344 34.7517 141.26 34.7526C141.423 34.7529 141.587 34.7634 141.744 34.8146C141.934 34.8768 141.983 34.9747 141.921 35.1635C141.819 35.4727 141.714 35.7813 141.615 36.0913C141.595 36.1548 141.565 36.1748 141.498 36.1742C141.122 36.1703 140.746 36.1691 140.371 36.1745C140.273 36.176 140.274 36.147 140.301 36.0704C140.376 35.8612 140.441 35.649 140.514 35.4395C140.534 35.382 140.542 35.3557 140.462 35.3563C139.94 35.3596 139.418 35.359 138.896 35.3566C138.841 35.3563 138.818 35.3757 138.802 35.4254C138.439 36.5208 138.075 37.6162 137.708 38.7104C137.685 38.7786 137.704 38.7834 137.762 38.7831C138.284 38.7816 138.806 38.7822 139.328 38.7822C139.366 38.7822 139.4 38.787 139.417 38.7358C139.55 38.3243 139.688 37.9137 139.83 37.4878Z" fill="white"/>
<path d="M144.249 34.7528C143.8 36.0987 143.355 37.4359 142.906 38.7829C143.199 38.7829 143.48 38.7829 143.761 38.7829C144.036 38.7829 144.311 38.78 144.586 38.785C144.657 38.7862 144.686 38.765 144.708 38.6971C145.131 37.4194 145.558 36.1426 145.98 34.865C146.008 34.7797 146.043 34.7483 146.138 34.7501C146.531 34.757 146.924 34.7531 147.329 34.7531C147.248 34.9949 147.17 35.2274 147.093 35.46C146.708 36.6176 146.319 37.7741 145.94 38.9335C145.868 39.1547 145.721 39.2705 145.51 39.3265C145.338 39.3722 145.161 39.3881 144.983 39.3881C144.051 39.3893 143.118 39.3893 142.185 39.3881C142.022 39.3878 141.858 39.3773 141.701 39.325C141.518 39.2636 141.47 39.1654 141.531 38.9799C141.991 37.5957 142.452 36.2118 142.913 34.8279C142.927 34.7851 142.936 34.7504 142.999 34.751C143.41 34.7549 143.821 34.7528 144.249 34.7528Z" fill="white"/>
<path d="M130.836 39.3889C131.239 38.8122 131.631 38.2516 132.023 37.6913C132.694 36.7318 133.365 35.7726 134.034 34.8122C134.074 34.7556 134.112 34.7296 134.185 34.7305C134.581 34.7347 134.978 34.7341 135.374 34.7308C135.446 34.7302 135.476 34.7395 135.478 34.8236C135.511 36.1204 135.548 37.4172 135.584 38.714C135.589 38.9121 135.595 39.1102 135.604 39.3084C135.607 39.3688 135.596 39.3919 135.528 39.391C135.145 39.3871 134.762 39.388 134.379 39.3904C134.32 39.3907 134.303 39.3748 134.306 39.3156C134.317 39.0758 134.32 38.8358 134.332 38.5961C134.336 38.5254 134.316 38.5105 134.249 38.5108C133.755 38.5135 133.261 38.5135 132.767 38.5108C132.706 38.5105 132.674 38.5326 132.644 38.5811C132.49 38.8289 132.333 39.0746 132.177 39.3206C132.155 39.3542 132.141 39.3907 132.085 39.3904C131.675 39.3877 131.265 39.3889 130.836 39.3889ZM133.065 37.9062C133.489 37.9062 133.895 37.905 134.301 37.9074C134.368 37.9077 134.351 37.8637 134.352 37.8302C134.372 37.1834 134.391 36.5367 134.409 35.8902C134.41 35.8732 134.424 35.8486 134.391 35.8375C133.953 36.5208 133.515 37.2047 133.065 37.9062Z" fill="white"/>
<path d="M130.636 38.7796C130.572 38.9717 130.509 39.148 130.455 39.3264C130.439 39.3779 130.415 39.394 130.367 39.3883C130.357 39.3871 130.346 39.388 130.335 39.388C129.19 39.388 128.045 39.3871 126.9 39.3898C126.81 39.3901 126.8 39.3716 126.828 39.2884C127.326 37.8027 127.82 36.3159 128.315 34.829C128.331 34.7808 128.345 34.7497 128.411 34.75C129.573 34.753 130.736 34.7521 131.898 34.7524C131.909 34.7524 131.919 34.7548 131.941 34.7575C131.879 34.9469 131.818 35.134 131.756 35.3207C131.737 35.3791 131.687 35.3573 131.65 35.3573C130.95 35.3585 130.25 35.3596 129.551 35.3561C129.471 35.3558 129.44 35.3779 129.416 35.4548C129.289 35.8511 129.155 36.2449 129.024 36.6397C129.016 36.6621 128.999 36.6828 129.011 36.7139C129.66 36.7139 130.31 36.7139 130.972 36.7139C130.907 36.9082 130.843 37.094 130.784 37.2814C130.763 37.3451 130.716 37.3194 130.681 37.3197C130.089 37.3215 129.497 37.3227 128.906 37.3188C128.824 37.3182 128.785 37.3373 128.759 37.4193C128.619 37.8551 128.473 38.2888 128.328 38.723C128.323 38.7389 128.319 38.7553 128.312 38.7793C129.087 38.7796 129.854 38.7796 130.636 38.7796Z" fill="white"/>
<path d="M148.857 36.7163C149.522 36.7163 150.172 36.7163 150.832 36.7163C150.768 36.9076 150.703 37.0901 150.646 37.2751C150.627 37.3376 150.585 37.3203 150.548 37.3203C150.064 37.3212 149.58 37.3209 149.097 37.3209C148.971 37.3209 148.846 37.3224 148.721 37.32C148.678 37.3191 148.651 37.3269 148.636 37.3735C148.485 37.8347 148.33 38.295 148.178 38.7556C148.176 38.7616 148.179 38.7691 148.181 38.7811C148.949 38.7811 149.717 38.7811 150.495 38.7811C150.43 38.9753 150.367 39.1615 150.307 39.3488C150.289 39.4054 150.247 39.3865 150.213 39.3868C149.782 39.388 149.35 39.3877 148.919 39.3877C148.198 39.3877 147.478 39.3865 146.757 39.3895C146.676 39.3898 146.658 39.38 146.686 39.295C147.185 37.8057 147.68 36.3156 148.176 34.8254C148.19 34.7814 148.202 34.75 148.264 34.75C149.43 34.7527 150.596 34.7521 151.762 34.7524C151.771 34.7524 151.781 34.7563 151.8 34.7605C151.738 34.9502 151.677 35.1373 151.614 35.3237C151.595 35.3806 151.544 35.357 151.506 35.357C150.807 35.3581 150.107 35.359 149.408 35.3561C149.334 35.3558 149.302 35.3755 149.278 35.4479C149.143 35.8669 149.001 36.2832 148.857 36.7163Z" fill="white"/>
<path d="M124.263 38.7645C124.978 38.7645 125.683 38.7645 126.398 38.7645C126.332 38.9629 126.267 39.1524 126.207 39.3433C126.186 39.4107 126.137 39.3888 126.097 39.3888C125.36 39.39 124.622 39.3897 123.885 39.3897C123.51 39.3897 123.134 39.3897 122.746 39.3897C122.824 39.1542 122.898 38.9276 122.973 38.7017C123.402 37.4165 123.831 36.132 124.257 34.8463C124.281 34.7765 124.308 34.7511 124.384 34.752C124.784 34.7565 125.184 34.7541 125.599 34.7541C125.153 36.0925 124.709 37.424 124.263 38.7645Z" fill="white"/>
<path d="M122.239 36.4395L83.1406 36.6308L121.747 37.6398L122.239 36.4395Z" fill="white"/>
</svg>
