<svg width="335" height="91" viewBox="0 0 335 91" fill="none" xmlns="http://www.w3.org/2000/svg">
<path d="M100.284 11.0508L75.5088 63.2708L100.781 63.2708L125.619 11.0508L100.284 11.0508Z" fill="#FF3B30"/>
<path d="M68.8012 11.0508L56.659 36.6401L44.5169 11.0508L19.1845 11.0508L21.7711 16.4877L0 63.2708L25.2723 63.2708L34.6843 43.6424L44.0229 63.2708H44.0262L69.2952 63.2708H69.2985L94.1369 11.0508L68.8012 11.0508Z" fill="#FF3B30"/>
<path d="M335 20.5364L308.733 0.757813L303.519 11.625L255.395 11.625L236.677 11.625H236.494C234.748 11.625 233.073 12.0789 231.604 12.89C229.565 13.9714 227.879 15.6969 226.865 17.873L221.748 29.4444H221.752L213.942 46.2058L212.637 48.8759C209.296 55.7046 214.269 63.6681 221.868 63.6681L264.96 63.6681C269.169 63.6681 272.994 61.2317 274.773 57.4202L280.176 46.1257H280.103L287.395 31.3068L261.546 31.3068L254.514 46.1257H238.42L246.627 29.4444L294.965 29.4444L289.795 40.2182L335 20.5364Z" fill="#FF3B30"/>
<path d="M162.755 28.8696C167.968 28.0586 170.361 27.7883 172.744 22.7985L178.354 11.0469L131.942 11.0469L123.621 28.8696L132.646 28.8696L127.743 39.2028L116.325 63.2702L141.597 63.2702L155.058 34.9708C155.055 34.9708 157.538 29.684 162.755 28.8696Z" fill="#FF3B30"/>
<path d="M211.141 41.0849L213.307 36.5458L220.052 22.2242C224.408 11.0466 214.261 10.9531 214.261 10.9531L209.919 10.9531L184.343 10.9531L177.444 25.3916L189.603 25.3916C189.603 25.3916 192.434 25.6252 192.243 28.0316C192.05 30.438 189.994 30.6383 189.994 30.6383L182.17 30.9587C182.17 30.9587 178.352 30.8352 169.621 31.6395C162.492 32.7009 158.4 40.7312 158.4 40.7312L147.336 63.1765L172.608 63.1765L178.332 50.764C178.346 50.7373 178.359 50.7106 178.369 50.6839C179.02 49.1085 179.38 48.481 180.245 48.481C181.016 48.481 181.727 50.7139 181.727 50.7139L185.752 63.1765L211.054 63.1765L204.629 47.8269C208.554 46.1781 211.141 41.0849 211.141 41.0849Z" fill="#FF3B30"/>
<path d="M293.913 84.2411C292.78 84.2411 291.699 84.2411 290.58 84.2411C290.793 83.5999 290.999 82.9852 291.198 82.3686C291.243 82.2295 291.345 82.2418 291.453 82.2418C293.914 82.2428 296.376 82.2448 298.837 82.2387C299.067 82.2377 299.053 82.3215 298.997 82.4903C298.219 84.8138 297.455 87.1424 296.665 89.4618C296.405 90.2268 295.713 90.4385 295.015 90.5898C294.515 90.6982 294.003 90.733 293.491 90.733C290.364 90.734 287.236 90.735 284.109 90.732C283.562 90.731 283.016 90.7003 282.49 90.5285C281.833 90.3137 281.667 89.9875 281.884 89.335C283.321 85.0101 284.768 80.6883 286.194 76.3593C286.426 75.6547 286.921 75.3039 287.582 75.1168C288.18 74.947 288.797 74.8959 289.417 74.8949C292.544 74.8918 295.671 74.8918 298.799 74.8949C299.358 74.8959 299.916 74.9317 300.453 75.1066C301.104 75.3193 301.27 75.6537 301.058 76.299C300.709 77.3554 300.351 78.4098 300.013 79.4693C299.943 79.6861 299.844 79.7546 299.614 79.7526C298.329 79.7393 297.045 79.7352 295.761 79.7536C295.428 79.7587 295.431 79.6595 295.524 79.3977C295.778 78.6829 296.003 77.9578 296.251 77.2419C296.32 77.0456 296.347 76.9556 296.073 76.9576C294.29 76.9689 292.506 76.9668 290.723 76.9586C290.532 76.9576 290.457 77.0241 290.4 77.1938C289.159 80.9368 287.915 84.6798 286.663 88.4187C286.585 88.6519 286.647 88.6682 286.849 88.6672C288.632 88.6621 290.416 88.6641 292.199 88.6641C292.328 88.6641 292.444 88.6805 292.501 88.5056C292.958 87.0994 293.429 85.6963 293.913 84.2411Z" fill="white"/>
<path d="M309.007 74.8923C307.475 79.4912 305.952 84.0605 304.419 88.6636C305.421 88.6636 306.381 88.6636 307.341 88.6636C308.281 88.6636 309.22 88.6533 310.16 88.6707C310.404 88.6748 310.5 88.6022 310.577 88.3701C312.022 84.0043 313.48 79.6416 314.924 75.2758C315.02 74.9843 315.139 74.8769 315.463 74.8831C316.805 74.9066 318.148 74.8933 319.533 74.8933C319.257 75.7196 318.99 76.5142 318.726 77.3088C317.409 81.2645 316.083 85.2161 314.786 89.178C314.539 89.9337 314.04 90.3295 313.318 90.5207C312.729 90.6772 312.124 90.7314 311.518 90.7314C308.331 90.7355 305.143 90.7355 301.957 90.7314C301.397 90.7304 300.838 90.6946 300.303 90.5156C299.675 90.306 299.511 89.9705 299.722 89.3365C301.294 84.6066 302.869 79.8778 304.442 75.149C304.49 75.0027 304.522 74.8841 304.738 74.8861C306.142 74.8994 307.545 74.8923 309.007 74.8923Z" fill="white"/>
<path d="M263.181 90.7344C264.559 88.7637 265.898 86.8482 267.237 84.9338C269.529 81.6551 271.823 78.3774 274.11 75.0957C274.245 74.9024 274.376 74.8134 274.623 74.8165C275.978 74.8308 277.333 74.8288 278.688 74.8175C278.933 74.8155 279.035 74.8472 279.042 75.1345C279.155 79.5658 279.281 83.997 279.404 88.4282C279.424 89.1053 279.441 89.7823 279.474 90.4593C279.484 90.6659 279.446 90.7446 279.212 90.7415C277.904 90.7282 276.597 90.7313 275.289 90.7395C275.087 90.7405 275.028 90.6863 275.038 90.4838C275.074 89.6647 275.085 88.8445 275.129 88.0253C275.142 87.784 275.072 87.7328 274.842 87.7339C273.154 87.7431 271.466 87.7431 269.778 87.7339C269.57 87.7328 269.462 87.8085 269.359 87.9742C268.833 88.821 268.296 89.6606 267.762 90.5012C267.69 90.6157 267.641 90.7405 267.45 90.7395C266.049 90.7303 264.648 90.7344 263.181 90.7344ZM270.796 85.6681C272.246 85.6681 273.633 85.664 275.021 85.6721C275.249 85.6732 275.192 85.5228 275.195 85.4083C275.263 83.1983 275.328 80.9883 275.39 78.7793C275.392 78.721 275.441 78.6372 275.328 78.5993C273.832 80.9341 272.334 83.2709 270.796 85.6681Z" fill="white"/>
<path d="M262.498 88.654C262.277 89.3106 262.063 89.9129 261.877 90.5224C261.823 90.6983 261.742 90.7536 261.577 90.7341C261.543 90.73 261.506 90.7331 261.47 90.7331C257.557 90.7331 253.644 90.73 249.732 90.7393C249.425 90.7403 249.39 90.6769 249.485 90.3926C251.185 85.316 252.874 80.2354 254.565 75.1548C254.619 74.9901 254.668 74.8838 254.894 74.8848C258.866 74.895 262.838 74.8919 266.81 74.893C266.845 74.893 266.881 74.9011 266.957 74.9103C266.744 75.5577 266.534 76.1969 266.324 76.835C266.258 77.0344 266.088 76.9598 265.96 76.9598C263.571 76.9639 261.18 76.968 258.79 76.9557C258.517 76.9547 258.411 77.0303 258.327 77.2932C257.896 78.6472 257.437 79.993 256.988 81.3419C256.962 81.4186 256.904 81.4892 256.946 81.5955C259.161 81.5955 261.382 81.5955 263.645 81.5955C263.423 82.2593 263.203 82.8943 263.001 83.5345C262.932 83.7524 262.771 83.6644 262.65 83.6654C260.628 83.6716 258.606 83.6757 256.585 83.6624C256.306 83.6603 256.174 83.7258 256.084 84.006C255.606 85.495 255.105 86.9768 254.612 88.4607C254.593 88.5149 254.579 88.5712 254.556 88.653C257.202 88.654 259.825 88.654 262.498 88.654Z" fill="white"/>
<path d="M324.758 81.6037C327.031 81.6037 329.252 81.6037 331.507 81.6037C331.288 82.2572 331.066 82.881 330.873 83.513C330.807 83.7268 330.664 83.6675 330.537 83.6675C328.885 83.6705 327.231 83.6695 325.579 83.6695C325.15 83.6695 324.723 83.6746 324.294 83.6665C324.148 83.6634 324.057 83.69 324.005 83.8495C323.487 85.4254 322.96 86.9983 322.439 88.5722C322.433 88.5927 322.444 88.6182 322.449 88.6591C325.073 88.6591 327.699 88.6591 330.356 88.6591C330.136 89.3229 329.919 89.959 329.715 90.5991C329.654 90.7924 329.511 90.728 329.394 90.729C327.919 90.7331 326.445 90.7321 324.97 90.7321C322.508 90.7321 320.047 90.728 317.584 90.7382C317.307 90.7393 317.246 90.7055 317.343 90.4151C319.047 85.3262 320.738 80.2344 322.432 75.1425C322.482 74.9921 322.521 74.8848 322.733 74.8848C326.718 74.894 330.701 74.8919 334.685 74.8929C334.718 74.8929 334.751 74.9062 334.817 74.9206C334.604 75.5689 334.396 76.2081 334.181 76.8452C334.116 77.0395 333.94 76.9587 333.812 76.9587C331.422 76.9628 329.031 76.9659 326.641 76.9557C326.389 76.9547 326.279 77.0222 326.199 77.2696C325.737 78.7014 325.253 80.1239 324.758 81.6037Z" fill="white"/>
<path d="M240.718 88.5997C243.162 88.5997 245.571 88.5997 248.015 88.5997C247.789 89.2777 247.565 89.9251 247.362 90.5776C247.291 90.8077 247.123 90.733 246.986 90.733C244.466 90.7371 241.946 90.7361 239.426 90.7361C238.144 90.7361 236.862 90.7361 235.535 90.7361C235.801 89.9312 236.054 89.1571 236.311 88.3849C237.775 83.9936 239.242 79.6043 240.7 75.2109C240.778 74.9726 240.871 74.8857 241.133 74.8888C242.5 74.9041 243.867 74.8959 245.282 74.8959C243.759 79.4693 242.244 84.0192 240.718 88.5997Z" fill="white"/>
<path d="M233.803 80.6563L100.201 81.3102L232.12 84.7581L233.803 80.6563Z" fill="white"/>
</svg>
