<svg width="200" height="54" viewBox="0 0 200 54" fill="none" xmlns="http://www.w3.org/2000/svg">
<path d="M59.8672 6.14374L45.0762 37.313H60.1641L74.9929 6.14374L59.8672 6.14374Z" fill="#FA0339"/>
<path d="M41.0753 6.14374L33.8262 21.4176L26.5772 6.14374L11.4534 6.14374L12.9977 9.38895L0 37.313H15.0879L20.707 25.5971L26.2823 37.313H26.2843L41.3702 37.313H41.3722L56.2011 6.14374L41.0753 6.14374Z" fill="#FA0339"/>
<path d="M200 11.8055L184.318 0L181.206 6.48645L152.475 6.48645L141.3 6.48645H141.19C140.148 6.48645 139.148 6.75738 138.271 7.24147C137.054 7.88693 136.048 8.91687 135.442 10.2158L132.387 17.1225H132.389L127.727 27.1271L126.947 28.7209C124.953 32.7968 127.922 37.5501 132.459 37.5501L158.185 37.5501C160.698 37.5501 162.981 36.0958 164.043 33.8208L167.269 27.0793H167.226L171.579 18.2342L156.147 18.2342L151.948 27.0793H142.34L147.24 17.1225L176.099 17.1225L173.012 23.5532L200 11.8055Z" fill="#FA0339"/>
<path d="M97.1652 16.7792C100.278 16.2951 101.706 16.1337 103.129 13.1555L106.479 6.14111L78.7696 6.14111L73.8021 16.7792H79.1901L76.2629 22.9469L69.4463 37.3123H84.5342L92.5703 20.4209C92.5683 20.4209 94.0508 17.2653 97.1652 16.7792Z" fill="#FA0339"/>
<path d="M126.054 24.071L127.347 21.3617L131.375 12.8134C133.975 6.14166 127.917 6.08588 127.917 6.08588L125.325 6.08588L110.056 6.08588L105.937 14.7039H113.196C113.196 14.7039 114.886 14.8434 114.772 16.2797C114.657 17.7161 113.429 17.8356 113.429 17.8356L108.759 18.0268C108.759 18.0268 106.479 17.9531 101.266 18.4332C97.0103 19.0667 94.5674 23.8599 94.5674 23.8599L87.9619 37.2571H103.05L106.467 29.8483C106.475 29.8323 106.483 29.8164 106.489 29.8005C106.878 28.8602 107.093 28.4856 107.609 28.4856C108.069 28.4856 108.494 29.8184 108.494 29.8184L110.897 37.2571L126.002 37.2571L122.167 28.0952C124.51 27.1111 126.054 24.071 126.054 24.071Z" fill="#FA0339"/>
<path d="M175.47 49.83C174.793 49.83 174.148 49.83 173.48 49.83C173.607 49.4472 173.73 49.0804 173.849 48.7123C173.876 48.6293 173.937 48.6366 174.001 48.6366C175.47 48.6372 176.94 48.6384 178.41 48.6348C178.546 48.6342 178.538 48.6842 178.505 48.7849C178.04 50.1718 177.584 51.5617 177.113 52.9461C176.957 53.4027 176.544 53.5291 176.127 53.6194C175.829 53.6841 175.524 53.7049 175.218 53.7049C173.351 53.7055 171.484 53.7061 169.616 53.7043C169.29 53.7036 168.964 53.6853 168.65 53.5828C168.258 53.4546 168.158 53.2599 168.288 52.8704C169.146 50.289 170.01 47.7094 170.861 45.1255C171 44.7049 171.295 44.4955 171.69 44.3838C172.047 44.2825 172.415 44.252 172.785 44.2514C174.652 44.2495 176.519 44.2495 178.386 44.2514C178.72 44.252 179.054 44.2733 179.374 44.3777C179.763 44.5047 179.862 44.7043 179.735 45.0895C179.527 45.72 179.313 46.3494 179.111 46.9818C179.07 47.1112 179.01 47.1521 178.873 47.1508C178.106 47.1429 177.339 47.1405 176.573 47.1515C176.374 47.1545 176.376 47.0953 176.431 46.939C176.583 46.5124 176.717 46.0796 176.866 45.6523C176.906 45.5351 176.923 45.4814 176.759 45.4826C175.694 45.4893 174.63 45.4881 173.565 45.4832C173.451 45.4826 173.406 45.5223 173.373 45.6236C172.631 47.8577 171.889 50.0918 171.141 52.3235C171.095 52.4627 171.132 52.4724 171.252 52.4718C172.317 52.4688 173.382 52.47 174.447 52.47C174.523 52.47 174.592 52.4798 174.627 52.3754C174.9 51.5361 175.18 50.6986 175.47 49.83Z" fill="#141F32"/>
<path d="M184.484 44.2497C183.569 46.9947 182.66 49.722 181.745 52.4695C182.343 52.4695 182.916 52.4695 183.489 52.4695C184.051 52.4695 184.611 52.4634 185.172 52.4738C185.318 52.4762 185.375 52.4329 185.421 52.2943C186.284 49.6885 187.155 47.0844 188.017 44.4786C188.074 44.3046 188.145 44.2405 188.338 44.2442C189.14 44.2582 189.941 44.2503 190.768 44.2503C190.604 44.7435 190.444 45.2178 190.286 45.6921C189.5 48.0532 188.708 50.4118 187.934 52.7765C187.787 53.2276 187.489 53.4639 187.058 53.578C186.706 53.6714 186.345 53.7038 185.983 53.7038C184.08 53.7062 182.177 53.7062 180.275 53.7038C179.941 53.7032 179.607 53.6818 179.288 53.575C178.913 53.4498 178.815 53.2496 178.941 52.8712C179.879 50.048 180.82 47.2254 181.759 44.4029C181.787 44.3156 181.806 44.2448 181.936 44.246C182.773 44.2539 183.611 44.2497 184.484 44.2497Z" fill="#141F32"/>
<path d="M157.124 53.7053C157.947 52.529 158.746 51.3857 159.545 50.243C160.914 48.286 162.284 46.3296 163.649 44.3708C163.73 44.2554 163.808 44.2023 163.955 44.2041C164.764 44.2127 165.573 44.2115 166.382 44.2048C166.528 44.2035 166.589 44.2225 166.594 44.394C166.661 47.0389 166.736 49.6838 166.81 52.3288C166.821 52.7329 166.832 53.137 166.851 53.541C166.857 53.6644 166.835 53.7114 166.695 53.7095C165.914 53.7016 165.134 53.7034 164.353 53.7083C164.232 53.7089 164.197 53.6766 164.203 53.5557C164.225 53.0668 164.231 52.5772 164.257 52.0883C164.265 51.9442 164.223 51.9137 164.086 51.9143C163.078 51.9198 162.071 51.9198 161.063 51.9143C160.939 51.9137 160.874 51.9589 160.812 52.0577C160.499 52.5632 160.178 53.0643 159.859 53.5661C159.816 53.6344 159.787 53.7089 159.673 53.7083C158.837 53.7028 158 53.7053 157.124 53.7053ZM161.671 50.6813C162.536 50.6813 163.364 50.6788 164.193 50.6837C164.329 50.6843 164.295 50.5946 164.297 50.5262C164.337 49.2071 164.376 47.888 164.413 46.5695C164.415 46.5347 164.444 46.4847 164.376 46.4621C163.483 47.8556 162.588 49.2504 161.671 50.6813Z" fill="#141F32"/>
<path d="M156.713 52.4634C156.581 52.8553 156.453 53.2149 156.342 53.5787C156.31 53.6837 156.261 53.7166 156.163 53.705C156.142 53.7026 156.12 53.7044 156.099 53.7044C153.763 53.7044 151.427 53.7026 149.091 53.7081C148.908 53.7087 148.887 53.6708 148.944 53.5012C149.959 50.471 150.967 47.4385 151.977 44.406C152.009 44.3077 152.038 44.2442 152.173 44.2448C154.545 44.2509 156.916 44.2491 159.287 44.2497C159.308 44.2497 159.329 44.2546 159.375 44.2601C159.248 44.6465 159.122 45.028 158.997 45.4089C158.958 45.5279 158.856 45.4833 158.78 45.4833C157.353 45.4858 155.926 45.4882 154.499 45.4809C154.336 45.4803 154.273 45.5255 154.223 45.6823C153.965 46.4905 153.691 47.2938 153.423 48.099C153.408 48.1448 153.373 48.1869 153.398 48.2504C154.72 48.2504 156.046 48.2504 157.398 48.2504C157.265 48.6465 157.134 49.0256 157.013 49.4077C156.972 49.5377 156.876 49.4852 156.804 49.4858C155.596 49.4895 154.389 49.4919 153.182 49.484C153.016 49.4828 152.937 49.5219 152.883 49.6891C152.598 50.5779 152.299 51.4624 152.005 52.3481C151.994 52.3804 151.985 52.414 151.971 52.4628C153.551 52.4634 155.117 52.4634 156.713 52.4634Z" fill="#141F32"/>
<path d="M193.888 48.2562C195.245 48.2562 196.571 48.2562 197.917 48.2562C197.787 48.6463 197.654 49.0186 197.539 49.3959C197.5 49.5234 197.414 49.488 197.339 49.488C196.352 49.4899 195.365 49.4893 194.378 49.4893C194.122 49.4893 193.867 49.4923 193.611 49.4874C193.524 49.4856 193.47 49.5015 193.438 49.5967C193.129 50.5373 192.815 51.4762 192.504 52.4156C192.5 52.4278 192.507 52.4431 192.51 52.4675C194.076 52.4675 195.644 52.4675 197.231 52.4675C197.099 52.8636 196.969 53.2433 196.848 53.6254C196.811 53.7408 196.726 53.7023 196.656 53.7029C195.776 53.7054 194.895 53.7048 194.015 53.7048C192.545 53.7048 191.076 53.7023 189.605 53.7084C189.44 53.7091 189.403 53.6889 189.461 53.5156C190.478 50.4781 191.488 47.4389 192.499 44.3996C192.529 44.3099 192.553 44.2458 192.68 44.2458C195.058 44.2513 197.436 44.2501 199.815 44.2507C199.835 44.2507 199.854 44.2586 199.894 44.2672C199.766 44.6542 199.642 45.0357 199.514 45.416C199.475 45.5319 199.37 45.4837 199.294 45.4837C197.867 45.4862 196.439 45.488 195.012 45.4819C194.862 45.4813 194.796 45.5216 194.749 45.6693C194.473 46.5239 194.184 47.3729 193.888 48.2562Z" fill="#141F32"/>
<path d="M143.71 52.4342C145.17 52.4342 146.608 52.4342 148.067 52.4342C147.932 52.8389 147.798 53.2253 147.677 53.6148C147.634 53.7521 147.534 53.7076 147.453 53.7076C145.948 53.71 144.444 53.7094 142.939 53.7094C142.174 53.7094 141.408 53.7094 140.616 53.7094C140.775 53.229 140.926 52.7669 141.08 52.3061C141.953 49.6849 142.829 47.065 143.699 44.4427C143.746 44.3005 143.802 44.2486 143.958 44.2504C144.774 44.2596 145.59 44.2547 146.435 44.2547C145.526 46.9845 144.621 49.7002 143.71 52.4342Z" fill="#141F32"/>
<path d="M139.584 47.6901L59.8223 48.0805L138.58 50.1384L139.584 47.6901Z" fill="#FA0339"/>
</svg>
