<svg width="45" height="44" viewBox="0 0 45 44" fill="none" xmlns="http://www.w3.org/2000/svg">
<path opacity="0.2" d="M43.0002 1H1.00098V43H43.0002V1Z" stroke="#FA0339" stroke-miterlimit="10"/>
<path d="M36.8198 10.439C35.6688 9.28192 34.5944 7.98402 33.2598 7.03202C32.0353 6.77795 31.4476 8.10034 30.6058 8.71868C32.0262 10.3686 33.6822 11.8257 35.2097 13.3868C35.9015 12.5634 37.5422 11.7185 36.8198 10.439ZM36.0607 16.6714C35.0903 17.6448 34.0863 18.5937 33.1496 19.6039C33.1251 23.5068 33.1588 27.4096 33.1373 31.3156C33.119 32.7543 31.8578 34.0308 30.4191 34.0797C24.499 34.1042 18.5727 34.1042 12.6526 34.0828C11.0547 34.0399 9.77516 32.5094 9.90066 30.9391C9.8976 25.2883 9.8976 19.6406 9.90066 13.996C9.77822 12.4318 11.0639 10.9257 12.6434 10.8706C16.5646 10.8186 20.4889 10.8737 24.4071 10.8431C25.4234 9.92474 26.3632 8.91765 27.3366 7.95035C22.1144 7.95035 16.8983 7.9228 11.6761 7.96565C9.23947 8.00851 7.05386 10.139 7.011 12.5879C7.00488 19.1753 6.98652 25.7597 7.02325 32.3472C7.03243 34.7195 9.04662 36.7765 11.3822 37H31.8976C34.1107 36.6112 36.0086 34.6797 36.0362 32.3808C36.1035 27.1464 36.0515 21.9058 36.0607 16.6714ZM34.4964 14.1092C32.9598 12.5634 31.4109 11.0267 29.8558 9.49619C26.4519 12.8756 23.0419 16.2459 19.6563 19.6437C21.1899 21.1865 22.7297 22.7231 24.2877 24.2445C27.6947 20.8712 31.0986 17.4887 34.4964 14.1092ZM17.1401 26.7331C19.2247 26.1668 20.3359 25.8087 22.4205 25.2485C22.9776 25.071 23.348 24.9638 23.6357 24.8506C22.1603 23.4455 20.4645 21.713 18.9921 20.2957C18.3707 22.4415 17.7585 24.5873 17.1401 26.7331Z" fill="#FA0339"/>
<path d="M39.0713 1H43.0019V4.93073" stroke="#FA0339" stroke-width="2" stroke-miterlimit="10"/>
<path d="M1.00098 4.93073V1H4.93164" stroke="#FA0339" stroke-width="2" stroke-miterlimit="10"/>
<path d="M1.00098 39.0693V43.0001H4.93164" stroke="#FA0339" stroke-width="2" stroke-miterlimit="10"/>
<path d="M43.0019 39.0693V43.0001H39.0713" stroke="#FA0339" stroke-width="2" stroke-miterlimit="10"/>
</svg>
