<svg width="595" height="571" viewBox="0 0 595 571" fill="none" xmlns="http://www.w3.org/2000/svg">
<g clip-path="url(#clip0_4005_64709)">
<path d="M361.729 -353.797L593.461 -353.797V-249.8L214.777 128.883L214.777 -67.8062L361.729 -214.758V-353.797Z" stroke="#424E61" stroke-width="2.2608"/>
<path d="M484.941 -80.2396L593.46 -188.758V66.7122L484.941 66.7122L484.941 -80.2396Z" stroke="#424E61" stroke-width="2.2608"/>
<path d="M475.899 113.057L593.46 113.057V211.401L488.333 316.528L218.168 316.528V284.877L330.077 172.968H415.988L475.899 113.057Z" stroke="#424E61" stroke-width="2.2608"/>
<path d="M486.074 406.96L593.462 299.572V540.347H486.074L486.074 406.96Z" stroke="#424E61" stroke-width="2.2608"/>
<path d="M207.993 338.006H487.202V368.527L374.162 481.566H290.512L226.08 545.999H0L207.993 338.006Z" stroke="#424E61" stroke-width="2.2608"/>
</g>
<defs>
<clipPath id="clip0_4005_64709">
<rect width="595" height="1024" fill="white" transform="translate(0 -37)"/>
</clipPath>
</defs>
</svg>
