<svg width="32" height="33" viewBox="0 0 32 33" fill="none" xmlns="http://www.w3.org/2000/svg">
<g clip-path="url(#clip0_903_3290)">
<path d="M31.1674 13.9749C31.1674 12.1503 30.3304 10.4664 28.8708 9.35519C28.714 9.23558 28.5996 9.06896 28.5449 8.87941C27.7047 5.97523 25.0039 3.94689 21.9771 3.94689C21.4195 3.94689 20.8641 4.01452 20.3258 4.14799C19.9544 4.23988 19.5647 4.09239 19.3478 3.77713C17.9353 1.7252 15.6074 0.500116 13.1206 0.500116C11.2297 0.500116 9.42023 1.20206 8.02572 2.47681C6.63995 3.74363 5.77879 5.46579 5.60111 7.32618C5.57026 7.64788 5.37279 7.92982 5.08095 8.06856C4.98989 8.11195 4.89833 8.15897 4.80875 8.20846C4.7322 8.25086 4.64988 8.28204 4.56426 8.30117C3.28935 8.58559 2.13124 9.30223 1.30341 10.3188C0.452643 11.3634 0.00292969 12.6276 0.00292969 13.9749C0.00292969 17.1813 2.62649 19.79 5.85121 19.79H25.3191C28.5439 19.79 31.1674 17.1813 31.1674 13.9749Z" fill="#5A6474"/>
<path d="M8.25304 28.1465C8.34229 28.1465 8.43302 28.1335 8.5226 28.1059C9.00779 27.9573 9.28066 27.4434 9.13185 26.9582L8.02554 23.3483C7.8769 22.8631 7.36301 22.5902 6.87783 22.739C6.39264 22.8877 6.11994 23.4015 6.26858 23.8867L7.37489 27.4967C7.49615 27.8923 7.85991 28.1465 8.25304 28.1465Z" fill="#5A6474"/>
<path d="M13.2942 32.5C13.3835 32.5 13.474 32.487 13.5638 32.4594C14.049 32.3108 14.3217 31.7969 14.173 31.3117L13.0667 27.7018C12.9181 27.2164 12.4043 26.9437 11.919 27.0924C11.4338 27.2412 11.1609 27.7549 11.3096 28.2401L12.4161 31.8502C12.5371 32.2456 12.9011 32.5 13.2942 32.5Z" fill="#5A6474"/>
<path d="M19.7045 26.8629C19.2193 27.0115 18.9466 27.5254 19.0952 28.0106L20.2016 31.6205C20.3228 32.0161 20.6866 32.2705 21.0797 32.2705C21.169 32.2705 21.2597 32.2573 21.3493 32.2298C21.8344 32.0811 22.1073 31.5672 21.9585 31.082L20.8522 27.4721C20.7036 26.9869 20.1895 26.7141 19.7045 26.8629Z" fill="#5A6474"/>
<path d="M15.9479 28.1465C16.037 28.1465 16.1277 28.1335 16.2175 28.1059C16.7027 27.9573 16.9754 27.4434 16.8267 26.9582L15.7204 23.3483C15.5718 22.8631 15.0577 22.5902 14.5727 22.739C14.0875 22.8877 13.8147 23.4015 13.9635 23.8867L15.0698 27.4967C15.191 27.8923 15.5548 28.1465 15.9479 28.1465Z" fill="#5A6474"/>
<path d="M23.6403 28.1465C23.7294 28.1465 23.8201 28.1335 23.9099 28.1059C24.3951 27.9573 24.6678 27.4434 24.5191 26.9582L23.4128 23.3483C23.2642 22.8631 22.7503 22.5902 22.2651 22.739C21.7799 22.8877 21.507 23.4015 21.6559 23.8867L22.7622 27.4967C22.8832 27.8923 23.2472 28.1465 23.6403 28.1465Z" fill="#5A6474"/>
</g>
<defs>
<clipPath id="clip0_903_3290">
<rect width="32" height="32.0004" fill="white" transform="translate(0 0.5)"/>
</clipPath>
</defs>
</svg>
