<svg width="44" height="44" viewBox="0 0 44 44" fill="none" xmlns="http://www.w3.org/2000/svg">
<g clip-path="url(#clip0_4843_55465)">
<path opacity="0.2" d="M42.9992 1H1V43H42.9992V1Z" stroke="#FA0339" stroke-miterlimit="10"/>
<path d="M39.0703 1H43.001V4.93073" stroke="#FA0339" stroke-width="2" stroke-miterlimit="10"/>
<path d="M1 4.93073V1H4.93066" stroke="#FA0339" stroke-width="2" stroke-miterlimit="10"/>
<path d="M1 39.0693V43.0001H4.93066" stroke="#FA0339" stroke-width="2" stroke-miterlimit="10"/>
<path d="M43.001 39.0693V43.0001H39.0703" stroke="#FA0339" stroke-width="2" stroke-miterlimit="10"/>
<path fill-rule="evenodd" clip-rule="evenodd" d="M17.7562 12.2667L13.462 10.6547C11.0953 9.76975 9.07167 9.02889 8.96191 9.00831C8.83843 8.98773 8.66694 9.01517 8.5366 9.08377C8.27593 9.2141 8.26907 9.23469 7.52821 11.519L7 13.1379L7.78888 16.7325C8.83843 21.4932 8.97563 22.0831 9.06481 22.1723C9.22944 22.3369 9.09225 22.8926 8.19361 25.6845L7.26067 28.5931L8.06327 31.3919C8.50916 32.9285 8.91389 34.2868 8.96877 34.4102C9.03051 34.5612 9.14027 34.6709 9.31176 34.7395C9.55871 34.8424 9.60673 34.8355 12.4193 34.0535C13.9902 33.6145 15.3553 33.2578 15.4513 33.2578C15.6502 33.2578 15.9795 33.4567 16.5077 33.9026C16.9742 34.2936 19.2242 35.8439 19.4506 35.9331C19.6907 36.0223 23.6076 36.0223 23.8409 35.9331C24.0672 35.8508 26.3721 34.2387 27.0581 33.69C27.4629 33.3607 27.6412 33.2578 27.8127 33.2578C27.9293 33.2578 28.7594 33.4636 29.6443 33.7105L30.0535 33.8249C33.4242 34.7672 33.6705 34.836 33.868 34.7664C33.8835 34.7609 33.8988 34.7545 33.9153 34.7477C33.9268 34.7429 33.939 34.7378 33.9522 34.7326C34.0963 34.6709 34.2404 34.5749 34.2815 34.5063C34.3227 34.4445 34.7343 33.0863 35.1939 31.4948L36.0308 28.6L35.0635 25.6159C34.5353 23.9696 34.1032 22.577 34.1032 22.5153C34.1032 22.4604 34.1512 22.3164 34.2129 22.1998C34.2747 22.09 34.748 20.0046 35.2762 17.5694L36.2297 13.1448L35.6123 11.2446C34.9675 9.24155 34.8852 9.08377 34.4805 9.00145C34.3227 8.97401 33.2937 9.33072 29.8912 10.6135L25.5147 12.2667H21.632H17.7562ZM9.10601 10.4283C9.16774 10.2568 9.2775 10.1059 9.36668 10.0716C9.46272 10.0373 9.56561 10.051 9.68223 10.1196C9.77827 10.1813 12.0077 11.7111 14.6419 13.5221C19.0322 16.5404 19.43 16.8285 19.4095 16.9931C19.3957 17.1303 18.991 17.4733 17.523 18.6258L15.664 20.0869L13.0024 20.8072C11.5412 21.2051 10.2722 21.5275 10.183 21.5275C10.0801 21.5275 9.99778 21.4726 9.95662 21.3697C9.88117 21.1845 7.96728 13.7347 7.96728 13.6181C7.96728 13.5495 8.52978 11.9786 9.10601 10.4283ZM33.4446 10.1813C33.3681 10.236 32.7031 10.6933 31.7098 11.3764L31.708 11.3776L31.7048 11.3798L31.7031 11.381C30.8275 11.9831 29.6979 12.7599 28.4918 13.5907C24.1907 16.5541 23.8066 16.8285 23.8272 16.9931C23.8409 17.1303 24.2388 17.4733 25.7136 18.6258L27.5726 20.0869L30.2342 20.8072C31.6954 21.2051 32.9645 21.5275 33.0536 21.5275C33.1565 21.5275 33.2388 21.4726 33.28 21.3697C33.3623 21.1776 35.2694 13.7485 35.2694 13.625C35.2625 13.4123 34.0277 10.1676 33.918 10.0922C33.7602 9.97555 33.7533 9.97555 33.4446 10.1813ZM16.4186 26.1373C16.2471 25.8766 16.4666 25.6845 17.3995 25.2592C17.5725 25.1832 17.7345 25.1112 17.8694 25.0512L17.8694 25.0512C18.0875 24.9543 18.2348 24.8888 18.2433 24.8888C18.3805 24.8819 18.5588 25.1358 18.8744 25.7737C19.1899 26.4254 19.238 26.5557 19.1762 26.7204C19.1351 26.8438 19.0527 26.9193 18.943 26.933C18.8538 26.9467 18.2707 26.8096 17.6465 26.6243C16.7616 26.3637 16.5009 26.2608 16.4186 26.1373ZM24.7052 25.074C24.472 25.465 24.0193 26.5009 24.0193 26.6312C24.0193 26.8164 24.1427 26.9467 24.328 26.9467C24.4034 26.9467 24.9728 26.8027 25.5902 26.6243C26.4682 26.3705 26.7358 26.2608 26.8181 26.1441C26.9758 25.8903 26.8112 25.7463 25.9057 25.3347C25.0208 24.9368 24.815 24.8888 24.7052 25.074ZM19.4437 31.3233L19.7181 31.1244L19.9925 30.9254H21.6114H23.2303L23.4841 31.1518C23.5641 31.2191 23.6195 31.2658 23.6609 31.3227C23.7545 31.4513 23.7764 31.6321 23.8477 32.222C23.9232 32.8531 23.93 33.1 23.8751 33.1686C23.8134 33.2372 23.3607 33.2578 21.6183 33.2578C19.7524 33.2578 19.43 33.2441 19.3545 33.1549C19.2859 33.0726 19.2859 32.8805 19.3545 32.1877L19.4437 31.3233Z" fill="#FA0339"/>
</g>
<defs>
<clipPath id="clip0_4843_55465">
<rect width="44" height="44" fill="white"/>
</clipPath>
</defs>
</svg>
