<svg width="44" height="44" viewBox="0 0 44 44" fill="none" xmlns="http://www.w3.org/2000/svg">
<g clip-path="url(#clip0_4846_55504)">
<path opacity="0.2" d="M42.9992 1H1V43H42.9992V1Z" stroke="#FA0339" stroke-miterlimit="10"/>
<path d="M39.0703 1H43.001V4.93073" stroke="#FA0339" stroke-width="2" stroke-miterlimit="10"/>
<path d="M1 4.93073V1H4.93066" stroke="#FA0339" stroke-width="2" stroke-miterlimit="10"/>
<path d="M1 39.0693V43.0001H4.93066" stroke="#FA0339" stroke-width="2" stroke-miterlimit="10"/>
<path d="M43.001 39.0693V43.0001H39.0703" stroke="#FA0339" stroke-width="2" stroke-miterlimit="10"/>
<path d="M22 36C20.0633 36 18.2433 35.6325 16.54 34.8975C14.8367 34.1625 13.355 33.165 12.095 31.905C10.835 30.645 9.8375 29.1633 9.1025 27.46C8.3675 25.7567 8 23.9367 8 22C8 20.0633 8.3675 18.2433 9.1025 16.54C9.8375 14.8367 10.835 13.355 12.095 12.095C13.355 10.835 14.8367 9.8375 16.54 9.1025C18.2433 8.3675 20.0633 8 22 8C23.9367 8 25.7567 8.3675 27.46 9.1025C29.1633 9.8375 30.645 10.835 31.905 12.095C33.165 13.355 34.1625 14.8367 34.8975 16.54C35.6325 18.2433 36 20.0633 36 22C36 23.9367 35.6325 25.7567 34.8975 27.46C34.1625 29.1633 33.165 30.645 31.905 31.905C30.645 33.165 29.1633 34.1625 27.46 34.8975C25.7567 35.6325 23.9367 36 22 36ZM17.765 33.2L19.97 27.95C19.0833 27.6467 18.2958 27.1625 17.6075 26.4975C16.9192 25.8325 16.4 25.0217 16.05 24.065L10.8 26.165C11.5233 27.8217 12.48 29.2567 13.67 30.47C14.86 31.6833 16.225 32.5933 17.765 33.2ZM16.015 19.97C16.3883 19.0133 16.9133 18.1967 17.59 17.52C18.2667 16.8433 19.0483 16.3533 19.935 16.05L17.835 10.8C16.085 11.5233 14.6033 12.4975 13.39 13.7225C12.1767 14.9475 11.3133 16.33 10.8 17.87L16.015 19.97ZM22 26.2C23.1667 26.2 24.1583 25.7917 24.975 24.975C25.7917 24.1583 26.2 23.1667 26.2 22C26.2 20.8333 25.7917 19.8417 24.975 19.025C24.1583 18.2083 23.1667 17.8 22 17.8C20.8333 17.8 19.8417 18.2083 19.025 19.025C18.2083 19.8417 17.8 20.8333 17.8 22C17.8 23.1667 18.2083 24.1583 19.025 24.975C19.8417 25.7917 20.8333 26.2 22 26.2ZM26.235 33.2C27.845 32.5467 29.245 31.6192 30.435 30.4175C31.625 29.2158 32.5467 27.8217 33.2 26.235L27.95 24.065C27.6 25.045 27.0808 25.8675 26.3925 26.5325C25.7042 27.1975 24.9167 27.67 24.03 27.95L26.235 33.2ZM27.95 19.935L33.2 17.765C32.5467 16.1783 31.6192 14.7842 30.4175 13.5825C29.2158 12.3808 27.8217 11.4533 26.235 10.8L24.1 16.05C24.9867 16.3533 25.7567 16.8375 26.41 17.5025C27.0633 18.1675 27.5767 18.9783 27.95 19.935Z" fill="#FA0339"/>
</g>
<defs>
<clipPath id="clip0_4846_55504">
<rect width="44" height="44" fill="white"/>
</clipPath>
</defs>
</svg>
