<svg width="44" height="44" viewBox="0 0 44 44" fill="none" xmlns="http://www.w3.org/2000/svg">
<g clip-path="url(#clip0_4843_55476)">
<path opacity="0.2" d="M42.9992 1H1V43H42.9992V1Z" stroke="#FA0339" stroke-miterlimit="10"/>
<path d="M39.0703 1H43.001V4.93073" stroke="#FA0339" stroke-width="2" stroke-miterlimit="10"/>
<path d="M1 4.93073V1H4.93066" stroke="#FA0339" stroke-width="2" stroke-miterlimit="10"/>
<path d="M1 39.0693V43.0001H4.93066" stroke="#FA0339" stroke-width="2" stroke-miterlimit="10"/>
<path d="M43.001 39.0693V43.0001H39.0703" stroke="#FA0339" stroke-width="2" stroke-miterlimit="10"/>
<path d="M22 8C14.273 8 8 14.273 8 22C8 29.727 14.273 36 22 36C29.727 36 36 29.727 36 22C36 14.273 29.727 8 22 8ZM23.2671 29.2285C23.0801 29.5193 22.8932 29.914 22.4778 29.914C22.1247 29.914 21.8339 29.5608 21.6676 29.2701L14.543 16.3086C14.3561 15.9555 14.1899 15.5608 14.1484 15.1869C14.0861 14.5223 14.5638 14.1068 15.1246 14.1068C16.7448 14.1068 18.6765 14.0861 20.3175 14.1068C20.9822 14.1276 21.4599 14.3976 21.7923 15.0831C22.5401 16.6202 22.8101 17.7418 23.7863 19.1335C23.8279 19.1959 23.8694 19.2582 23.911 19.2997C25.0534 20.5252 27.7538 21.3353 29.8516 17.7003L23.2671 29.2285Z" fill="#FA0339"/>
</g>
<defs>
<clipPath id="clip0_4843_55476">
<rect width="44" height="44" fill="white"/>
</clipPath>
</defs>
</svg>
