<svg width="44" height="44" viewBox="0 0 44 44" fill="none" xmlns="http://www.w3.org/2000/svg">
<g clip-path="url(#clip0_4846_55493)">
<path opacity="0.2" d="M42.9992 1H1V43H42.9992V1Z" stroke="#FA0339" stroke-miterlimit="10"/>
<path d="M39.0703 1H43.001V4.93073" stroke="#FA0339" stroke-width="2" stroke-miterlimit="10"/>
<path d="M1 4.93073V1H4.93066" stroke="#FA0339" stroke-width="2" stroke-miterlimit="10"/>
<path d="M1 39.0693V43.0001H4.93066" stroke="#FA0339" stroke-width="2" stroke-miterlimit="10"/>
<path d="M43.001 39.0693V43.0001H39.0703" stroke="#FA0339" stroke-width="2" stroke-miterlimit="10"/>
<path d="M28.2111 24.3111C28.813 24.3111 29.3486 24.0764 29.8181 23.6069C30.2875 23.1375 30.5222 22.5898 30.5222 21.9639C30.5222 21.362 30.2875 20.8324 29.8181 20.375C29.3486 19.9176 28.813 19.6889 28.2111 19.6889C27.6093 19.6889 27.0736 19.9176 26.6042 20.375C26.1347 20.8324 25.9 21.362 25.9 21.9639C25.9 22.5898 26.1347 23.1375 26.6042 23.6069C27.0736 24.0764 27.6093 24.3111 28.2111 24.3111ZM11.1667 30.9194V32.8333V11.1667V30.9194ZM11.1667 35C10.613 35 10.1134 34.7833 9.66806 34.35C9.22269 33.9167 9 33.4111 9 32.8333V11.1667C9 10.613 9.22269 10.1134 9.66806 9.66806C10.1134 9.22269 10.613 9 11.1667 9H32.8333C33.4111 9 33.9167 9.22269 34.35 9.66806C34.7833 10.1134 35 10.613 35 11.1667V16.0056H32.8333V11.1667H11.1667V32.8333H32.8333V28.0306H35V32.8333C35 33.4111 34.7833 33.9167 34.35 34.35C33.9167 34.7833 33.4111 35 32.8333 35H11.1667ZM24.0944 28.7528C23.2759 28.7528 22.6259 28.512 22.1444 28.0306C21.663 27.5491 21.4222 26.9111 21.4222 26.1167V17.9194C21.4222 17.1009 21.663 16.4569 22.1444 15.9875C22.6259 15.5181 23.2759 15.2833 24.0944 15.2833H33.8444C34.663 15.2833 35.313 15.5181 35.7944 15.9875C36.2759 16.4569 36.5167 17.1009 36.5167 17.9194V26.1167C36.5167 26.9111 36.2759 27.5491 35.7944 28.0306C35.313 28.512 34.663 28.7528 33.8444 28.7528H24.0944ZM34.35 26.5861V17.45H23.5889V26.5861H34.35Z" fill="#FA0339"/>
</g>
<defs>
<clipPath id="clip0_4846_55493">
<rect width="44" height="44" fill="white"/>
</clipPath>
</defs>
</svg>
