<svg width="25" height="24" viewBox="0 0 25 24" fill="none" xmlns="http://www.w3.org/2000/svg">
<g clip-path="url(#clip0_8485_68865)">
<path d="M23.5587 1L14.2876 7.85998L16.0116 3.81717L23.5587 1Z" fill="#E17726" stroke="#E17726" stroke-width="0.5" stroke-linecap="round" stroke-linejoin="round"/>
<path d="M2.17383 1L11.3624 7.924L9.72095 3.81716L2.17383 1Z" fill="#E27625" stroke="#E27625" stroke-width="0.5" stroke-linecap="round" stroke-linejoin="round"/>
<path d="M20.2207 16.9062L17.7539 20.6747L23.036 22.129L24.5491 16.9886L20.2207 16.9062Z" fill="#E27625" stroke="#E27625" stroke-width="0.5" stroke-linecap="round" stroke-linejoin="round"/>
<path d="M1.19238 16.9886L2.69629 22.129L7.9692 20.6747L5.51156 16.9062L1.19238 16.9886Z" fill="#E27625" stroke="#E27625" stroke-width="0.5" stroke-linecap="round" stroke-linejoin="round"/>
<path d="M7.68499 10.5401L6.21777 12.7536L11.4448 12.9914L11.2706 7.36621L7.68499 10.5401Z" fill="#E27625" stroke="#E27625" stroke-width="0.5" stroke-linecap="round" stroke-linejoin="round"/>
<path d="M18.0473 10.5397L14.4068 7.30176L14.2876 12.991L19.5146 12.7532L18.0473 10.5397Z" fill="#E27625" stroke="#E27625" stroke-width="0.5" stroke-linecap="round" stroke-linejoin="round"/>
<path d="M7.96924 20.6739L11.1329 19.1464L8.40943 17.0244L7.96924 20.6739Z" fill="#E27625" stroke="#E27625" stroke-width="0.5" stroke-linecap="round" stroke-linejoin="round"/>
<path d="M14.5991 19.1464L17.7536 20.6739L17.3226 17.0244L14.5991 19.1464Z" fill="#E27625" stroke="#E27625" stroke-width="0.5" stroke-linecap="round" stroke-linejoin="round"/>
<path d="M17.7541 20.6749L14.5996 19.1475L14.8563 21.1963L14.8288 22.0652L17.7541 20.6749Z" fill="#D5BFB2" stroke="#D5BFB2" stroke-width="0.5" stroke-linecap="round" stroke-linejoin="round"/>
<path d="M7.96924 20.6749L10.9037 22.0652L10.8854 21.1963L11.1329 19.1475L7.96924 20.6749Z" fill="#D5BFB2" stroke="#D5BFB2" stroke-width="0.5" stroke-linecap="round" stroke-linejoin="round"/>
<path d="M10.9586 15.6717L8.33594 14.9034L10.1883 14.0527L10.9586 15.6717Z" fill="#233447" stroke="#233447" stroke-width="0.5" stroke-linecap="round" stroke-linejoin="round"/>
<path d="M14.7734 15.6717L15.5438 14.0527L17.4053 14.9034L14.7734 15.6717Z" fill="#233447" stroke="#233447" stroke-width="0.5" stroke-linecap="round" stroke-linejoin="round"/>
<path d="M7.96932 20.6747L8.42786 16.9062L5.51172 16.9886L7.96932 20.6747Z" fill="#CC6228" stroke="#CC6228" stroke-width="0.5" stroke-linecap="round" stroke-linejoin="round"/>
<path d="M17.3047 16.9062L17.7541 20.6747L20.2208 16.9886L17.3047 16.9062Z" fill="#CC6228" stroke="#CC6228" stroke-width="0.5" stroke-linecap="round" stroke-linejoin="round"/>
<path d="M19.5146 12.7529L14.2876 12.9907L14.7736 15.6708L15.5439 14.0518L17.4055 14.9024L19.5146 12.7529Z" fill="#CC6228" stroke="#CC6228" stroke-width="0.5" stroke-linecap="round" stroke-linejoin="round"/>
<path d="M8.33609 14.9024L10.1885 14.0518L10.9588 15.6708L11.4448 12.9907L6.21777 12.7529L8.33609 14.9024Z" fill="#CC6228" stroke="#CC6228" stroke-width="0.5" stroke-linecap="round" stroke-linejoin="round"/>
<path d="M6.21777 12.7529L8.40947 17.0244L8.33606 14.9024L6.21777 12.7529Z" fill="#E27525" stroke="#E27525" stroke-width="0.5" stroke-linecap="round" stroke-linejoin="round"/>
<path d="M17.4058 14.9024L17.3232 17.0244L19.5149 12.7529L17.4058 14.9024Z" fill="#E27525" stroke="#E27525" stroke-width="0.5" stroke-linecap="round" stroke-linejoin="round"/>
<path d="M11.4451 12.9912L10.959 15.6712L11.5734 18.8359L11.711 14.6651L11.4451 12.9912Z" fill="#E27525" stroke="#E27525" stroke-width="0.5" stroke-linecap="round" stroke-linejoin="round"/>
<path d="M14.2876 12.9912L14.0308 14.656L14.1592 18.8359L14.7736 15.6712L14.2876 12.9912Z" fill="#E27525" stroke="#E27525" stroke-width="0.5" stroke-linecap="round" stroke-linejoin="round"/>
<path d="M14.7736 15.6717L14.1592 18.8364L14.5994 19.1474L17.3229 17.0253L17.4055 14.9033L14.7736 15.6717Z" fill="#F5841F" stroke="#F5841F" stroke-width="0.5" stroke-linecap="round" stroke-linejoin="round"/>
<path d="M8.33594 14.9033L8.40935 17.0253L11.1329 19.1474L11.573 18.8364L10.9586 15.6717L8.33594 14.9033Z" fill="#F5841F" stroke="#F5841F" stroke-width="0.5" stroke-linecap="round" stroke-linejoin="round"/>
<path d="M14.8286 22.0651L14.856 21.1962L14.6177 20.9949H11.1147L10.8854 21.1962L10.9037 22.0651L7.96924 20.6748L8.9963 21.5163L11.0779 22.9523H14.6451L16.7359 21.5163L17.7538 20.6748L14.8286 22.0651Z" fill="#C0AC9D" stroke="#C0AC9D" stroke-width="0.5" stroke-linecap="round" stroke-linejoin="round"/>
<path d="M14.5992 19.1469L14.159 18.8359H11.573L11.1329 19.1469L10.8853 21.1958L11.1145 20.9945H14.6175L14.856 21.1958L14.5992 19.1469Z" fill="#161616" stroke="#161616" stroke-width="0.5" stroke-linecap="round" stroke-linejoin="round"/>
<path d="M23.9532 8.30814L24.7327 4.52146L23.5589 1L14.5996 7.63134L18.0476 10.5399L22.917 11.9577L23.9899 10.7046L23.5222 10.3661L24.265 9.68934L23.6965 9.25028L24.4393 8.68318L23.9532 8.30814Z" fill="#763E1A" stroke="#763E1A" stroke-width="0.5" stroke-linecap="round" stroke-linejoin="round"/>
<path d="M1 4.52146L1.78864 8.30814L1.28428 8.68318L2.03624 9.25028L1.46768 9.68934L2.21047 10.3661L1.74279 10.7046L2.81571 11.9577L7.68513 10.5399L11.1331 7.63134L2.17379 1L1 4.52146Z" fill="#763E1A" stroke="#763E1A" stroke-width="0.5" stroke-linecap="round" stroke-linejoin="round"/>
<path d="M22.9171 11.9577L18.0477 10.54L19.5149 12.7535L17.3232 17.025L20.221 16.9884H24.5494L22.9171 11.9577Z" fill="#F5841F" stroke="#F5841F" stroke-width="0.5" stroke-linecap="round" stroke-linejoin="round"/>
<path d="M7.68487 10.54L2.81551 11.9577L1.19238 16.9884H5.51156L8.40932 17.025L6.21767 12.7535L7.68487 10.54Z" fill="#F5841F" stroke="#F5841F" stroke-width="0.5" stroke-linecap="round" stroke-linejoin="round"/>
<path d="M14.2875 12.9915L14.5993 7.6315L16.0115 3.81738H9.7207L11.1329 7.6315L11.4447 12.9915L11.5639 14.6744L11.5731 18.8362H14.1591L14.1683 14.6744L14.2875 12.9915Z" fill="#F5841F" stroke="#F5841F" stroke-width="0.5" stroke-linecap="round" stroke-linejoin="round"/>
</g>
<defs>
<clipPath id="clip0_8485_68865">
<rect width="25" height="24" fill="white"/>
</clipPath>
</defs>
</svg>
