<svg width="25" height="27" viewBox="0 0 25 27" fill="none" xmlns="http://www.w3.org/2000/svg">
<path d="M25 0.881836H0L3.75354 24.8818L22.0255 22.0543L25 0.881836Z" fill="url(#paint0_linear_888_7604)"/>
<g filter="url(#filter0_d_888_7604)">
<path d="M8.69621 18.5C8.00288 18.5 7.49621 18.2533 7.17621 17.76C6.86954 17.2667 6.71621 16.6533 6.71621 15.92C6.71621 14.5467 7.12288 13.64 7.93621 13.2L13.8362 10.08C14.3029 9.84 14.5362 9.44 14.5362 8.88C14.5362 8.50667 14.4362 8.26667 14.2362 8.16C14.0495 8.04 13.7362 7.98 13.2962 7.98H7.53621V4.5H15.6562C16.8962 4.5 17.7695 4.82 18.2762 5.46C18.7962 6.08667 19.0562 7.03333 19.0562 8.3C19.0562 9.59333 18.8829 10.54 18.5362 11.14C18.2029 11.74 17.6695 12.22 16.9362 12.58L12.6962 14.68C12.5629 14.7467 12.4962 14.8133 12.4962 14.88C12.4962 14.9333 12.5429 14.96 12.6362 14.96H18.7962V18.5H8.69621Z" fill="white"/>
</g>
<defs>
<filter id="filter0_d_888_7604" x="4.71631" y="4.5" width="16.3398" height="18" filterUnits="userSpaceOnUse" color-interpolation-filters="sRGB">
<feFlood flood-opacity="0" result="BackgroundImageFix"/>
<feColorMatrix in="SourceAlpha" type="matrix" values="0 0 0 0 0 0 0 0 0 0 0 0 0 0 0 0 0 0 127 0" result="hardAlpha"/>
<feOffset dy="2"/>
<feGaussianBlur stdDeviation="1"/>
<feComposite in2="hardAlpha" operator="out"/>
<feColorMatrix type="matrix" values="0 0 0 0 0 0 0 0 0 0 0 0 0 0 0 0 0 0 0.25 0"/>
<feBlend mode="normal" in2="BackgroundImageFix" result="effect1_dropShadow_888_7604"/>
<feBlend mode="normal" in="SourceGraphic" in2="effect1_dropShadow_888_7604" result="shape"/>
</filter>
<linearGradient id="paint0_linear_888_7604" x1="1.41643" y1="0.881836" x2="20.0826" y2="23.7149" gradientUnits="userSpaceOnUse">
<stop stop-color="#FA4B3A"/>
<stop offset="1" stop-color="#FDC948"/>
</linearGradient>
</defs>
</svg>
