<svg width="50" height="42" viewBox="0 0 50 42" fill="none" xmlns="http://www.w3.org/2000/svg">
<path d="M12.239 14.9453L12.239 10.1853L1.00003 10.1853C1.00003 13.1603 3.10323 14.9453 4.81208 14.9453L12.239 14.9453Z" fill="url(#paint0_linear_1033_5078)"/>
<path d="M12.239 14.9453L12.239 10.1853L1.00003 10.1853C1.00003 13.1603 3.10323 14.9453 4.81208 14.9453L12.239 14.9453Z" stroke="url(#paint1_linear_1033_5078)" stroke-width="0.368351"/>
<path d="M16.2058 19.1758L16.2058 14.4157L4.96683 14.4157C4.96683 17.3908 7.07003 19.1758 8.77888 19.1758L16.2058 19.1758Z" fill="url(#paint2_linear_1033_5078)"/>
<path d="M16.2058 19.1758L16.2058 14.4157L4.96683 14.4157C4.96683 17.3908 7.07003 19.1758 8.77888 19.1758L16.2058 19.1758Z" stroke="url(#paint3_linear_1033_5078)" stroke-width="0.368351"/>
<path d="M37.0022 14.9453L37.0022 10.1853L48.2412 10.1853C48.2412 13.1603 46.138 14.9453 44.4291 14.9453L37.0022 14.9453Z" fill="url(#paint4_linear_1033_5078)"/>
<path d="M37.0022 14.9453L37.0022 10.1853L48.2412 10.1853C48.2412 13.1603 46.138 14.9453 44.4291 14.9453L37.0022 14.9453Z" stroke="url(#paint5_linear_1033_5078)" stroke-width="0.368351"/>
<path d="M33.0356 19.1758L33.0356 14.4157L44.2746 14.4157C44.2746 17.3908 42.1714 19.1758 40.4626 19.1758L33.0356 19.1758Z" fill="url(#paint6_linear_1033_5078)"/>
<path d="M33.0356 19.1758L33.0356 14.4157L44.2746 14.4157C44.2746 17.3908 42.1714 19.1758 40.4626 19.1758L33.0356 19.1758Z" stroke="url(#paint7_linear_1033_5078)" stroke-width="0.368351"/>
<g filter="url(#filter0_d_1033_5078)">
<path fill-rule="evenodd" clip-rule="evenodd" d="M18.1657 24.9375V35.1784L21.5025 36.9715C21.6095 37.029 21.7391 36.9518 21.7391 36.8304C21.7388 33.0326 21.7424 28.7099 21.7424 24.9375H18.1657Z" fill="#9CB7ED"/>
<path fill-rule="evenodd" clip-rule="evenodd" d="M18.1657 24.9375V35.1784L21.5025 36.9715C21.6095 37.029 21.7391 36.9518 21.7391 36.8304C21.7388 33.0326 21.7424 28.7099 21.7424 24.9375H18.1657Z" stroke="url(#paint8_linear_1033_5078)" stroke-width="0.160563"/>
</g>
<path fill-rule="evenodd" clip-rule="evenodd" d="M18.4613 34.72V30.7012H18.396V34.7744L18.4233 34.779C18.5136 34.794 18.6141 34.8475 18.6962 34.9256C18.7781 35.0037 18.8388 35.1036 18.8538 35.2089L18.8563 35.2263L21.5005 36.58V32.0421H21.4351V36.4772L18.9156 35.182C18.8941 35.0654 18.8265 34.9595 18.7412 34.8783C18.6594 34.8003 18.5588 34.7427 18.4613 34.72Z" fill="url(#paint9_linear_1033_5078)"/>
<path fill-rule="evenodd" clip-rule="evenodd" d="M21.4317 36.2372C21.5022 36.118 21.5062 35.949 21.5007 35.8398L21.4355 35.8431C21.4409 35.9518 21.4351 36.103 21.3754 36.2039C21.3465 36.2528 21.3056 36.2888 21.2466 36.3036C21.1867 36.3187 21.1038 36.3129 20.9898 36.2685L20.9661 36.3294C21.0874 36.3766 21.1848 36.3866 21.2625 36.367C21.3413 36.3472 21.3956 36.2983 21.4317 36.2372Z" fill="#E3EFFB"/>
<g filter="url(#filter1_d_1033_5078)">
<path fill-rule="evenodd" clip-rule="evenodd" d="M17.5911 34.9479V24.9375H13.4396V32.6293C13.4396 32.8137 13.5449 32.9819 13.7108 33.0625L17.5911 34.9479Z" fill="#C6D9FF"/>
<path fill-rule="evenodd" clip-rule="evenodd" d="M17.5911 34.9479V24.9375H13.4396V32.6293C13.4396 32.8137 13.5449 32.9819 13.7108 33.0625L17.5911 34.9479Z" stroke="url(#paint10_linear_1033_5078)" stroke-width="0.160563"/>
</g>
<path fill-rule="evenodd" clip-rule="evenodd" d="M13.7473 32.4453V27.7031H13.6702V32.5096L13.7024 32.5149C13.809 32.5327 13.9276 32.5958 14.0244 32.688C14.1211 32.7801 14.1927 32.8979 14.2104 33.0222L14.2134 33.0428L17.3335 34.5042V29.2854H17.2564V34.3829L14.2834 32.9904C14.258 32.853 14.1782 32.728 14.0776 32.6321C13.981 32.5402 13.8623 32.4722 13.7473 32.4453Z" fill="url(#paint11_linear_1033_5078)"/>
<path fill-rule="evenodd" clip-rule="evenodd" d="M17.252 34.0997C17.3351 33.9591 17.3399 33.7597 17.3334 33.6309L17.2564 33.6347C17.2628 33.763 17.256 33.9414 17.1856 34.0605C17.1515 34.1182 17.1031 34.1607 17.0336 34.1781C16.9628 34.1959 16.865 34.189 16.7305 34.1367L16.7026 34.2086C16.8457 34.2642 16.9606 34.276 17.0524 34.2529C17.1453 34.2296 17.2093 34.1718 17.252 34.0997Z" fill="#F2F9FF"/>
<g filter="url(#filter2_d_1033_5078)">
<path fill-rule="evenodd" clip-rule="evenodd" d="M31.1942 24.9375V35.1784L27.8574 36.9715C27.7504 37.029 27.6208 36.9518 27.6208 36.8304C27.6211 33.0326 27.6174 28.7099 27.6174 24.9375H31.1942Z" fill="#9CB7ED"/>
<path fill-rule="evenodd" clip-rule="evenodd" d="M31.1942 24.9375V35.1784L27.8574 36.9715C27.7504 37.029 27.6208 36.9518 27.6208 36.8304C27.6211 33.0326 27.6174 28.7099 27.6174 24.9375H31.1942Z" stroke="url(#paint12_linear_1033_5078)" stroke-width="0.160563"/>
</g>
<path fill-rule="evenodd" clip-rule="evenodd" d="M30.898 34.72V30.7012H30.9634V34.7744L30.9361 34.779C30.8457 34.794 30.7453 34.8475 30.6632 34.9256C30.5813 35.0037 30.5206 35.1036 30.5056 35.2089L30.5031 35.2263L27.8589 36.58V32.0421H27.9242V36.4772L30.4437 35.182C30.4652 35.0654 30.5328 34.9595 30.6182 34.8783C30.7 34.8003 30.8006 34.7427 30.898 34.72Z" fill="url(#paint13_linear_1033_5078)"/>
<path fill-rule="evenodd" clip-rule="evenodd" d="M27.9282 36.2372C27.8577 36.118 27.8537 35.949 27.8591 35.8398L27.9244 35.8431C27.919 35.9518 27.9247 36.103 27.9844 36.2039C28.0133 36.2528 28.0543 36.2888 28.1132 36.3036C28.1732 36.3187 28.2561 36.3129 28.3701 36.2685L28.3938 36.3294C28.2725 36.3766 28.1751 36.3866 28.0973 36.367C28.0185 36.3472 27.9643 36.2983 27.9282 36.2372Z" fill="#E3EFFB"/>
<g filter="url(#filter3_d_1033_5078)">
<path fill-rule="evenodd" clip-rule="evenodd" d="M31.769 34.9479V24.9375H35.9205V32.6293C35.9205 32.8137 35.8152 32.9819 35.6493 33.0625L31.769 34.9479Z" fill="#C6D9FF"/>
<path fill-rule="evenodd" clip-rule="evenodd" d="M31.769 34.9479V24.9375H35.9205V32.6293C35.9205 32.8137 35.8152 32.9819 35.6493 33.0625L31.769 34.9479Z" stroke="url(#paint14_linear_1033_5078)" stroke-width="0.160563"/>
</g>
<path fill-rule="evenodd" clip-rule="evenodd" d="M35.6126 32.4453V27.7031H35.6897V32.5096L35.6575 32.5149C35.5509 32.5327 35.4323 32.5958 35.3355 32.688C35.2388 32.7801 35.1672 32.8979 35.1494 33.0222L35.1465 33.0428L32.0264 34.5042V29.2854H32.1035V34.3829L35.0765 32.9904C35.1019 32.853 35.1816 32.728 35.2823 32.6321C35.3789 32.5402 35.4976 32.4722 35.6126 32.4453Z" fill="url(#paint15_linear_1033_5078)"/>
<path fill-rule="evenodd" clip-rule="evenodd" d="M32.1081 34.0997C32.025 33.9591 32.0202 33.7597 32.0267 33.6309L32.1037 33.6347C32.0973 33.763 32.1041 33.9414 32.1745 34.0605C32.2087 34.1182 32.257 34.1607 32.3265 34.1781C32.3973 34.1959 32.4951 34.189 32.6296 34.1367L32.6575 34.2086C32.5144 34.2642 32.3995 34.276 32.3077 34.2529C32.2148 34.2296 32.1508 34.1718 32.1081 34.0997Z" fill="#F2F9FF"/>
<g filter="url(#filter4_d_1033_5078)">
<path d="M20.7014 21.9414H28.6552V38.0432L24.869 40.3529C24.7209 40.4433 24.5346 40.4432 24.3866 40.3526L20.7014 38.0985V21.9414Z" fill="#6A88C4"/>
<path d="M20.7014 21.9414H28.6552V38.0432L24.869 40.3529C24.7209 40.4433 24.5346 40.4432 24.3866 40.3526L20.7014 38.0985V21.9414Z" stroke="url(#paint16_linear_1033_5078)" stroke-width="0.321127"/>
</g>
<path fill-rule="evenodd" clip-rule="evenodd" d="M21.105 31.9707H21.2203V37.7597L24.621 39.8569L28.0789 37.7595V31.9707H28.1942V37.8244L24.6205 39.992L21.105 37.8241V31.9707Z" fill="url(#paint17_linear_1033_5078)"/>
<path fill-rule="evenodd" clip-rule="evenodd" d="M24.6703 37.5039V39.5953H24.5701V37.5039H24.6703Z" fill="url(#paint18_linear_1033_5078)"/>
<path fill-rule="evenodd" clip-rule="evenodd" d="M24.3199 38.8538C24.1205 39.0838 23.8775 39.135 23.7102 39.1071L23.7267 39.0083C23.86 39.0305 24.0679 38.9915 24.2442 38.7881C24.4212 38.584 24.5701 38.2094 24.5701 37.5547H24.6703C24.6703 38.2226 24.5187 38.6246 24.3199 38.8538Z" fill="url(#paint19_linear_1033_5078)"/>
<path fill-rule="evenodd" clip-rule="evenodd" d="M24.9206 38.8538C25.12 39.0838 25.363 39.135 25.5303 39.1071L25.5138 39.0083C25.3805 39.0305 25.1726 38.9915 24.9963 38.7881C24.8193 38.584 24.6703 38.2094 24.6703 37.5547H24.5701C24.5701 38.2226 24.7218 38.6246 24.9206 38.8538Z" fill="url(#paint20_linear_1033_5078)"/>
<path fill-rule="evenodd" clip-rule="evenodd" d="M24.5992 39.6404L23.4678 39.0064L23.7183 39.0064L24.6201 39.5397L25.5219 39.002H25.743L24.6408 39.6404C24.6276 39.6464 24.6124 39.6464 24.5992 39.6404Z" fill="url(#paint21_linear_1033_5078)"/>
<g filter="url(#filter5_d_1033_5078)">
<path d="M23.3163 1.21151L11.6369 7.56496C10.7585 8.04281 10.2117 8.96274 10.2117 9.96272L10.2117 24.5282C10.2117 25.5281 10.7585 26.4481 11.6369 26.9259L23.3163 33.2794C24.1296 33.7218 25.1117 33.7218 25.925 33.2794L37.6043 26.9259C38.4828 26.4481 39.0296 25.5281 39.0296 24.5282L39.0296 9.96272C39.0296 8.96274 38.4828 8.04282 37.6044 7.56497L25.925 1.21151C25.1117 0.769085 24.1296 0.769084 23.3163 1.21151Z" fill="url(#paint22_linear_1033_5078)"/>
<path d="M23.3039 3.74595L13.8217 8.90417C12.9466 9.38022 12.4019 10.2967 12.4019 11.2929L12.4019 23.142C12.4019 24.1382 12.9466 25.0547 13.8217 25.5308L23.3039 30.689C24.1142 31.1298 25.0926 31.1298 25.9028 30.689L35.385 25.5308C36.2601 25.0547 36.8049 24.1382 36.8049 23.142L36.8049 11.2929C36.8049 10.2967 36.2601 9.38022 35.385 8.90417L25.9028 3.74595C25.0926 3.30519 24.1142 3.30519 23.3039 3.74595Z" fill="url(#paint23_linear_1033_5078)"/>
<g filter="url(#filter6_f_1033_5078)">
<path d="M23.3039 3.74595L13.8217 8.90417C12.9466 9.38022 12.4019 10.2967 12.4019 11.2929L12.4019 23.142C12.4019 24.1382 12.9466 25.0547 13.8217 25.5308L23.3039 30.689C24.1142 31.1298 25.0926 31.1298 25.9028 30.689L35.385 25.5308C36.2601 25.0547 36.8049 24.1382 36.8049 23.142L36.8049 11.2929C36.8049 10.2967 36.2601 9.38022 35.385 8.90417L25.9028 3.74595C25.0926 3.30519 24.1142 3.30519 23.3039 3.74595Z" stroke="url(#paint24_linear_1033_5078)" stroke-width="0.160563"/>
</g>
<g opacity="0.5">
<mask id="mask0_1033_5078" style="mask-type:alpha" maskUnits="userSpaceOnUse" x="13" y="4" width="23" height="26">
<path d="M23.4432 4.86079L14.7909 9.56333C13.958 10.016 13.4395 10.888 13.4395 11.836L13.4395 22.6393C13.4395 23.5872 13.958 24.4593 14.7909 24.9119L23.4432 29.6145C24.2135 30.0331 25.1434 30.0331 25.9136 29.6145L34.566 24.9119C35.3989 24.4593 35.9174 23.5872 35.9174 22.6393L35.9174 11.836C35.9174 10.888 35.3989 10.016 34.566 9.56333L25.9136 4.86079C25.1434 4.44215 24.2135 4.44215 23.4432 4.86079Z" fill="#A6D3DE"/>
</mask>
<g mask="url(#mask0_1033_5078)">
<path d="M23.4432 4.86079L14.7909 9.56333C13.958 10.016 13.4395 10.888 13.4395 11.836L13.4395 22.6393C13.4395 23.5872 13.958 24.4593 14.7909 24.9119L23.4432 29.6145C24.2135 30.0331 25.1434 30.0331 25.9136 29.6145L34.566 24.9119C35.3989 24.4593 35.9174 23.5872 35.9174 22.6393L35.9174 11.836C35.9174 10.888 35.3989 10.016 34.566 9.56333L25.9136 4.86079C25.1434 4.44215 24.2135 4.44215 23.4432 4.86079Z" fill="url(#paint25_radial_1033_5078)"/>
<path opacity="0.5" d="M22.7995 30.8024L22.353 3.67383H27.0036L26.5572 30.8024H22.7995Z" fill="url(#paint26_linear_1033_5078)"/>
<path opacity="0.5" d="M22.7398 30.5599L8.78882 7.28906L12.8164 4.96376L25.994 28.681L22.7398 30.5599Z" fill="url(#paint27_linear_1033_5078)"/>
<path opacity="0.5" d="M22.3521 28.6821L35.5298 4.96484L39.5573 7.29015L25.6064 30.561L22.3521 28.6821Z" fill="url(#paint28_linear_1033_5078)"/>
<rect x="13.4392" y="15.6875" width="22.478" height="14.5978" fill="url(#paint29_linear_1033_5078)"/>
<g filter="url(#filter7_i_1033_5078)">
<path d="M23.4432 4.86079L14.7909 9.56333C13.958 10.016 13.4395 10.888 13.4395 11.836L13.4395 22.6393C13.4395 23.5872 13.958 24.4593 14.7909 24.9119L23.4432 29.6145C24.2135 30.0331 25.1434 30.0331 25.9136 29.6145L34.566 24.9119C35.3989 24.4593 35.9174 23.5872 35.9174 22.6393L35.9174 11.836C35.9174 10.888 35.3989 10.016 34.566 9.56333L25.9136 4.86079C25.1434 4.44215 24.2135 4.44215 23.4432 4.86079Z" fill="#6052B4" fill-opacity="0.01"/>
</g>
</g>
</g>
</g>
<g filter="url(#filter8_i_1033_5078)">
<path d="M29.8477 23.5H21.3157C20.8837 23.5 20.5177 23.338 20.2177 23.014C19.9177 22.69 19.7677 22.216 19.7677 21.592C19.7677 20.608 20.0797 19.924 20.7037 19.54L26.2657 16.138C26.7457 15.838 26.9857 15.352 26.9857 14.68C26.9857 14.2 26.8897 13.87 26.6977 13.69C26.5057 13.51 26.1577 13.42 25.6537 13.42H20.5597V10.9H27.2737C28.3417 10.9 29.0977 11.176 29.5417 11.728C29.9977 12.28 30.2257 13.132 30.2257 14.284C30.2257 15.316 30.0937 16.09 29.8297 16.606C29.5777 17.122 29.1157 17.578 28.4437 17.974L23.9977 20.674C23.8777 20.734 23.8177 20.8 23.8177 20.872C23.8177 20.944 23.8597 20.98 23.9437 20.98H29.8477V23.5Z" fill="#5C88CB"/>
</g>
<defs>
<filter id="filter0_d_1033_5078" x="16.8009" y="23.5729" width="6.30632" height="14.7829" filterUnits="userSpaceOnUse" color-interpolation-filters="sRGB">
<feFlood flood-opacity="0" result="BackgroundImageFix"/>
<feColorMatrix in="SourceAlpha" type="matrix" values="0 0 0 0 0 0 0 0 0 0 0 0 0 0 0 0 0 0 127 0" result="hardAlpha"/>
<feOffset/>
<feGaussianBlur stdDeviation="0.642254"/>
<feColorMatrix type="matrix" values="0 0 0 0 0.288889 0 0 0 0 0.357333 0 0 0 0 0.533333 0 0 0 0.74 0"/>
<feBlend mode="normal" in2="BackgroundImageFix" result="effect1_dropShadow_1033_5078"/>
<feBlend mode="normal" in="SourceGraphic" in2="effect1_dropShadow_1033_5078" result="shape"/>
</filter>
<filter id="filter1_d_1033_5078" x="12.0749" y="23.5729" width="6.88103" height="12.7878" filterUnits="userSpaceOnUse" color-interpolation-filters="sRGB">
<feFlood flood-opacity="0" result="BackgroundImageFix"/>
<feColorMatrix in="SourceAlpha" type="matrix" values="0 0 0 0 0 0 0 0 0 0 0 0 0 0 0 0 0 0 127 0" result="hardAlpha"/>
<feOffset/>
<feGaussianBlur stdDeviation="0.642254"/>
<feColorMatrix type="matrix" values="0 0 0 0 0.288889 0 0 0 0 0.357333 0 0 0 0 0.533333 0 0 0 0.74 0"/>
<feBlend mode="normal" in2="BackgroundImageFix" result="effect1_dropShadow_1033_5078"/>
<feBlend mode="normal" in="SourceGraphic" in2="effect1_dropShadow_1033_5078" result="shape"/>
</filter>
<filter id="filter2_d_1033_5078" x="26.2526" y="23.5729" width="6.30632" height="14.7829" filterUnits="userSpaceOnUse" color-interpolation-filters="sRGB">
<feFlood flood-opacity="0" result="BackgroundImageFix"/>
<feColorMatrix in="SourceAlpha" type="matrix" values="0 0 0 0 0 0 0 0 0 0 0 0 0 0 0 0 0 0 127 0" result="hardAlpha"/>
<feOffset/>
<feGaussianBlur stdDeviation="0.642254"/>
<feColorMatrix type="matrix" values="0 0 0 0 0.288889 0 0 0 0 0.357333 0 0 0 0 0.533333 0 0 0 0.74 0"/>
<feBlend mode="normal" in2="BackgroundImageFix" result="effect1_dropShadow_1033_5078"/>
<feBlend mode="normal" in="SourceGraphic" in2="effect1_dropShadow_1033_5078" result="shape"/>
</filter>
<filter id="filter3_d_1033_5078" x="30.4042" y="23.5729" width="6.88103" height="12.7878" filterUnits="userSpaceOnUse" color-interpolation-filters="sRGB">
<feFlood flood-opacity="0" result="BackgroundImageFix"/>
<feColorMatrix in="SourceAlpha" type="matrix" values="0 0 0 0 0 0 0 0 0 0 0 0 0 0 0 0 0 0 127 0" result="hardAlpha"/>
<feOffset/>
<feGaussianBlur stdDeviation="0.642254"/>
<feColorMatrix type="matrix" values="0 0 0 0 0.288889 0 0 0 0 0.357333 0 0 0 0 0.533333 0 0 0 0.74 0"/>
<feBlend mode="normal" in2="BackgroundImageFix" result="effect1_dropShadow_1033_5078"/>
<feBlend mode="normal" in="SourceGraphic" in2="effect1_dropShadow_1033_5078" result="shape"/>
</filter>
<filter id="filter4_d_1033_5078" x="19.2563" y="20.4967" width="10.8439" height="21.3688" filterUnits="userSpaceOnUse" color-interpolation-filters="sRGB">
<feFlood flood-opacity="0" result="BackgroundImageFix"/>
<feColorMatrix in="SourceAlpha" type="matrix" values="0 0 0 0 0 0 0 0 0 0 0 0 0 0 0 0 0 0 127 0" result="hardAlpha"/>
<feOffset/>
<feGaussianBlur stdDeviation="0.642254"/>
<feColorMatrix type="matrix" values="0 0 0 0 0.288889 0 0 0 0 0.357333 0 0 0 0 0.533333 0 0 0 0.8 0"/>
<feBlend mode="normal" in2="BackgroundImageFix" result="effect1_dropShadow_1033_5078"/>
<feBlend mode="normal" in="SourceGraphic" in2="effect1_dropShadow_1033_5078" result="shape"/>
</filter>
<filter id="filter5_d_1033_5078" x="9.24829" y="0.879883" width="30.7446" height="34.9793" filterUnits="userSpaceOnUse" color-interpolation-filters="sRGB">
<feFlood flood-opacity="0" result="BackgroundImageFix"/>
<feColorMatrix in="SourceAlpha" type="matrix" values="0 0 0 0 0 0 0 0 0 0 0 0 0 0 0 0 0 0 127 0" result="hardAlpha"/>
<feOffset dy="1.28451"/>
<feGaussianBlur stdDeviation="0.48169"/>
<feColorMatrix type="matrix" values="0 0 0 0 0.141181 0 0 0 0 0.190317 0 0 0 0 0.316667 0 0 0 0.51 0"/>
<feBlend mode="normal" in2="BackgroundImageFix" result="effect1_dropShadow_1033_5078"/>
<feBlend mode="normal" in="SourceGraphic" in2="effect1_dropShadow_1033_5078" result="shape"/>
</filter>
<filter id="filter6_f_1033_5078" x="12.2734" y="3.28679" width="24.6601" height="27.861" filterUnits="userSpaceOnUse" color-interpolation-filters="sRGB">
<feFlood flood-opacity="0" result="BackgroundImageFix"/>
<feBlend mode="normal" in="SourceGraphic" in2="BackgroundImageFix" result="shape"/>
<feGaussianBlur stdDeviation="0.0240845" result="effect1_foregroundBlur_1033_5078"/>
</filter>
<filter id="filter7_i_1033_5078" x="13.4395" y="4.54688" width="22.478" height="25.3818" filterUnits="userSpaceOnUse" color-interpolation-filters="sRGB">
<feFlood flood-opacity="0" result="BackgroundImageFix"/>
<feBlend mode="normal" in="SourceGraphic" in2="BackgroundImageFix" result="shape"/>
<feColorMatrix in="SourceAlpha" type="matrix" values="0 0 0 0 0 0 0 0 0 0 0 0 0 0 0 0 0 0 127 0" result="hardAlpha"/>
<feOffset/>
<feGaussianBlur stdDeviation="1.07965"/>
<feComposite in2="hardAlpha" operator="arithmetic" k2="-1" k3="1"/>
<feColorMatrix type="matrix" values="0 0 0 0 0.297222 0 0 0 0 0.329917 0 0 0 0 0.445833 0 0 0 1 0"/>
<feBlend mode="normal" in2="shape" result="effect1_innerShadow_1033_5078"/>
</filter>
<filter id="filter8_i_1033_5078" x="19.7676" y="10.9004" width="10.458" height="16.5996" filterUnits="userSpaceOnUse" color-interpolation-filters="sRGB">
<feFlood flood-opacity="0" result="BackgroundImageFix"/>
<feBlend mode="normal" in="SourceGraphic" in2="BackgroundImageFix" result="shape"/>
<feColorMatrix in="SourceAlpha" type="matrix" values="0 0 0 0 0 0 0 0 0 0 0 0 0 0 0 0 0 0 127 0" result="hardAlpha"/>
<feOffset dy="4"/>
<feGaussianBlur stdDeviation="2"/>
<feComposite in2="hardAlpha" operator="arithmetic" k2="-1" k3="1"/>
<feColorMatrix type="matrix" values="0 0 0 0 0 0 0 0 0 0 0 0 0 0 0 0 0 0 0.25 0"/>
<feBlend mode="normal" in2="shape" result="effect1_innerShadow_1033_5078"/>
</filter>
<linearGradient id="paint0_linear_1033_5078" x1="7.87564" y1="14.9453" x2="3.84283" y2="10.9125" gradientUnits="userSpaceOnUse">
<stop stop-color="#C3C5D1"/>
<stop offset="0.875" stop-color="#F9F9F9"/>
</linearGradient>
<linearGradient id="paint1_linear_1033_5078" x1="1.66115" y1="10.1853" x2="5.49562" y2="14.9453" gradientUnits="userSpaceOnUse">
<stop stop-color="#F9F9F9"/>
<stop offset="0.378992" stop-color="#F9F9F9"/>
<stop offset="0.480868" stop-color="#DFDFE6"/>
<stop offset="0.729174" stop-color="#B8BAC6"/>
</linearGradient>
<linearGradient id="paint2_linear_1033_5078" x1="10.6524" y1="18.5808" x2="6.61962" y2="14.4157" gradientUnits="userSpaceOnUse">
<stop stop-color="#C3C5D1"/>
<stop offset="0.875" stop-color="#F9F9F9"/>
</linearGradient>
<linearGradient id="paint3_linear_1033_5078" x1="5.56183" y1="14.4157" x2="7.61129" y2="18.5808" gradientUnits="userSpaceOnUse">
<stop stop-color="#F4F4F5"/>
<stop offset="0.306027" stop-color="#F4F4F5"/>
<stop offset="0.462087" stop-color="#E8E9EC"/>
<stop offset="0.682292" stop-color="#DFDFE6"/>
<stop offset="1" stop-color="#B8BAC6"/>
</linearGradient>
<linearGradient id="paint4_linear_1033_5078" x1="41.3656" y1="14.9453" x2="45.3984" y2="10.9125" gradientUnits="userSpaceOnUse">
<stop stop-color="#C3C5D1"/>
<stop offset="0.875" stop-color="#F9F9F9"/>
</linearGradient>
<linearGradient id="paint5_linear_1033_5078" x1="47.5801" y1="10.1853" x2="43.7456" y2="14.9453" gradientUnits="userSpaceOnUse">
<stop stop-color="#F9F9F9"/>
<stop offset="0.378992" stop-color="#F9F9F9"/>
<stop offset="0.480868" stop-color="#DFDFE6"/>
<stop offset="0.729174" stop-color="#B8BAC6"/>
</linearGradient>
<linearGradient id="paint6_linear_1033_5078" x1="38.589" y1="18.5808" x2="42.6218" y2="14.4157" gradientUnits="userSpaceOnUse">
<stop stop-color="#C3C5D1"/>
<stop offset="0.875" stop-color="#F9F9F9"/>
</linearGradient>
<linearGradient id="paint7_linear_1033_5078" x1="43.6796" y1="14.4157" x2="41.6302" y2="18.5808" gradientUnits="userSpaceOnUse">
<stop stop-color="#F4F4F5"/>
<stop offset="0.306027" stop-color="#F4F4F5"/>
<stop offset="0.462087" stop-color="#E8E9EC"/>
<stop offset="0.682292" stop-color="#DFDFE6"/>
<stop offset="1" stop-color="#B8BAC6"/>
</linearGradient>
<linearGradient id="paint8_linear_1033_5078" x1="21.7424" y1="33.1255" x2="17.9731" y2="33.7089" gradientUnits="userSpaceOnUse">
<stop stop-color="#91B1E3"/>
<stop offset="0.208702" stop-color="#F0F6FF"/>
<stop offset="0.514766" stop-color="#A4BFE9"/>
<stop offset="0.728274" stop-color="#8BADE0"/>
<stop offset="0.971703" stop-color="#D0DEF3"/>
</linearGradient>
<linearGradient id="paint9_linear_1033_5078" x1="18.5425" y1="34.0226" x2="20.4108" y2="33.4656" gradientUnits="userSpaceOnUse">
<stop stop-color="#FAFCFF"/>
<stop offset="0.309893" stop-color="#D7E6FC"/>
<stop offset="0.523799" stop-color="#C1D8F4"/>
<stop offset="0.77229" stop-color="#BBD6FF"/>
<stop offset="1" stop-color="white"/>
</linearGradient>
<linearGradient id="paint10_linear_1033_5078" x1="13.3243" y1="30.7011" x2="17.7749" y2="35.6875" gradientUnits="userSpaceOnUse">
<stop stop-color="#91B1E3"/>
<stop offset="0.208702" stop-color="#F0F6FF"/>
<stop offset="0.648432" stop-color="#A4BFE9"/>
<stop offset="0.780206" stop-color="#8BADE0"/>
<stop offset="0.971703" stop-color="#93B3E4"/>
</linearGradient>
<linearGradient id="paint11_linear_1033_5078" x1="13.843" y1="31.6224" x2="16.0477" y2="30.9651" gradientUnits="userSpaceOnUse">
<stop stop-color="#FAFCFF"/>
<stop offset="0.309893" stop-color="#D7E6FC"/>
<stop offset="0.523799" stop-color="#C1D8F4"/>
<stop offset="0.77229" stop-color="#BBD6FF"/>
<stop offset="1" stop-color="white"/>
</linearGradient>
<linearGradient id="paint12_linear_1033_5078" x1="27.6174" y1="33.1255" x2="31.3867" y2="33.7089" gradientUnits="userSpaceOnUse">
<stop stop-color="#91B1E3"/>
<stop offset="0.208702" stop-color="#F0F6FF"/>
<stop offset="0.514766" stop-color="#A4BFE9"/>
<stop offset="0.728274" stop-color="#8BADE0"/>
<stop offset="0.971703" stop-color="#D0DEF3"/>
</linearGradient>
<linearGradient id="paint13_linear_1033_5078" x1="30.8169" y1="34.0226" x2="28.9486" y2="33.4656" gradientUnits="userSpaceOnUse">
<stop stop-color="#FAFCFF"/>
<stop offset="0.309893" stop-color="#D7E6FC"/>
<stop offset="0.523799" stop-color="#C1D8F4"/>
<stop offset="0.77229" stop-color="#BBD6FF"/>
<stop offset="1" stop-color="white"/>
</linearGradient>
<linearGradient id="paint14_linear_1033_5078" x1="36.0358" y1="30.7011" x2="31.5852" y2="35.6875" gradientUnits="userSpaceOnUse">
<stop stop-color="#91B1E3"/>
<stop offset="0.208702" stop-color="#F0F6FF"/>
<stop offset="0.648432" stop-color="#A4BFE9"/>
<stop offset="0.780206" stop-color="#8BADE0"/>
<stop offset="0.971703" stop-color="#93B3E4"/>
</linearGradient>
<linearGradient id="paint15_linear_1033_5078" x1="35.5168" y1="31.6224" x2="33.3122" y2="30.9651" gradientUnits="userSpaceOnUse">
<stop stop-color="#FAFCFF"/>
<stop offset="0.309893" stop-color="#D7E6FC"/>
<stop offset="0.523799" stop-color="#C1D8F4"/>
<stop offset="0.77229" stop-color="#BBD6FF"/>
<stop offset="1" stop-color="white"/>
</linearGradient>
<linearGradient id="paint16_linear_1033_5078" x1="20.7014" y1="35.14" x2="28.9099" y2="36.8927" gradientUnits="userSpaceOnUse">
<stop stop-color="#91B1E3"/>
<stop offset="0.208702" stop-color="#F0F6FF"/>
<stop offset="0.648432" stop-color="#A4BFE9"/>
<stop offset="0.780206" stop-color="#8BADE0"/>
<stop offset="0.971703" stop-color="#93B3E4"/>
</linearGradient>
<linearGradient id="paint17_linear_1033_5078" x1="27.8596" y1="36.5931" x2="24.111" y2="34.7595" gradientUnits="userSpaceOnUse">
<stop stop-color="#FAFCFF"/>
<stop offset="0.309893" stop-color="#D7E6FC"/>
<stop offset="0.523799" stop-color="#C1D8F4"/>
<stop offset="0.77229" stop-color="#BBD6FF"/>
<stop offset="1" stop-color="white"/>
</linearGradient>
<linearGradient id="paint18_linear_1033_5078" x1="24.6202" y1="37.5039" x2="24.6202" y2="39.4578" gradientUnits="userSpaceOnUse">
<stop stop-color="#6A88C3"/>
<stop offset="0.479167" stop-color="#E4EFFD"/>
<stop offset="1" stop-color="#E1ECFD"/>
</linearGradient>
<linearGradient id="paint19_linear_1033_5078" x1="24.1903" y1="37.5547" x2="24.1903" y2="39.114" gradientUnits="userSpaceOnUse">
<stop stop-color="#E2F5FF" stop-opacity="0"/>
<stop offset="0.479167" stop-color="#B6CAFE"/>
<stop offset="1" stop-color="#CCD7FF"/>
</linearGradient>
<linearGradient id="paint20_linear_1033_5078" x1="25.0502" y1="37.5547" x2="25.0502" y2="39.114" gradientUnits="userSpaceOnUse">
<stop stop-color="#E2F5FF" stop-opacity="0"/>
<stop offset="0.479167" stop-color="#B6CAFE"/>
<stop offset="1" stop-color="#CCD7FF"/>
</linearGradient>
<linearGradient id="paint21_linear_1033_5078" x1="24.4988" y1="39.2218" x2="23.199" y2="39.3757" gradientUnits="userSpaceOnUse">
<stop stop-color="#C9DEFC"/>
<stop offset="0.309893" stop-color="#ECF4FF"/>
<stop offset="0.523799" stop-color="#EAF6FF"/>
<stop offset="0.613641" stop-color="#CCE7FF"/>
<stop offset="1" stop-color="#CEE4F9"/>
</linearGradient>
<linearGradient id="paint22_linear_1033_5078" x1="18.5689" y1="4.53646" x2="31.5369" y2="30.2997" gradientUnits="userSpaceOnUse">
<stop stop-color="#FAFAFA"/>
<stop offset="1" stop-color="#C2C4CD"/>
</linearGradient>
<linearGradient id="paint23_linear_1033_5078" x1="18.4536" y1="6.67012" x2="29.635" y2="27.3037" gradientUnits="userSpaceOnUse">
<stop stop-color="#CDCFD6"/>
<stop offset="1" stop-color="#EFEFF1"/>
</linearGradient>
<linearGradient id="paint24_linear_1033_5078" x1="19.664" y1="5.92085" x2="31.7099" y2="27.5919" gradientUnits="userSpaceOnUse">
<stop stop-color="#DDDFE2"/>
<stop offset="1" stop-color="white"/>
</linearGradient>
<radialGradient id="paint25_radial_1033_5078" cx="0" cy="0" r="1" gradientUnits="userSpaceOnUse" gradientTransform="translate(24.6784 17.2376) rotate(90) scale(13.0482 11.239)">
<stop stop-color="#F5F7FF"/>
<stop offset="1" stop-color="#B3B5C5"/>
</radialGradient>
<linearGradient id="paint26_linear_1033_5078" x1="24.6783" y1="3.67383" x2="24.6783" y2="30.8024" gradientUnits="userSpaceOnUse">
<stop stop-color="white"/>
<stop offset="1" stop-color="#F2EDED" stop-opacity="0"/>
</linearGradient>
<linearGradient id="paint27_linear_1033_5078" x1="10.8026" y1="6.12641" x2="24.3669" y2="29.6204" gradientUnits="userSpaceOnUse">
<stop stop-color="white"/>
<stop offset="1" stop-color="#F2EDED" stop-opacity="0"/>
</linearGradient>
<linearGradient id="paint28_linear_1033_5078" x1="37.5436" y1="6.1275" x2="23.9793" y2="29.6215" gradientUnits="userSpaceOnUse">
<stop stop-color="white"/>
<stop offset="1" stop-color="#F2EDED" stop-opacity="0"/>
</linearGradient>
<linearGradient id="paint29_linear_1033_5078" x1="24.6782" y1="22.0175" x2="24.6104" y2="29.3808" gradientUnits="userSpaceOnUse">
<stop stop-color="white" stop-opacity="0"/>
<stop offset="1" stop-color="#D0DBFF"/>
</linearGradient>
</defs>
</svg>
