<svg width="32" height="33" viewBox="0 0 32 33" fill="none" xmlns="http://www.w3.org/2000/svg">
<g clip-path="url(#clip0_903_3304)">
<path d="M29.642 9.59198C29.4809 9.46916 29.3635 9.29808 29.3073 9.10344C28.4444 6.12138 25.6712 4.03865 22.5633 4.03865C21.9909 4.03865 21.4204 4.1081 20.8678 4.24514C20.487 4.3395 20.0864 4.18806 19.8636 3.86434C18.4131 1.75739 16.0227 0.499454 13.4694 0.499454C11.5276 0.499454 9.66966 1.22023 8.23792 2.52915C6.81482 3.82995 5.93074 5.59828 5.74813 7.50856C5.71662 7.83889 5.51368 8.12839 5.21402 8.27102C5.12068 8.31524 5.02684 8.36352 4.93452 8.41451C4.85592 8.45804 4.77139 8.49005 4.68347 8.5097C3.37455 8.80174 2.18538 9.5376 1.33535 10.5814C0.461776 11.654 0 12.9521 0 14.3356C0 17.628 2.69391 20.3066 6.0051 20.3066H25.9949C29.3061 20.3066 32 17.628 32 14.3356C32 12.4621 31.1405 10.733 29.642 9.59198Z" fill="#5A6474"/>
<path d="M5.37075 24.2403C4.90558 24.2403 4.52834 24.6174 4.52834 25.0825V26.3805L3.14877 26.0064C2.69954 25.8846 2.23708 26.1501 2.11546 26.5992C1.99383 27.0481 2.2591 27.5107 2.708 27.6323L4.03522 27.9921L3.23313 29.2284C2.97989 29.6185 3.09101 30.1401 3.4813 30.3933C3.62291 30.4853 3.7818 30.5292 3.93883 30.5292C4.21461 30.5292 4.48497 30.3938 4.64624 30.1451L5.38294 29.0098L6.1808 30.1976C6.34342 30.4397 6.60971 30.5703 6.88075 30.5703C7.04235 30.5703 7.20565 30.5239 7.34981 30.4272C7.73586 30.1677 7.83869 29.6444 7.57917 29.2582L6.72507 27.9869L8.03315 27.6323C8.48222 27.5107 8.74749 27.0481 8.62586 26.5992C8.50424 26.1501 8.04195 25.8848 7.59254 26.0064L6.21298 26.3805V25.0825C6.21298 24.6174 5.83591 24.2403 5.37075 24.2403Z" fill="#5A6474"/>
<path d="M16.0005 24.2403C15.5354 24.2403 15.1583 24.6174 15.1583 25.0825V26.3805L13.7785 26.0064C13.3295 25.8846 12.867 26.1501 12.7454 26.5992C12.6236 27.0481 12.889 27.5107 13.3379 27.6323L14.6652 27.9921L13.8631 29.2284C13.6098 29.6185 13.7209 30.1401 14.1111 30.3933C14.2529 30.4853 14.4117 30.5292 14.5688 30.5292C14.8446 30.5292 15.1149 30.3938 15.2762 30.1451L16.0127 29.0098L16.8107 30.1976C16.9734 30.4397 17.2395 30.5703 17.5107 30.5703C17.6721 30.5703 17.8354 30.5239 17.9796 30.4272C18.3658 30.1677 18.4685 29.6444 18.2091 29.2582L17.355 27.9869L18.6631 27.6323C19.112 27.5107 19.3774 27.0481 19.2558 26.5992C19.134 26.1501 18.6717 25.8848 18.2225 26.0064L16.8428 26.3805V25.0825C16.8428 24.6174 16.4657 24.2403 16.0005 24.2403Z" fill="#5A6474"/>
<path d="M26.6295 24.2403C26.1644 24.2403 25.7873 24.6174 25.7873 25.0825V26.3805L24.4076 26.0064C23.9585 25.8846 23.496 26.1501 23.3742 26.5992C23.2526 27.0481 23.5179 27.5107 23.967 27.6323L25.2942 27.9921L24.4919 29.2284C24.2388 29.6185 24.3498 30.1401 24.7401 30.3933C24.8817 30.4853 25.0406 30.5292 25.1978 30.5292C25.4736 30.5292 25.7438 30.3938 25.9052 30.1451L26.6417 29.0098L27.4398 30.1976C27.6024 30.4397 27.8685 30.5703 28.1397 30.5703C28.3011 30.5703 28.4644 30.5239 28.6086 30.4272C28.9946 30.1677 29.0975 29.6444 28.838 29.2582L27.9839 27.9869L29.2921 27.6323C29.741 27.5107 30.0065 27.0481 29.8847 26.5992C29.763 26.1501 29.3008 25.8848 28.8513 26.0064L27.4718 26.3805V25.0825C27.4718 24.6174 27.0947 24.2403 26.6295 24.2403Z" fill="#5A6474"/>
</g>
<defs>
<clipPath id="clip0_903_3304">
<rect width="32" height="32" fill="white" transform="translate(0 0.5)"/>
</clipPath>
</defs>
</svg>
