<svg width="16" height="15" viewBox="0 0 16 15" fill="none" xmlns="http://www.w3.org/2000/svg">
<path d="M15.5183 7.68747C15.5435 11.6666 12.2497 15.0457 8.09373 14.9636C4.23777 14.8878 0.959735 11.7708 0.962893 7.68747C0.966051 3.64519 4.18408 0.401896 8.26426 0.408212C12.3318 0.414528 15.5246 3.71783 15.5183 7.68747ZM1.85977 7.66221C1.95136 8.2275 1.99873 8.75489 2.12821 9.26333C2.53559 10.8487 3.44511 12.0898 4.81885 12.9803C5.97153 13.7288 7.23474 14.0509 8.61164 13.9751C9.37589 13.9309 10.1054 13.7667 10.797 13.4572C12.0697 12.8919 13.055 11.9982 13.7466 10.7855C14.2677 9.87283 14.5266 8.88437 14.5708 7.83906C14.5772 7.70326 14.5266 7.65905 14.3972 7.66221C14.2298 7.66853 14.0624 7.65589 13.8919 7.66537C13.7308 7.67484 13.6645 7.59589 13.6519 7.44431C13.6361 7.24219 13.6266 7.04008 13.595 6.84428C13.1687 4.2168 10.9644 2.33145 8.42848 2.26198C6.85262 2.21776 5.50098 2.75147 4.38936 3.8631C3.42616 4.8263 2.92087 6.01056 2.82929 7.36536C2.8135 7.58958 2.75034 7.68747 2.51664 7.66853C2.33348 7.64958 2.14084 7.66221 1.85977 7.66221Z" fill="#C7D5FA"/>
<path d="M7.783 5.50274C7.73879 5.88486 7.69773 6.25751 7.6472 6.627C7.61247 6.89228 7.55562 7.15439 7.52088 7.41967C7.46088 7.86811 7.91564 8.37971 8.39882 8.41445C8.88199 8.44919 9.40307 8.01022 9.37781 7.53967C9.34938 7.02176 9.26412 6.507 9.20096 5.99224C9.18201 5.83749 9.1599 5.68275 9.13779 5.52485C9.73466 5.54064 10.7831 6.42805 10.7989 7.65336C10.8116 8.79657 9.97783 9.93978 8.56935 10.0187C7.44193 10.0819 6.39662 9.33975 6.16293 8.08917C5.95134 6.94596 6.72506 5.71749 7.783 5.50274Z" fill="#C7D5FA"/>
<path d="M9.12159 7.45897C9.11527 7.85372 8.78684 8.14742 8.40472 8.11584C8.00996 8.0811 7.76679 7.75898 7.82364 7.33265C7.89312 6.81157 7.96575 6.28734 8.03523 5.76626C8.12997 5.0715 8.22155 4.37357 8.32261 3.6788C8.33208 3.60301 8.41103 3.53985 8.4584 3.47037C8.50577 3.53669 8.58472 3.59985 8.59736 3.67249C8.72684 4.57568 8.84684 5.47888 8.97 6.38208C9.01737 6.74525 9.07106 7.10843 9.12159 7.45897Z" fill="#C7D5FA"/>
</svg>
