<svg width="17" height="17" viewBox="0 0 17 17" fill="none" xmlns="http://www.w3.org/2000/svg">
<rect width="17" height="17" rx="8.5" fill="#FA0339"/>
<path d="M8.73419 3C5.70141 3 3.23438 5.46741 3.23438 8.50019C3.23438 8.89832 3.27683 9.28678 3.35802 9.66108L3.69955 8.927C3.68726 8.78622 3.6813 8.64395 3.6813 8.50019C3.6813 7.32998 4.0813 6.2514 4.75095 5.39404C4.78074 5.35605 4.81091 5.31844 4.84145 5.28156C4.853 5.26778 4.86417 5.254 4.87572 5.2406C4.91296 5.19665 4.95132 5.15307 4.99043 5.11024C5.91519 4.08939 7.25113 3.44693 8.73419 3.44693C10.2176 3.44693 11.5536 4.08939 12.4787 5.11024H13.0627C12.0549 3.82644 10.4891 3 8.73419 3ZM13.8139 6.39143L13.5461 6.95493C13.7029 7.44209 13.7874 7.96127 13.7874 8.50019C13.7874 11.2864 11.5208 13.5531 8.73419 13.5531C7.25113 13.5531 5.91482 12.9106 4.99005 11.8898H4.40607C5.41352 13.1739 6.97925 14 8.73419 14C11.767 14 14.2344 11.533 14.2344 8.50019C14.2344 7.75344 14.0847 7.04134 13.8139 6.39143ZM3.76287 9.40857L3.4597 10.0603C3.6273 10.6264 3.88391 11.1549 4.21352 11.6291H4.7692C4.26715 10.994 3.91408 10.2361 3.76287 9.40857ZM13.2552 5.37095H12.6996C12.9956 5.74525 13.2396 6.16201 13.4213 6.6108L13.6731 6.08082C13.5513 5.83315 13.4117 5.5959 13.2552 5.37095Z" fill="white"/>
<path d="M4.84261 5.28242L4.82324 5.24146H4.87687C4.86533 5.25486 4.85415 5.26864 4.84261 5.28242Z" fill="white"/>
<path d="M14.0107 5.37158L13.6729 6.08145L13.4211 6.61143L11.0341 11.6297H8.0051L6.88592 9.27735L5.75817 11.6297H2.72949L3.45947 10.061L3.76264 9.4092L5.33843 6.02335L5.02819 5.37158H8.06432L9.51944 8.43825L10.9746 5.37158H14.0107Z" fill="white"/>
</svg>
