<svg width="33" height="33" viewBox="0 0 33 33" fill="none" xmlns="http://www.w3.org/2000/svg">
<path d="M16.0003 24.4609C20.3901 24.4609 23.9615 20.8896 23.9615 16.4997C23.9615 12.1099 20.3901 8.53838 16.0003 8.53838C11.6105 8.53838 8.03906 12.1099 8.03906 16.4997C8.03906 20.8896 11.6105 24.4609 16.0003 24.4609Z" fill="#5A6474"/>
<path d="M15.1533 4.93608C15.1533 5.40398 15.5327 5.7832 16.0004 5.7832C16.4683 5.7832 16.8477 5.40398 16.8477 4.93608V1.3471C16.8477 0.879346 16.4683 0.499967 16.0004 0.499967C15.5327 0.499967 15.1533 0.879346 15.1533 1.3471V4.93608Z" fill="#5A6474"/>
<path d="M15.1533 28.0637V31.6527C15.1533 32.1206 15.5327 32.5 16.0004 32.5C16.4683 32.5 16.8477 32.1206 16.8477 31.6527V28.0637C16.8477 27.596 16.4683 27.2166 16.0004 27.2166C15.5327 27.2166 15.1533 27.596 15.1533 28.0637Z" fill="#5A6474"/>
<path d="M10.2187 7.33203C10.3626 7.33203 10.5082 7.29537 10.6416 7.2184C11.0468 6.98445 11.1857 6.4662 10.9517 6.06096L9.15726 2.95296C8.9233 2.54773 8.40505 2.40885 7.99997 2.64281C7.59474 2.87676 7.45585 3.39485 7.68981 3.80008L9.4843 6.90824C9.64113 7.18006 9.92589 7.33203 10.2187 7.33203Z" fill="#5A6474"/>
<path d="M21.3583 25.7797C20.9531 26.0136 20.8143 26.5317 21.0481 26.937L22.8428 30.0451C22.9996 30.3168 23.2844 30.4688 23.5772 30.4688C23.7209 30.4688 23.8667 30.4322 24.0001 30.3551C24.4053 30.1212 24.5442 29.6031 24.3102 29.1978L22.5157 26.0897C22.2818 25.6846 21.7635 25.5457 21.3583 25.7797Z" fill="#5A6474"/>
<path d="M2.14391 8.49905C1.90996 8.90428 2.04883 9.42253 2.45407 9.65648L5.56222 11.4508C5.69562 11.5279 5.84135 11.5645 5.9851 11.5645C6.27777 11.5645 6.56267 11.4125 6.7195 11.1408C6.95345 10.7356 6.81458 10.2173 6.4095 9.98338L3.30134 8.18904C2.89611 7.95509 2.37786 8.09381 2.14391 8.49905Z" fill="#5A6474"/>
<path d="M29.5461 23.3408L26.4381 21.5463C26.033 21.3125 25.5146 21.4511 25.2806 21.8565C25.0467 22.2615 25.1856 22.7798 25.5908 23.0138L28.6989 24.8082C28.8323 24.8852 28.9779 24.9219 29.1218 24.9219C29.4145 24.9219 29.6994 24.7699 29.8562 24.4981C30.0902 24.093 29.9513 23.5748 29.5461 23.3408Z" fill="#5A6474"/>
<path d="M5.28338 16.4984C5.28338 16.0305 4.90401 15.6512 4.43611 15.6512H0.847272C0.379368 15.6512 0 16.0305 0 16.4984C0 16.9663 0.379368 17.3457 0.847272 17.3457H4.43611C4.90401 17.3457 5.28338 16.9663 5.28338 16.4984Z" fill="#5A6474"/>
<path d="M31.154 15.6512H27.5651C27.0971 15.6512 26.7178 16.0305 26.7178 16.4984C26.7178 16.9663 27.0971 17.3457 27.5651 17.3457H31.154C31.6219 17.3457 32.0013 16.9663 32.0013 16.4984C32.0013 16.0305 31.6219 15.6512 31.154 15.6512Z" fill="#5A6474"/>
<path d="M5.56222 21.5463L2.45407 23.3408C2.04883 23.5748 1.90996 24.093 2.14391 24.4981C2.30089 24.7699 2.58565 24.9219 2.87847 24.9219C3.02222 24.9219 3.16794 24.8852 3.30134 24.8082L6.4095 23.0138C6.81458 22.7798 6.95345 22.2615 6.7195 21.8565C6.48555 21.4511 5.9673 21.3124 5.56222 21.5463Z" fill="#5A6474"/>
<path d="M28.6989 8.18904L25.5908 9.98338C25.1856 10.2173 25.0467 10.7356 25.2806 11.1408C25.4376 11.4125 25.7224 11.5645 26.0152 11.5645C26.1589 11.5645 26.3047 11.5279 26.4381 11.4508L29.5461 9.65648C29.9513 9.42253 30.0902 8.90428 29.8562 8.49905C29.6223 8.09381 29.104 7.95509 28.6989 8.18904Z" fill="#5A6474"/>
<path d="M9.4843 26.0897L7.68981 29.1978C7.45585 29.6031 7.59474 30.1213 7.99997 30.3551C8.13337 30.4322 8.2791 30.4688 8.42284 30.4688C8.71551 30.4688 9.00043 30.3168 9.15726 30.0451L10.9517 26.937C11.1857 26.5317 11.0468 26.0135 10.6416 25.7797C10.2365 25.5457 9.71825 25.6845 9.4843 26.0897Z" fill="#5A6474"/>
<path d="M21.3583 7.2184C21.4917 7.29537 21.6374 7.33203 21.7812 7.33203C22.074 7.33203 22.3588 7.18006 22.5157 6.90824L24.3102 3.80008C24.5442 3.39485 24.4053 2.87676 24.0001 2.64281C23.595 2.40901 23.0766 2.54773 22.8428 2.95296L21.0481 6.06096C20.8143 6.4662 20.9531 6.98429 21.3583 7.2184Z" fill="#5A6474"/>
</svg>
