<svg width="40" height="247" viewBox="0 0 40 247" fill="none" xmlns="http://www.w3.org/2000/svg">
<rect x="6.70117" y="157.65" width="3.6083" height="9.02075" fill="white"/>
<rect x="13.3184" y="19.8447" width="3.00692" height="9.02075" transform="rotate(90 13.3184 19.8447)" fill="white"/>
<rect x="12.1143" y="243.583" width="3.00692" height="6.61521" transform="rotate(90 12.1143 243.583)" fill="white"/>
<rect x="13.9199" width="3.00692" height="9.02075" transform="rotate(90 13.9199 0)" fill="white"/>
<path d="M19 106.893L15.6159 106.298L15.6159 102.937L19 102.318L19 100.173L2.84209 103.319L2.84209 105.773L19 108.895L19 106.893ZM6.29769 104.629L6.29769 104.606L13.9 103.247L13.9 105.988L6.29769 104.629ZM11.4453 100.159L11.4453 96.6085L9.75329 96.6085L9.75329 100.159L11.4453 100.159ZM17.4271 91.6141C17.4271 92.8295 16.5215 93.3538 15.3061 93.3538L6.53601 93.3538C5.32059 93.3538 4.41498 92.8295 4.41498 91.6141C4.41498 90.3987 5.32059 89.8744 6.53601 89.8744L15.3061 89.8744C16.5215 89.8744 17.4271 90.3987 17.4271 91.6141ZM19.1668 91.6141C19.1668 88.9926 17.3556 87.7772 14.9724 87.7772L6.86965 87.7772C4.48648 87.7772 2.67527 88.9926 2.67527 91.6141C2.67527 94.2356 4.48648 95.451 6.86965 95.451L14.9724 95.451C17.3556 95.451 19.1668 94.2356 19.1668 91.6141ZM37.4271 104.629C37.4271 105.845 36.5215 106.369 35.3061 106.369L26.536 106.369C25.3206 106.369 24.415 105.845 24.415 104.629C24.415 103.414 25.3206 102.89 26.536 102.89L35.3061 102.89C36.5215 102.89 37.4271 103.414 37.4271 104.629ZM39.1668 104.629C39.1668 102.008 37.3556 100.792 34.9724 100.792L26.8697 100.792C24.4865 100.792 22.6753 102.008 22.6753 104.629C22.6753 107.251 24.4865 108.466 26.8697 108.466L34.9724 108.466C37.3556 108.466 39.1668 107.251 39.1668 104.629ZM39 99.4812L39 92.713L37.2841 92.713L37.2841 97.4793L36.1879 97.4793C34.7818 97.4793 34.2813 97.0027 33.3995 96.1924L31.4453 94.3574C29.9916 93.0228 28.9907 92.6177 27.4893 92.6177L25.9402 92.6177C23.7715 92.6177 22.6753 93.7377 22.6753 96.0018C22.6753 98.2181 23.8669 99.4335 26.0832 99.4335L27.9897 99.4335L27.9897 97.4793L26.0355 97.4793C24.7963 97.4793 24.3673 96.8835 24.3673 96.0494C24.3673 95.263 24.7248 94.6672 25.9402 94.6672L27.3225 94.6672C28.5855 94.6672 29.2767 94.9532 30.2776 95.8826L32.0173 97.5032C33.5664 98.9092 34.5196 99.4812 36.1879 99.4812L39 99.4812Z" fill="white"/>
</svg>
