<svg width="1019" height="742" viewBox="0 0 1019 742" fill="none" xmlns="http://www.w3.org/2000/svg">
<path d="M15.5486 280.2V283.464H6.90863C6.49263 283.464 6.19663 283.552 6.02063 283.728C5.86063 283.888 5.78063 284.176 5.78063 284.592V286.92H15.3326V290.04H5.78063V292.608C5.78063 293.024 5.86063 293.32 6.02063 293.496C6.19663 293.656 6.49263 293.736 6.90863 293.736H15.6446V297H4.00463C2.30863 297 1.46063 296.144 1.46063 294.432V282.792C1.46063 281.064 2.30863 280.2 4.00463 280.2H15.5486ZM28.8126 297H22.4766C20.4446 297 19.0446 296.464 18.2766 295.392C17.5086 294.32 17.1246 292.736 17.1246 290.64C17.1246 288.544 17.5086 286.96 18.2766 285.888C19.0446 284.816 20.4446 284.28 22.4766 284.28H28.5486V287.04H23.9166C22.7806 287.04 22.0046 287.344 21.5886 287.952C21.1726 288.544 20.9646 289.44 20.9646 290.64C20.9646 291.84 21.1726 292.744 21.5886 293.352C22.0046 293.944 22.7806 294.24 23.9166 294.24H28.8126V297ZM31.0373 285.528C32.1093 284.6 33.9253 284.136 36.4853 284.136C39.0453 284.136 40.8613 284.6 41.9333 285.528C43.0053 286.44 43.5413 288.144 43.5413 290.64C43.5413 293.152 43.0053 294.864 41.9333 295.776C40.8613 296.688 39.0453 297.144 36.4853 297.144C33.9253 297.144 32.1093 296.688 31.0373 295.776C29.9653 294.864 29.4293 293.152 29.4293 290.64C29.4293 288.144 29.9653 286.44 31.0373 285.528ZM33.9653 287.784C33.5013 288.376 33.2693 289.328 33.2693 290.64C33.2693 291.952 33.5013 292.904 33.9653 293.496C34.4293 294.088 35.2693 294.384 36.4853 294.384C37.7013 294.384 38.5413 294.088 39.0053 293.496C39.4693 292.904 39.7013 291.952 39.7013 290.64C39.7013 289.328 39.4693 288.376 39.0053 287.784C38.5413 287.192 37.7013 286.896 36.4853 286.896C35.2693 286.896 34.4293 287.192 33.9653 287.784ZM44.8757 297V294.24H51.9317C52.5077 294.24 52.7957 293.984 52.7957 293.472C52.7957 293.312 52.7477 293.168 52.6517 293.04C52.5557 292.912 52.4117 292.808 52.2197 292.728C52.0277 292.632 51.8437 292.56 51.6677 292.512C51.5077 292.448 51.3077 292.392 51.0677 292.344C50.8277 292.28 50.6597 292.232 50.5637 292.2L47.9717 291.408C46.7717 291.04 45.9317 290.584 45.4517 290.04C44.9717 289.496 44.7317 288.704 44.7317 287.664C44.7317 286.496 45.0117 285.64 45.5717 285.096C46.1477 284.552 47.0357 284.28 48.2357 284.28H56.1557V287.04H49.3397C48.6677 287.04 48.3317 287.256 48.3317 287.688C48.3317 287.992 48.4597 288.224 48.7157 288.384C48.9877 288.528 49.3797 288.68 49.8917 288.84L52.8677 289.752C53.5077 289.944 54.0197 290.128 54.4037 290.304C54.7877 290.464 55.1717 290.696 55.5557 291C55.9397 291.288 56.2117 291.656 56.3717 292.104C56.5477 292.552 56.6357 293.088 56.6357 293.712C56.6357 294.816 56.3717 295.64 55.8437 296.184C55.3317 296.728 54.5157 297 53.3957 297H44.8757ZM72.1155 284.28L64.5315 301.104H60.7395L62.7075 296.976L56.8515 284.28H60.6915L64.4595 293.208L68.3235 284.28H72.1155ZM72.4851 297V294.24H79.5411C80.1171 294.24 80.4051 293.984 80.4051 293.472C80.4051 293.312 80.3571 293.168 80.2611 293.04C80.1651 292.912 80.0211 292.808 79.8291 292.728C79.6371 292.632 79.4531 292.56 79.2771 292.512C79.1171 292.448 78.9171 292.392 78.6771 292.344C78.4371 292.28 78.2691 292.232 78.1731 292.2L75.5811 291.408C74.3811 291.04 73.5411 290.584 73.0611 290.04C72.5811 289.496 72.3411 288.704 72.3411 287.664C72.3411 286.496 72.6211 285.64 73.1811 285.096C73.7571 284.552 74.6451 284.28 75.8451 284.28H83.7651V287.04H76.9491C76.2771 287.04 75.9411 287.256 75.9411 287.688C75.9411 287.992 76.0691 288.224 76.3251 288.384C76.5971 288.528 76.9891 288.68 77.5011 288.84L80.4771 289.752C81.1171 289.944 81.6291 290.128 82.0131 290.304C82.3971 290.464 82.7811 290.696 83.1651 291C83.5491 291.288 83.8211 291.656 83.9811 292.104C84.1571 292.552 84.2451 293.088 84.2451 293.712C84.2451 294.816 83.9811 295.64 83.4531 296.184C82.9411 296.728 82.1251 297 81.0051 297H72.4851ZM94.0129 297H91.3969C88.2449 297 86.6689 295.592 86.6689 292.776V287.04H84.8929V284.28H86.6689V280.2H90.4129V284.28H94.0129V287.04H90.4129V291.408C90.4129 292.384 90.6449 293.104 91.1089 293.568C91.5729 294.016 92.3089 294.24 93.3169 294.24H94.0129V297ZM107.278 297H99.5976C97.6296 297 96.3256 296.544 95.6856 295.632C95.0616 294.72 94.7496 293.04 94.7496 290.592C94.7496 289.216 94.8456 288.12 95.0376 287.304C95.2296 286.488 95.5896 285.84 96.1176 285.36C96.6456 284.864 97.2936 284.536 98.0616 284.376C98.8456 284.216 99.9016 284.136 101.23 284.136C102.382 284.136 103.318 284.2 104.038 284.328C104.758 284.44 105.414 284.672 106.006 285.024C106.614 285.376 107.046 285.896 107.302 286.584C107.574 287.272 107.71 288.16 107.71 289.248C107.71 291.008 107.046 291.888 105.718 291.888H98.5416C98.5416 292.72 98.7176 293.336 99.0696 293.736C99.4376 294.12 100.11 294.312 101.086 294.312H107.278V297ZM98.5416 289.296H103.198C103.662 289.296 103.894 289.04 103.894 288.528C103.894 287.936 103.622 287.504 103.078 287.232C102.55 286.96 101.934 286.824 101.23 286.824C100.302 286.824 99.6216 287.008 99.1896 287.376C98.7576 287.744 98.5416 288.384 98.5416 289.296ZM109.36 297V286.68C109.36 285.08 110.16 284.28 111.76 284.28H122.992C124.56 284.28 125.784 284.656 126.664 285.408C127.544 286.144 127.984 287.296 127.984 288.864V297H124.24V289.824C124.24 288.848 124.04 288.144 123.64 287.712C123.24 287.264 122.568 287.04 121.624 287.04H120.544V297H116.8V287.04H113.944C113.64 287.04 113.424 287.104 113.296 287.232C113.168 287.36 113.104 287.576 113.104 287.88V297H109.36Z" fill="#DEE3EB"/>
<path d="M78.465 327V323.736H85.665C86.545 323.736 87.161 323.624 87.513 323.4C87.881 323.176 88.065 322.696 88.065 321.96C88.065 321.32 87.913 320.848 87.609 320.544C87.305 320.24 86.769 320.088 86.001 320.088H78.873V316.968H85.785C86.473 316.968 86.969 316.832 87.273 316.56C87.593 316.272 87.753 315.808 87.753 315.168C87.753 314.592 87.609 314.168 87.321 313.896C87.033 313.608 86.561 313.464 85.905 313.464H78.705V310.2H88.137C89.529 310.2 90.537 310.56 91.161 311.28C91.801 312 92.121 313.096 92.121 314.568C92.121 315.64 91.937 316.512 91.569 317.184C91.201 317.84 90.513 318.24 89.505 318.384V318.48C90.577 318.544 91.337 318.904 91.785 319.56C92.249 320.2 92.481 321.112 92.481 322.296C92.481 323.8 92.169 324.96 91.545 325.776C90.921 326.592 89.833 327 88.281 327H78.465ZM98.0321 310.296C98.8641 310.136 99.9521 310.056 101.296 310.056C102.64 310.056 103.728 310.136 104.56 310.296C105.392 310.456 106.112 310.768 106.72 311.232C107.344 311.696 107.784 312.352 108.04 313.2C108.296 314.032 108.424 315.12 108.424 316.464V320.592C108.424 321.968 108.296 323.088 108.04 323.952C107.784 324.8 107.344 325.464 106.72 325.944C106.112 326.408 105.392 326.728 104.56 326.904C103.728 327.064 102.64 327.144 101.296 327.144C99.9521 327.144 98.8641 327.064 98.0321 326.904C97.2001 326.728 96.4721 326.408 95.8481 325.944C95.2401 325.464 94.8081 324.8 94.5521 323.952C94.2961 323.088 94.1681 321.968 94.1681 320.592V316.464C94.1681 315.12 94.2961 314.032 94.5521 313.2C94.8081 312.352 95.2401 311.696 95.8481 311.232C96.4721 310.768 97.2001 310.456 98.0321 310.296ZM101.296 323.784C102.384 323.784 103.12 323.552 103.504 323.088C103.904 322.624 104.104 321.776 104.104 320.544V316.536C104.104 315.368 103.904 314.56 103.504 314.112C103.12 313.648 102.384 313.416 101.296 313.416C100.224 313.416 99.4881 313.648 99.0881 314.112C98.6881 314.576 98.4881 315.384 98.4881 316.536V320.544C98.4881 321.76 98.6881 322.608 99.0881 323.088C99.4881 323.552 100.224 323.784 101.296 323.784ZM113.37 327L122.538 310.2H124.962L115.794 327H113.37ZM111.09 310.992C111.682 310.368 112.738 310.056 114.258 310.056C115.778 310.056 116.826 310.368 117.402 310.992C117.978 311.616 118.266 312.656 118.266 314.112C118.266 315.568 117.978 316.608 117.402 317.232C116.826 317.856 115.778 318.168 114.258 318.168C112.738 318.168 111.682 317.856 111.09 317.232C110.514 316.608 110.226 315.568 110.226 314.112C110.226 312.656 110.514 311.616 111.09 310.992ZM112.986 312.6C112.762 312.904 112.65 313.408 112.65 314.112C112.65 314.816 112.762 315.328 112.986 315.648C113.226 315.952 113.65 316.104 114.258 316.104C114.866 316.104 115.282 315.952 115.506 315.648C115.73 315.328 115.842 314.816 115.842 314.112C115.842 313.408 115.73 312.904 115.506 312.6C115.282 312.28 114.866 312.12 114.258 312.12C113.65 312.12 113.226 312.28 112.986 312.6ZM120.858 319.992C121.45 319.368 122.506 319.056 124.026 319.056C125.546 319.056 126.594 319.368 127.17 319.992C127.746 320.616 128.034 321.656 128.034 323.112C128.034 324.568 127.746 325.608 127.17 326.232C126.594 326.84 125.546 327.144 124.026 327.144C122.506 327.144 121.45 326.84 120.858 326.232C120.282 325.608 119.994 324.568 119.994 323.112C119.994 321.656 120.282 320.616 120.858 319.992ZM122.754 321.576C122.53 321.896 122.418 322.408 122.418 323.112C122.418 323.816 122.53 324.328 122.754 324.648C122.994 324.952 123.418 325.104 124.026 325.104C124.634 325.104 125.05 324.952 125.274 324.648C125.498 324.328 125.61 323.816 125.61 323.112C125.61 322.392 125.498 321.88 125.274 321.576C125.05 321.256 124.634 321.096 124.026 321.096C123.418 321.096 122.994 321.256 122.754 321.576Z" fill="#FA0339"/>
<path d="M76.6459 577H72.3259V563.56H66.0859V560.2H82.8859V563.56H76.6459V577ZM82.4689 577V569.32C82.4689 567.496 82.9329 566.2 83.8609 565.432C84.7889 564.664 86.2209 564.28 88.1569 564.28H90.6769V567.04H89.1889C88.1169 567.04 87.3489 567.32 86.8849 567.88C86.4369 568.424 86.2129 569.272 86.2129 570.424V577H82.4689ZM103.942 577H96.2616C94.2936 577 92.9896 576.544 92.3496 575.632C91.7256 574.72 91.4136 573.04 91.4136 570.592C91.4136 569.216 91.5096 568.12 91.7016 567.304C91.8936 566.488 92.2536 565.84 92.7816 565.36C93.3096 564.864 93.9576 564.536 94.7256 564.376C95.5096 564.216 96.5656 564.136 97.8936 564.136C99.0456 564.136 99.9816 564.2 100.702 564.328C101.422 564.44 102.078 564.672 102.67 565.024C103.278 565.376 103.71 565.896 103.966 566.584C104.238 567.272 104.374 568.16 104.374 569.248C104.374 571.008 103.71 571.888 102.382 571.888H95.2056C95.2056 572.72 95.3816 573.336 95.7336 573.736C96.1016 574.12 96.7736 574.312 97.7496 574.312H103.942V577ZM95.2056 569.296H99.8616C100.326 569.296 100.558 569.04 100.558 568.528C100.558 567.936 100.286 567.504 99.7416 567.232C99.2136 566.96 98.5976 566.824 97.8936 566.824C96.9656 566.824 96.2856 567.008 95.8536 567.376C95.4216 567.744 95.2056 568.384 95.2056 569.296ZM106.552 564.28H114.4C115.632 564.28 116.592 564.648 117.28 565.384C117.984 566.12 118.336 567.096 118.336 568.312V574.6C118.336 576.2 117.536 577 115.936 577H108.808C107.688 577 106.88 576.68 106.384 576.04C105.904 575.384 105.664 574.376 105.664 573.016C105.664 570.376 106.712 569.056 108.808 569.056H114.592V568.504C114.592 567.48 114.056 566.968 112.984 566.968H106.552V564.28ZM114.592 571.648H110.584C109.832 571.648 109.456 572.112 109.456 573.04C109.456 573.952 109.824 574.408 110.56 574.408H113.752C114.056 574.408 114.272 574.344 114.4 574.216C114.528 574.088 114.592 573.872 114.592 573.568V571.648ZM120.032 577V574.24H127.088C127.664 574.24 127.952 573.984 127.952 573.472C127.952 573.312 127.904 573.168 127.808 573.04C127.712 572.912 127.568 572.808 127.376 572.728C127.184 572.632 127 572.56 126.824 572.512C126.664 572.448 126.464 572.392 126.224 572.344C125.984 572.28 125.816 572.232 125.72 572.2L123.128 571.408C121.928 571.04 121.088 570.584 120.608 570.04C120.128 569.496 119.888 568.704 119.888 567.664C119.888 566.496 120.168 565.64 120.728 565.096C121.304 564.552 122.192 564.28 123.392 564.28H131.312V567.04H124.496C123.824 567.04 123.488 567.256 123.488 567.688C123.488 567.992 123.616 568.224 123.872 568.384C124.144 568.528 124.536 568.68 125.048 568.84L128.024 569.752C128.664 569.944 129.176 570.128 129.56 570.304C129.944 570.464 130.328 570.696 130.712 571C131.096 571.288 131.368 571.656 131.528 572.104C131.704 572.552 131.792 573.088 131.792 573.712C131.792 574.816 131.528 575.64 131 576.184C130.488 576.728 129.672 577 128.552 577H120.032ZM146.12 564.28V574.6C146.12 576.2 145.32 577 143.72 577H138.344C136.776 577 135.552 576.632 134.672 575.896C133.792 575.16 133.352 574.008 133.352 572.44V564.28H137.096V571.48C137.096 572.456 137.304 573.168 137.72 573.616C138.136 574.048 138.816 574.264 139.76 574.264H141.512C141.816 574.264 142.032 574.2 142.16 574.072C142.288 573.944 142.352 573.728 142.352 573.424V564.28H146.12ZM148.141 577V569.32C148.141 567.496 148.605 566.2 149.533 565.432C150.461 564.664 151.893 564.28 153.829 564.28H156.349V567.04H154.861C153.789 567.04 153.021 567.32 152.557 567.88C152.109 568.424 151.885 569.272 151.885 570.424V577H148.141ZM172.326 564.28L164.742 581.104H160.95L162.918 576.976L157.062 564.28H160.902L164.67 573.208L168.534 564.28H172.326Z" fill="#DEE3EB"/>
<path d="M97.1941 607H85.8181C85.2421 607 84.7541 606.784 84.3541 606.352C83.9541 605.92 83.7541 605.288 83.7541 604.456C83.7541 603.144 84.1701 602.232 85.0021 601.72L92.4181 597.184C93.0581 596.784 93.3781 596.136 93.3781 595.24C93.3781 594.6 93.2501 594.16 92.9941 593.92C92.7381 593.68 92.2741 593.56 91.6021 593.56H84.8101V590.2H93.7621C95.1861 590.2 96.1941 590.568 96.7861 591.304C97.3941 592.04 97.6981 593.176 97.6981 594.712C97.6981 596.088 97.5221 597.12 97.1701 597.808C96.8341 598.496 96.2181 599.104 95.3221 599.632L89.3941 603.232C89.2341 603.312 89.1541 603.4 89.1541 603.496C89.1541 603.592 89.2101 603.64 89.3221 603.64H97.1941V607ZM99.5549 607V603.736H107.187C108.323 603.736 108.891 603.096 108.891 601.816C108.891 601.208 108.755 600.76 108.483 600.472C108.227 600.168 107.795 600.016 107.187 600.016H102.435C101.395 600.016 100.627 599.784 100.131 599.32C99.6349 598.84 99.3869 598.008 99.3869 596.824V592.624C99.3869 591.008 100.251 590.2 101.979 590.2H112.683V593.464H104.715C104.395 593.464 104.147 593.536 103.971 593.68C103.795 593.824 103.707 594.104 103.707 594.52V595.552C103.707 596.032 103.795 596.376 103.971 596.584C104.163 596.792 104.483 596.896 104.931 596.896H109.251C110.755 596.896 111.803 597.304 112.395 598.12C113.003 598.936 113.307 600.176 113.307 601.84C113.307 603.568 113.019 604.864 112.443 605.728C111.867 606.576 110.803 607 109.251 607H99.5549ZM119.316 607H115.476V603.304H119.316V607ZM127.297 590.2H129.865C130.857 590.2 131.657 590.256 132.265 590.368C132.873 590.464 133.425 590.672 133.921 590.992C134.433 591.312 134.793 591.784 135.001 592.408C135.225 593.032 135.337 593.848 135.337 594.856C135.337 596.92 134.537 598.096 132.937 598.384V598.48C133.993 598.656 134.721 599.072 135.121 599.728C135.521 600.368 135.721 601.296 135.721 602.512C135.721 604.192 135.313 605.36 134.497 606.016C133.681 606.672 132.369 607 130.561 607H126.625C124.897 607 123.601 606.672 122.737 606.016C121.889 605.344 121.465 604.176 121.465 602.512C121.465 601.264 121.649 600.328 122.017 599.704C122.401 599.064 123.145 598.656 124.249 598.48V598.384C123.449 598.272 122.849 597.896 122.449 597.256C122.049 596.6 121.849 595.8 121.849 594.856C121.849 593.848 121.953 593.032 122.161 592.408C122.385 591.784 122.745 591.312 123.241 590.992C123.737 590.672 124.289 590.464 124.897 590.368C125.505 590.256 126.305 590.2 127.297 590.2ZM127.849 596.944H129.337C129.929 596.944 130.337 596.808 130.561 596.536C130.801 596.264 130.921 595.816 130.921 595.192C130.921 594.568 130.793 594.128 130.537 593.872C130.297 593.6 129.857 593.464 129.217 593.464H127.969C127.329 593.464 126.881 593.6 126.625 593.872C126.385 594.128 126.265 594.568 126.265 595.192C126.265 595.816 126.377 596.264 126.601 596.536C126.841 596.808 127.257 596.944 127.849 596.944ZM127.681 603.736H129.505C130.145 603.736 130.601 603.592 130.873 603.304C131.161 603 131.305 602.52 131.305 601.864C131.305 601.224 131.153 600.768 130.849 600.496C130.545 600.208 130.081 600.064 129.457 600.064H127.729C127.105 600.064 126.641 600.208 126.337 600.496C126.033 600.768 125.881 601.224 125.881 601.864C125.881 602.52 126.017 603 126.289 603.304C126.577 603.592 127.041 603.736 127.681 603.736ZM137.403 607V603.736H144.603C145.483 603.736 146.099 603.624 146.451 603.4C146.819 603.176 147.003 602.696 147.003 601.96C147.003 601.32 146.851 600.848 146.547 600.544C146.243 600.24 145.707 600.088 144.939 600.088H137.811V596.968H144.723C145.411 596.968 145.907 596.832 146.211 596.56C146.531 596.272 146.691 595.808 146.691 595.168C146.691 594.592 146.547 594.168 146.259 593.896C145.971 593.608 145.499 593.464 144.843 593.464H137.643V590.2H147.075C148.467 590.2 149.475 590.56 150.099 591.28C150.739 592 151.059 593.096 151.059 594.568C151.059 595.64 150.875 596.512 150.507 597.184C150.139 597.84 149.451 598.24 148.443 598.384V598.48C149.515 598.544 150.275 598.904 150.723 599.56C151.187 600.2 151.419 601.112 151.419 602.296C151.419 603.8 151.107 604.96 150.483 605.776C149.859 606.592 148.771 607 147.219 607H137.403ZM156.37 607L165.538 590.2H167.962L158.794 607H156.37ZM154.09 590.992C154.682 590.368 155.738 590.056 157.258 590.056C158.778 590.056 159.826 590.368 160.402 590.992C160.978 591.616 161.266 592.656 161.266 594.112C161.266 595.568 160.978 596.608 160.402 597.232C159.826 597.856 158.778 598.168 157.258 598.168C155.738 598.168 154.682 597.856 154.09 597.232C153.514 596.608 153.226 595.568 153.226 594.112C153.226 592.656 153.514 591.616 154.09 590.992ZM155.986 592.6C155.762 592.904 155.65 593.408 155.65 594.112C155.65 594.816 155.762 595.328 155.986 595.648C156.226 595.952 156.65 596.104 157.258 596.104C157.866 596.104 158.282 595.952 158.506 595.648C158.73 595.328 158.842 594.816 158.842 594.112C158.842 593.408 158.73 592.904 158.506 592.6C158.282 592.28 157.866 592.12 157.258 592.12C156.65 592.12 156.226 592.28 155.986 592.6ZM163.858 599.992C164.45 599.368 165.506 599.056 167.026 599.056C168.546 599.056 169.594 599.368 170.17 599.992C170.746 600.616 171.034 601.656 171.034 603.112C171.034 604.568 170.746 605.608 170.17 606.232C169.594 606.84 168.546 607.144 167.026 607.144C165.506 607.144 164.45 606.84 163.858 606.232C163.282 605.608 162.994 604.568 162.994 603.112C162.994 601.656 163.282 600.616 163.858 599.992ZM165.754 601.576C165.53 601.896 165.418 602.408 165.418 603.112C165.418 603.816 165.53 604.328 165.754 604.648C165.994 604.952 166.418 605.104 167.026 605.104C167.634 605.104 168.05 604.952 168.274 604.648C168.498 604.328 168.61 603.816 168.61 603.112C168.61 602.392 168.498 601.88 168.274 601.576C168.05 601.256 167.634 601.096 167.026 601.096C166.418 601.096 165.994 601.256 165.754 601.576Z" fill="#FA0339"/>
<path d="M92.1869 93H87.8669V78.792C87.8669 77.064 88.7149 76.2 90.4109 76.2H99.3389C100.251 76.2 101.011 76.336 101.619 76.608C102.227 76.864 102.691 77.264 103.011 77.808C103.331 78.336 103.555 78.928 103.683 79.584C103.811 80.224 103.875 80.992 103.875 81.888C103.875 83.76 103.547 85.184 102.891 86.16C102.251 87.136 101.067 87.624 99.3389 87.624H92.1869V93ZM92.1869 84.264H97.1069C97.9869 84.264 98.5949 84.088 98.9309 83.736C99.2829 83.368 99.4589 82.752 99.4589 81.888C99.4589 81.04 99.2829 80.44 98.9309 80.088C98.5949 79.736 97.9869 79.56 97.1069 79.56H93.3149C92.8989 79.56 92.6029 79.648 92.4269 79.824C92.2669 79.984 92.1869 80.272 92.1869 80.688V84.264ZM105.367 93V85.32C105.367 83.496 105.831 82.2 106.759 81.432C107.687 80.664 109.119 80.28 111.055 80.28H113.575V83.04H112.087C111.015 83.04 110.247 83.32 109.783 83.88C109.335 84.424 109.111 85.272 109.111 86.424V93H105.367ZM114.672 93V80.28H118.416V93H114.672ZM118.416 78.936H114.672V76.2H118.416V78.936ZM123.078 80.28L126.318 88.68C126.446 88.984 126.558 89.136 126.654 89.136C126.734 89.136 126.838 88.984 126.966 88.68L130.206 80.28H134.094L128.982 92.016C128.774 92.496 128.478 92.808 128.094 92.952C127.71 93.08 127.23 93.144 126.654 93.144C126.286 93.144 125.982 93.128 125.742 93.096C125.502 93.064 125.238 92.96 124.95 92.784C124.662 92.608 124.446 92.352 124.302 92.016L119.19 80.28H123.078ZM135.145 80.28H142.993C144.225 80.28 145.185 80.648 145.873 81.384C146.577 82.12 146.929 83.096 146.929 84.312V90.6C146.929 92.2 146.129 93 144.529 93H137.401C136.281 93 135.473 92.68 134.977 92.04C134.497 91.384 134.257 90.376 134.257 89.016C134.257 86.376 135.305 85.056 137.401 85.056H143.185V84.504C143.185 83.48 142.649 82.968 141.577 82.968H135.145V80.28ZM143.185 87.648H139.177C138.425 87.648 138.049 88.112 138.049 89.04C138.049 89.952 138.417 90.408 139.153 90.408H142.345C142.649 90.408 142.865 90.344 142.993 90.216C143.121 90.088 143.185 89.872 143.185 89.568V87.648ZM157.146 93H154.53C151.378 93 149.802 91.592 149.802 88.776V83.04H148.026V80.28H149.802V76.2H153.546V80.28H157.146V83.04H153.546V87.408C153.546 88.384 153.778 89.104 154.242 89.568C154.706 90.016 155.442 90.24 156.45 90.24H157.146V93ZM170.41 93H162.73C160.762 93 159.458 92.544 158.818 91.632C158.194 90.72 157.882 89.04 157.882 86.592C157.882 85.216 157.978 84.12 158.17 83.304C158.362 82.488 158.722 81.84 159.25 81.36C159.778 80.864 160.426 80.536 161.194 80.376C161.978 80.216 163.034 80.136 164.362 80.136C165.514 80.136 166.45 80.2 167.17 80.328C167.89 80.44 168.546 80.672 169.138 81.024C169.746 81.376 170.178 81.896 170.434 82.584C170.706 83.272 170.842 84.16 170.842 85.248C170.842 87.008 170.178 87.888 168.85 87.888H161.674C161.674 88.72 161.85 89.336 162.202 89.736C162.57 90.12 163.242 90.312 164.218 90.312H170.41V93ZM161.674 85.296H166.33C166.794 85.296 167.026 85.04 167.026 84.528C167.026 83.936 166.754 83.504 166.21 83.232C165.682 82.96 165.066 82.824 164.362 82.824C163.434 82.824 162.754 83.008 162.322 83.376C161.89 83.744 161.674 84.384 161.674 85.296ZM177.998 93V89.64H187.31C187.662 89.64 187.934 89.568 188.126 89.424C188.318 89.264 188.43 89.12 188.462 88.992C188.494 88.848 188.51 88.68 188.51 88.488C188.51 87.848 188.078 87.392 187.214 87.12L180.638 85.152C179.598 84.848 178.862 84.304 178.43 83.52C178.014 82.736 177.806 81.712 177.806 80.448C177.806 77.616 179.102 76.2 181.694 76.2H192.062V79.56H183.374C182.59 79.56 182.198 79.928 182.198 80.664C182.198 81.336 182.646 81.808 183.542 82.08L189.446 83.808C190.71 84.176 191.606 84.712 192.134 85.416C192.662 86.12 192.926 87.16 192.926 88.536C192.926 91.512 191.646 93 189.086 93H177.998ZM195.192 80.28H203.04C204.272 80.28 205.232 80.648 205.92 81.384C206.624 82.12 206.976 83.096 206.976 84.312V90.6C206.976 92.2 206.176 93 204.576 93H197.448C196.328 93 195.52 92.68 195.024 92.04C194.544 91.384 194.304 90.376 194.304 89.016C194.304 86.376 195.352 85.056 197.448 85.056H203.232V84.504C203.232 83.48 202.696 82.968 201.624 82.968H195.192V80.28ZM203.232 87.648H199.224C198.472 87.648 198.096 88.112 198.096 89.04C198.096 89.952 198.464 90.408 199.2 90.408H202.392C202.696 90.408 202.912 90.344 203.04 90.216C203.168 90.088 203.232 89.872 203.232 89.568V87.648ZM208.985 93V76.2H212.729V93H208.985ZM226.918 93H219.238C217.27 93 215.966 92.544 215.326 91.632C214.702 90.72 214.39 89.04 214.39 86.592C214.39 85.216 214.486 84.12 214.678 83.304C214.87 82.488 215.23 81.84 215.758 81.36C216.286 80.864 216.934 80.536 217.702 80.376C218.486 80.216 219.542 80.136 220.87 80.136C222.022 80.136 222.958 80.2 223.678 80.328C224.398 80.44 225.054 80.672 225.646 81.024C226.254 81.376 226.686 81.896 226.942 82.584C227.214 83.272 227.35 84.16 227.35 85.248C227.35 87.008 226.686 87.888 225.358 87.888H218.182C218.182 88.72 218.358 89.336 218.71 89.736C219.078 90.12 219.75 90.312 220.726 90.312H226.918V93ZM218.182 85.296H222.838C223.302 85.296 223.534 85.04 223.534 84.528C223.534 83.936 223.262 83.504 222.718 83.232C222.19 82.96 221.574 82.824 220.87 82.824C219.942 82.824 219.262 83.008 218.83 83.376C218.398 83.744 218.182 84.384 218.182 85.296ZM228.688 93V90.24H235.744C236.32 90.24 236.608 89.984 236.608 89.472C236.608 89.312 236.56 89.168 236.464 89.04C236.368 88.912 236.224 88.808 236.032 88.728C235.84 88.632 235.656 88.56 235.48 88.512C235.32 88.448 235.12 88.392 234.88 88.344C234.64 88.28 234.472 88.232 234.376 88.2L231.784 87.408C230.584 87.04 229.744 86.584 229.264 86.04C228.784 85.496 228.544 84.704 228.544 83.664C228.544 82.496 228.824 81.64 229.384 81.096C229.96 80.552 230.848 80.28 232.048 80.28H239.968V83.04H233.152C232.48 83.04 232.144 83.256 232.144 83.688C232.144 83.992 232.272 84.224 232.528 84.384C232.8 84.528 233.192 84.68 233.704 84.84L236.68 85.752C237.32 85.944 237.832 86.128 238.216 86.304C238.6 86.464 238.984 86.696 239.368 87C239.752 87.288 240.024 87.656 240.184 88.104C240.36 88.552 240.448 89.088 240.448 89.712C240.448 90.816 240.184 91.64 239.656 92.184C239.144 92.728 238.328 93 237.208 93H228.688Z" fill="#DEE3EB"/>
<path d="M161.917 123V110.832C161.917 110.4 161.861 110.08 161.749 109.872C161.653 109.664 161.413 109.56 161.029 109.56H159.109V106.2H163.813C164.597 106.2 165.197 106.408 165.613 106.824C166.029 107.24 166.237 107.84 166.237 108.624V123H161.917ZM168.555 123V119.736H176.187C177.323 119.736 177.891 119.096 177.891 117.816C177.891 117.208 177.755 116.76 177.483 116.472C177.227 116.168 176.795 116.016 176.187 116.016H171.435C170.395 116.016 169.627 115.784 169.131 115.32C168.635 114.84 168.387 114.008 168.387 112.824V108.624C168.387 107.008 169.251 106.2 170.979 106.2H181.683V109.464H173.715C173.395 109.464 173.147 109.536 172.971 109.68C172.795 109.824 172.707 110.104 172.707 110.52V111.552C172.707 112.032 172.795 112.376 172.971 112.584C173.163 112.792 173.483 112.896 173.931 112.896H178.251C179.755 112.896 180.803 113.304 181.395 114.12C182.003 114.936 182.307 116.176 182.307 117.84C182.307 119.568 182.019 120.864 181.443 121.728C180.867 122.576 179.803 123 178.251 123H168.555ZM188.316 123H184.476V119.304H188.316V123ZM196.297 106.2H198.865C199.857 106.2 200.657 106.256 201.265 106.368C201.873 106.464 202.425 106.672 202.921 106.992C203.433 107.312 203.793 107.784 204.001 108.408C204.225 109.032 204.337 109.848 204.337 110.856C204.337 112.92 203.537 114.096 201.937 114.384V114.48C202.993 114.656 203.721 115.072 204.121 115.728C204.521 116.368 204.721 117.296 204.721 118.512C204.721 120.192 204.313 121.36 203.497 122.016C202.681 122.672 201.369 123 199.561 123H195.625C193.897 123 192.601 122.672 191.737 122.016C190.889 121.344 190.465 120.176 190.465 118.512C190.465 117.264 190.649 116.328 191.017 115.704C191.401 115.064 192.145 114.656 193.249 114.48V114.384C192.449 114.272 191.849 113.896 191.449 113.256C191.049 112.6 190.849 111.8 190.849 110.856C190.849 109.848 190.953 109.032 191.161 108.408C191.385 107.784 191.745 107.312 192.241 106.992C192.737 106.672 193.289 106.464 193.897 106.368C194.505 106.256 195.305 106.2 196.297 106.2ZM196.849 112.944H198.337C198.929 112.944 199.337 112.808 199.561 112.536C199.801 112.264 199.921 111.816 199.921 111.192C199.921 110.568 199.793 110.128 199.537 109.872C199.297 109.6 198.857 109.464 198.217 109.464H196.969C196.329 109.464 195.881 109.6 195.625 109.872C195.385 110.128 195.265 110.568 195.265 111.192C195.265 111.816 195.377 112.264 195.601 112.536C195.841 112.808 196.257 112.944 196.849 112.944ZM196.681 119.736H198.505C199.145 119.736 199.601 119.592 199.873 119.304C200.161 119 200.305 118.52 200.305 117.864C200.305 117.224 200.153 116.768 199.849 116.496C199.545 116.208 199.081 116.064 198.457 116.064H196.729C196.105 116.064 195.641 116.208 195.337 116.496C195.033 116.768 194.881 117.224 194.881 117.864C194.881 118.52 195.017 119 195.289 119.304C195.577 119.592 196.041 119.736 196.681 119.736ZM206.403 123V119.736H213.603C214.483 119.736 215.099 119.624 215.451 119.4C215.819 119.176 216.003 118.696 216.003 117.96C216.003 117.32 215.851 116.848 215.547 116.544C215.243 116.24 214.707 116.088 213.939 116.088H206.811V112.968H213.723C214.411 112.968 214.907 112.832 215.211 112.56C215.531 112.272 215.691 111.808 215.691 111.168C215.691 110.592 215.547 110.168 215.259 109.896C214.971 109.608 214.499 109.464 213.843 109.464H206.643V106.2H216.075C217.467 106.2 218.475 106.56 219.099 107.28C219.739 108 220.059 109.096 220.059 110.568C220.059 111.64 219.875 112.512 219.507 113.184C219.139 113.84 218.451 114.24 217.443 114.384V114.48C218.515 114.544 219.275 114.904 219.723 115.56C220.187 116.2 220.419 117.112 220.419 118.296C220.419 119.8 220.107 120.96 219.483 121.776C218.859 122.592 217.771 123 216.219 123H206.403ZM225.37 123L234.538 106.2H236.962L227.794 123H225.37ZM223.09 106.992C223.682 106.368 224.738 106.056 226.258 106.056C227.778 106.056 228.826 106.368 229.402 106.992C229.978 107.616 230.266 108.656 230.266 110.112C230.266 111.568 229.978 112.608 229.402 113.232C228.826 113.856 227.778 114.168 226.258 114.168C224.738 114.168 223.682 113.856 223.09 113.232C222.514 112.608 222.226 111.568 222.226 110.112C222.226 108.656 222.514 107.616 223.09 106.992ZM224.986 108.6C224.762 108.904 224.65 109.408 224.65 110.112C224.65 110.816 224.762 111.328 224.986 111.648C225.226 111.952 225.65 112.104 226.258 112.104C226.866 112.104 227.282 111.952 227.506 111.648C227.73 111.328 227.842 110.816 227.842 110.112C227.842 109.408 227.73 108.904 227.506 108.6C227.282 108.28 226.866 108.12 226.258 108.12C225.65 108.12 225.226 108.28 224.986 108.6ZM232.858 115.992C233.45 115.368 234.506 115.056 236.026 115.056C237.546 115.056 238.594 115.368 239.17 115.992C239.746 116.616 240.034 117.656 240.034 119.112C240.034 120.568 239.746 121.608 239.17 122.232C238.594 122.84 237.546 123.144 236.026 123.144C234.506 123.144 233.45 122.84 232.858 122.232C232.282 121.608 231.994 120.568 231.994 119.112C231.994 117.656 232.282 116.616 232.858 115.992ZM234.754 117.576C234.53 117.896 234.418 118.408 234.418 119.112C234.418 119.816 234.53 120.328 234.754 120.648C234.994 120.952 235.418 121.104 236.026 121.104C236.634 121.104 237.05 120.952 237.274 120.648C237.498 120.328 237.61 119.816 237.61 119.112C237.61 118.392 237.498 117.88 237.274 117.576C237.05 117.256 236.634 117.096 236.026 117.096C235.418 117.096 234.994 117.256 234.754 117.576Z" fill="#FA0339"/>
<path d="M856.64 495H852.32V480.792C852.32 479.064 853.168 478.2 854.864 478.2H863.792C864.704 478.2 865.464 478.336 866.072 478.608C866.68 478.864 867.144 479.264 867.464 479.808C867.784 480.336 868.008 480.928 868.136 481.584C868.264 482.224 868.328 482.992 868.328 483.888C868.328 485.76 868 487.184 867.344 488.16C866.704 489.136 865.52 489.624 863.792 489.624H856.64V495ZM856.64 486.264H861.56C862.44 486.264 863.048 486.088 863.384 485.736C863.736 485.368 863.912 484.752 863.912 483.888C863.912 483.04 863.736 482.44 863.384 482.088C863.048 481.736 862.44 481.56 861.56 481.56H857.768C857.352 481.56 857.056 481.648 856.88 481.824C856.72 481.984 856.64 482.272 856.64 482.688V486.264ZM882.823 482.28V492.6C882.823 494.2 882.023 495 880.423 495H875.047C873.479 495 872.255 494.632 871.375 493.896C870.495 493.16 870.055 492.008 870.055 490.44V482.28H873.799V489.48C873.799 490.456 874.007 491.168 874.423 491.616C874.839 492.048 875.519 492.264 876.463 492.264H878.215C878.519 492.264 878.735 492.2 878.863 492.072C878.991 491.944 879.055 491.728 879.055 491.424V482.28H882.823ZM892.26 495H887.244C885.644 495 884.844 494.2 884.844 492.6V478.2H888.588V482.28H892.26C894.196 482.28 895.548 482.824 896.316 483.912C897.1 484.984 897.492 486.56 897.492 488.64C897.492 490.72 897.1 492.304 896.316 493.392C895.548 494.464 894.196 495 892.26 495ZM888.588 485.04V491.28C888.588 491.648 888.66 491.904 888.804 492.048C888.948 492.176 889.196 492.24 889.548 492.24H891.18C892.188 492.24 892.852 491.936 893.172 491.328C893.492 490.72 893.652 489.824 893.652 488.64C893.652 488.112 893.628 487.664 893.58 487.296C893.532 486.928 893.428 486.56 893.268 486.192C893.108 485.808 892.86 485.52 892.524 485.328C892.188 485.136 891.756 485.04 891.228 485.04H888.588ZM899.141 495V478.2H902.885V495H899.141ZM904.906 495V482.28H908.65V495H904.906ZM908.65 480.936H904.906V478.2H908.65V480.936ZM922 495H915.664C913.632 495 912.232 494.464 911.464 493.392C910.696 492.32 910.312 490.736 910.312 488.64C910.312 486.544 910.696 484.96 911.464 483.888C912.232 482.816 913.632 482.28 915.664 482.28H921.736V485.04H917.104C915.968 485.04 915.192 485.344 914.776 485.952C914.36 486.544 914.152 487.44 914.152 488.64C914.152 489.84 914.36 490.744 914.776 491.352C915.192 491.944 915.968 492.24 917.104 492.24H922V495ZM928.951 495V491.64H938.263C938.615 491.64 938.887 491.568 939.079 491.424C939.271 491.264 939.383 491.12 939.415 490.992C939.447 490.848 939.463 490.68 939.463 490.488C939.463 489.848 939.031 489.392 938.167 489.12L931.591 487.152C930.551 486.848 929.815 486.304 929.383 485.52C928.967 484.736 928.759 483.712 928.759 482.448C928.759 479.616 930.055 478.2 932.647 478.2H943.015V481.56H934.327C933.543 481.56 933.151 481.928 933.151 482.664C933.151 483.336 933.599 483.808 934.495 484.08L940.399 485.808C941.663 486.176 942.559 486.712 943.087 487.416C943.615 488.12 943.879 489.16 943.879 490.536C943.879 493.512 942.599 495 940.039 495H928.951ZM946.145 482.28H953.993C955.225 482.28 956.185 482.648 956.873 483.384C957.577 484.12 957.929 485.096 957.929 486.312V492.6C957.929 494.2 957.129 495 955.529 495H948.401C947.281 495 946.473 494.68 945.977 494.04C945.497 493.384 945.257 492.376 945.257 491.016C945.257 488.376 946.305 487.056 948.401 487.056H954.185V486.504C954.185 485.48 953.649 484.968 952.577 484.968H946.145V482.28ZM954.185 489.648H950.177C949.425 489.648 949.049 490.112 949.049 491.04C949.049 491.952 949.417 492.408 950.153 492.408H953.345C953.649 492.408 953.865 492.344 953.993 492.216C954.121 492.088 954.185 491.872 954.185 491.568V489.648ZM959.938 495V478.2H963.682V495H959.938ZM977.871 495H970.191C968.223 495 966.919 494.544 966.279 493.632C965.655 492.72 965.343 491.04 965.343 488.592C965.343 487.216 965.439 486.12 965.631 485.304C965.823 484.488 966.183 483.84 966.711 483.36C967.239 482.864 967.887 482.536 968.655 482.376C969.439 482.216 970.495 482.136 971.823 482.136C972.975 482.136 973.911 482.2 974.631 482.328C975.351 482.44 976.007 482.672 976.599 483.024C977.207 483.376 977.639 483.896 977.895 484.584C978.167 485.272 978.303 486.16 978.303 487.248C978.303 489.008 977.639 489.888 976.311 489.888H969.135C969.135 490.72 969.311 491.336 969.663 491.736C970.031 492.12 970.703 492.312 971.679 492.312H977.871V495ZM969.135 487.296H973.791C974.255 487.296 974.487 487.04 974.487 486.528C974.487 485.936 974.215 485.504 973.671 485.232C973.143 484.96 972.527 484.824 971.823 484.824C970.895 484.824 970.215 485.008 969.783 485.376C969.351 485.744 969.135 486.384 969.135 487.296ZM979.641 495V492.24H986.697C987.273 492.24 987.561 491.984 987.561 491.472C987.561 491.312 987.513 491.168 987.417 491.04C987.321 490.912 987.177 490.808 986.985 490.728C986.793 490.632 986.609 490.56 986.433 490.512C986.273 490.448 986.073 490.392 985.833 490.344C985.593 490.28 985.425 490.232 985.329 490.2L982.737 489.408C981.537 489.04 980.697 488.584 980.217 488.04C979.737 487.496 979.497 486.704 979.497 485.664C979.497 484.496 979.777 483.64 980.337 483.096C980.913 482.552 981.801 482.28 983.001 482.28H990.921V485.04H984.105C983.433 485.04 983.097 485.256 983.097 485.688C983.097 485.992 983.225 486.224 983.481 486.384C983.753 486.528 984.145 486.68 984.657 486.84L987.633 487.752C988.273 487.944 988.785 488.128 989.169 488.304C989.553 488.464 989.937 488.696 990.321 489C990.705 489.288 990.977 489.656 991.137 490.104C991.313 490.552 991.401 491.088 991.401 491.712C991.401 492.816 991.137 493.64 990.609 494.184C990.097 494.728 989.281 495 988.161 495H979.641Z" fill="#DEE3EB"/>
<path d="M851.84 525V521.736H859.04C859.92 521.736 860.536 521.624 860.888 521.4C861.256 521.176 861.44 520.696 861.44 519.96C861.44 519.32 861.288 518.848 860.984 518.544C860.68 518.24 860.144 518.088 859.376 518.088H852.248V514.968H859.16C859.848 514.968 860.344 514.832 860.648 514.56C860.968 514.272 861.128 513.808 861.128 513.168C861.128 512.592 860.984 512.168 860.696 511.896C860.408 511.608 859.936 511.464 859.28 511.464H852.08V508.2H861.512C862.904 508.2 863.912 508.56 864.536 509.28C865.176 510 865.496 511.096 865.496 512.568C865.496 513.64 865.312 514.512 864.944 515.184C864.576 515.84 863.888 516.24 862.88 516.384V516.48C863.952 516.544 864.712 516.904 865.16 517.56C865.624 518.2 865.856 519.112 865.856 520.296C865.856 521.8 865.544 522.96 864.92 523.776C864.296 524.592 863.208 525 861.656 525H851.84ZM871.863 525H868.023V521.304H871.863V525ZM874.012 525V521.736H881.212C882.092 521.736 882.708 521.624 883.06 521.4C883.428 521.176 883.612 520.696 883.612 519.96C883.612 519.32 883.46 518.848 883.156 518.544C882.852 518.24 882.316 518.088 881.548 518.088H874.42V514.968H881.332C882.02 514.968 882.516 514.832 882.82 514.56C883.14 514.272 883.3 513.808 883.3 513.168C883.3 512.592 883.156 512.168 882.868 511.896C882.58 511.608 882.108 511.464 881.452 511.464H874.252V508.2H883.684C885.076 508.2 886.084 508.56 886.708 509.28C887.348 510 887.668 511.096 887.668 512.568C887.668 513.64 887.484 514.512 887.116 515.184C886.748 515.84 886.06 516.24 885.052 516.384V516.48C886.124 516.544 886.884 516.904 887.332 517.56C887.796 518.2 888.028 519.112 888.028 520.296C888.028 521.8 887.716 522.96 887.092 523.776C886.468 524.592 885.38 525 883.828 525H874.012ZM899.195 525V522.456H891.395C889.955 522.456 889.235 521.504 889.235 519.6C889.235 518.96 889.315 518.44 889.475 518.04C889.651 517.624 889.939 517.216 890.339 516.816L898.235 509.04C898.923 508.352 899.859 508.008 901.043 508.008C902.691 508.008 903.515 508.728 903.515 510.168V519.096H905.819V522.456H903.491V525H899.195ZM899.195 519.096V512.904C899.195 512.84 899.163 512.808 899.099 512.808C899.051 512.808 898.955 512.888 898.811 513.048L893.507 518.448C893.363 518.592 893.291 518.72 893.291 518.832C893.291 519.008 893.395 519.096 893.603 519.096H899.195ZM909.924 525L919.092 508.2H921.516L912.348 525H909.924ZM907.644 508.992C908.236 508.368 909.292 508.056 910.812 508.056C912.332 508.056 913.38 508.368 913.956 508.992C914.532 509.616 914.82 510.656 914.82 512.112C914.82 513.568 914.532 514.608 913.956 515.232C913.38 515.856 912.332 516.168 910.812 516.168C909.292 516.168 908.236 515.856 907.644 515.232C907.068 514.608 906.78 513.568 906.78 512.112C906.78 510.656 907.068 509.616 907.644 508.992ZM909.54 510.6C909.316 510.904 909.204 511.408 909.204 512.112C909.204 512.816 909.316 513.328 909.54 513.648C909.78 513.952 910.204 514.104 910.812 514.104C911.42 514.104 911.836 513.952 912.06 513.648C912.284 513.328 912.396 512.816 912.396 512.112C912.396 511.408 912.284 510.904 912.06 510.6C911.836 510.28 911.42 510.12 910.812 510.12C910.204 510.12 909.78 510.28 909.54 510.6ZM917.412 517.992C918.004 517.368 919.06 517.056 920.58 517.056C922.1 517.056 923.148 517.368 923.724 517.992C924.3 518.616 924.588 519.656 924.588 521.112C924.588 522.568 924.3 523.608 923.724 524.232C923.148 524.84 922.1 525.144 920.58 525.144C919.06 525.144 918.004 524.84 917.412 524.232C916.836 523.608 916.548 522.568 916.548 521.112C916.548 519.656 916.836 518.616 917.412 517.992ZM919.308 519.576C919.084 519.896 918.972 520.408 918.972 521.112C918.972 521.816 919.084 522.328 919.308 522.648C919.548 522.952 919.972 523.104 920.58 523.104C921.188 523.104 921.604 522.952 921.828 522.648C922.052 522.328 922.164 521.816 922.164 521.112C922.164 520.392 922.052 519.88 921.828 519.576C921.604 519.256 921.188 519.096 920.58 519.096C919.972 519.096 919.548 519.256 919.308 519.576Z" fill="#FA0339"/>
<path d="M869.648 83.408L866.192 93.056C865.92 93.808 865.6 94.352 865.232 94.688C864.864 95.024 864.248 95.192 863.384 95.192C862.504 95.192 861.88 95.024 861.512 94.688C861.144 94.352 860.824 93.808 860.552 93.056L857.12 83.408C856.976 83.024 856.856 82.832 856.76 82.832C856.6 82.832 856.52 83.008 856.52 83.36L856.64 95H852.32V80.6C852.32 80.072 852.432 79.624 852.656 79.256C852.88 78.888 853.176 78.624 853.544 78.464C853.928 78.288 854.288 78.168 854.624 78.104C854.976 78.04 855.344 78.008 855.728 78.008C857.568 78.008 858.784 78.832 859.376 80.48L862.904 90.176C863.064 90.64 863.224 90.872 863.384 90.872C863.544 90.872 863.704 90.64 863.864 90.176L867.392 80.48C867.984 78.832 869.192 78.008 871.016 78.008C873.304 78.008 874.448 78.872 874.448 80.6V95H870.128L870.272 83.36C870.272 83.008 870.184 82.832 870.008 82.832C869.912 82.832 869.792 83.024 869.648 83.408ZM877.309 82.28H885.157C886.389 82.28 887.349 82.648 888.037 83.384C888.741 84.12 889.093 85.096 889.093 86.312V92.6C889.093 94.2 888.293 95 886.693 95H879.565C878.445 95 877.637 94.68 877.141 94.04C876.661 93.384 876.421 92.376 876.421 91.016C876.421 88.376 877.469 87.056 879.565 87.056H885.349V86.504C885.349 85.48 884.813 84.968 883.741 84.968H877.309V82.28ZM885.349 89.648H881.341C880.589 89.648 880.213 90.112 880.213 91.04C880.213 91.952 880.581 92.408 881.317 92.408H884.509C884.813 92.408 885.029 92.344 885.157 92.216C885.285 92.088 885.349 91.872 885.349 91.568V89.648ZM891.102 95V87.32C891.102 85.496 891.566 84.2 892.494 83.432C893.422 82.664 894.854 82.28 896.79 82.28H899.31V85.04H897.822C896.75 85.04 895.982 85.32 895.518 85.88C895.07 86.424 894.846 87.272 894.846 88.424V95H891.102ZM913.99 95H909.598L905.734 90.44C905.19 89.784 904.918 89.112 904.918 88.424C904.918 87.784 905.19 87.128 905.734 86.456L909.118 82.28H913.318L908.998 87.392C908.742 87.712 908.614 88.016 908.614 88.304C908.614 88.624 908.798 89 909.166 89.432L913.99 95ZM904.15 95H900.406V78.2H904.15V95ZM926.356 95H918.676C916.708 95 915.404 94.544 914.764 93.632C914.14 92.72 913.828 91.04 913.828 88.592C913.828 87.216 913.924 86.12 914.116 85.304C914.308 84.488 914.668 83.84 915.196 83.36C915.724 82.864 916.372 82.536 917.14 82.376C917.924 82.216 918.98 82.136 920.308 82.136C921.46 82.136 922.396 82.2 923.116 82.328C923.836 82.44 924.492 82.672 925.084 83.024C925.692 83.376 926.124 83.896 926.38 84.584C926.652 85.272 926.788 86.16 926.788 87.248C926.788 89.008 926.124 89.888 924.796 89.888H917.62C917.62 90.72 917.796 91.336 918.148 91.736C918.516 92.12 919.188 92.312 920.164 92.312H926.356V95ZM917.62 87.296H922.276C922.74 87.296 922.972 87.04 922.972 86.528C922.972 85.936 922.7 85.504 922.156 85.232C921.628 84.96 921.012 84.824 920.308 84.824C919.38 84.824 918.7 85.008 918.268 85.376C917.836 85.744 917.62 86.384 917.62 87.296ZM936.646 95H934.03C930.878 95 929.302 93.592 929.302 90.776V85.04H927.526V82.28H929.302V78.2H933.046V82.28H936.646V85.04H933.046V89.408C933.046 90.384 933.278 91.104 933.742 91.568C934.206 92.016 934.942 92.24 935.95 92.24H936.646V95ZM937.742 95V82.28H941.486V95H937.742ZM941.486 80.936H937.742V78.2H941.486V80.936ZM943.508 95V84.68C943.508 83.08 944.308 82.28 945.908 82.28H951.092C952.66 82.28 953.884 82.656 954.764 83.408C955.644 84.144 956.084 85.296 956.084 86.864V95H952.34V87.824C952.34 86.848 952.132 86.144 951.716 85.712C951.316 85.264 950.644 85.04 949.7 85.04H948.092C947.788 85.04 947.572 85.104 947.444 85.232C947.316 85.36 947.252 85.576 947.252 85.88V95H943.508ZM962.982 82.28H968.142C969.742 82.28 970.542 83.08 970.542 84.68V93.92C970.542 95.776 970.102 97.128 969.222 97.976C968.342 98.824 966.942 99.248 965.022 99.248H958.638V96.608H964.374C965.782 96.608 966.59 96.072 966.798 95H962.982C961.046 95 959.686 94.464 958.902 93.392C958.134 92.304 957.75 90.72 957.75 88.64C957.75 86.56 958.134 84.984 958.902 83.912C959.686 82.824 961.046 82.28 962.982 82.28ZM966.798 92.24V86C966.798 85.632 966.726 85.384 966.582 85.256C966.438 85.112 966.19 85.04 965.838 85.04H964.086C963.542 85.04 963.094 85.128 962.742 85.304C962.406 85.48 962.158 85.752 961.998 86.12C961.838 86.488 961.726 86.864 961.662 87.248C961.614 87.616 961.59 88.08 961.59 88.64C961.59 89.056 961.606 89.416 961.638 89.72C961.67 90.024 961.734 90.344 961.83 90.68C961.926 91.016 962.054 91.296 962.214 91.52C962.39 91.728 962.63 91.904 962.934 92.048C963.254 92.176 963.622 92.24 964.038 92.24H966.798Z" fill="#DEE3EB"/>
<path d="M853.808 125V112.832C853.808 112.4 853.752 112.08 853.64 111.872C853.544 111.664 853.304 111.56 852.92 111.56H851V108.2H855.704C856.488 108.2 857.088 108.408 857.504 108.824C857.92 109.24 858.128 109.84 858.128 110.624V125H853.808ZM864.142 108.296C864.974 108.136 866.062 108.056 867.406 108.056C868.75 108.056 869.838 108.136 870.67 108.296C871.502 108.456 872.222 108.768 872.83 109.232C873.454 109.696 873.894 110.352 874.15 111.2C874.406 112.032 874.534 113.12 874.534 114.464V118.592C874.534 119.968 874.406 121.088 874.15 121.952C873.894 122.8 873.454 123.464 872.83 123.944C872.222 124.408 871.502 124.728 870.67 124.904C869.838 125.064 868.75 125.144 867.406 125.144C866.062 125.144 864.974 125.064 864.142 124.904C863.31 124.728 862.582 124.408 861.958 123.944C861.35 123.464 860.918 122.8 860.662 121.952C860.406 121.088 860.278 119.968 860.278 118.592V114.464C860.278 113.12 860.406 112.032 860.662 111.2C860.918 110.352 861.35 109.696 861.958 109.232C862.582 108.768 863.31 108.456 864.142 108.296ZM867.406 121.784C868.494 121.784 869.23 121.552 869.614 121.088C870.014 120.624 870.214 119.776 870.214 118.544V114.536C870.214 113.368 870.014 112.56 869.614 112.112C869.23 111.648 868.494 111.416 867.406 111.416C866.334 111.416 865.598 111.648 865.198 112.112C864.798 112.576 864.598 113.384 864.598 114.536V118.544C864.598 119.76 864.798 120.608 865.198 121.088C865.598 121.552 866.334 121.784 867.406 121.784ZM879.479 125L888.647 108.2H891.071L881.903 125H879.479ZM877.199 108.992C877.791 108.368 878.847 108.056 880.367 108.056C881.887 108.056 882.935 108.368 883.511 108.992C884.087 109.616 884.375 110.656 884.375 112.112C884.375 113.568 884.087 114.608 883.511 115.232C882.935 115.856 881.887 116.168 880.367 116.168C878.847 116.168 877.791 115.856 877.199 115.232C876.623 114.608 876.335 113.568 876.335 112.112C876.335 110.656 876.623 109.616 877.199 108.992ZM879.095 110.6C878.871 110.904 878.759 111.408 878.759 112.112C878.759 112.816 878.871 113.328 879.095 113.648C879.335 113.952 879.759 114.104 880.367 114.104C880.975 114.104 881.391 113.952 881.615 113.648C881.839 113.328 881.951 112.816 881.951 112.112C881.951 111.408 881.839 110.904 881.615 110.6C881.391 110.28 880.975 110.12 880.367 110.12C879.759 110.12 879.335 110.28 879.095 110.6ZM886.967 117.992C887.559 117.368 888.615 117.056 890.135 117.056C891.655 117.056 892.703 117.368 893.279 117.992C893.855 118.616 894.143 119.656 894.143 121.112C894.143 122.568 893.855 123.608 893.279 124.232C892.703 124.84 891.655 125.144 890.135 125.144C888.615 125.144 887.559 124.84 886.967 124.232C886.391 123.608 886.103 122.568 886.103 121.112C886.103 119.656 886.391 118.616 886.967 117.992ZM888.863 119.576C888.639 119.896 888.527 120.408 888.527 121.112C888.527 121.816 888.639 122.328 888.863 122.648C889.103 122.952 889.527 123.104 890.135 123.104C890.743 123.104 891.159 122.952 891.383 122.648C891.607 122.328 891.719 121.816 891.719 121.112C891.719 120.392 891.607 119.88 891.383 119.576C891.159 119.256 890.743 119.096 890.135 119.096C889.527 119.096 889.103 119.256 888.863 119.576Z" fill="#FA0339"/>
<path d="M495.763 703H491.443V689.56H485.203V686.2H502.003V689.56H495.763V703ZM513.754 703H506.074C504.106 703 502.802 702.544 502.162 701.632C501.538 700.72 501.226 699.04 501.226 696.592C501.226 695.216 501.322 694.12 501.514 693.304C501.706 692.488 502.066 691.84 502.594 691.36C503.122 690.864 503.77 690.536 504.538 690.376C505.322 690.216 506.378 690.136 507.706 690.136C508.858 690.136 509.794 690.2 510.514 690.328C511.234 690.44 511.89 690.672 512.482 691.024C513.09 691.376 513.522 691.896 513.778 692.584C514.05 693.272 514.186 694.16 514.186 695.248C514.186 697.008 513.522 697.888 512.194 697.888H505.018C505.018 698.72 505.194 699.336 505.546 699.736C505.914 700.12 506.586 700.312 507.562 700.312H513.754V703ZM505.018 695.296H509.674C510.138 695.296 510.37 695.04 510.37 694.528C510.37 693.936 510.098 693.504 509.554 693.232C509.026 692.96 508.41 692.824 507.706 692.824C506.778 692.824 506.098 693.008 505.666 693.376C505.234 693.744 505.018 694.384 505.018 695.296ZM516.364 690.28H524.212C525.444 690.28 526.404 690.648 527.092 691.384C527.796 692.12 528.148 693.096 528.148 694.312V700.6C528.148 702.2 527.348 703 525.748 703H518.62C517.5 703 516.692 702.68 516.196 702.04C515.716 701.384 515.476 700.376 515.476 699.016C515.476 696.376 516.524 695.056 518.62 695.056H524.404V694.504C524.404 693.48 523.868 692.968 522.796 692.968H516.364V690.28ZM524.404 697.648H520.396C519.644 697.648 519.268 698.112 519.268 699.04C519.268 699.952 519.636 700.408 520.372 700.408H523.564C523.868 700.408 524.084 700.344 524.212 700.216C524.34 700.088 524.404 699.872 524.404 699.568V697.648ZM530.156 703V692.68C530.156 691.08 530.956 690.28 532.556 690.28H543.788C545.356 690.28 546.58 690.656 547.46 691.408C548.34 692.144 548.78 693.296 548.78 694.864V703H545.036V695.824C545.036 694.848 544.836 694.144 544.436 693.712C544.036 693.264 543.364 693.04 542.42 693.04H541.34V703H537.596V693.04H534.74C534.436 693.04 534.22 693.104 534.092 693.232C533.964 693.36 533.9 693.576 533.9 693.88V703H530.156Z" fill="#DEE3EB"/>
<path d="M498.253 733V720.832C498.253 720.4 498.197 720.08 498.085 719.872C497.989 719.664 497.749 719.56 497.365 719.56H495.445V716.2H500.149C500.933 716.2 501.533 716.408 501.949 716.824C502.365 717.24 502.573 717.84 502.573 718.624V733H498.253ZM508.587 716.296C509.419 716.136 510.507 716.056 511.851 716.056C513.195 716.056 514.283 716.136 515.115 716.296C515.947 716.456 516.667 716.768 517.275 717.232C517.899 717.696 518.339 718.352 518.595 719.2C518.851 720.032 518.979 721.12 518.979 722.464V726.592C518.979 727.968 518.851 729.088 518.595 729.952C518.339 730.8 517.899 731.464 517.275 731.944C516.667 732.408 515.947 732.728 515.115 732.904C514.283 733.064 513.195 733.144 511.851 733.144C510.507 733.144 509.419 733.064 508.587 732.904C507.755 732.728 507.027 732.408 506.403 731.944C505.795 731.464 505.363 730.8 505.107 729.952C504.851 729.088 504.723 727.968 504.723 726.592V722.464C504.723 721.12 504.851 720.032 505.107 719.2C505.363 718.352 505.795 717.696 506.403 717.232C507.027 716.768 507.755 716.456 508.587 716.296ZM511.851 729.784C512.939 729.784 513.675 729.552 514.059 729.088C514.459 728.624 514.659 727.776 514.659 726.544V722.536C514.659 721.368 514.459 720.56 514.059 720.112C513.675 719.648 512.939 719.416 511.851 719.416C510.779 719.416 510.043 719.648 509.643 720.112C509.243 720.576 509.043 721.384 509.043 722.536V726.544C509.043 727.76 509.243 728.608 509.643 729.088C510.043 729.552 510.779 729.784 511.851 729.784ZM523.924 733L533.092 716.2H535.516L526.348 733H523.924ZM521.644 716.992C522.236 716.368 523.292 716.056 524.812 716.056C526.332 716.056 527.38 716.368 527.956 716.992C528.532 717.616 528.82 718.656 528.82 720.112C528.82 721.568 528.532 722.608 527.956 723.232C527.38 723.856 526.332 724.168 524.812 724.168C523.292 724.168 522.236 723.856 521.644 723.232C521.068 722.608 520.78 721.568 520.78 720.112C520.78 718.656 521.068 717.616 521.644 716.992ZM523.54 718.6C523.316 718.904 523.204 719.408 523.204 720.112C523.204 720.816 523.316 721.328 523.54 721.648C523.78 721.952 524.204 722.104 524.812 722.104C525.42 722.104 525.836 721.952 526.06 721.648C526.284 721.328 526.396 720.816 526.396 720.112C526.396 719.408 526.284 718.904 526.06 718.6C525.836 718.28 525.42 718.12 524.812 718.12C524.204 718.12 523.78 718.28 523.54 718.6ZM531.412 725.992C532.004 725.368 533.06 725.056 534.58 725.056C536.1 725.056 537.148 725.368 537.724 725.992C538.3 726.616 538.588 727.656 538.588 729.112C538.588 730.568 538.3 731.608 537.724 732.232C537.148 732.84 536.1 733.144 534.58 733.144C533.06 733.144 532.004 732.84 531.412 732.232C530.836 731.608 530.548 730.568 530.548 729.112C530.548 727.656 530.836 726.616 531.412 725.992ZM533.308 727.576C533.084 727.896 532.972 728.408 532.972 729.112C532.972 729.816 533.084 730.328 533.308 730.648C533.548 730.952 533.972 731.104 534.58 731.104C535.188 731.104 535.604 730.952 535.828 730.648C536.052 730.328 536.164 729.816 536.164 729.112C536.164 728.392 536.052 727.88 535.828 727.576C535.604 727.256 535.188 727.096 534.58 727.096C533.972 727.096 533.548 727.256 533.308 727.576Z" fill="#FA0339"/>
<path d="M914.52 297L920.784 281.976C921.072 281.272 921.448 280.768 921.912 280.464C922.392 280.16 923.12 280.008 924.096 280.008C924.928 280.008 925.6 280.144 926.112 280.416C926.64 280.688 927.064 281.208 927.384 281.976L933.672 297H929.136L927.624 293.16H920.544L919.032 297H914.52ZM923.736 284.568L921.6 289.896H926.568L924.432 284.568C924.304 284.216 924.192 284.04 924.096 284.04C923.984 284.04 923.864 284.216 923.736 284.568ZM944.084 297H939.068C937.132 297 935.772 296.464 934.988 295.392C934.22 294.304 933.836 292.72 933.836 290.64C933.836 288.56 934.22 286.984 934.988 285.912C935.772 284.824 937.132 284.28 939.068 284.28H942.74V280.2H946.484V294.6C946.484 296.2 945.684 297 944.084 297ZM942.74 293.28V287.04H940.124C939.708 287.04 939.34 287.112 939.02 287.256C938.716 287.384 938.476 287.56 938.3 287.784C938.14 287.992 938.012 288.264 937.916 288.6C937.82 288.936 937.756 289.256 937.724 289.56C937.692 289.864 937.676 290.224 937.676 290.64C937.676 291.2 937.7 291.672 937.748 292.056C937.812 292.424 937.924 292.792 938.084 293.16C938.244 293.528 938.492 293.8 938.828 293.976C939.18 294.152 939.628 294.24 940.172 294.24H941.78C942.132 294.24 942.38 294.176 942.524 294.048C942.668 293.904 942.74 293.648 942.74 293.28ZM951.132 284.28L954.372 292.68C954.5 292.984 954.612 293.136 954.708 293.136C954.788 293.136 954.892 292.984 955.02 292.68L958.26 284.28H962.148L957.036 296.016C956.828 296.496 956.532 296.808 956.148 296.952C955.764 297.08 955.284 297.144 954.708 297.144C954.34 297.144 954.036 297.128 953.796 297.096C953.556 297.064 953.292 296.96 953.004 296.784C952.716 296.608 952.5 296.352 952.356 296.016L947.244 284.28H951.132ZM962.906 297V284.28H966.65V297H962.906ZM966.65 282.936H962.906V280.2H966.65V282.936ZM968.36 297V294.24H975.416C975.992 294.24 976.28 293.984 976.28 293.472C976.28 293.312 976.232 293.168 976.136 293.04C976.04 292.912 975.896 292.808 975.704 292.728C975.512 292.632 975.328 292.56 975.152 292.512C974.992 292.448 974.792 292.392 974.552 292.344C974.312 292.28 974.144 292.232 974.048 292.2L971.456 291.408C970.256 291.04 969.416 290.584 968.936 290.04C968.456 289.496 968.216 288.704 968.216 287.664C968.216 286.496 968.496 285.64 969.056 285.096C969.632 284.552 970.52 284.28 971.72 284.28H979.64V287.04H972.824C972.152 287.04 971.816 287.256 971.816 287.688C971.816 287.992 971.944 288.224 972.2 288.384C972.472 288.528 972.864 288.68 973.376 288.84L976.352 289.752C976.992 289.944 977.504 290.128 977.888 290.304C978.272 290.464 978.656 290.696 979.04 291C979.424 291.288 979.696 291.656 979.856 292.104C980.032 292.552 980.12 293.088 980.12 293.712C980.12 294.816 979.856 295.64 979.328 296.184C978.816 296.728 978 297 976.88 297H968.36ZM982.928 285.528C984 284.6 985.816 284.136 988.376 284.136C990.936 284.136 992.752 284.6 993.824 285.528C994.896 286.44 995.432 288.144 995.432 290.64C995.432 293.152 994.896 294.864 993.824 295.776C992.752 296.688 990.936 297.144 988.376 297.144C985.816 297.144 984 296.688 982.928 295.776C981.856 294.864 981.32 293.152 981.32 290.64C981.32 288.144 981.856 286.44 982.928 285.528ZM985.856 287.784C985.392 288.376 985.16 289.328 985.16 290.64C985.16 291.952 985.392 292.904 985.856 293.496C986.32 294.088 987.16 294.384 988.376 294.384C989.592 294.384 990.432 294.088 990.896 293.496C991.36 292.904 991.592 291.952 991.592 290.64C991.592 289.328 991.36 288.376 990.896 287.784C990.432 287.192 989.592 286.896 988.376 286.896C987.16 286.896 986.32 287.192 985.856 287.784ZM997.078 297V289.32C997.078 287.496 997.542 286.2 998.47 285.432C999.398 284.664 1000.83 284.28 1002.77 284.28H1005.29V287.04H1003.8C1002.73 287.04 1001.96 287.32 1001.49 287.88C1001.05 288.424 1000.82 289.272 1000.82 290.424V297H997.078ZM1006.54 297V294.24H1013.6C1014.17 294.24 1014.46 293.984 1014.46 293.472C1014.46 293.312 1014.41 293.168 1014.32 293.04C1014.22 292.912 1014.08 292.808 1013.88 292.728C1013.69 292.632 1013.51 292.56 1013.33 292.512C1013.17 292.448 1012.97 292.392 1012.73 292.344C1012.49 292.28 1012.32 292.232 1012.23 292.2L1009.64 291.408C1008.44 291.04 1007.6 290.584 1007.12 290.04C1006.64 289.496 1006.4 288.704 1006.4 287.664C1006.4 286.496 1006.68 285.64 1007.24 285.096C1007.81 284.552 1008.7 284.28 1009.9 284.28H1017.82V287.04H1011C1010.33 287.04 1010 287.256 1010 287.688C1010 287.992 1010.12 288.224 1010.38 288.384C1010.65 288.528 1011.04 288.68 1011.56 288.84L1014.53 289.752C1015.17 289.944 1015.68 290.128 1016.07 290.304C1016.45 290.464 1016.84 290.696 1017.22 291C1017.6 291.288 1017.88 291.656 1018.04 292.104C1018.21 292.552 1018.3 293.088 1018.3 293.712C1018.3 294.816 1018.04 295.64 1017.51 296.184C1017 296.728 1016.18 297 1015.06 297H1006.54Z" fill="#DEE3EB"/>
<path d="M916.008 327V323.736H923.64C924.776 323.736 925.344 323.096 925.344 321.816C925.344 321.208 925.208 320.76 924.936 320.472C924.68 320.168 924.248 320.016 923.64 320.016H918.888C917.848 320.016 917.08 319.784 916.584 319.32C916.088 318.84 915.84 318.008 915.84 316.824V312.624C915.84 311.008 916.704 310.2 918.432 310.2H929.136V313.464H921.168C920.848 313.464 920.6 313.536 920.424 313.68C920.248 313.824 920.16 314.104 920.16 314.52V315.552C920.16 316.032 920.248 316.376 920.424 316.584C920.616 316.792 920.936 316.896 921.384 316.896H925.704C927.208 316.896 928.256 317.304 928.848 318.12C929.456 318.936 929.76 320.176 929.76 321.84C929.76 323.568 929.472 324.864 928.896 325.728C928.32 326.576 927.256 327 925.704 327H916.008ZM934.713 327L943.881 310.2H946.305L937.137 327H934.713ZM932.433 310.992C933.025 310.368 934.081 310.056 935.601 310.056C937.121 310.056 938.169 310.368 938.745 310.992C939.321 311.616 939.609 312.656 939.609 314.112C939.609 315.568 939.321 316.608 938.745 317.232C938.169 317.856 937.121 318.168 935.601 318.168C934.081 318.168 933.025 317.856 932.433 317.232C931.857 316.608 931.569 315.568 931.569 314.112C931.569 312.656 931.857 311.616 932.433 310.992ZM934.329 312.6C934.105 312.904 933.993 313.408 933.993 314.112C933.993 314.816 934.105 315.328 934.329 315.648C934.569 315.952 934.993 316.104 935.601 316.104C936.209 316.104 936.625 315.952 936.849 315.648C937.073 315.328 937.185 314.816 937.185 314.112C937.185 313.408 937.073 312.904 936.849 312.6C936.625 312.28 936.209 312.12 935.601 312.12C934.993 312.12 934.569 312.28 934.329 312.6ZM942.201 319.992C942.793 319.368 943.849 319.056 945.369 319.056C946.889 319.056 947.937 319.368 948.513 319.992C949.089 320.616 949.377 321.656 949.377 323.112C949.377 324.568 949.089 325.608 948.513 326.232C947.937 326.84 946.889 327.144 945.369 327.144C943.849 327.144 942.793 326.84 942.201 326.232C941.625 325.608 941.337 324.568 941.337 323.112C941.337 321.656 941.625 320.616 942.201 319.992ZM944.097 321.576C943.873 321.896 943.761 322.408 943.761 323.112C943.761 323.816 943.873 324.328 944.097 324.648C944.337 324.952 944.761 325.104 945.369 325.104C945.977 325.104 946.393 324.952 946.617 324.648C946.841 324.328 946.953 323.816 946.953 323.112C946.953 322.392 946.841 321.88 946.617 321.576C946.393 321.256 945.977 321.096 945.369 321.096C944.761 321.096 944.337 321.256 944.097 321.576Z" fill="#FA0339"/>
<path d="M518.371 606.306C462.089 606.306 407.071 589.614 360.274 558.341C313.478 527.067 277.004 482.618 255.466 430.612C233.928 378.606 228.293 321.381 239.273 266.172C250.253 210.963 277.355 160.251 317.152 120.447C356.949 80.6438 407.654 53.5374 462.855 42.5557C518.055 31.574 575.272 37.2103 627.269 58.7517C679.267 80.2931 723.71 116.772 754.979 163.576C786.247 210.38 802.937 265.406 802.937 321.697C802.845 397.152 772.834 469.49 719.488 522.844C666.141 576.199 593.814 606.214 518.371 606.306ZM518.371 42.0532C463.071 42.0532 409.013 58.454 363.033 89.1816C317.053 119.909 281.216 163.583 260.054 214.682C238.891 265.78 233.354 322.007 244.143 376.252C254.931 430.498 281.56 480.325 320.663 519.434C359.766 558.543 409.586 585.177 463.823 595.967C518.061 606.757 574.279 601.219 625.369 580.053C676.459 558.888 720.127 523.045 750.85 477.058C781.573 431.071 797.971 377.005 797.971 321.697C797.892 247.555 768.409 176.472 715.991 124.046C663.573 71.6197 592.501 42.132 518.371 42.0532Z" fill="#FA0339"/>
<path d="M308.236 535.987C279.719 508.066 257.07 474.726 241.619 437.927C226.168 401.127 198.255 328.167 244.272 203.104L261.778 208.606C215.762 325.7 250.774 420.214 267.221 446.199C281.175 474.301 299.738 499.867 322.139 521.833L308.236 535.987Z" fill="#FA0339"/>
<path d="M518.367 621.851V601.986C587.599 602.075 654.397 576.448 705.81 530.076L719.118 544.975C664.077 594.677 592.523 622.132 518.367 621.999V621.851Z" fill="#FA0339"/>
<path d="M811.473 391.732L791.611 387.73C791.628 372.928 800.969 362.184 795.138 277.498C794.045 270.446 792.655 263.344 791.017 256.441L810.332 251.873C812.07 259.272 819.476 283.644 818.976 324.165C818.476 364.685 811.473 391.732 811.473 391.732Z" fill="#FA0339"/>
<path d="M721.601 128.663C708.8 115.219 694.714 103.06 679.545 92.3604C645.945 68.5972 607.475 52.6167 566.93 45.5793L570.356 26.0127C613.768 33.5049 654.968 50.5709 690.965 75.9721C707.228 87.4095 722.314 100.435 736.001 114.857L721.601 128.663Z" fill="#FA0339"/>
<path d="M518.37 588.628C465.584 588.628 413.984 572.972 370.094 543.642C326.204 514.311 291.997 472.622 271.796 423.847C251.596 375.072 246.311 321.401 256.609 269.622C266.907 217.843 292.326 170.28 329.651 132.949C366.976 95.6184 414.531 70.1958 466.302 59.8962C518.074 49.5966 571.736 54.8828 620.504 75.0861C669.271 95.2894 710.954 129.503 740.28 173.399C769.606 217.295 785.259 268.904 785.259 321.697C785.18 392.467 757.036 460.316 707.002 510.358C656.967 560.4 589.129 588.549 518.37 588.628ZM518.37 56.0087C465.83 56.0087 414.469 71.5911 370.784 100.785C327.098 129.98 293.049 171.475 272.943 220.023C252.837 268.571 247.576 321.992 257.826 373.531C268.076 425.069 293.377 472.41 330.528 509.568C367.68 546.725 415.014 572.029 466.544 582.281C518.075 592.533 571.488 587.271 620.029 567.162C668.57 547.052 710.058 512.998 739.248 469.306C768.438 425.614 784.018 374.246 784.018 321.697C783.912 251.274 755.888 183.766 706.089 133.978C656.29 84.1907 588.783 56.1869 518.37 56.1081V56.0087Z" fill="#FA0339"/>
<path d="M518.37 526.301V525.06C558.656 525.109 598.05 513.203 631.567 490.849C665.084 468.494 691.215 436.697 706.655 399.482C722.094 362.266 726.147 321.306 718.299 281.786C710.452 242.266 691.058 205.964 662.572 177.473C634.085 148.982 597.788 129.585 558.274 121.737C518.76 113.888 477.806 117.941 440.597 133.383C403.387 148.825 371.595 174.961 349.244 208.482C326.893 242.004 314.989 281.405 315.038 321.696H314.045C314.045 281.229 326.043 241.671 348.522 208.024C371.001 174.377 402.951 148.152 440.332 132.666C477.713 117.18 518.845 113.128 558.529 121.023C598.212 128.918 634.664 148.404 663.274 177.019C691.884 205.633 711.368 242.091 719.261 281.78C727.155 321.47 723.104 362.609 707.62 399.995C692.136 437.382 665.916 469.337 632.274 491.819C598.632 514.302 559.079 526.301 518.619 526.301H518.37Z" fill="#FA0339"/>
<g style="mix-blend-mode:screen" opacity="0.08">
<path d="M518.367 570.6C469.146 570.6 421.031 556.002 380.105 528.652C339.179 501.302 307.282 462.429 288.446 416.948C269.61 371.467 264.681 321.421 274.284 273.138C283.886 224.856 307.589 180.505 342.393 145.696C377.197 110.886 421.541 87.1802 469.816 77.5762C518.091 67.9722 568.129 72.9013 613.603 91.7402C659.077 110.579 697.945 142.482 725.29 183.414C752.636 224.345 767.232 272.468 767.232 321.697C767.166 387.69 740.925 450.961 694.268 497.625C647.611 544.289 584.35 570.534 518.367 570.6ZM518.367 77.7597C470.128 77.7597 422.973 92.0664 382.864 118.87C342.755 145.675 311.493 183.772 293.033 228.346C274.573 272.92 269.743 321.967 279.154 369.286C288.565 416.605 311.794 460.071 345.904 494.186C380.014 528.301 423.473 551.534 470.785 560.946C518.096 570.359 567.136 565.528 611.703 547.065C656.27 528.602 694.362 497.336 721.162 457.221C747.962 417.105 762.266 369.943 762.266 321.697C762.188 257.025 736.466 195.024 690.743 149.294C645.02 103.564 583.029 77.8386 518.367 77.7597Z" fill="#FA0339"/>
</g>
<path d="M518.962 55.3647H517.721V95.1435H518.962V55.3647Z" fill="#FA0339"/>
<path d="M518.61 0H517.369V38.0193H518.61V0Z" fill="#FA0339"/>
<path d="M498.012 96.0856L494.536 56.4558L495.777 56.3564L499.253 95.9863L498.012 96.0856Z" fill="#FA0339"/>
<path d="M478.4 98.7189L471.498 59.536L472.739 59.3374L479.641 98.5203L478.4 98.7189Z" fill="#FA0339"/>
<path d="M459.133 103.037L448.805 64.5987L450.046 64.3008L460.324 102.739L459.133 103.037Z" fill="#FA0339"/>
<path d="M440.312 109.048L426.707 71.653L427.849 71.2061L441.454 108.601L440.312 109.048Z" fill="#FA0339"/>
<path d="M406.293 80.1154L405.168 80.6401L421.977 116.692L423.102 116.167L406.293 80.1154Z" fill="#FA0339"/>
<path d="M385.729 90.6971L384.654 91.3179L404.541 125.767L405.616 125.147L385.729 90.6971Z" fill="#FA0339"/>
<path d="M366.127 103.199L365.11 103.911L387.923 136.496L388.94 135.783L366.127 103.199Z" fill="#FA0339"/>
<path d="M372.285 148.577L346.713 118.085L347.656 117.291L373.228 147.783L372.285 148.577Z" fill="#FA0339"/>
<path d="M518.371 538.669C460.836 538.669 405.657 515.809 364.973 475.119C324.289 434.429 301.434 379.242 301.434 321.698C301.434 264.154 324.289 208.966 364.973 168.276C405.657 127.586 460.836 104.727 518.371 104.727V107.21C475.956 107.21 434.493 119.79 399.226 143.358C363.959 166.926 336.472 200.424 320.241 239.617C304.009 278.809 299.762 321.936 308.037 363.542C316.312 405.149 336.737 443.367 366.729 473.363C396.721 503.36 434.933 523.788 476.533 532.064C518.133 540.34 561.253 536.093 600.439 519.859C639.626 503.624 673.119 476.133 696.684 440.861C720.248 405.588 732.826 364.12 732.826 321.698H735.308C735.243 379.222 712.366 434.371 671.696 475.047C631.027 515.722 575.886 538.603 518.371 538.669Z" fill="#FA0339"/>
<path d="M522.5 510C471.446 510 422.483 489.719 386.382 453.618C350.281 417.517 330 368.554 330 317.5" stroke="#FA0339" stroke-width="10"/>
<path d="M650.118 453.618C669.376 434.361 684.132 411.443 693.709 386.5" stroke="#FA0339" stroke-width="10"/>
<path d="M594.188 147.662C551.909 130.144 504.772 128.261 461.231 142.351C417.689 156.442 380.592 185.584 356.593 224.551" stroke="#FA0339" stroke-width="10"/>
<line x1="816" y1="304.5" x2="895" y2="304.5" stroke="#FA0339"/>
<line x1="261" y1="100.5" x2="340" y2="100.5" stroke="#FA0339"/>
<line x1="149" y1="304.5" x2="228" y2="304.5" stroke="#FA0339"/>
<line x1="735" y1="501.5" x2="831" y2="501.5" stroke="#FA0339"/>
<line x1="518.5" y1="662" x2="518.5" y2="602" stroke="#FA0339"/>
<path d="M349 550L320.288 585H192" stroke="#FA0339"/>
<path d="M518.369 1.03551C575.389 0.0356424 675.525 19.8451 751.952 101.086" stroke="#FA0339"/>
<line x1="751.6" y1="100.936" x2="830.6" y2="100.936" stroke="#FA0339"/>
<path d="M519.842 278C497.699 278 479.687 295.945 479.687 318.001C479.687 320.897 479.997 323.722 480.589 326.444L483.083 321.105C482.993 320.082 482.95 319.047 482.95 318.001C482.95 309.491 485.87 301.647 490.759 295.411C490.977 295.135 491.197 294.861 491.42 294.593C491.504 294.493 491.586 294.393 491.67 294.295C491.942 293.976 492.222 293.659 492.508 293.347C499.26 285.923 509.014 281.25 519.842 281.25C530.673 281.25 540.427 285.923 547.181 293.347H551.445C544.087 284.01 532.655 278 519.842 278ZM556.93 302.665L554.975 306.763C556.12 310.306 556.737 314.082 556.737 318.001C556.737 338.265 540.187 354.75 519.842 354.75C509.014 354.75 499.257 350.077 492.505 342.653H488.241C495.597 351.992 507.029 358 519.842 358C541.985 358 560 340.058 560 318.001C560 312.571 558.907 307.392 556.93 302.665ZM483.545 324.608L481.332 329.348C482.555 333.465 484.429 337.309 486.835 340.757H490.893C487.227 336.138 484.649 330.626 483.545 324.608ZM552.851 295.243H548.794C550.956 297.965 552.737 300.996 554.064 304.26L555.902 300.406C555.013 298.605 553.993 296.879 552.851 295.243Z" fill="white"/>
<path d="M491.421 294.595L491.279 294.297H491.671C491.587 294.395 491.505 294.495 491.421 294.595Z" fill="white"/>
<path d="M558.366 295.245L555.9 300.407L554.062 304.262L536.634 340.758H514.518L506.347 323.65L498.113 340.758H476L481.33 329.349L483.543 324.609L495.048 299.985L492.783 295.245H514.951L525.575 317.548L536.199 295.245H558.366Z" fill="white"/>
<path d="M520.241 547.385H519V587.164H520.241V547.385Z" fill="#FA0339"/>
<path d="M542.195 586.221L538.769 546.591L540.01 546.492L543.436 586.122L542.195 586.221Z" fill="#FA0339"/>
<path d="M565.231 583.242L558.329 544.059L559.57 543.86L566.472 583.043L565.231 583.242Z" fill="#FA0339"/>
<path d="M633.38 516.741L632.305 517.361L652.191 551.811L653.266 551.19L633.38 516.741Z" fill="#FA0339"/>
<path d="M671.839 539.39L649.048 506.763L650.041 506.067L672.882 538.645L671.839 539.39Z" fill="#FA0339"/>
<path d="M690.306 525.287L664.734 494.795L665.678 494L691.25 524.492L690.306 525.287Z" fill="#FA0339"/>
</svg>
