<svg width="25" height="817" viewBox="0 0 25 817" fill="none" xmlns="http://www.w3.org/2000/svg">
<path d="M22.5 792.58L13.56 792.58C13.11 792.58 12.715 792.43 12.375 792.13C12.045 791.84 11.88 791.35 11.88 790.66C11.88 789.75 12.2 789.085 12.84 788.665L19.005 784.57C19.175 784.46 19.26 784.365 19.26 784.285C19.26 784.165 19.16 784.105 18.96 784.105L12 784.105L12 781.825L20.97 781.825C21.52 781.825 21.93 782.005 22.2 782.365C22.48 782.735 22.62 783.215 22.62 783.805C22.62 784.695 22.32 785.34 21.72 785.74L15.495 789.865C15.485 789.875 15.455 789.89 15.405 789.91C15.365 789.94 15.335 789.96 15.315 789.97C15.305 789.99 15.29 790.015 15.27 790.045C15.25 790.075 15.24 790.105 15.24 790.135C15.24 790.245 15.325 790.3 15.495 790.3L22.5 790.3L22.5 792.58ZM12 800.607L12 797.907L20.4 797.907L20.4 794.007L22.5 794.007L22.5 804.507L20.4 804.507L20.4 800.607L12 800.607ZM12 805.935L20.88 805.935C21.96 805.935 22.5 806.465 22.5 807.525L22.5 813.135C22.5 814.175 22.215 814.9 21.645 815.31C21.075 815.73 20.21 815.94 19.05 815.94C16.64 815.94 15.435 815.145 15.435 813.555L15.435 812.805L15.36 812.805L12 816.15L12 812.835L14.73 810.465C14.78 810.425 14.865 810.345 14.985 810.225C15.115 810.105 15.215 810.015 15.285 809.955C15.355 809.895 15.445 809.825 15.555 809.745C15.665 809.665 15.775 809.605 15.885 809.565C15.995 809.535 16.105 809.52 16.215 809.52L16.455 809.52C16.815 809.52 17.06 809.645 17.19 809.895C17.33 810.145 17.4 810.535 17.4 811.065L17.4 811.95C17.4 812.43 17.52 812.755 17.76 812.925C18 813.095 18.4 813.18 18.96 813.18C19.5 813.18 19.875 813.085 20.085 812.895C20.295 812.705 20.4 812.355 20.4 811.845L20.4 809.34C20.4 809.08 20.345 808.895 20.235 808.785C20.135 808.685 19.955 808.635 19.695 808.635L12 808.635L12 805.935Z" fill="white"/>
<path d="M21.6816 32.3304L4.84665 24.3433L4.84665 32.4907L21.6816 40.4982L21.6816 32.3304Z" fill="white"/>
<path d="M21.6816 22.1805L13.432 18.2661L21.6816 14.3516L21.6816 6.18481L19.9288 7.01871L4.84665 1.64848e-05L4.84665 8.14744L11.1746 11.1817L4.84665 14.1924L4.84665 14.1934L4.84665 22.3398L4.84665 22.3409L21.6816 30.3484L21.6816 22.1805Z" fill="white"/>
<path d="M18.6237 108L25 99.5322L21.4966 97.8515L21.4966 82.3368L21.4966 76.3026L21.4966 76.2434C21.4966 75.6807 21.3502 75.1405 21.0888 74.6671C20.7401 74.0096 20.1839 73.4663 19.4823 73.1392L15.7518 71.4897L15.7518 71.4908L10.3482 68.9729L9.4874 68.5522C7.28592 67.4752 4.7186 69.0784 4.7186 71.5284L4.7186 85.4206C4.7186 86.7774 5.50408 88.0105 6.73286 88.584L10.374 90.326L10.374 90.3023L15.1514 92.6534L15.1514 84.3198L10.374 82.0527L10.374 76.8643L15.7518 79.5101L15.7518 95.0937L12.2785 93.427L18.6237 108Z" fill="white"/>
<path d="M15.9368 52.4716C16.1983 54.1523 16.2854 54.9238 17.894 55.692L21.6826 57.5008L21.6826 42.538L15.9368 39.8555L15.9368 42.765L12.6055 41.1844L4.84655 37.5034L4.84655 45.6509L13.9699 49.9903C13.9699 49.9892 15.6743 50.7898 15.9368 52.4716Z" fill="white"/>
<path d="M11.9988 68.0673L13.4622 68.7656L18.0793 70.9402C21.6828 72.3444 21.7129 69.0734 21.7129 69.0734L21.7129 67.6735L21.7129 59.4282L17.0581 57.2041L17.0581 61.1239C17.0581 61.1239 16.9828 62.0364 16.207 61.975C15.4312 61.9126 15.3667 61.2498 15.3667 61.2498L15.2634 58.7277C15.2634 58.7277 15.3032 57.4968 15.0439 54.682C14.7017 52.3836 12.1129 51.0645 12.1129 51.0645L4.87683 47.4976L4.87683 55.645L8.87844 57.4903C8.88705 57.4946 8.89566 57.4989 8.90427 57.5022C9.41214 57.712 9.61442 57.8282 9.61442 58.1069C9.61442 58.3554 8.89458 58.5846 8.89458 58.5846L4.87683 59.8823L4.87683 68.0394L9.82532 65.9681C10.3569 67.2334 11.9988 68.0673 11.9988 68.0673Z" fill="white"/>
<path d="M1.38995 90.3262C1.38995 90.112 1.38995 89.9077 1.38995 89.6962C1.51117 89.7364 1.62736 89.7753 1.74394 89.813C1.77023 89.8215 1.76791 89.8408 1.76791 89.8611C1.76772 90.3264 1.76733 90.7918 1.76849 91.2571C1.76869 91.3004 1.75283 91.2979 1.72093 91.2873C1.28169 91.1402 0.841477 90.9957 0.403006 90.8465C0.258395 90.7972 0.218376 90.6665 0.189764 90.5345C0.169271 90.4399 0.162697 90.3433 0.162697 90.2464C0.162504 89.6552 0.162311 89.064 0.162891 88.4728C0.163084 88.3694 0.168884 88.2661 0.201363 88.1668C0.241962 88.0426 0.303635 88.0111 0.426979 88.0521C1.24457 88.3239 2.06158 88.5973 2.87994 88.867C3.01315 88.9109 3.07946 89.0044 3.11484 89.1293C3.14693 89.2424 3.1566 89.359 3.15679 89.4762C3.15737 90.0674 3.15737 90.6586 3.15679 91.2498C3.1566 91.3555 3.14983 91.4611 3.11677 91.5626C3.07656 91.6855 3.01334 91.7171 2.89135 91.6768C2.69164 91.6109 2.49232 91.5432 2.29203 91.4793C2.25104 91.4661 2.23809 91.4474 2.23848 91.4039C2.24099 91.161 2.24176 90.9182 2.23828 90.6756C2.23732 90.6126 2.25607 90.6131 2.30556 90.6307C2.4407 90.6787 2.57777 90.7212 2.7131 90.7682C2.75022 90.7811 2.76723 90.7864 2.76685 90.7346C2.76472 90.3974 2.76511 90.0602 2.76665 89.7231C2.76685 89.6871 2.75428 89.6728 2.72219 89.6622C2.0146 89.4275 1.30701 89.1924 0.600202 88.9555C0.556123 88.9408 0.55303 88.9526 0.553223 88.9907C0.55419 89.3279 0.553803 89.6651 0.553803 90.0022C0.553803 90.0266 0.55071 90.0484 0.583769 90.0593C0.849597 90.1457 1.11485 90.2346 1.38995 90.3262Z" fill="white"/>
<path d="M3.15739 93.179C2.28799 92.8894 1.42419 92.6015 0.554018 92.3117C0.554018 92.501 0.554018 92.6825 0.554018 92.8641C0.554018 93.0417 0.555951 93.2192 0.552665 93.3969C0.551891 93.4431 0.565618 93.4613 0.609504 93.4758C1.43483 93.7489 2.25957 94.0246 3.08489 94.2976C3.13999 94.3158 3.16029 94.3382 3.15913 94.3995C3.15469 94.6531 3.1572 94.907 3.1572 95.1689C3.00099 95.1167 2.85077 95.0663 2.70056 95.0162C1.95276 94.7674 1.20573 94.5166 0.456774 94.2715C0.313903 94.2247 0.239085 94.1304 0.202932 93.9939C0.173352 93.8825 0.163106 93.7683 0.163106 93.6536C0.162333 93.0512 0.162333 92.4486 0.163106 91.8462C0.163299 91.7404 0.170066 91.6347 0.203898 91.5336C0.243531 91.4149 0.306943 91.3837 0.426807 91.4238C1.32096 91.7209 2.21491 92.0186 3.10887 92.316C3.13651 92.3251 3.15894 92.3311 3.15855 92.372C3.15604 92.6373 3.15739 92.9025 3.15739 93.179Z" fill="white"/>
<path d="M0.162686 84.5176C0.535232 84.7782 0.897338 85.0313 1.25925 85.2843C1.87907 85.7178 2.49869 86.1514 3.11908 86.5837C3.15562 86.6092 3.17244 86.634 3.17186 86.6807C3.16915 86.9369 3.16954 87.1931 3.17167 87.4492C3.17205 87.4954 3.16606 87.5148 3.11174 87.5161C2.27404 87.5374 1.43634 87.5612 0.598644 87.5846C0.47066 87.5882 0.342676 87.5915 0.214692 87.5977C0.175639 87.5996 0.160753 87.5925 0.161333 87.5482C0.163846 87.3009 0.163266 87.0539 0.161719 86.8066C0.161526 86.7683 0.171773 86.7573 0.210052 86.759C0.364909 86.766 0.519959 86.7679 0.674816 86.7762C0.720442 86.7788 0.730108 86.7656 0.729915 86.7221C0.728175 86.4029 0.728175 86.0839 0.729915 85.7647C0.730108 85.7255 0.715802 85.705 0.684483 85.6855C0.524406 85.5861 0.365682 85.4846 0.206765 85.3837C0.185112 85.37 0.161526 85.3607 0.161719 85.3247C0.163459 85.0599 0.162686 84.795 0.162686 84.5176ZM1.12044 85.9573C1.12044 86.2313 1.12121 86.4936 1.11967 86.7559C1.11947 86.7991 1.14789 86.7882 1.16955 86.7888C1.58733 86.8016 2.00512 86.8139 2.42271 86.8257C2.43373 86.8261 2.44958 86.8354 2.45673 86.8139C2.01536 86.5311 1.57361 86.2479 1.12044 85.9573Z" fill="white"/>
<path d="M0.55619 84.3867C0.432072 84.345 0.318201 84.3046 0.202977 84.2694C0.169724 84.2591 0.159284 84.2439 0.162957 84.2127C0.163731 84.2062 0.163151 84.1992 0.163151 84.1924C0.163151 83.4528 0.163731 82.7131 0.161991 81.9734C0.161797 81.9154 0.173784 81.9088 0.227529 81.9268C1.18722 82.2481 2.14768 82.5675 3.10814 82.8871C3.13927 82.8973 3.15937 82.9066 3.15918 82.9493C3.15725 83.7002 3.15783 84.4511 3.15763 85.202C3.15763 85.2086 3.15609 85.2153 3.15435 85.2297C3.03197 85.1894 2.91114 85.1498 2.7905 85.11C2.7528 85.0976 2.76691 85.0655 2.76691 85.0414C2.76614 84.5895 2.76537 84.1375 2.76769 83.6857C2.76788 83.6343 2.75357 83.6142 2.70389 83.5983C2.44792 83.5168 2.1935 83.4299 1.9385 83.3451C1.924 83.3402 1.91066 83.3292 1.89055 83.3372C1.89055 83.7559 1.89055 84.1758 1.89055 84.6037C1.76508 84.5617 1.64502 84.5201 1.524 84.4819C1.48282 84.4689 1.49944 84.4384 1.49925 84.4155C1.49809 84.0333 1.49732 83.6511 1.49983 83.2689C1.50022 83.2163 1.48784 83.1912 1.43487 83.1742C1.15338 83.0839 0.87325 82.9892 0.592729 82.896C0.582483 82.8925 0.571849 82.8898 0.556383 82.8853C0.55619 83.3857 0.55619 83.8816 0.55619 84.3867Z" fill="white"/>
<path d="M1.889 96.1566C1.889 96.5861 1.889 97.0061 1.889 97.4324C1.76547 97.391 1.64754 97.349 1.52806 97.3125C1.48765 97.3001 1.49887 97.273 1.49887 97.2491C1.49829 96.9367 1.49848 96.624 1.49848 96.3116C1.49848 96.2306 1.49751 96.1498 1.49906 96.0688C1.49964 96.0412 1.49461 96.0239 1.46445 96.0141C1.16653 95.9163 0.869191 95.8167 0.571657 95.7181C0.56779 95.7169 0.562957 95.7191 0.555224 95.72C0.555224 96.2161 0.555224 96.7124 0.555224 97.2149C0.429753 97.1731 0.309502 97.1321 0.188478 97.0936C0.151938 97.082 0.164118 97.055 0.163925 97.0329C0.163152 96.7542 0.163345 96.4754 0.163345 96.1966C0.163345 95.7312 0.164118 95.2659 0.162185 94.8004C0.161991 94.748 0.168371 94.7364 0.223277 94.7547C1.18528 95.0768 2.14787 95.3966 3.11046 95.7167C3.13888 95.7262 3.15918 95.7336 3.15918 95.7738C3.15744 96.527 3.15783 97.28 3.15763 98.0332C3.15763 98.0394 3.15512 98.0456 3.15241 98.0582C3.02984 98.0178 2.90901 97.9785 2.78857 97.9379C2.75183 97.9255 2.76711 97.8923 2.76711 97.8681C2.76633 97.4163 2.76575 96.9643 2.76769 96.5125C2.76788 96.4649 2.75512 96.444 2.70834 96.429C2.43767 96.3416 2.16875 96.2501 1.889 96.1566Z" fill="white"/>
<path d="M0.565242 80.2713C0.565242 80.7334 0.565242 81.1886 0.565242 81.6507C0.437065 81.608 0.314687 81.5656 0.191343 81.5274C0.147844 81.5138 0.161957 81.4821 0.161957 81.4562C0.161183 80.9799 0.161377 80.5035 0.161377 80.0271C0.161377 79.7847 0.161377 79.5423 0.161377 79.2915C0.313527 79.3418 0.459878 79.3895 0.605841 79.4382C1.436 79.7149 2.26577 79.9923 3.09631 80.2678C3.14136 80.2827 3.15779 80.3003 3.15721 80.3498C3.15431 80.6081 3.15586 80.8666 3.15586 81.1341C2.29129 80.8463 1.43117 80.5597 0.565242 80.2713Z" fill="white"/>
<path d="M2.06836 78.9626L1.94473 53.7061L1.29294 78.6445L2.06836 78.9626Z" fill="white"/>
<path d="M17.9355 454.245L17.9355 421.607L6.2615 407.08L6.2615 442.72L17.9355 454.245Z" fill="#FA0339"/>
<path d="M18 462.569L6.32434 451.044L6.32434 446.419L18 457.945L18 462.569Z" fill="#FA0339"/>
<path d="M17.9375 470.727L6.26184 459.201L6.26184 454.577L17.9375 466.102L17.9375 470.727Z" fill="#FA0339"/>
<path d="M17.9375 479.032L6.26184 467.506L6.26184 462.882L17.9375 474.408L17.9375 479.032Z" fill="#FA0339"/>
<path d="M17.9375 487.106L6.26184 475.581L6.26184 470.957L17.9375 482.482L17.9375 487.106Z" fill="#FA0339"/>
<path d="M17.9375 495.368L6.26184 483.842L6.26184 479.218L17.9375 490.744L17.9375 495.368Z" fill="#FA0339"/>
<path d="M17.9375 503.629L6.26184 492.103L6.26184 487.479L17.9375 499.005L17.9375 503.629Z" fill="#FA0339"/>
<path d="M17.9375 511.935L6.26184 500.409L6.26184 495.785L17.9375 507.31L17.9375 511.935Z" fill="#FA0339"/>
<path d="M17.9375 520.012L6.26184 508.486L6.26184 503.862L17.9375 515.388L17.9375 520.012Z" fill="#FA0339"/>
<path d="M17.9375 769.999L17.9375 517.714L15.6117 517.714L15.6117 769.999L17.9375 769.999Z" fill="#FA0339"/>
<path d="M8.6504 490.662L8.65041 104.656L6.32461 103L6.32462 490.662L8.6504 490.662Z" fill="#FA0339"/>
</svg>
