<svg width="826" height="285" viewBox="0 0 826 285" fill="none" xmlns="http://www.w3.org/2000/svg">
<path d="M142.5 0C63.8501 0 0 63.8501 0 142.5C0 221.15 63.8501 285 142.5 285C221.15 285 285 221.15 285 142.5C285 63.8501 221.15 0 142.5 0ZM155.397 216.076C153.494 219.036 151.591 223.053 147.363 223.053C143.769 223.053 140.809 219.458 139.117 216.499L66.5987 84.5697C64.6958 80.9755 63.0045 76.9585 62.5816 73.1528C61.9473 66.3872 66.8101 62.1588 72.5185 62.1588C89.0096 62.1588 108.672 61.9473 125.375 62.1588C132.14 62.3702 137.003 65.1187 140.386 72.0957C147.997 87.7411 150.746 99.158 160.682 113.323C161.105 113.958 161.528 114.592 161.951 115.015C173.579 127.489 201.065 135.734 222.418 98.7352L155.397 216.076Z" fill="#650BE8"/>
<path d="M542.589 115.711C541.954 115.711 541.32 115.711 540.474 115.711C531.802 115.711 516.574 120.544 511.921 134.411L511.498 135.462C511.498 135.672 511.075 135.882 510.864 135.882C510.441 135.882 510.229 135.672 510.229 135.251L509.383 120.334C509.383 119.073 508.114 118.022 506.845 118.022H485.695C484.214 118.022 483.157 119.283 483.157 120.754C483.58 127.057 483.58 135.041 483.58 147.858V204.378C483.58 205.848 484.637 206.899 486.118 206.899H512.556C514.036 206.899 515.094 205.848 515.094 204.378V162.776C515.094 161.305 515.094 159.624 515.305 157.943V157.733C516.997 148.909 525.457 143.656 537.936 143.656C539.416 143.656 540.897 143.656 542.166 143.866C543.858 144.076 545.127 142.815 545.127 141.135V118.443C545.338 116.972 544.069 115.921 542.589 115.711Z" fill="#650BE8"/>
<path d="M614.711 184.207C610.058 184.417 604.136 184.627 602.021 184.627C589.33 184.627 588.273 175.172 588.273 165.717V142.815C588.273 141.345 589.542 140.084 591.022 140.084H614.711C616.191 140.084 617.46 138.823 617.46 137.353V120.544C617.46 119.073 616.191 117.812 614.711 117.812H591.022C589.542 117.812 588.273 116.552 588.273 115.081V94.7004C588.273 93.0195 586.581 91.7589 585.1 92.1791L560.143 97.852C558.874 98.0622 558.028 99.1127 558.028 100.373V172.441C558.028 185.678 560.566 194.713 566.065 200.176C570.084 204.378 578.332 208.79 589.33 208.79C603.713 208.79 611.538 207.95 615.768 207.109C617.037 206.899 617.883 205.849 617.883 204.588V186.728C617.46 185.468 616.191 184.207 614.711 184.207Z" fill="#650BE8"/>
<path d="M723.845 120.753C723.845 119.283 722.576 118.022 721.096 118.022H694.87C693.389 118.022 692.12 119.283 692.12 120.753V169.499C692.12 171.18 692.12 172.861 691.486 174.541C690.64 177.063 686.833 185.257 676.68 185.257C669.489 185.257 661.029 181.685 661.029 164.456V120.753C661.029 119.283 659.76 118.022 658.28 118.022H632.054C630.573 118.022 629.304 119.283 629.304 120.753V170.549C629.304 195.342 641.148 208.999 662.721 208.999C675.2 208.999 687.89 203.957 694.024 194.712L694.447 194.082C694.658 193.872 694.87 193.661 695.081 193.661C695.716 193.661 696.139 194.082 696.139 194.712L697.196 204.587C697.408 205.848 698.465 206.898 699.946 206.898H721.519C722.999 206.898 724.268 205.638 724.268 204.167C723.845 195.763 723.845 186.518 723.845 176.853V120.753Z" fill="#650BE8"/>
<path d="M825.366 185.888V154.582C825.366 128.738 810.561 115.711 781.585 115.711C764.242 115.711 751.975 119.493 745.418 122.435C744.149 123.065 743.515 124.326 743.938 125.586L747.533 138.403C747.956 139.874 749.648 140.714 751.129 140.084C757.897 137.353 766.991 134.831 775.451 134.831C787.93 134.831 794.063 138.193 794.063 144.706V146.387C794.063 147.018 793.64 147.438 793.006 147.438H791.737C773.971 147.438 760.012 150.379 750.494 156.052C740.765 161.935 735.901 170.55 735.901 181.896C735.901 195.343 746.476 209 766.357 209C777.778 209 789.199 205.848 794.909 199.545L795.332 199.125C795.544 198.915 795.756 198.915 795.967 198.915C796.39 198.915 796.601 199.125 796.601 199.545L797.871 205.008C798.082 206.269 799.139 207.109 800.408 207.109H823.251C824.731 207.109 826 205.848 826 204.168C825.577 199.125 825.366 192.822 825.366 185.888ZM794.698 177.694C793.006 183.997 786.238 189.04 779.681 189.04C771.856 189.04 767.203 185.048 767.203 178.534C767.203 169.289 775.874 164.667 793.006 164.667H794.275C794.909 164.667 795.332 165.087 795.332 165.717V172.021C795.121 173.912 795.121 176.013 794.698 177.694Z" fill="#650BE8"/>
<path d="M461.795 118.022H435.569C434.089 118.022 432.82 119.283 432.82 120.753V204.167C432.82 205.638 434.089 206.898 435.569 206.898H461.795C463.276 206.898 464.545 205.638 464.545 204.167V120.753C464.545 119.283 463.276 118.022 461.795 118.022Z" fill="#650BE8"/>
<path d="M420.553 118.022H391.789C390.308 118.022 389.25 118.863 388.827 120.123L371.907 175.172H371.273L353.295 119.913C352.872 118.652 351.603 117.812 350.334 117.812H320.301C318.609 117.812 317.552 119.493 318.186 120.964L352.872 204.798C353.295 206.058 354.564 206.688 355.833 206.688H384.597C385.866 206.688 386.924 205.848 387.558 204.798L422.668 120.964C423.302 119.703 422.245 118.022 420.553 118.022Z" fill="#650BE8"/>
<path d="M448.894 76C437.684 76 430.916 82.9336 430.916 91.9683C430.916 100.793 437.473 107.937 448.682 107.937C460.103 107.937 466.871 100.793 466.871 91.9683C466.66 82.9336 460.103 76 448.894 76Z" fill="#650BE8"/>
</svg>
