<svg width="25" height="24" viewBox="0 0 25 24" fill="none" xmlns="http://www.w3.org/2000/svg">
<path d="M21.1666 3.20351C20.5627 3.54487 18.357 3.6499 18.1994 3.70242C17.9893 3.75494 14.0243 3.75494 13.9456 3.70242C13.8931 3.67616 13.3154 3.28229 13.0528 3.09848C12.974 3.04596 12.9478 3.0197 12.9478 3.0197C12.9478 3.0197 13.3416 2.91467 13.9193 2.75712C15.3898 2.38951 18.0944 1.70679 18.5933 1.78557C18.9084 1.83808 19.3548 1.91686 19.8012 2.07441C19.985 2.2057 20.1688 2.33699 20.3526 2.46828C20.5889 2.65209 20.799 2.8359 21.009 3.0197C21.0616 3.09848 21.1141 3.151 21.1666 3.20351Z" fill="url(#paint0_linear_845_7400)"/>
<path d="M1.34169 9.05843C4.83404 8.37571 8.32639 7.53545 11.845 6.93151C15.3899 6.32757 19.4861 5.56608 23.2148 5.95995C23.2673 5.95995 23.3198 5.95995 23.3724 5.98621C23.4511 6.14376 23.5562 6.30131 23.6349 6.45886C24.2389 7.61422 24.659 8.84836 24.8428 10.1875C24.8691 10.3976 24.8953 10.6339 24.9216 10.844C24.7903 11.0015 24.6328 11.1591 24.5015 11.3166C23.95 11.2904 23.4249 11.2904 22.8735 11.3166C22.8209 11.3166 22.7422 11.3166 22.6896 11.3429C22.1382 10.03 19.171 10.3713 17.8844 10.5814C16.3352 10.7915 14.7859 11.0541 13.2367 11.3429C13.1054 11.3692 12.9478 11.3954 12.8165 11.4217C12.0288 11.553 11.2148 11.7105 10.427 11.8418C7.03973 12.4195 4.51894 12.9446 2.47079 13.2335C2.44453 13.1022 2.39202 12.9972 2.36576 12.8659C2.31324 12.6821 2.26073 12.472 2.18195 12.2882C2.10318 12.0781 2.05066 11.8681 1.97189 11.658C1.81434 11.2379 1.68304 10.7915 1.55175 10.3713C1.44672 10.0562 1.36795 9.74114 1.31543 9.42604" fill="url(#paint1_linear_845_7400)"/>
<path d="M20.3264 2.49453C18.3308 2.02189 16.1513 2.36324 14.1032 2.86215C13.7618 2.94092 13.3942 3.04596 13.0529 3.12473C12.6327 3.22977 12.2126 3.3348 11.8187 3.46609C10.4533 3.8337 9.08785 4.25384 7.72242 4.59519C6.88216 4.80526 5.93687 5.14662 5.04409 5.04158C4.54518 4.98907 3.91498 4.85778 3.54736 4.59519C4.86028 2.91467 6.61958 1.60175 8.66772 0.814006C10.0069 0.288841 11.4774 0 13.0003 0C15.5211 0 17.8581 0.787748 19.8012 2.10066C19.985 2.23195 20.1426 2.36324 20.3264 2.49453Z" fill="url(#paint2_linear_845_7400)"/>
<path d="M22.5321 19.2738C22.1382 19.799 21.7181 20.2716 21.2455 20.718C20.7728 21.1644 20.2739 21.5583 19.7487 21.9259C18.6459 22.6874 17.4117 23.2388 16.0988 23.6064C15.9413 23.659 15.7837 23.6852 15.6262 23.7115C14.7859 23.8953 13.8931 24.0003 12.9741 24.0003C11.7662 24.0003 10.6109 23.8165 9.50802 23.5014C9.27169 23.4226 9.03537 23.3439 8.8253 23.2651C7.93252 22.9237 7.09226 22.5036 6.30451 21.9784C6.01567 21.7684 5.72683 21.5583 5.43799 21.3482C5.4905 21.3745 5.54301 21.3745 5.59553 21.4007C7.61742 21.8997 9.82311 21.5583 11.9238 21.0594C12.7115 20.8756 13.4993 20.6393 14.2345 20.4554C15.5999 20.0878 16.9654 19.6414 18.357 19.2738C19.1973 19.0375 20.1689 18.7224 21.0354 18.8274C21.2455 18.8537 21.4555 18.88 21.6918 18.9325C22.0069 19.0112 22.322 19.1163 22.5321 19.2738Z" fill="#61C0E2"/>
<path d="M13.1317 11.3168C13.0267 11.343 12.9216 11.3956 12.8166 11.4218C12.7903 11.4218 12.7641 11.4218 12.7641 11.4481C10.7685 12.0783 8.74657 12.656 6.69842 13.0761C5.30673 13.3649 3.86253 13.68 2.44458 13.2862C1.94568 13.1549 1.44677 12.9185 1.00038 12.5772C1.00038 12.3934 0.974121 12.1833 0.974121 11.9995C0.974121 11.1067 1.07916 10.2139 1.26296 9.37368C1.28922 9.26865 1.31548 9.16361 1.34174 9.05858C1.49929 9.00606 1.63058 8.9798 1.78813 8.92729C3.88879 8.4809 6.17326 9.03232 8.16889 9.68878C9.7969 10.2139 11.4512 10.7916 13.1317 11.3168Z" fill="url(#paint3_linear_845_7400)"/>
<path d="M24.9476 10.8182C24.9738 11.2121 25.0001 11.5797 25.0001 11.9736C25.0001 12.4725 24.9738 12.9452 24.9213 13.4178C24.6325 13.4703 24.3174 13.4703 24.0023 13.4441C20.3261 13.2077 16.755 12.3675 13.2364 11.3171C13.2101 11.3171 13.1576 11.2909 13.1313 11.2909C13.2364 11.2646 13.3152 11.2384 13.4202 11.1858C15.8622 10.3456 18.3042 9.32151 20.8775 9.11145C22.0066 9.00641 23.267 9.05893 24.2911 9.66287C24.4487 9.7679 24.685 9.92545 24.8688 10.1355C24.895 10.3981 24.9213 10.6082 24.9476 10.8182Z" fill="url(#paint4_linear_845_7400)"/>
<path d="M24.6328 14.9678C24.239 16.5695 23.5037 18.0137 22.5322 19.2741C22.1383 19.7993 21.7182 20.2719 21.2455 20.7183C21.4293 20.4295 21.5606 20.1669 21.6656 19.9043C21.7444 19.668 21.8232 19.4317 21.7707 19.1954C21.7444 19.0903 21.7182 19.0115 21.6919 18.9328C21.193 17.8037 19.1711 18.1188 18.2783 18.3026C16.4665 18.6702 14.681 19.1166 12.8954 19.5367C9.29801 20.4032 7.0398 21.1122 5.25424 21.191C4.09887 20.2194 3.12732 19.0115 2.39209 17.6461C3.12732 17.5411 4.0201 17.3835 5.07043 17.0947C8.03761 16.3332 10.9523 15.3879 13.9195 14.6789C16.6766 14.0225 19.9063 13.1822 22.7422 13.8387C23.53 14.0225 24.1602 14.4164 24.6328 14.9678Z" fill="url(#paint5_linear_845_7400)"/>
<path d="M19.7492 21.9257C18.6464 22.6872 17.4122 23.2386 16.0993 23.6062C15.9418 23.6587 15.7842 23.685 15.6267 23.7113L9.53476 23.5012C9.29843 23.4224 9.06212 23.3437 8.85205 23.2649C9.90238 23.1598 11.189 22.976 12.6332 22.6609C13.0271 22.5822 13.4472 22.4771 13.8936 22.3458C17.0709 21.5056 18.909 21.348 19.7492 21.9257Z" fill="url(#paint6_linear_845_7400)"/>
<path d="M16.099 23.6061C15.9415 23.6586 15.7839 23.6849 15.6264 23.7112C14.7861 23.895 13.8933 24 12.9743 24C11.7664 24 10.611 23.8162 9.5082 23.5011C9.27187 23.4223 9.03555 23.3435 8.82548 23.2648C7.9327 22.9234 7.09244 22.5033 6.30469 21.9781C7.35502 21.7943 9.24561 21.8468 12.6067 22.6608C13.6307 22.8972 14.7861 23.2123 16.099 23.6061Z" fill="url(#paint7_linear_845_7400)"/>
<path d="M23.3722 5.98711C23.4509 6.14466 23.556 6.30221 23.6347 6.45976C23.5034 6.27595 23.3459 6.1184 23.2146 5.96085C19.6435 2.2847 12.6063 4.77923 11.3721 5.06807C10.033 5.38317 4.96512 6.95867 1.97168 7.16873C2.39181 6.22344 2.91698 5.35691 3.54717 4.54291C4.86009 2.86238 6.61939 1.54947 8.66753 0.761719C10.033 1.20811 11.3721 1.75953 12.6063 2.2847C13.0264 2.46851 13.4728 2.62605 13.8929 2.75735C13.9717 2.7836 14.0242 2.80986 14.103 2.80986C15.3634 3.20374 16.6763 3.44006 18.0417 3.44006C18.9083 3.44006 20.1686 3.46632 21.0089 3.01993C21.0614 3.07245 21.114 3.12496 21.1927 3.17748C22.033 4.01774 22.7945 4.96304 23.3722 5.98711Z" fill="url(#paint8_linear_845_7400)"/>
<defs>
<linearGradient id="paint0_linear_845_7400" x1="12.9411" y1="2.77201" x2="21.1711" y2="2.77201" gradientUnits="userSpaceOnUse">
<stop offset="0.211" stop-color="#61BFE1"/>
<stop offset="0.9997" stop-color="#736C94"/>
</linearGradient>
<linearGradient id="paint1_linear_845_7400" x1="-4.33241" y1="9.51367" x2="24.9374" y2="9.51367" gradientUnits="userSpaceOnUse">
<stop offset="0.3795" stop-color="#078B7B"/>
<stop offset="0.9091" stop-color="#4DB0B7"/>
</linearGradient>
<linearGradient id="paint2_linear_845_7400" x1="3.55007" y1="2.5127" x2="20.3305" y2="2.5127" gradientUnits="userSpaceOnUse">
<stop stop-color="#F1E931"/>
<stop offset="0.1119" stop-color="#ECE735"/>
<stop offset="0.2515" stop-color="#DCE242"/>
<stop offset="0.4059" stop-color="#C3D957"/>
<stop offset="0.571" stop-color="#9FCD74"/>
<stop offset="0.7427" stop-color="#72BD99"/>
<stop offset="0.8663" stop-color="#4DB0B7"/>
</linearGradient>
<linearGradient id="paint3_linear_845_7400" x1="1.11135" y1="11.1307" x2="25.4294" y2="10.957" gradientUnits="userSpaceOnUse">
<stop stop-color="#61BFE1"/>
<stop offset="0.0931388" stop-color="#63B4D7"/>
<stop offset="0.2566" stop-color="#6A97BC"/>
<stop offset="0.4519" stop-color="#736C94"/>
</linearGradient>
<linearGradient id="paint4_linear_845_7400" x1="24.1508" y1="11.1811" x2="9.72436" y2="12.4372" gradientUnits="userSpaceOnUse">
<stop stop-color="#804C88"/>
<stop offset="0.2619" stop-color="#6C5F8B"/>
<stop offset="0.658" stop-color="#51788F"/>
<stop offset="0.8911" stop-color="#61C1E3"/>
</linearGradient>
<linearGradient id="paint5_linear_845_7400" x1="2.38616" y1="17.3982" x2="24.6262" y2="17.3982" gradientUnits="userSpaceOnUse">
<stop stop-color="#F1E931"/>
<stop offset="0.1373" stop-color="#EDE834"/>
<stop offset="0.2777" stop-color="#E1E33E"/>
<stop offset="0.4194" stop-color="#CCDC4F"/>
<stop offset="0.5622" stop-color="#AFD267"/>
<stop offset="0.7058" stop-color="#8AC585"/>
<stop offset="0.8481" stop-color="#5EB6A9"/>
<stop offset="0.8963" stop-color="#4DB0B7"/>
</linearGradient>
<linearGradient id="paint6_linear_845_7400" x1="8.83062" y1="22.6508" x2="19.7405" y2="22.6508" gradientUnits="userSpaceOnUse">
<stop offset="0.2004" stop-color="#F1E931"/>
<stop offset="0.9285" stop-color="#4DB0B7"/>
</linearGradient>
<linearGradient id="paint7_linear_845_7400" x1="6.31711" y1="22.9548" x2="16.0865" y2="22.9548" gradientUnits="userSpaceOnUse">
<stop stop-color="#804C88"/>
<stop offset="0.2619" stop-color="#6C5F8B"/>
<stop offset="0.658" stop-color="#51788F"/>
<stop offset="0.8911" stop-color="#61C1E3"/>
</linearGradient>
<linearGradient id="paint8_linear_845_7400" x1="12.8089" y1="0.491338" x2="12.8089" y2="8.86714" gradientUnits="userSpaceOnUse">
<stop offset="0.1684" stop-color="#44518C"/>
<stop offset="0.9831" stop-color="#008181"/>
</linearGradient>
</defs>
</svg>
