<svg width="21" height="16" viewBox="0 0 21 16" fill="none" xmlns="http://www.w3.org/2000/svg">
<path d="M21 1.89355C20.2259 2.21579 19.3961 2.43215 18.5237 2.53035C19.4141 2.03011 20.0982 1.23832 20.419 0.296154C19.5876 0.758032 18.6628 1.09408 17.6825 1.27515C16.8969 0.489498 15.7774 0 14.5385 0C12.1588 0 10.2291 1.80761 10.2291 4.03875C10.2291 4.35485 10.2684 4.66328 10.3421 4.95943C6.76105 4.79064 3.58756 3.18251 1.46154 0.738084C1.09002 1.33653 0.878887 2.03011 0.878887 2.76973C0.878887 4.17071 1.6383 5.4075 2.79542 6.13331C2.08838 6.11182 1.4239 5.92922 0.842881 5.62693C0.842881 5.64381 0.842881 5.66069 0.842881 5.67757C0.842881 7.63556 2.32897 9.26671 4.29787 9.63959C3.93781 9.73166 3.55647 9.78076 3.16367 9.78076C2.88543 9.78076 2.61538 9.75621 2.35188 9.70711C2.9018 11.3106 4.49264 12.4814 6.37643 12.5137C4.90344 13.597 3.04583 14.2415 1.02619 14.2415C0.677578 14.2415 0.335516 14.2231 0 14.1847C1.90507 15.3325 4.17021 16 6.60393 16C14.5286 16 18.8625 9.84521 18.8625 4.5083C18.8625 4.33337 18.8576 4.1569 18.8511 3.98504C19.6923 3.41575 20.4223 2.70375 21 1.89355Z" fill="white"/>
</svg>
