<svg width="18" height="18" viewBox="0 0 18 18" fill="none" xmlns="http://www.w3.org/2000/svg">
<circle cx="9" cy="9" r="7.875" fill="#F4B83E"/>
<path d="M5.625 11.25L7.3125 6.1875H16.3125L16.875 7.3125L17.4375 9.5625L16.875 11.8125H5.625V11.25Z" fill="#C4C4C4"/>
<path d="M6.78273 4.92545C7.34756 4.92545 7.80545 4.46756 7.80545 3.90273C7.80545 3.33789 7.34756 2.88 6.78273 2.88C6.21789 2.88 5.76 3.33789 5.76 3.90273C5.76 4.46756 6.21789 4.92545 6.78273 4.92545Z" fill="#16223A"/>
<path fill-rule="evenodd" clip-rule="evenodd" d="M9 18C13.9706 18 18 13.9706 18 9C18 4.02944 13.9706 0 9 0C4.02944 0 0 4.02944 0 9C0 13.9706 4.02944 18 9 18ZM9 16.605C9.21788 16.605 9.43361 16.5958 9.64685 16.5779L6.88062 12.0762C6.87219 12.0625 6.86475 12.0484 6.85828 12.0342H4.65049L6.58403 6.62025C6.81177 5.98256 7.41581 5.55688 8.09295 5.55688H8.6694L9.89968 1.44766C9.60462 1.41288 9.3044 1.395 9 1.395C4.79987 1.395 1.395 4.79987 1.395 9C1.395 13.2001 4.79987 16.605 9 16.605ZM7.73506 12.0342L10.458 16.4654C12.94 15.9835 14.9911 14.2945 15.9756 12.0342H7.73506ZM10.6449 1.57337C12.892 2.06884 14.7661 3.55817 15.7828 5.55688H9.45229L10.6449 1.57337ZM5.71474 11.2842H16.256C16.4827 10.5632 16.605 9.79586 16.605 9C16.605 8.05175 16.4315 7.14403 16.1144 6.30688H8.09295C7.73277 6.30688 7.41148 6.53331 7.29033 6.87251L5.71474 11.2842Z" fill="#16223A"/>
<path d="M10.395 7.8H9.43C9.31 7.8 9.20833 7.815 9.125 7.845C9.04167 7.875 8.975 7.91333 8.925 7.96C8.87833 8.00667 8.84167 8.07 8.815 8.15C8.78833 8.23 8.77167 8.30833 8.765 8.385C8.75833 8.46167 8.755 8.55667 8.755 8.67C8.755 8.81333 8.76167 8.93167 8.775 9.025C8.78833 9.115 8.81667 9.205 8.86 9.295C8.90333 9.38167 8.97167 9.44667 9.065 9.49C9.16167 9.53 9.28333 9.55 9.43 9.55H10.455V10H9.285C8.86167 10 8.56667 9.88833 8.4 9.665C8.23333 9.43833 8.15 9.10667 8.15 8.67C8.15 8.23667 8.23333 7.90833 8.4 7.685C8.56667 7.46167 8.86167 7.35 9.285 7.35H10.395V7.8ZM12.8706 7.8H11.9056C11.7856 7.8 11.6839 7.815 11.6006 7.845C11.5173 7.875 11.4506 7.91333 11.4006 7.96C11.3539 8.00667 11.3173 8.07 11.2906 8.15C11.2639 8.23 11.2473 8.30833 11.2406 8.385C11.2339 8.46167 11.2306 8.55667 11.2306 8.67C11.2306 8.81333 11.2373 8.93167 11.2506 9.025C11.2639 9.115 11.2923 9.205 11.3356 9.295C11.3789 9.38167 11.4473 9.44667 11.5406 9.49C11.6373 9.53 11.7589 9.55 11.9056 9.55H12.9306V10H11.7606C11.3373 10 11.0423 9.88833 10.8756 9.665C10.7089 9.43833 10.6256 9.10667 10.6256 8.67C10.6256 8.23667 10.7089 7.90833 10.8756 7.685C11.0423 7.46167 11.3373 7.35 11.7606 7.35H12.8706V7.8ZM15.3462 7.8H14.3812C14.2612 7.8 14.1595 7.815 14.0762 7.845C13.9928 7.875 13.9262 7.91333 13.8762 7.96C13.8295 8.00667 13.7928 8.07 13.7662 8.15C13.7395 8.23 13.7228 8.30833 13.7162 8.385C13.7095 8.46167 13.7062 8.55667 13.7062 8.67C13.7062 8.81333 13.7128 8.93167 13.7262 9.025C13.7395 9.115 13.7678 9.205 13.8112 9.295C13.8545 9.38167 13.9228 9.44667 14.0162 9.49C14.1128 9.53 14.2345 9.55 14.3812 9.55H15.4062V10H14.2362C13.8128 10 13.5178 9.88833 13.3512 9.665C13.1845 9.43833 13.1012 9.10667 13.1012 8.67C13.1012 8.23667 13.1845 7.90833 13.3512 7.685C13.5178 7.46167 13.8128 7.35 14.2362 7.35H15.3462V7.8Z" fill="#16223A"/>
</svg>
