<svg width="44" height="44" viewBox="0 0 44 44" fill="none" xmlns="http://www.w3.org/2000/svg">
<path opacity="0.2" d="M42.9992 1.00012H1V43.0001H42.9992V1.00012Z" stroke="#FA0339" stroke-miterlimit="10"/>
<path d="M39.0703 1.00012H43.001V4.93086" stroke="#FA0339" stroke-width="2" stroke-miterlimit="10"/>
<path d="M1 4.93086V1.00012H4.93066" stroke="#FA0339" stroke-width="2" stroke-miterlimit="10"/>
<path d="M1 39.0695V43.0002H4.93066" stroke="#FA0339" stroke-width="2" stroke-miterlimit="10"/>
<path d="M43.001 39.0695V43.0002H39.0703" stroke="#FA0339" stroke-width="2" stroke-miterlimit="10"/>
<path d="M20.659 7.05924C17.9148 7.30534 15.2175 8.34333 13.0068 10.0027C9.92252 12.3248 7.85236 15.7259 7.18996 19.5726C6.77948 21.9593 7.04334 24.8443 7.89338 27.1428C8.99596 30.1392 11.0658 32.7429 13.7574 34.5431C14.5257 35.0534 15.9154 35.7568 16.8358 36.091C19.8148 37.1875 23.1161 37.2931 26.2062 36.4017C30.1876 35.2585 33.6123 32.3673 35.4535 28.6029C36.3623 26.7501 36.7963 25.114 36.9604 22.997C37.1187 20.9213 36.7669 18.605 35.9812 16.5762C34.2633 12.1371 30.3639 8.66014 25.784 7.49298C24.0365 7.0476 22.3655 6.9068 20.659 7.05924ZM21.4096 8.14405C21.6499 8.22027 21.9841 8.36108 22.1427 8.44893C22.4359 8.60719 22.4359 8.61331 22.4769 8.9592C22.5473 9.60416 22.7172 9.88577 22.9988 9.827C23.2275 9.78016 23.6612 9.95587 23.7846 10.138C23.8434 10.2317 23.8724 10.3725 23.8608 10.5307L23.8434 10.7713L22.9049 11.1757C21.4974 11.7738 19.4686 12.5831 18.7532 12.8234C17.9733 13.0815 17.6568 13.0989 17.4866 12.8822C17.2285 12.5537 17.2873 12.4892 18.8588 11.2109C19.9436 10.3315 20.3425 9.95587 20.2779 9.89158C20.2075 9.82118 19.5919 10.0792 18.3605 10.6951C17.006 11.3753 16.144 11.9088 15.8566 12.2314C15.7216 12.3897 15.669 12.5188 15.6337 12.7769C15.5811 13.252 15.4167 13.592 15.1997 13.7035C14.9533 13.8323 14.4375 13.8207 14.0797 13.6799C13.5872 13.4864 13.2355 13.5216 12.4084 13.8617C12.2853 13.9085 12.1035 13.9144 11.8396 13.8911C11.4644 13.8501 11.4527 13.8443 11.4175 13.6683C11.3998 13.5685 11.3177 13.3986 11.2357 13.293C11.1537 13.1874 11.0891 13.076 11.0891 13.0524C11.0891 13.023 11.3704 12.7007 11.7108 12.3428C13.9214 10.0091 16.8006 8.49607 19.9553 8.02131C20.5947 7.92703 20.8173 7.94448 21.4096 8.14405ZM27.5548 11.3104C27.6252 11.3572 27.7602 11.5507 27.8481 11.7325C27.9421 11.9259 28.0474 12.0726 28.1119 12.0842C28.1707 12.0958 28.5576 11.9434 28.9681 11.7499C30.1408 11.1812 30.3814 11.1986 31.2844 11.9198C32.117 12.5825 33.8174 14.4001 34.3512 15.1978C34.7969 15.8605 35.4124 17.4379 35.7115 18.6632C36.2334 20.7805 36.1397 22.2994 35.4948 22.2994C35.3071 22.2994 34.9551 22.0413 33.8529 21.109C32.5862 20.0477 32.5452 20.0183 32.2872 20.2118C32.1816 20.288 32.1816 20.3174 32.2461 20.4934C32.2813 20.6048 32.3165 20.8041 32.3165 20.9449C32.3165 21.3906 31.9823 21.5782 31.2669 21.5252C30.4576 21.4665 29.678 20.8335 28.4346 19.2206C28.0593 18.7339 27.6546 18.2414 27.5316 18.1242C26.9451 17.5671 25.016 16.6524 23.8256 16.3708C23.2569 16.2358 23.2508 16.2358 22.3187 16.6757C21.9844 16.8339 21.697 16.9631 21.6795 16.9631C21.6327 16.9631 21.5271 16.5937 21.5271 16.4238C21.5271 16.1835 21.7206 15.8315 21.9786 15.6144C22.2835 15.3622 22.9872 15.028 23.9606 14.6762C24.4121 14.518 24.8168 14.3362 24.8578 14.2835C24.9576 14.1427 24.9456 13.8847 24.811 13.4567C24.6527 12.9465 24.6585 12.8703 24.9282 12.6183C25.2566 12.3076 26.2065 11.6507 26.7284 11.3811C27.1857 11.1463 27.2794 11.1405 27.5548 11.3104ZM9.08381 18.0069C8.91362 18.8395 9.43552 20.4288 10.4089 22.094C10.7138 22.6101 10.79 22.6921 11.4527 23.2198C12.3909 23.9762 12.4026 23.9939 12.3967 24.6037C12.3909 25.413 12.1154 25.9524 11.1769 27.0136C10.6786 27.5766 10.4499 27.9518 10.4438 28.1921C10.4438 28.2567 10.4965 28.4091 10.561 28.5322L10.6841 28.7609L10.3205 28.5674C9.83375 28.3094 9.39389 27.8931 9.05963 27.3886C8.51507 26.5741 8.03419 24.6508 7.89338 22.7099C7.81716 21.6896 8.07521 19.9069 8.44467 18.8983C8.60874 18.4526 9.06636 17.62 9.12482 17.6727C9.13676 17.6846 9.11319 17.837 9.08381 18.0069ZM23.1687 18.1652C23.3564 18.212 23.6906 18.3293 23.9135 18.429C24.2477 18.5698 24.3123 18.6167 24.2946 18.7281C24.2361 19.2267 25.4498 19.7073 27.7544 20.0945C28.0651 20.1472 28.3642 20.5225 28.8625 21.49C29.3786 22.4928 29.5956 22.7389 30.2522 23.0968C30.9207 23.4604 31.3076 23.7126 31.3487 23.8121C31.3839 23.9061 31.2724 24.6683 31.1904 24.8969C31.1142 25.0962 30.8561 25.3016 30.2054 25.6885C29.9299 25.8529 29.6247 26.0696 29.5252 26.181C29.4254 26.2866 29.0327 26.8379 28.6516 27.4005C27.5903 28.9779 27.0216 29.7168 26.2827 30.4557C25.5379 31.1947 25.1452 31.4466 24.7289 31.4466C24.4531 31.4408 24.2832 31.3587 24.1192 31.1533C23.8317 30.7839 23.7264 30.3382 23.6089 28.9369C23.3919 26.4388 23.0695 24.8379 22.6707 24.3163C22.5476 24.1522 22.4301 24.0934 22.008 23.9646C19.8267 23.3138 19.0936 23.0089 18.6011 22.5397C17.7275 21.7187 17.9326 20.7863 19.2929 19.4202C20.4949 18.2181 21.7732 17.8018 23.1687 18.1652ZM23.3741 33.4815C23.8902 33.6046 24.4941 33.9153 24.934 34.2789C25.3387 34.6132 25.8664 35.1997 25.8664 35.305C25.8664 35.481 24.852 35.8033 23.6674 35.9968C22.8406 36.1318 21.3747 36.1318 20.6183 35.9968C19.8442 35.856 19.1934 35.6509 18.654 35.3693C18.1732 35.1229 17.6338 34.6362 17.7804 34.5893C17.8273 34.5719 18.1793 34.4427 18.5662 34.3019C21.0579 33.3821 22.1895 33.1886 23.3741 33.4815Z" fill="#FA0339"/>
</svg>
