<svg width="32" height="33" viewBox="0 0 32 33" fill="none" xmlns="http://www.w3.org/2000/svg">
<g clip-path="url(#clip0_903_3299)">
<path d="M13.7629 16.6249C10.2743 16.6249 6.78578 16.6249 3.29723 16.6249C2.90477 16.6249 2.43141 16.6915 2.14122 16.5036C1.79633 16.28 1.37295 15.79 1.42766 15.4642C1.48236 15.0693 1.93431 14.6674 2.31012 14.4033C2.52181 14.2535 2.92377 14.3677 3.2425 14.3677C10.1403 14.3677 17.0381 14.3867 23.9359 14.3677C27.3444 14.3534 29.6802 12.1413 29.673 9.04683C29.6771 7.76795 29.2094 6.53248 28.3592 5.57704C27.5091 4.6216 26.3364 4.01333 25.0658 3.8687C23.7754 3.69618 22.4675 4.01671 21.4032 4.76627C20.3388 5.51582 19.5963 6.63925 19.324 7.91225C19.2288 8.33563 19.3002 8.8375 19.0861 9.18239C18.8363 9.59388 18.3059 10.1957 18.0157 10.1338C17.5947 10.0482 17.0025 9.4726 16.9597 9.05635C16.5981 5.59555 19.6331 2.09905 23.3508 1.56863C25.2956 1.30627 27.2668 1.80212 28.856 2.9534C30.4453 4.10468 31.5307 5.82317 31.8875 7.75288C32.2245 9.66607 31.8139 11.6356 30.7405 13.2548C29.6671 14.874 28.0129 16.0191 26.1195 16.4537C25.3814 16.596 24.6305 16.6614 23.8789 16.6487C20.4989 16.6416 17.1404 16.6249 13.7629 16.6249Z" fill="#5A6474"/>
<path d="M10.1422 18.6161C12.8751 18.6161 15.6129 18.59 18.3411 18.6161C21.4498 18.6494 24.0496 21.0161 24.3041 23.9869C24.5871 27.2931 22.4869 30.2259 19.4566 30.7563C16.2051 31.3248 13.2176 29.548 12.3209 26.4749C12.1687 25.9492 11.9784 25.3451 12.1068 24.8551C12.2353 24.3651 12.6706 23.7942 13.0963 23.6658C13.8099 23.4446 14.2523 23.9512 14.3213 24.7219C14.4854 26.5462 15.3441 27.8616 17.1589 28.4039C17.6454 28.5438 18.1548 28.5861 18.6577 28.5284C19.1606 28.4706 19.6471 28.314 20.0892 28.0675C20.5313 27.821 20.9204 27.4895 21.2339 27.0921C21.5474 26.6947 21.7792 26.2392 21.916 25.7518C22.0559 25.2549 22.0933 24.7348 22.0259 24.223C21.9584 23.7112 21.7875 23.2185 21.5237 22.7748C21.2598 22.3312 20.9084 21.9458 20.4909 21.6422C20.0734 21.3387 19.5985 21.1232 19.095 21.009C18.4763 20.8805 17.8456 20.8183 17.2136 20.8234C11.9808 20.8092 6.74797 20.8234 1.51515 20.8234C0.378197 20.8234 -0.126055 20.3667 0.03093 19.5152C0.180779 18.7065 0.780176 18.6137 1.45806 18.6161C4.3599 18.6209 7.2522 18.6161 10.1422 18.6161Z" fill="#5A6474"/>
</g>
<defs>
<clipPath id="clip0_903_3299">
<rect width="32" height="32" fill="white" transform="translate(0 0.5)"/>
</clipPath>
</defs>
</svg>
