<svg width="88" height="88" viewBox="0 0 88 88" fill="none" xmlns="http://www.w3.org/2000/svg">
<g clip-path="url(#clip0_7316_69254)">
<rect width="88" height="88" fill="white"/>
<rect width="88" height="88" fill="#FA0339"/>
<g filter="url(#filter0_d_7316_69254)">
<path d="M45.0149 22C32.8838 22 23.0156 31.8696 23.0156 44.0007C23.0156 45.5933 23.1855 47.1471 23.5102 48.6443L24.8763 45.708C24.8272 45.1449 24.8033 44.5758 24.8033 44.0007C24.8033 39.3199 26.4033 35.0056 29.0819 31.5762C29.2011 31.4242 29.3218 31.2737 29.4439 31.1263C29.4901 31.0711 29.5348 31.016 29.581 30.9624C29.73 30.7866 29.8834 30.6123 30.0398 30.441C33.7389 26.3575 39.0827 23.7877 45.0149 23.7877C50.9486 23.7877 56.2924 26.3575 59.9929 30.441H62.3289C58.2976 25.3058 52.0346 22 45.0149 22ZM65.3337 35.5657L64.2626 37.8197C64.8897 39.7683 65.2279 41.8451 65.2279 44.0007C65.2279 55.1456 56.1613 64.2123 45.0149 64.2123C39.0827 64.2123 33.7374 61.6425 30.0383 57.559H27.7024C31.7322 62.6957 37.9951 66 45.0149 66C57.146 66 67.0156 56.1318 67.0156 44.0007C67.0156 41.0138 66.4167 38.1654 65.3337 35.5657ZM25.1296 47.6343L23.9169 50.2413C24.5873 52.5058 25.6138 54.6197 26.9322 56.5162H29.1549C27.1467 53.9762 25.7344 50.9445 25.1296 47.6343ZM63.0991 31.4838H60.8763C62.0607 32.981 63.0365 34.648 63.7635 36.4432L64.7706 34.3233C64.2834 33.3326 63.7248 32.3836 63.0991 31.4838Z" fill="white"/>
<path d="M29.4554 31.1277L29.3779 30.9639H29.5925C29.5463 31.0175 29.5016 31.0726 29.4554 31.1277Z" fill="white"/>
<path d="M66.1248 31.4883L64.7736 34.3278L63.7665 36.4477L54.2186 56.5207H42.1024L37.6257 47.1114L33.1147 56.5207H21L23.9199 50.2458L25.1326 47.6387L31.4358 34.0954L30.1948 31.4883H42.3393L48.1598 43.7549L53.9803 31.4883H66.1248Z" fill="white"/>
</g>
<path d="M17.4155 35.0701C16.8447 33.1512 16.2339 31.0355 15.6276 29.063C14.9853 26.8933 14.8719 24.3616 14.5984 22.0626C14.4614 20.911 13.9434 19.6107 14.3525 18.5226C14.7571 17.2912 15.775 16.3702 16.5846 15.35C17.9376 13.5963 19.6679 11.9956 22.0343 11.7759C23.2586 11.6078 24.0509 11.4573 25.2583 10.8679C26.3521 10.3409 27.3635 9.9264 28.514 10.0177C28.8869 10.0276 29.9427 9.95313 30.3788 10.0748C30.933 10.2771 31.3543 10.7622 31.8578 11.1349C32.8965 11.9342 33.8953 12.5366 35.0709 13.1884C35.8925 13.602 36.8049 14.1816 37.576 14.7656C38.1974 15.215 39.527 16.1445 39.8113 16.7773C37.3837 17.5346 34.64 17.6012 32.3116 18.6675C31.163 19.2256 30.4359 20.2728 29.4054 20.9116C28.2612 21.6129 27.2622 22.3056 26.24 23.0833C24.2738 24.5267 22.1979 26.1677 20.7394 28.1229C20.1177 28.9687 20.1807 30.3756 20.0349 31.5359C19.862 32.7854 20.5402 33.8531 20.54 35.1482C20.5526 35.4304 20.6201 35.6814 20.4914 35.968C19.6824 35.8365 17.2044 35.4691 17.1243 34.9359" fill="#C1002A"/>
<g opacity="0.7">
<path d="M20.2215 25.5293C19.9491 24.7564 19.5433 23.1625 19.7648 22.3923C20.0873 21.2774 21.1495 20.6965 21.3224 19.4469C21.4323 18.0896 21.5587 17.0101 22.3639 15.8467C22.7432 15.3501 23.1225 14.8534 23.5926 14.5228C23.898 14.2815 24.9138 14.0102 24.9835 13.6156C25.2113 12.3349 22.8593 14.7813 22.6442 15.0451C21.6938 16.2171 21.4576 17.3548 21.1201 18.6938C20.9136 19.24 20.2471 22.2004 19.5076 21.6703C19.575 21.9214 19.5559 22.1456 19.5959 22.3425C19.4463 22.2079 19.2967 22.0733 19.1745 21.8534C19.2419 22.1044 19.2861 22.4406 19.3535 22.6916C19.0859 22.4763 18.9048 22.2878 18.7743 21.9289C18.9281 22.2027 18.9132 22.4307 18.9807 22.6818C17.2278 21.9168 17.3377 19.2603 16.7837 17.7629C16.4907 18.2823 16.6421 20.3614 16.8403 20.9753C17.2004 22.0021 18.2813 22.488 18.8923 23.3087C19.5897 24.152 19.8677 25.2952 20.0002 26.3035C20.0697 27.204 19.357 29.1789 19.9513 29.7175C20.28 29.3912 20.8628 27.3404 20.2215 25.5293Z" fill="#991A24"/>
</g>
<g opacity="0.7">
<path d="M18.9816 18.936C19.1756 18.1116 19.4834 17.3642 19.6184 16.5672C19.8545 15.4294 20.4447 14.5298 20.6851 13.5313C20.1247 13.8394 20.1455 14.2606 19.7662 14.7572C19.5005 15.1914 19.25 15.4015 18.961 15.9206C18.6132 16.4712 18.3917 18.5405 18.7265 19.0029C18.8712 19.1219 18.9816 18.936 18.9816 18.936Z" fill="#991A24"/>
</g>
<g opacity="0.7">
<path d="M25.3553 10.8558C25.8147 10.5497 25.8794 10.6176 26.408 10.387C27.1929 10.0417 28.135 9.96209 28.9192 10.0153C29.5043 10.0564 30.1149 9.9127 30.4426 10.1165C32.1443 11.1794 32.9762 12.0387 33.9453 12.5512C35.0273 13.1248 38.9189 15.2935 39.7208 16.6727C37.5166 17.3092 36.5457 16.5616 34.7021 15.6307C33.7624 15.1363 32.652 15.2459 31.6384 15.007C30.134 14.6815 30.1107 14.7666 28.9748 15.6069C28.4774 16.0228 28.0264 16.1292 27.5923 16.657C27.1267 17.1309 26.6967 17.7979 26.0771 17.9939C25.5673 18.1317 24.6717 17.9735 24.2585 17.6233C23.5423 17.0082 24.0838 16.9283 24.8087 16.5268C25.7886 16.0584 30.7979 12.2234 29.0515 10.9519C28.5143 11.175 28.0717 11.5598 27.8061 11.9939C27.3846 12.8039 27.7277 13.4053 26.8978 12.8526C26.3079 12.4572 25.3553 10.8558 25.3553 10.8558Z" fill="#991A24"/>
</g>
<path d="M27.6022 21.9051C27.0607 21.9849 26.3147 21.9613 26.089 22.5923C26.3208 22.6105 26.58 22.6828 26.7802 22.6471C26.1923 22.901 25.0228 23.0379 24.9109 23.7459C25.0794 23.6523 25.5073 23.6349 25.7073 23.5952C25.0013 23.7685 24.0804 24.345 23.623 24.9578C23.9095 24.9448 24.2236 24.986 24.5922 24.8566C23.4121 25.3608 22.7969 25.7001 22.0465 26.8323C22.3563 26.7343 22.7525 26.6591 22.98 26.538C22.4826 26.954 22.0465 26.8323 21.5134 27.0552C21.1762 27.2385 20.4281 27.7251 21.5429 27.7588C20.8602 27.847 19.9981 28.3921 20.2909 29.1678C20.4593 29.0741 20.7459 29.0612 20.8788 28.9138C20.2718 29.3921 19.8627 30.4802 20.1787 31.1709C20.202 31.0858 20.3705 30.9921 20.4253 30.961C19.9279 31.377 19.757 33.2759 20.5557 32.619C20.3216 33.107 20.136 34.0744 20.6818 34.1338C20.5257 34.5056 20.3699 34.8815 20.3908 35.3026C20.5319 35.2943 20.6225 35.3208 20.7637 35.3124C20.7024 35.8501 21.0058 36.2585 21.5074 35.9818C21.7011 36.4525 21.7432 37.4382 22.4406 36.9825C22.5796 37.4844 23.0494 38.4488 23.3803 37.4769C23.3739 37.9833 23.5361 38.4001 23.9216 38.6921C24.2503 38.3658 24.1938 37.7515 24.0904 37.3034C24.6084 38.6037 24.847 36.9597 24.8534 36.4533C25.3399 37.6997 25.6922 35.9932 25.7849 35.5095C25.9616 36.8539 26.5289 34.8837 26.5984 34.4851C26.7477 35.9148 27.6837 33.8152 27.7849 33.4744C28.3769 34.5193 29.0389 32.7148 29.1317 32.2312C29.6604 33.1642 30.9883 32.1492 29.8524 31.6904C30.4929 31.9155 31.9828 31.3133 30.8787 30.9124C31.5973 31.0213 32.3115 30.987 32.8953 30.5939C32.7457 30.4592 32.5919 30.1854 32.3875 30.0819C33.3587 30.6302 34.3872 29.342 33.0873 29.12C34.0144 29.3322 36.5916 28.7095 34.6782 28.1731C35.2555 28.2864 37.2322 27.6355 35.8374 27.2478C36.3177 27.7055 36.9607 27.4244 37.5253 27.2555C37.399 27.0359 37.3 26.7309 37.0641 26.5735C37.5362 26.8923 38.4233 26.9075 38.8974 26.5766C38.7711 26.3569 38.7036 26.1059 38.4992 26.0024C38.9207 26.4915 39.7992 26.2244 40.2062 25.7859C40.0566 25.6513 39.9343 25.4314 39.7847 25.2968C40.2568 25.6155 40.9395 25.5273 41.5041 25.3584C41.323 25.1699 41.2871 24.9728 41.106 24.7842C41.814 25.2604 43.6135 24.5562 42.4545 24.1864C42.7852 24.5095 43.3816 24.3985 43.7103 24.0723C43.5922 23.9916 43.4977 23.8298 43.3796 23.7491C43.9338 23.9514 44.5299 23.8365 45.0315 23.5597L44.8504 23.3712C45.554 23.7042 45.6026 22.8844 45.2089 22.4534C45.2637 22.4223 45.0952 22.5159 45.0952 22.5159C45.8853 22.8756 45.6032 21.7327 44.8213 21.512C45.15 21.1857 45.0804 21.5126 45.5178 21.3831C45.833 21.1014 44.4971 20.6824 44.3875 20.7446C44.6614 20.4495 44.5506 20.8346 45.4433 20.6702C45.3317 20.0831 44.4994 20.0367 44.0273 19.7179C44.2002 19.7675 44.4867 19.7545 44.6596 19.804C44.4658 19.3333 44.0488 18.9874 43.5579 18.8969C43.8804 19.081 43.9077 18.9957 44.249 18.9516C43.9922 18.3731 43.2843 17.8969 42.6413 18.178C43.4421 18.1705 42.6964 16.8518 41.8891 17.3658C41.9062 16.4921 41.0569 16.0203 40.7261 16.9962C40.4416 16.3596 39.519 16.2906 39.4386 17.0525C39.0764 16.6754 38.4947 16.4189 38.2883 16.9651C37.848 16.7043 36.5627 16.1148 36.8048 17.0609C36.2043 17.0326 35.6185 16.7764 35.0033 17.1157C35.1529 17.2503 35.1338 17.4745 35.2834 17.6092C34.9336 17.5103 32.818 17.5239 33.8756 18.0949C33.309 17.6144 31.8612 17.9033 32.664 18.5452C32.1224 18.625 31.3217 18.6326 31.0329 19.1557C31.2921 19.2281 31.4417 19.3627 31.7283 19.3497C31.3869 19.3938 28.9151 19.815 30.3691 20.3148C29.9729 20.39 29.2187 20.2274 28.9171 20.4644C28.447 20.7951 28.4135 21.3908 29.0223 21.558C28.6323 21.1228 27.9541 21.3542 27.4207 21.5731C27.484 21.6849 27.5597 22.0749 27.5282 22.021" fill="#FEFDFD"/>
<path d="M27.3492 21.4515C26.7591 21.5303 26.116 21.5364 25.836 22.1388C25.8109 22.1921 26.2938 23.0362 26.3467 23.0411C26.5789 23.0672 26.7999 23.1099 27.0378 23.0958C26.8663 22.7951 26.6987 22.4942 26.5272 22.1935C25.9065 22.4415 24.8474 22.528 24.6579 23.2924C24.6387 23.3772 25.1804 24.19 25.1686 24.1947C25.4175 24.0923 25.6964 24.0877 25.9649 24.0439C25.7934 23.7433 25.6258 23.4423 25.4543 23.1417C24.6458 23.3609 23.8858 23.8521 23.37 24.5043C23.3512 24.5293 23.8403 25.4089 23.8806 25.4066C24.216 25.3987 24.5239 25.4044 24.8499 25.3054C24.6783 25.0047 24.5108 24.7038 24.3392 24.4031C23.2619 24.8653 22.4561 25.4032 21.7935 26.3788C21.7598 26.4247 22.3041 27.2811 22.3041 27.2811C22.6182 27.1868 22.9382 27.124 23.2377 26.9868C23.0661 26.6861 22.8986 26.3852 22.727 26.0845C22.3125 26.3959 21.8751 26.3899 21.403 26.5494C21.2006 26.6171 20.783 26.8092 20.7196 27.0361C20.6587 27.239 20.9498 27.5764 21.0403 27.7384C21.2524 28.1084 21.3375 28.1791 21.8005 28.2075C21.629 27.9068 21.4614 27.6059 21.2899 27.3052C20.5844 27.4187 19.7924 27.9158 20.0379 28.7142C20.0677 28.8081 20.5369 29.6252 20.5485 29.6165C20.7499 29.5329 20.9625 29.5004 21.1364 29.3626C20.9649 29.0619 20.7973 28.761 20.6258 28.4603C20.0059 28.9951 19.6202 29.9304 19.9257 30.7173C19.9733 30.838 20.4812 31.5572 20.4364 31.6196C20.5073 31.5198 20.5773 31.4718 20.6829 31.4097C20.5114 31.1091 20.3438 30.8082 20.1723 30.5075C19.7933 30.8726 19.6301 31.6713 19.8208 32.1581C19.9307 32.4425 20.1231 32.7539 20.2959 33.0067C20.4511 33.2366 20.5773 33.2491 20.8177 33.0715C20.6461 32.7708 20.4786 32.4699 20.307 32.1692C20.1144 32.607 19.9708 33.1216 20.1917 33.5707C20.3435 33.8806 20.5704 34.5007 20.9439 34.5902C20.7724 34.2895 20.6049 33.9886 20.4333 33.6879C20.2739 34.072 20.1459 34.4382 20.1423 34.8568C20.1437 34.9484 20.5963 35.7584 20.6529 35.7591C20.7784 35.7596 20.9003 35.7683 21.0258 35.7689C20.8542 35.4682 20.6867 35.1673 20.5152 34.8666C20.4891 35.3145 20.718 35.6277 20.9346 36.0054C21.1419 36.3637 21.3007 36.6532 21.7697 36.4422C21.5982 36.1415 21.4307 35.8406 21.2591 35.5399C21.4227 35.9805 21.5316 36.3845 21.7627 36.8012C21.9842 37.1946 22.1589 37.7541 22.7032 37.4469C22.5317 37.1462 22.3642 36.8453 22.1926 36.5447C22.3344 37.0264 22.6074 37.4685 22.8636 37.8997C23.12 38.3348 23.408 38.5529 23.6389 37.9415C23.4674 37.6408 23.2998 37.3399 23.1283 37.0392C23.1497 37.6755 23.4808 38.2099 23.8157 38.74C23.8739 38.8361 23.9474 38.9832 24.0479 39.041C24.1297 39.1916 24.2027 39.1953 24.2635 39.0602C24.312 38.9896 24.3481 38.9157 24.3716 38.8346C24.489 38.4929 24.4218 38.1104 24.3489 37.768C24.1774 37.4673 24.0099 37.1664 23.8383 36.8657C23.9605 37.1534 24.1224 37.4267 24.2759 37.6966C24.3482 37.8238 24.5109 38.2485 24.6973 38.2535C25.0704 38.2672 25.1057 37.1534 25.1118 36.9139C24.9402 36.6132 24.7727 36.3123 24.6011 36.0116C24.7281 36.311 24.8985 36.5918 25.061 36.8771C25.1333 37.0043 25.2766 37.3744 25.4742 37.3627C25.8651 37.3356 25.991 36.2482 26.0435 35.9741C25.872 35.6735 25.7044 35.3725 25.5329 35.0719C25.5856 35.4154 25.7375 35.6575 25.905 35.9584C25.9726 36.074 26.1009 36.4649 26.2805 36.4224C26.452 36.3803 26.5739 35.9109 26.6188 35.7807C26.7162 35.5119 26.8008 35.232 26.8529 34.9499C26.6814 34.6493 26.5139 34.3484 26.3423 34.0477C26.3943 34.4471 26.6548 35.0214 26.9267 35.3082C27.1512 35.546 27.301 35.3418 27.4653 35.109C27.5847 34.9385 27.6828 34.7494 27.7768 34.5605C27.8312 34.4537 27.9018 34.1427 27.9944 34.0655C28.1064 33.9752 27.9372 33.9892 28.1021 34.0392C28.1557 34.056 28.2286 34.1951 28.295 34.223C28.4859 34.3034 28.6257 34.2035 28.7595 34.072C28.9311 33.8945 29.0463 33.6526 29.1425 33.4317C29.2031 33.2926 29.2571 32.9069 29.3611 32.8171C29.4845 32.7141 29.5379 32.9341 29.7167 33.0152C29.8749 33.0895 30.0613 33.0944 30.2234 33.029C30.5515 32.8981 30.5967 32.6364 30.4546 32.3539C30.2437 31.936 30.0452 31.4536 29.5963 31.253C29.7679 31.5537 29.9354 31.8546 30.1069 32.1553C30.4404 32.2511 31.4492 32.2034 31.5228 31.7368C31.5554 31.5356 31.2683 31.1979 31.1821 31.0396C31.0198 30.7583 30.9375 30.5998 30.6226 30.475C30.7942 30.7757 30.9617 31.0766 31.1333 31.3773C31.8469 31.4705 32.5251 31.4424 33.1498 31.0587C33.1536 31.0545 32.6996 30.2206 32.6392 30.1564C32.4709 29.9791 32.3339 29.784 32.1314 29.6445C32.303 29.9452 32.4705 30.2461 32.642 30.5468C33.0755 30.7603 34.1209 30.6466 33.9334 29.9404C33.8657 29.6854 33.6517 29.4191 33.5209 29.1917C33.3494 28.8911 33.196 28.7607 32.8352 28.6824C33.0068 28.9831 33.1743 29.284 33.3459 29.5846C33.7552 29.664 34.19 29.6264 34.5942 29.5506C34.8545 29.5034 35.3683 29.4331 35.5449 29.2035C35.7326 28.9573 35.414 28.6334 35.2875 28.4098C35.0569 28.001 34.8998 27.8748 34.4221 27.7357C34.5937 28.0364 34.7612 28.3373 34.9328 28.638C35.3042 28.6917 36.3925 28.5516 36.5495 28.1279C36.6336 27.9077 36.3651 27.6088 36.2613 27.4277C36.067 27.0845 35.9767 26.9265 35.5811 26.8064C35.6511 26.8262 35.7941 27.1923 35.8306 27.2619C35.9029 27.3891 35.973 27.6161 36.092 27.7126C36.6069 28.1404 37.2074 27.8937 37.7799 27.7204C37.7756 27.7167 37.7751 27.7087 37.7709 27.705C37.5015 27.1869 37.2561 26.528 36.808 26.1361C36.9796 26.4368 37.1471 26.7377 37.3187 27.0384C37.8638 27.3608 38.605 27.3727 39.1519 27.0415C39.1477 27.0377 39.1472 27.0298 39.1429 27.0261C38.9051 26.5619 38.6744 25.8782 38.2431 25.565C38.4926 25.7455 38.5302 26.2454 38.7538 26.4673C39.2521 26.9558 40.0207 26.6792 40.4607 26.2507C40.4914 26.221 40.0146 25.4124 39.9501 25.3485C39.8031 25.1898 39.6756 25.018 39.5287 24.8594C39.7002 25.16 39.8677 25.4609 40.0393 25.7616C40.5757 26.0726 41.1855 25.9847 41.7587 25.8233C41.7229 25.8334 41.3094 25.0011 41.248 24.921C41.1037 24.7383 40.9942 24.5296 40.8499 24.3468C41.0214 24.6475 41.189 24.9484 41.3605 25.2491C41.7169 25.4591 42.8423 25.536 43.0559 25.0412C43.1449 24.8367 42.9024 24.5681 42.8031 24.3947C42.6269 24.0823 42.5497 23.8717 42.1942 23.7453C42.2686 23.7727 42.4029 24.1274 42.4437 24.2007C42.5159 24.328 42.586 24.5549 42.705 24.6515C43.1003 24.9708 43.5989 24.8497 43.9608 24.5374C43.98 24.5203 43.5144 23.6951 43.4502 23.6351C43.3347 23.5304 43.2349 23.4167 43.1195 23.312C43.291 23.6126 43.4586 23.9135 43.6301 24.2142C44.2073 24.3953 44.752 24.2993 45.282 24.0248C45.2742 24.0293 44.8359 23.1865 44.7714 23.1226C44.711 23.0584 44.6507 22.9982 44.5903 22.934C44.7618 23.2347 44.9294 23.5356 45.1009 23.8363C45.8292 24.108 45.7461 23.3877 45.5106 22.9633C45.3833 22.7277 45.2559 22.4882 45.113 22.2615C45.0279 22.1231 45.0073 21.9809 44.8351 22.0787C44.8586 22.0654 45.2589 22.9503 45.3457 22.981C45.9834 23.2262 45.7904 22.6319 45.6087 22.296C45.3454 21.8134 45.1233 21.2727 44.5612 21.0748C44.7328 21.3755 44.9003 21.6764 45.0719 21.9771C45.2527 21.8189 45.2432 21.8633 45.4412 21.8596C45.5705 21.8559 45.7652 21.9321 45.8158 21.7617C45.866 21.5834 45.4683 21.0849 45.3832 20.9465C45.177 20.608 44.5541 20.2025 44.1271 20.3035C44.2987 20.6042 44.4662 20.9051 44.6378 21.2058C44.8174 21.0278 44.9376 21.1442 45.1655 21.1666C45.2713 21.1763 45.4051 21.1803 45.505 21.1584C45.6886 21.1157 45.6757 21.1722 45.6576 21.002C45.6439 20.9071 45.5171 20.7473 45.4758 20.666C45.3356 20.4153 45.2119 20.1038 45.0052 19.8929C44.6866 19.5691 44.1525 19.501 43.7667 19.2728C43.9383 19.5735 44.1058 19.8744 44.2773 20.1751C44.4083 20.1992 44.6634 20.2718 44.7949 20.2361C44.9303 20.2002 44.9321 20.3675 44.8398 20.1059C44.7626 19.8953 44.6087 19.6892 44.4962 19.4966C44.2071 18.9877 43.9087 18.5949 43.3013 18.4515C43.363 18.4678 43.5146 18.8414 43.5508 18.907C43.6094 19.0072 43.7036 19.3004 43.8122 19.3578C44.0792 19.4934 44.2147 19.4575 44.5033 19.4125C44.4991 19.4088 44.4986 19.4009 44.4943 19.3971C44.0992 18.5996 43.5062 17.3316 42.3809 17.7369C42.4483 17.713 42.791 18.6491 42.8916 18.6392C43.5804 18.5865 43.0004 17.8118 42.8379 17.5266C42.5716 17.0602 42.2284 16.5943 41.6288 16.9247C41.8003 17.2253 41.9679 17.5262 42.1394 17.8269C42.1207 17.306 41.797 16.827 41.5207 16.3971C41.1723 15.8438 40.7021 15.9673 40.4658 16.5551C40.6241 16.8366 40.7862 17.114 40.9444 17.3955C40.6994 16.9478 40.4153 16.1118 39.8012 16.0605C39.6345 16.0464 39.4755 16.0957 39.3569 16.2103C39.2997 16.2694 39.2629 16.3314 39.231 16.409C39.1707 16.552 39.2411 16.5797 39.1223 16.5549C38.934 16.5182 38.7729 16.2568 38.548 16.2183C38.266 16.1712 38.2631 16.3268 38.0681 16.4499C37.9587 16.5161 37.9018 16.4438 37.7517 16.369C37.6018 16.2982 37.4482 16.2315 37.2914 16.181C37.0893 16.1173 36.7431 16.0103 36.5805 16.2032C36.482 16.3166 36.583 16.4501 36.5364 16.5525C36.4863 16.663 36.1652 16.5705 35.998 16.5485C35.5533 16.4871 35.1598 16.4705 34.7508 16.6701C34.7548 16.6698 35.2086 17.4997 35.2614 17.5723C35.288 17.6106 35.3185 17.6487 35.3451 17.6869C35.1735 17.3863 35.006 17.0853 34.8344 16.7847C35.0145 17.2283 35.2516 17.6805 35.5375 18.0661C35.3659 17.7654 35.1984 17.4645 35.0268 17.1638C34.6739 17.0811 33.6768 16.9847 33.3982 17.2681C33.2302 17.4375 33.4843 17.6974 33.5833 17.8669C33.7416 18.1484 33.8406 18.3856 34.1256 18.5521C33.87 18.4038 33.8604 17.8306 33.615 17.6498C33.3397 17.4429 32.3451 17.183 32.1802 17.6789C32.1184 17.8659 32.3408 18.1356 32.422 18.2783C32.5666 18.5327 32.6879 18.8045 32.914 19.0023C32.7425 18.7016 32.575 18.4007 32.4034 18.1001C31.8213 18.1783 31.1336 18.1832 30.7723 18.7106C30.7462 18.748 31.217 19.5929 31.283 19.6129C31.5225 19.6943 31.7226 19.7941 31.9783 19.8068C31.8068 19.5062 31.6392 19.2053 31.4677 18.9046C31.1946 18.9407 30.9228 18.9966 30.6554 19.0602C30.4002 19.1232 29.9388 19.1903 29.7527 19.3966C29.5553 19.6155 29.7907 19.8327 29.9172 20.0563C30.125 20.4226 30.2096 20.6208 30.6191 20.7719C30.4476 20.4712 30.28 20.1703 30.1085 19.8697C29.5743 19.9371 28.1482 19.7027 28.3075 20.6855C28.3458 20.9224 28.5423 21.1658 28.6596 21.37C28.8311 21.6707 28.9292 21.892 29.2726 22.0192C29.1981 21.9917 29.0641 21.641 29.0231 21.5637C28.9463 21.4288 28.8774 21.2216 28.7617 21.1129C28.4319 20.8057 28.0254 20.8417 27.6116 20.9618C27.5241 20.9869 27.4285 21.0125 27.3459 21.0532C27.2043 21.1214 27.2022 21.0856 27.1888 21.202C27.1812 21.2782 27.3288 21.5165 27.2633 21.5722C27.2016 21.6236 27.824 22.4316 27.774 22.4744C27.824 22.4316 27.7179 22.2108 27.7146 22.1552C27.7128 21.9879 27.6537 22.0831 27.7932 21.9792C27.8786 21.9183 28.0229 21.8939 28.1223 21.8641C28.532 21.7442 28.9385 21.7082 29.2723 22.0152C29.1008 21.7145 28.9333 21.4136 28.7617 21.1129C28.5713 21.0405 28.4631 20.9911 28.3511 20.8065C28.5183 21.1034 28.6856 21.4004 28.8527 21.6933C28.5388 20.628 30.0486 20.8415 30.6189 20.7679C30.4944 20.7833 30.2572 19.9206 30.1082 19.8657C29.9636 19.8145 29.7618 19.7547 29.6767 19.6163C29.844 19.9132 30.0113 20.2101 30.1783 20.5031C30.0429 20.0608 31.7013 19.8432 31.9783 19.8068C31.846 19.8266 31.6259 18.9112 31.4677 18.9046C31.212 18.8918 31.0078 18.7923 30.7723 18.7106C30.9439 19.0113 31.1114 19.3122 31.283 19.6129C31.6483 19.0852 32.3322 19.0846 32.914 19.0023C32.8298 19.0153 32.5015 18.1859 32.4034 18.1001C32.3223 18.0291 32.2664 17.9727 32.2045 17.8847C32.3761 18.1854 32.5436 18.4863 32.7152 18.7869C32.4205 18.115 33.8549 18.3529 34.1216 18.5523C33.9501 18.2516 33.7825 17.9507 33.611 17.6501C33.5145 17.592 33.4265 17.5414 33.3485 17.4544C33.4115 17.5622 33.4748 17.674 33.5419 17.7817C33.5329 17.7663 33.5281 17.7546 33.5191 17.7392C33.6236 17.9322 33.7319 18.1211 33.8364 18.3142C33.7482 17.9169 35.2953 18.0087 35.5292 18.0626C35.3774 18.0277 35.124 17.3015 35.0185 17.1603C34.992 17.122 34.9614 17.084 34.9349 17.0457C35.1064 17.3464 35.2739 17.6473 35.4455 17.948C35.2655 17.5043 35.0283 17.0521 34.7425 16.6666C34.914 16.9673 35.0816 17.2682 35.2531 17.5688C35.5955 17.4051 35.9176 17.3781 36.2964 17.4194C36.4593 17.4377 36.6149 17.4683 36.7781 17.4906C37.0959 17.5276 36.9953 17.5375 37.0249 17.2847C37.0913 16.7667 37.8217 17.0742 38.1125 17.2004C38.2038 17.2389 38.3353 17.3427 38.4333 17.3568C38.4708 17.3745 38.5044 17.3964 38.5421 17.4181C38.573 17.3246 38.629 17.2456 38.7062 17.1812C39.0597 16.9332 39.2875 17.2943 39.5768 17.3967C39.6792 17.554 39.7271 17.5432 39.7165 17.3645C39.74 17.2835 39.7761 17.2096 39.825 17.1469C39.8929 17.0632 39.9864 17.0019 40.0941 16.9756C40.4246 16.8843 40.7198 17.086 40.9084 17.3339C40.7501 17.0523 40.5881 16.775 40.4298 16.4935C40.4523 16.532 40.475 16.5745 40.4935 16.6132C40.5615 16.7367 41.0142 17.3436 40.9722 17.4536C41.1589 16.9843 41.6496 16.6604 41.9825 17.2265C41.8242 16.945 41.6659 16.6634 41.5076 16.3819C41.583 16.5607 41.6128 16.7224 41.6202 16.9172C41.6221 17.0167 42.1506 17.8103 42.1309 17.8194C42.5226 17.601 42.7056 17.7536 43.0364 17.9412C42.2869 17.5153 42.8967 17.0847 42.6977 17.5508C42.6412 17.6896 42.5093 17.7174 42.3722 17.7255C42.5437 18.0261 42.7112 18.3271 42.8828 18.6277C43.3027 18.4754 43.7085 18.5629 44.0525 18.8375C44.1206 18.8932 44.1775 18.9656 44.2455 19.0213C44.4451 19.2486 44.3138 19.081 43.8516 18.5186C43.8195 18.5245 43.7835 18.5306 43.7517 18.5405C43.5681 18.5155 43.4766 18.5408 43.293 18.4481C43.4646 18.7487 43.6321 19.0496 43.8037 19.3503C44.2305 19.4526 44.576 19.6832 44.8007 20.0604C44.6424 19.7789 44.4841 19.4974 44.3258 19.2158C44.4232 19.4252 44.321 19.3396 44.1417 19.3184C44.0112 19.3022 43.8855 19.2977 43.7544 19.2696C43.8118 19.2821 43.9719 19.6631 44.0039 19.725C44.0669 19.8329 44.1519 20.1068 44.2652 20.1758C44.6932 20.4334 45.2515 20.5 45.5822 20.8909C45.4514 20.6635 45.3249 20.4399 45.1941 20.2125C45.2123 20.2473 45.2348 20.2858 45.2531 20.3206C45.2121 20.2433 45.1713 20.17 45.1303 20.0927C45.2163 20.3825 44.6414 20.2412 44.4377 20.2174C44.2788 20.1989 44.2482 20.1609 44.1143 20.2923C44.0953 20.3134 44.605 21.1997 44.625 21.1946C44.9443 21.1199 45.5774 21.4251 45.7775 21.6604C45.6102 21.3634 45.4431 21.0704 45.2758 20.7735C45.3725 20.971 45.0722 20.9569 44.9586 20.9517C44.7475 20.9403 44.7444 20.8886 44.5482 21.0596C44.5404 21.0641 44.9886 21.9382 45.0588 21.9619C45.2282 22.0196 45.3346 22.109 45.4816 22.1999C45.7021 22.4379 45.6281 22.2829 45.2639 21.7346C45.2833 21.7892 45.2904 21.8406 45.2937 21.8962C45.1655 22.123 45.1365 22.1805 44.8218 22.0596C44.9934 22.3603 45.1609 22.6612 45.3325 22.9619C45.4656 22.8862 45.42 22.869 45.534 23.0177C45.3893 22.7593 45.2407 22.505 45.0959 22.2466C45.1187 22.2891 45.1414 22.3316 45.1641 22.3741C45.1412 22.3276 45.1184 22.2851 45.0914 22.2389C45.2641 22.6949 45.1357 23.1249 44.573 22.9151C44.6475 22.9426 44.7815 23.2933 44.8225 23.3706C44.9035 23.5093 44.9715 23.7005 45.0839 23.8214C45.1443 23.8855 45.2045 23.9457 45.265 24.0099C45.0934 23.7092 44.9259 23.4083 44.7543 23.1076C44.224 23.3781 43.6794 23.4741 43.1024 23.297C43.1724 23.3168 43.3154 23.6829 43.3519 23.7525C43.4287 23.8874 43.4978 24.0985 43.6133 24.2033C43.7287 24.308 43.8285 24.4217 43.944 24.5264C43.7724 24.2257 43.6049 23.9248 43.4333 23.6241C43.0755 23.9362 42.5726 24.0536 42.1776 23.7383C42.3491 24.039 42.5166 24.3399 42.6882 24.6405C42.8205 24.6885 42.9446 24.733 43.0358 24.8392C42.8775 24.5576 42.7155 24.2803 42.5572 23.9988C42.6754 24.2189 42.0553 24.407 41.9516 24.4331C41.5808 24.5267 41.1643 24.5315 40.8288 24.3321C40.921 24.3865 41.024 24.6912 41.0783 24.7876C41.1598 24.9342 41.2347 25.1051 41.3397 25.2384C41.484 25.4211 41.5935 25.6298 41.7378 25.8126C41.5663 25.5119 41.3987 25.211 41.2272 24.9103C40.6538 25.0677 40.0441 25.1596 39.5078 24.8486C39.6 24.9029 39.703 25.2077 39.7573 25.3041C39.8383 25.4428 39.9063 25.634 40.0187 25.7549C40.1656 25.9135 40.2931 26.0853 40.4401 26.244C40.2686 25.9433 40.101 25.6424 39.9295 25.3417C39.4897 25.7742 38.7168 26.0471 38.2225 25.5583C38.3941 25.8589 38.5616 26.1599 38.7331 26.4605C38.8126 26.5037 38.8771 26.5676 38.9261 26.6444C38.8631 26.5365 38.7998 26.4247 38.7328 26.3171C38.6139 25.9496 38.5387 25.9102 38.5113 26.1987C38.4327 26.2392 38.3497 26.272 38.2662 26.2969C38.1073 26.3461 37.9426 26.3678 37.7768 26.3697C37.4253 26.3785 37.0892 26.3067 36.7874 26.1293C37.039 26.2778 37.0719 26.8338 37.298 27.0316C37.391 27.0978 37.4687 27.1809 37.527 27.2771C37.464 27.1692 37.4007 27.0574 37.3337 26.9498C37.238 26.6327 37.1673 26.601 37.1255 26.8505C37.0419 26.8754 36.9587 26.9042 36.8752 26.9291C36.7279 26.9697 36.5848 27.014 36.4323 27.035C36.095 27.0789 35.8208 27.0273 35.5569 26.8078C35.7285 27.1085 35.896 27.4094 36.0676 27.7101C36.2324 27.7601 36.4053 27.8097 36.5224 27.9422C36.3776 27.6838 36.229 27.4296 36.0842 27.1712C36.0932 27.1866 36.098 27.1982 36.107 27.2136C36.084 27.1672 36.0612 27.1247 36.0342 27.0785C36.1535 27.5895 34.716 27.7781 34.3977 27.7332C34.4508 27.742 34.6155 28.1308 34.6472 28.1886C34.6925 28.2697 34.8137 28.6092 34.9086 28.6394C35.1187 28.7027 35.4384 28.7715 35.5716 28.9708C35.4043 28.6738 35.237 28.3769 35.0699 28.0839C35.2961 28.6922 33.1305 28.7486 32.807 28.6841C32.8644 28.6966 33.0245 29.0776 33.0565 29.1395C33.097 29.2088 33.2318 29.5715 33.3179 29.5903C33.5392 29.637 33.7329 29.6972 33.8732 29.8802C33.7059 29.5833 33.5389 29.2903 33.3716 28.9934C33.5047 29.2604 33.3056 29.5193 33.075 29.6565C32.766 29.8381 32.4159 29.803 32.1074 29.6499C32.1949 29.6926 32.3072 30.0167 32.3569 30.1054C32.4245 30.221 32.5002 30.4755 32.6183 30.5562C32.8248 30.6954 32.9578 30.8908 33.1261 31.0681C32.9545 30.7674 32.787 30.4665 32.6155 30.1658C31.9907 30.5495 31.3126 30.5776 30.5989 30.4844C30.6477 30.4895 30.8209 30.8857 30.8484 30.9398C30.8982 31.0285 31.0061 31.3489 31.1098 31.3906C31.2509 31.45 31.3837 31.5059 31.4799 31.6277C31.3083 31.3271 31.1408 31.0261 30.9692 30.7255C31.2033 31.2615 29.8569 31.3492 29.5768 31.2661C29.6428 31.2861 29.7899 31.652 29.8264 31.7216C29.8806 31.818 29.9836 32.1227 30.0877 32.1723C30.2416 32.2429 30.3673 32.3152 30.4721 32.4445C30.3273 32.1861 30.1787 31.9318 30.0339 31.6734C30.0432 31.6928 30.0564 31.7119 30.0659 31.7353C30.0429 31.6888 30.0202 31.6463 29.9932 31.6001C30.0763 31.8423 29.9187 32.0508 29.6895 32.1441C29.3535 32.2795 29.0439 32.1066 28.8654 31.8262C28.8612 31.8225 28.8567 31.8148 28.8564 31.8108C28.7551 32.287 28.1263 34.0378 27.5186 33.0695C27.5144 33.0658 27.5099 33.0581 27.5096 33.0541C27.4345 33.2897 26.7719 34.879 26.4369 34.4844C26.5677 34.7118 26.6943 34.9354 26.8251 35.1628C26.8161 35.1474 26.8068 35.128 26.7978 35.1126C26.8388 35.1899 26.8796 35.2632 26.9206 35.3404C26.873 35.2197 26.8538 35.1013 26.8382 34.9747C26.8219 34.8362 26.6567 34.6428 26.5887 34.5193C26.5435 34.4383 26.3126 34.161 26.3274 34.0685C26.2657 34.3949 26.1676 34.7195 26.0443 35.0297C26.0305 35.0703 25.7576 35.7241 25.6406 35.5238C25.7988 35.8053 25.9571 36.0868 26.1154 36.3684C26.0678 36.2477 26.0444 36.1255 26.0245 35.9952C26.004 35.8529 25.8433 35.6672 25.775 35.5397C25.7298 35.4587 25.4989 35.1815 25.5137 35.0889C25.4485 35.4235 25.38 35.7703 25.2489 36.0849C25.2064 36.187 25.141 36.3822 25.035 36.4363C24.6931 36.6079 24.655 35.8969 25.0968 36.9347C25.031 36.7792 24.9291 36.6298 24.8473 36.4793C24.7888 36.3791 24.5849 36.1481 24.5859 36.0285C24.577 36.3558 24.5407 36.7006 24.4378 37.0136C24.4105 37.0989 24.3651 37.2888 24.2747 37.334C23.9563 37.4923 23.9114 36.8016 24.334 37.7888C24.2073 37.4934 23.8901 37.1934 23.8233 36.8865C23.8898 37.1894 23.9456 37.5169 23.879 37.8277C23.86 37.9165 23.8153 38.1183 23.7379 38.1787C23.6771 38.3138 23.6079 38.306 23.5223 38.1596C23.4408 38.0807 23.3709 37.9932 23.3126 37.897C23.4799 38.194 23.6469 38.4869 23.8142 38.7839C23.6725 38.5093 23.6338 38.2646 23.624 37.9623C23.6207 37.839 23.4337 37.6189 23.3745 37.5068C23.3384 37.4452 23.0886 37.1213 23.1131 37.0561C23.0076 37.3253 22.9537 37.4401 22.6871 37.4479C22.6539 37.4339 22.6245 37.4157 22.6027 37.3891C22.4211 37.1926 22.4943 37.3358 22.8145 37.8229C22.7956 37.7084 22.7233 37.5812 22.6883 37.4677C22.6584 37.3739 22.1736 36.5657 22.1776 36.5655C21.9349 36.7034 21.7383 36.7309 21.5662 36.4901C21.711 36.7485 21.8596 37.0027 22.0043 37.2611C21.9906 37.2341 21.9771 37.2109 21.9593 37.1841C21.9823 37.2306 22.005 37.273 22.0321 37.3193C21.9108 37.0475 21.8568 36.7518 21.7553 36.4709C21.7214 36.3773 21.2603 35.5598 21.2446 35.5687C20.9765 35.6881 20.7505 35.6975 20.5803 35.4207C20.7476 35.7176 20.9149 36.0145 21.082 36.3075C21.0149 36.1322 21.002 35.9815 21.0113 35.7976C21.0142 35.7098 20.5533 34.8962 20.5007 34.8954C20.3752 34.8948 20.2533 34.8861 20.1278 34.8856C20.2994 35.1862 20.4669 35.4871 20.6385 35.7878C20.642 35.3692 20.7701 35.003 20.9294 34.619C20.9542 34.5577 20.4802 33.729 20.4188 33.7167C20.3121 33.6911 20.2215 33.6646 20.1627 33.5605C20.321 33.842 20.4793 34.1236 20.6376 34.4051C20.4872 33.9836 20.6324 33.4968 20.8074 33.1039C20.8538 32.9976 20.2387 32.245 20.2968 32.2017C20.1456 32.3142 19.9734 32.4121 19.8333 32.2331C20.0006 32.53 20.1677 32.823 20.3349 33.1199C20.0971 32.6558 20.3094 31.7985 20.6729 31.4462C20.719 31.4036 20.1348 30.5575 20.1623 30.5439C20.0567 30.606 19.9867 30.6539 19.9157 30.7538C20.0873 31.0545 20.2548 31.3554 20.4264 31.656C20.1209 30.8692 20.5066 29.9338 21.1264 29.399C21.1803 29.352 20.5731 28.5272 20.6158 28.4967C20.4376 28.6308 20.2291 28.6631 20.0279 28.7507C20.1994 29.0514 20.367 29.3523 20.5385 29.653C20.293 28.8546 21.0851 28.3574 21.7905 28.2439C21.6622 28.2635 21.4341 27.3485 21.2799 27.3417C21.089 27.3291 20.8589 27.3387 20.709 27.2001C20.8806 27.5008 21.0481 27.8017 21.2197 28.1024C21.1249 27.8689 21.5876 27.6184 21.757 27.5406C22.2534 27.312 22.7666 27.3693 23.2236 27.0235C23.2469 27.0061 22.713 26.1212 22.713 26.1212C22.4176 26.2582 22.0938 26.3252 21.7795 26.4155C21.951 26.7162 22.1186 27.0171 22.2901 27.3178C22.9527 26.3421 23.7585 25.8043 24.8359 25.3421C24.7965 25.3603 24.3848 24.4203 24.3252 24.4398C23.999 24.5348 23.6914 24.5331 23.356 24.541C23.5275 24.8417 23.6951 25.1426 23.8666 25.4432C24.3824 24.7911 25.1424 24.2998 25.9509 24.0806C25.8674 24.1055 25.5484 23.16 25.4403 23.1784C25.1755 23.2179 24.8968 23.2265 24.6439 23.3291C24.8155 23.6298 24.983 23.9307 25.1546 24.2313C25.344 23.467 26.4032 23.3804 27.0238 23.1325C26.9645 23.1559 26.6099 22.2245 26.5132 22.2302C26.2793 22.2441 26.0545 22.2056 25.822 22.1755C25.9936 22.4762 26.1611 22.7771 26.3327 23.0777C26.6167 22.4752 27.2557 22.4692 27.8459 22.3905C27.7396 22.3729 27.4819 21.4357 27.3492 21.4515Z" fill="#ADD3E7"/>
<path d="M22.6748 30.7493C22.4442 31.297 22.592 31.9497 22.8648 32.4556C22.9057 32.5329 23.3588 33.2831 23.3434 33.296C23.8104 32.9137 24.0323 32.3546 24.1358 31.7787C23.9642 31.478 23.7967 31.1771 23.6251 30.8764C23.6136 31.16 23.7994 31.3602 23.8316 31.6293C23.8415 31.7283 24.3541 32.5269 24.3422 32.5316C24.5187 32.4374 24.8705 32.3648 24.9136 32.1351C24.926 32.0706 24.9177 31.9994 24.9099 31.9361C24.9033 31.8927 24.8926 31.8495 24.886 31.806C24.8839 31.7703 24.8578 31.7399 24.8908 31.7499C24.9114 31.7567 24.9738 31.8526 24.9949 31.8673C25.0292 31.9012 25.0674 31.9308 25.1096 31.9602C25.1942 32.0229 25.2908 32.0809 25.3486 32.1692C25.3528 32.1729 25.3573 32.1806 25.3576 32.1846C25.3261 31.9952 25.3718 31.8092 25.3686 31.6181C25.3653 31.5625 25.362 31.5069 25.3506 31.4518C25.3447 31.4202 25.2945 31.3236 25.3016 31.3072C25.3161 31.2785 25.3088 31.2909 25.3631 31.3195C25.4048 31.341 25.447 31.3704 25.489 31.3958C25.7311 31.5209 26.0532 31.5616 26.2592 31.3502C26.4421 31.16 26.411 30.9069 26.293 30.6907C26.1338 30.3933 25.9771 30.0718 25.7826 29.7924C25.6809 29.647 25.5337 29.5521 25.3715 29.478C25.384 29.4852 25.4485 29.6169 25.4442 29.6132C25.5032 29.7213 25.562 29.8254 25.625 29.9332C25.684 30.0413 25.7468 30.1452 25.8058 30.2533C25.8236 30.2801 25.8572 30.3698 25.8823 30.3842C25.9862 30.4299 26.0908 30.4875 26.1761 30.5621C26.2145 30.5957 26.2411 30.634 26.2754 30.6678C25.8807 29.8782 25.7407 29.6315 25.8558 29.9355C25.861 29.9551 25.8662 29.9747 25.8714 29.9944C25.9041 30.1359 25.8724 30.2852 25.7863 30.4019C25.5235 30.7482 25.0511 30.5609 24.7716 30.3503C24.7758 30.3541 24.7763 30.362 24.7806 30.3657C24.9133 30.6249 24.8398 30.8882 24.8439 31.163C24.8449 31.1788 24.856 31.23 24.8486 31.2424C24.8296 31.2634 24.8527 31.2421 24.8233 31.2239C24.7815 31.2025 24.7417 31.1451 24.6993 31.1117C24.5762 31.0154 24.4541 30.935 24.3733 30.8003C24.369 30.7965 24.3645 30.7888 24.3643 30.7849C24.4022 30.946 24.4862 31.204 24.3531 31.3474C24.2313 31.4781 23.9998 31.5317 23.8427 31.6127C24.0143 31.9134 24.1818 32.2143 24.3533 32.515C24.3253 32.2457 24.1397 32.0494 24.1469 31.7621C24.1496 31.738 24.0787 31.6346 24.0742 31.6269C24.0152 31.5188 23.9564 31.4147 23.8934 31.3069C23.8344 31.1988 23.7716 31.0949 23.7126 30.9868C23.6991 30.9637 23.6292 30.8762 23.6361 30.8558C23.5326 31.4318 23.3147 31.9906 22.8437 32.3732C23.002 32.6547 23.1641 32.932 23.3223 33.2136C23.0728 32.7581 22.9904 32.1174 23.1966 31.635C23.1999 31.6228 23.1193 31.4921 23.1238 31.4998C23.0648 31.3917 23.0061 31.2876 22.943 31.1798C22.884 31.0717 22.8212 30.9678 22.7622 30.8597C22.7423 30.8649 22.6674 30.7617 22.6748 30.7493Z" fill="#ADD3E7"/>
<path d="M28.6061 25.1889C28.5187 25.4212 28.5691 25.6573 28.6788 25.87C28.8121 26.1411 28.9733 26.4025 29.1221 26.6607C29.1899 26.7802 29.2576 26.8998 29.3527 27.0017C29.4693 27.1263 29.668 27.27 29.8443 27.1719C30.1143 27.0164 30.0643 26.5133 30.0498 26.2671C29.8915 25.9856 29.7294 25.7082 29.5711 25.4267C29.7299 25.7162 29.8886 26.0057 30.055 26.2867C30.1313 26.4137 30.2114 26.5365 30.3263 26.6333C30.4963 26.7707 30.734 26.8204 30.9065 26.6587C31.0788 26.4931 31.0711 26.2266 30.9942 26.02C30.9172 25.8133 30.7885 25.6217 30.6802 25.4328C30.5584 25.2209 30.4478 24.9923 30.2909 24.8023C30.4624 25.103 30.6299 25.4039 30.8015 25.7046C31.0848 25.9787 31.7364 26.3905 32.0884 25.9791C32.2436 25.7986 32.2079 25.5377 32.135 25.3308C32.1156 25.2762 32.0921 25.2218 32.0646 25.1676C31.4497 23.8013 31.4545 24.0879 31.6267 24.4005C31.663 24.4661 31.6995 24.5357 31.7398 24.601C31.8616 24.813 31.976 25.0374 32.1094 25.2407C32.3229 25.5668 32.6874 25.7763 33.0838 25.6373C33.4406 25.5126 33.6828 25.1595 33.7098 24.7953C33.7279 24.5552 33.65 24.3326 33.5365 24.1242C33.3231 23.7303 33.1226 23.2839 32.8076 22.9519C32.9112 23.0613 32.9844 23.2722 33.0571 23.4073C33.1381 23.546 33.2061 23.7372 33.3185 23.8581C33.383 23.922 33.4358 23.9946 33.4925 24.063C32.7892 23.1881 33.0034 23.1156 33.1273 23.4311C33.1415 23.4661 33.1517 23.5014 33.1616 23.5327C33.1976 23.662 33.2096 23.7968 33.1932 23.9293C33.167 24.1699 33.0468 24.3962 32.8622 24.5586C32.6968 24.7038 32.4795 24.7924 32.256 24.7777C31.7074 24.7384 31.3246 23.8087 32.0056 25.0595C31.8649 24.8009 31.6371 24.4398 31.536 24.2345C31.6876 24.5404 31.8064 25.0434 31.3867 25.1998C30.9908 25.3467 30.5531 25.0618 30.2866 24.7986C30.394 24.9038 30.4636 25.1229 30.5361 25.2541C30.6176 25.4007 30.6884 25.5718 30.7975 25.7048C30.8235 25.7352 30.8456 25.7657 30.8676 25.7963C30.7368 25.5689 30.6103 25.3453 30.4795 25.1179C30.4859 25.1574 30.5089 25.2039 30.5195 25.2471C30.5361 25.3218 30.541 25.4052 30.5293 25.4816C30.5122 25.6022 30.4504 25.7214 30.3496 25.7951C30.2485 25.8648 30.1237 25.8762 30.0042 25.8394C29.926 25.8162 29.8584 25.7684 29.7986 25.7161C29.7688 25.69 29.7387 25.6599 29.7126 25.6295C29.6953 25.6106 29.6777 25.5878 29.6604 25.5689C29.4521 25.2624 29.5699 25.4746 30.0097 26.2057C29.9147 26.036 29.8194 25.8623 29.7244 25.6926C29.6792 25.6116 29.5362 25.4527 29.531 25.3653C29.5466 25.6274 29.5695 26.4948 29.0585 26.27C28.9838 26.2385 28.92 26.1865 28.8641 26.13C28.83 26.1002 28.8034 26.0619 28.7731 26.0278C28.5088 25.7326 29.2952 27.1247 29.1344 26.664C29.0665 26.4727 29.0393 26.287 29.1129 26.0954C29.1374 26.0302 28.8997 25.7055 28.8634 25.6399C28.8044 25.5318 28.7416 25.428 28.6826 25.3199C28.6694 25.3007 28.599 25.2053 28.6061 25.1889Z" fill="#ADD3E7"/>
<path d="M38.5286 21.5614C38.4113 21.7676 38.4223 21.9543 38.5316 22.159C38.691 22.4604 38.8441 22.7901 39.0505 23.0648C39.1074 23.1371 39.1759 23.2008 39.2596 23.2476C39.5486 23.4138 40.0124 23.3864 39.9875 22.9655C39.9783 22.8106 39.917 22.6628 39.8483 22.5274C39.6599 22.148 39.4438 21.7783 39.2203 21.4209C39.3876 21.7178 39.5549 22.0148 39.722 22.3077C39.9424 22.478 40.5371 22.8174 40.7108 22.4007C40.7782 22.2413 40.711 22.0619 40.6375 21.9149C40.5093 21.6634 40.3612 21.4171 40.2212 21.1704C40.1401 21.0317 40.0636 20.9008 39.9593 20.7794C40.1309 21.0801 40.2984 21.381 40.4699 21.6817C40.9017 22.0028 41.466 21.9655 41.8791 21.6302C42.0415 21.501 42.1806 21.3215 42.2293 21.1193C42.2486 21.0345 42.2512 20.9427 42.2259 20.8565C42.2107 20.8056 42.1837 20.7594 42.1607 20.7129C42.0333 20.4734 41.898 20.2383 41.7586 20.0035C41.6823 19.8765 41.6188 19.7607 41.4848 19.685C41.3464 19.6015 41.1825 19.5674 41.0196 19.5491C41.0236 19.5489 41.1013 19.6997 41.0923 19.6843C41.1513 19.7924 41.2101 19.8965 41.2731 20.0043C41.3321 20.1124 41.3949 20.2163 41.4539 20.3244C41.4672 20.3435 41.5141 20.4523 41.5304 20.4554C41.6689 20.4711 41.8122 20.4985 41.9372 20.5588C42.0121 20.5942 42.1261 20.6751 42.1529 20.7174C41.9991 20.4436 41.8411 20.166 41.6873 19.8922C41.8693 20.2321 41.5365 20.6263 41.2679 20.8056C40.859 21.0769 40.3529 21.071 39.9636 20.7832C39.9847 20.7979 40.0318 20.9106 40.0363 20.9183C40.0953 21.0264 40.1541 21.1305 40.2171 21.2384C40.2986 21.385 40.3697 21.5601 40.4785 21.6892C40.5221 21.7424 40.5657 21.7956 40.6055 21.853C40.2077 21.0795 40.0679 20.8368 40.1856 21.1167C40.1906 21.1324 40.1996 21.1478 40.2046 21.1634C40.2287 21.2297 40.2408 21.2968 40.241 21.3685C40.2393 21.4762 40.1925 21.5746 40.099 21.6359C39.8223 21.8156 39.4399 21.5753 39.2236 21.4087C39.2447 21.4234 39.2876 21.5325 39.2964 21.5439C39.3461 21.6326 39.3916 21.7176 39.4412 21.8023C39.5359 21.9681 39.6227 22.1343 39.7253 22.2956C39.9352 22.6299 39.2088 21.2941 39.3961 21.7253C39.4101 21.7563 39.4201 21.7876 39.434 21.8187C39.458 21.881 39.4738 21.9439 39.4816 22.0072C39.4951 22.098 39.4926 22.1938 39.453 22.2758C39.3806 22.4196 39.2091 22.4616 39.0542 22.4429C38.8791 22.4253 38.7079 22.3359 38.5911 22.2073C38.2879 21.8706 39.094 23.3212 38.9891 22.917C38.9785 22.8738 38.9678 22.8305 38.965 22.7829C38.9625 22.6715 39.0007 22.5656 39.0556 22.4667C39.0591 22.4585 38.9781 22.3199 38.9828 22.3315C38.9238 22.2235 38.8651 22.1193 38.802 22.0115C38.743 21.9034 38.6802 21.7995 38.6212 21.6914C38.5961 21.677 38.5212 21.5738 38.5286 21.5614Z" fill="#ADD3E7"/>
<path d="M17.2157 35.4009C17.4266 34.9979 17.7511 34.5324 18.1979 34.2868C18.2105 34.5689 18.2547 34.905 18.2125 35.2184C18.4316 34.9544 18.7647 34.7713 19.1061 34.7272C19.0554 34.8975 19.0681 35.1797 18.9627 35.3812C19.1817 35.1172 19.4834 34.8802 19.8835 34.8047C19.8096 35.0601 19.8538 35.3962 19.6665 35.7181C19.9636 35.3379 20.4104 35.0923 20.8781 35.2679C20.7178 35.5005 20.6716 35.8141 20.5114 36.0467C21.4471 35.2422 22.1192 35.5212 21.2824 36.6307C21.9294 36.3494 22.6669 36.23 23.1199 36.7731C22.7827 36.9564 22.4139 36.9463 22.0219 37.1608C22.3717 37.2596 23.4084 37.4095 23.5704 37.8223C23.7369 38.3783 23.1048 38.2962 22.6369 38.1167C23.3007 38.2567 23.918 38.5669 24.3942 39.0249C24.0529 39.069 23.7431 39.167 23.4206 38.9828C23.6332 39.2253 23.8503 39.6109 23.8629 39.8931C23.7133 39.7585 23.5089 39.655 23.3045 39.5516C23.4394 40.0537 23.8964 40.5965 23.7448 41.1115C23.5404 41.0081 23.2497 40.8818 23.0916 40.6042C23.2539 41.021 23.3885 41.5191 23.0914 41.8994C22.8787 41.6569 22.651 41.6385 22.6069 41.3024C22.6322 41.8667 22.5436 42.4897 22.1916 42.901C22.0926 42.596 21.9348 42.3224 21.8947 41.9861C21.8882 42.4926 21.627 43.0699 21.1802 43.3155C21.1127 43.0644 20.9549 42.7909 20.9738 42.5626C20.7673 43.1088 19.7513 44.6752 19.7431 43.2371C19.5133 43.8684 18.2593 44.628 18.7232 43.5087C18.5041 43.7727 18.2258 43.9246 17.9477 44.0806C17.8803 43.8295 17.7622 43.7488 17.8594 43.4084C17.5758 43.7439 17.3387 43.9094 16.7743 44.15C16.5257 43.7104 16.5721 43.4686 16.6649 42.9849C16.5595 43.1864 16.2223 43.3697 16.0306 43.5484C15.845 43.2167 15.9422 42.8762 16.1613 42.6122C15.8093 43.0236 14.8274 42.8425 15.5166 42.2479C14.9435 42.2738 13.9996 41.6403 14.9962 41.4538C14.56 41.3321 14.2649 41.0627 14.2988 40.6104C14.4717 40.6599 14.7034 40.6781 14.9078 40.7816C14.4042 40.4089 13.8061 39.8744 13.9262 39.3054C14.1621 39.4628 14.3624 39.4271 14.5161 39.7009C14.3539 39.2841 13.7875 37.5085 14.6975 38.5943C14.4489 38.1548 14.2825 37.5987 14.5164 37.1067C14.6975 37.2952 14.8704 37.3448 14.9967 37.5645C14.6219 36.9052 14.9444 35.7903 15.5048 36.7813C15.1761 35.8085 15.7896 34.8237 16.4172 36.0618C16.0803 34.95 17.4457 34.7736 17.2792 35.5167" fill="#FEFDFD"/>
<path d="M17.4688 35.8505C17.7133 35.4017 18.0058 35.0098 18.4509 34.7364C18.2793 34.4357 18.1118 34.1348 17.9403 33.8341C17.9588 34.1478 17.9809 34.4534 17.9549 34.7657C17.9392 34.9101 18.5339 35.5922 18.4656 35.668C18.7167 35.3981 18.995 35.2462 19.3591 35.1768C19.1875 34.8761 19.02 34.5752 18.8485 34.2745C18.8009 34.4965 18.7937 34.7161 18.7051 34.9286C18.645 35.0756 19.303 35.734 19.2157 35.8308C19.4775 35.5364 19.7499 35.3529 20.1366 35.2543C19.965 34.9537 19.7975 34.6527 19.6259 34.3521C19.5556 34.6671 19.5573 34.9698 19.4089 35.2655C19.3364 35.4093 20.0066 36.067 19.9195 36.1678C20.2414 35.7941 20.6329 35.5717 21.1311 35.7175C20.9596 35.4168 20.792 35.1159 20.6205 34.8153C20.4733 35.0631 20.4008 35.3423 20.2538 35.5941C20.1952 35.6972 20.8302 36.4446 20.7644 36.4963C20.9768 36.3244 21.6365 35.7793 21.8894 36.1548C21.7179 35.8542 21.5503 35.5532 21.3788 35.2526C21.4868 35.5729 21.2007 35.9366 21.0248 36.1781C20.9876 36.2321 21.5514 37.0754 21.5355 37.0803C22.1594 36.8203 22.8675 36.6827 23.3729 37.2227C23.2014 36.922 23.0338 36.6211 22.8623 36.3204C22.5081 36.4888 22.1183 36.5358 21.7643 36.7082C21.8037 36.6899 22.1806 37.5881 22.275 37.6104C22.768 37.7367 23.4426 37.7844 23.783 38.2026C23.6157 37.9057 23.4486 37.6127 23.2813 37.3158C23.6187 37.9573 22.6686 37.7665 22.3793 37.664C22.5509 37.9647 22.7184 38.2656 22.8899 38.5663C23.5587 38.722 24.1426 39.0142 24.6473 39.4745C24.4757 39.1738 24.3082 38.8729 24.1366 38.5722C23.7915 38.6205 23.4876 38.6824 23.163 38.5302C23.2462 38.5691 23.367 38.9007 23.4125 38.9857C23.494 39.1323 23.5648 39.3034 23.6739 39.4364C23.8452 39.6654 23.7981 39.5526 23.5291 39.1103C23.5061 39.0638 23.4834 39.0213 23.4564 38.9751C23.4938 39.0606 23.5971 39.2338 23.5869 39.334C23.5759 39.4901 23.6117 39.4122 23.4785 39.3484C23.4453 39.3344 23.0699 39.0777 23.0391 39.1034C23.0161 39.1247 23.1359 39.3726 23.1454 39.396C23.211 39.5475 23.742 40.5203 23.4791 40.6594C23.3693 40.7177 22.9864 40.3339 22.9144 40.2784C22.7704 40.1713 22.8364 40.1236 22.8889 40.3277C22.9152 40.4297 22.9533 40.5271 22.9716 40.6296C23.0077 40.8307 23.036 41.104 22.9214 41.2861C22.8179 41.4517 22.8985 41.4469 22.7183 41.342C22.6135 41.2804 22.5187 41.1824 22.4369 41.0996C22.4637 41.1419 22.4907 41.1881 22.5134 41.2306C22.4912 41.196 22.4729 41.1612 22.4504 41.1227C22.5952 41.3811 22.74 41.6396 22.8845 41.894C22.8736 41.8468 22.8587 41.7999 22.8476 41.7488C22.8102 41.5956 22.6751 41.4322 22.5981 41.2933C22.535 41.1855 22.3402 40.9698 22.3367 40.8425C22.3542 41.4113 22.2822 41.9735 21.9214 42.4411C22.093 42.7418 22.2605 43.0427 22.4321 43.3434C22.325 43.0389 22.1945 42.7478 22.1351 42.4285C22.1063 42.2828 21.9581 42.1042 21.8856 41.973C21.8314 41.8766 21.619 41.6381 21.6243 41.5223C21.5953 42.058 21.3777 42.553 20.9098 42.8517C21.0813 43.1523 21.2489 43.4533 21.4204 43.7539C21.3409 43.5036 21.2257 43.2673 21.214 43.001C21.2105 42.8737 21.0237 42.6576 20.9645 42.5456C20.9285 42.484 20.6787 42.16 20.7031 42.0948C20.6115 42.3234 19.9079 43.7 19.5675 43.2818C19.7258 43.5633 19.8879 43.8406 20.0461 44.1222C19.9781 43.9987 19.9911 43.8066 19.9873 43.6753C19.9841 43.552 19.7968 43.328 19.7378 43.2199C19.7018 43.1582 19.4518 42.8303 19.4765 42.7691C19.3879 42.9816 18.6587 43.9253 18.3769 43.5395C18.5484 43.8402 18.716 44.1411 18.8875 44.4418C18.8331 44.2736 18.9076 44.0979 18.9673 43.9429C19.0233 43.7961 18.3728 43.1293 18.4566 43.0406C18.2323 43.285 17.9711 43.4519 17.6811 43.6125C17.8527 43.9132 18.0202 44.2141 18.1918 44.5148C18.1082 44.2647 18.0466 44.1129 18.1035 43.8426C18.1348 43.6893 17.5131 43.0287 17.5928 42.9403C17.2857 43.2892 16.9336 43.4934 16.5077 43.682C16.675 43.9789 16.842 44.2719 17.0093 44.5688C16.8039 44.1745 16.8288 43.8423 16.9089 43.4191C16.9277 43.3264 16.7049 43.0486 16.6594 42.9637C16.6324 42.9174 16.376 42.5501 16.3981 42.5129C16.2381 42.7495 15.9794 42.8923 15.7637 43.0764C15.9353 43.3771 16.1028 43.678 16.2744 43.9787C16.1164 43.6334 16.1841 43.3425 16.4051 43.0425C16.4799 42.9384 15.8178 42.2125 15.8945 42.1402C15.6918 42.3395 15.2437 42.4935 15.0294 42.2233C15.2009 42.5239 15.3685 42.8248 15.54 43.1255C15.4723 42.9383 15.6299 42.7974 15.7561 42.6744C15.7637 42.666 15.2941 41.7732 15.2455 41.7721C14.9137 41.7718 14.5093 41.6404 14.3185 41.3568C14.4901 41.6574 14.6576 41.9583 14.8292 42.259C14.7169 42.0027 15.044 41.9235 15.2317 41.8805C15.1358 41.9022 14.8531 41.0223 14.721 40.9783C14.4609 40.8901 14.2728 40.7896 14.114 40.5679C14.2856 40.8686 14.4531 41.1695 14.6247 41.4701C14.5752 41.3854 14.5456 41.2955 14.5357 41.1965C14.5035 41.0629 14.5372 41.0171 14.6667 41.0851C14.8068 41.0609 15.0402 41.1746 15.1647 41.227C15.0857 41.1918 14.9604 40.8525 14.9152 40.7715C14.8472 40.648 14.7724 40.4094 14.6538 40.3208C14.425 40.147 14.2237 39.9597 14.0177 39.7607C13.8777 39.5817 13.8923 39.6246 14.0613 39.8816C14.1866 40.1531 14.225 40.1867 14.1727 39.9866C14.1704 39.9469 14.168 39.9072 14.1657 39.8675C14.1449 39.7213 14.1883 39.7027 14.2959 39.8119C14.4143 39.8288 14.7958 40.0533 14.7633 40.119C14.7851 40.0779 14.6413 39.7676 14.6307 39.7244C14.5561 39.4897 14.3867 39.0893 14.4528 38.8383C14.5381 38.5025 14.8327 38.8995 14.9541 39.0358C14.9446 39.0124 14.9354 38.9931 14.9221 38.9739C14.7404 38.638 14.6163 38.2508 14.6784 37.8646C14.6868 37.8003 14.7032 37.7356 14.7239 37.6746C14.7429 37.5181 14.7949 37.507 14.8802 37.6494C15.0255 37.7126 15.1652 37.8836 15.2533 38.0059C15.2491 38.0022 15.2486 37.9942 15.2443 37.9905C15.1069 37.7197 15.0042 37.2834 15.1574 36.9994C15.3506 36.6413 15.614 36.9884 15.7524 37.2073C15.7566 37.211 15.7611 37.2187 15.7614 37.2227C15.6605 36.886 15.5828 36.3925 15.8194 36.0836C16.2289 35.5493 16.7906 36.7673 16.1951 35.6629C16.3316 35.9178 16.6007 36.2246 16.6738 36.5032C16.5945 36.1891 16.5886 35.8149 16.892 35.6097C17.0358 35.5095 17.3713 35.4339 17.4838 35.6265C17.3255 35.3449 17.1673 35.0634 17.009 34.7819C17.0428 34.8755 17.0392 34.9514 17.0249 35.0519C17.0104 35.1484 17.229 35.4224 17.2745 35.5073C17.324 35.5921 17.5501 35.8576 17.5358 35.9581C17.5801 35.6805 17.4016 35.4679 17.2706 35.2366C17.1711 35.0592 17.0683 34.7584 16.88 34.654C16.7043 34.5568 16.4699 34.6304 16.3275 34.7544C16.0774 34.9725 16.0895 35.3144 16.1634 35.605C16.3217 35.8865 16.4838 36.1638 16.642 36.4454C16.4785 36.1442 15.634 34.3173 15.2292 35.3414C15.1589 35.5209 15.1465 35.7209 15.1658 35.911C15.1931 36.2362 15.2911 36.2503 15.0478 36.0376C14.6851 35.7203 14.5719 36.269 14.5881 36.543C14.5938 36.6383 14.6077 36.7371 14.6335 36.8312C14.6543 36.9096 14.7254 37.017 14.6849 37.0154C14.6279 37.0108 14.4241 36.7798 14.3738 36.7509C14.2607 36.6859 14.3305 36.6339 14.2422 36.7148C14.1921 36.7577 14.1806 36.9058 14.1721 36.9661C14.1278 37.2436 14.181 37.5274 14.2814 37.7885C14.2817 37.7924 14.4072 38.0679 14.407 38.064C14.384 38.0852 14.2605 37.9132 14.1891 37.8696C13.87 37.6733 13.9416 38.0636 13.9828 38.2803C14.018 38.4655 14.0691 38.6458 14.1243 38.8259C14.1496 38.912 14.187 38.9975 14.2083 39.0839C14.2498 39.2369 14.3432 39.2433 14.187 39.133C14.0729 39.0521 13.9729 39.0022 13.8477 38.9379C13.8268 38.9271 13.6883 38.8437 13.6765 38.8484C13.633 38.8669 13.6716 39.1077 13.6782 39.1511C13.7198 39.3758 13.8573 39.5789 13.97 39.7754C14.3001 40.3616 14.6184 40.817 15.1689 41.2307C14.9974 40.9301 14.8299 40.6291 14.6583 40.3285C14.5338 40.2761 14.4103 40.2395 14.2791 40.2114C14.0697 40.1601 14.0673 40.1203 14.0509 40.3206C14.0365 40.4888 14.2129 40.7334 14.2899 40.8723C14.5479 41.3352 14.7083 41.7202 15.2532 41.9032C15.0817 41.6025 14.9142 41.3016 14.7426 41.0009C14.531 41.0493 14.2874 41.1036 14.3264 41.3523C14.3599 41.5775 14.6076 41.8657 14.7161 42.0585C14.9462 42.4593 15.2839 42.6944 15.7737 42.6973C15.6021 42.3966 15.4346 42.0957 15.263 41.795C15.0829 41.9651 14.9884 42.0782 15.0789 42.308C15.1744 42.5534 15.3424 42.7945 15.481 43.0174C15.7002 43.3711 16.1241 43.354 16.4224 43.0614C16.2509 42.7607 16.0833 42.4598 15.9118 42.1591C15.6908 42.4591 15.623 42.75 15.781 43.0953C15.823 43.1885 16.3109 43.9805 16.2917 43.9976C16.5074 43.8135 16.762 43.6709 16.926 43.434C16.7545 43.1334 16.5869 42.8325 16.4154 42.5318C16.3323 42.975 16.3196 43.3065 16.5338 43.7123C16.5748 43.7896 17.0117 44.6085 17.0354 44.5991C17.4615 44.4145 17.8136 44.2104 18.1205 43.8575C17.949 43.5568 17.7814 43.2559 17.6099 42.9552C17.5528 43.2216 17.6146 43.3774 17.6982 43.6275C17.728 43.7213 18.2088 44.5297 18.2088 44.5297C18.4988 44.3691 18.7603 44.2062 18.9843 43.9578C18.8128 43.6572 18.6452 43.3562 18.4737 43.0556C18.3651 43.3409 18.3492 43.4814 18.4897 43.736C18.5897 43.9214 18.7417 44.3707 18.9311 44.495C19.3017 44.74 19.8944 43.9518 20.0044 43.6903C19.8329 43.3896 19.6653 43.0887 19.4938 42.788C19.5021 43.1342 19.603 43.3354 19.7703 43.6324C19.8608 43.7944 20.019 44.2792 20.2619 44.2807C20.6827 44.2798 21.1121 43.3298 21.2351 43.0157C21.0636 42.7151 20.896 42.4141 20.7245 42.1135C20.7322 42.38 20.8513 42.616 20.9309 42.8664C20.961 42.9642 21.4534 43.7639 21.4415 43.7686C21.9094 43.47 22.123 42.9752 22.156 42.4392C21.9844 42.1386 21.8169 41.8376 21.6454 41.537C21.7047 41.8562 21.8352 42.1474 21.9423 42.4519C21.9859 42.5728 22.498 43.2957 22.4529 43.3541C22.814 42.8904 22.8816 42.3246 22.8682 41.7555C22.6967 41.4548 22.5291 41.1539 22.3576 40.8533C22.4319 41.1517 22.6215 41.4155 22.7746 41.6774C22.8333 41.7815 22.885 41.902 22.9634 41.9969C23.0115 42.0579 23.3128 42.3628 23.3567 42.3522C23.4806 42.325 23.5294 41.9196 23.5287 41.84C23.5379 41.6521 23.4905 41.4676 23.4396 41.2913C23.4342 41.2677 23.3456 41.0698 23.357 41.0571C23.3266 41.0908 23.5867 41.3145 23.6078 41.3292C23.6756 41.381 23.7602 41.4437 23.843 41.4747C23.9962 41.5334 23.9606 41.6152 24.0351 41.4394C24.152 41.1575 23.8707 40.7119 23.7549 40.4637C23.7084 40.3629 23.6155 40.2289 23.6047 40.114C23.5872 39.9556 23.5623 40.0129 23.7197 40.0753C23.7944 40.1067 23.9829 40.2829 24.0643 40.29C24.166 40.3 24.1219 40.3065 24.0975 40.1685C24.0443 39.8847 23.8372 39.5981 23.6974 39.3554C23.5348 39.0701 23.3801 38.7804 23.1748 38.5255C23.3464 38.8262 23.5139 39.1271 23.6855 39.4278C24.0141 39.5797 24.314 39.5181 24.6591 39.4698C24.579 39.4825 24.2426 38.6536 24.1485 38.5675C23.6438 38.1073 23.06 37.815 22.3912 37.6593C22.4526 37.6716 22.6087 38.0529 22.6407 38.1148C22.6902 38.1995 22.8029 38.5316 22.902 38.5656C23.1335 38.6475 23.7207 38.8598 23.8463 38.5217C23.944 38.2569 23.5951 37.8312 23.4778 37.6269C23.3155 37.3456 23.2072 37.1568 22.8956 37.0198C22.5422 36.8614 22.1504 36.8049 21.7764 36.7074C21.948 37.0081 22.1155 37.309 22.2871 37.6097C22.6411 37.4373 23.0308 37.3904 23.385 37.222C23.3732 37.2267 22.9391 36.3876 22.8744 36.3197C22.369 35.7798 21.6569 35.9175 21.0369 36.1774C21.2085 36.478 21.376 36.779 21.5476 37.0796C21.7235 36.8381 21.9907 36.4995 21.9112 36.1814C21.8525 35.9418 21.643 35.6832 21.5212 35.4713C21.4354 35.3209 21.3819 35.1687 21.1976 35.1318C20.8784 35.071 20.4819 35.4132 20.2657 35.5894C20.4372 35.8901 20.6047 36.191 20.7763 36.4917C20.9235 36.2439 20.996 35.9646 21.143 35.7128C21.1686 35.6675 20.694 34.8268 20.6323 34.8106C20.1341 34.6647 19.7426 34.8871 19.4207 35.2608C19.5923 35.5615 19.7598 35.8624 19.9314 36.1631C20.0798 35.8674 20.0781 35.5646 20.1484 35.2496C20.1641 35.173 19.6456 34.3429 19.6378 34.3474C19.2511 34.446 18.9787 34.6295 18.7169 34.9239C18.8885 35.2246 19.056 35.5255 19.2276 35.8261C19.3162 35.6137 19.3234 35.3941 19.371 35.1721C19.3867 35.0955 18.8803 34.2647 18.8603 34.2698C18.4962 34.3392 18.2179 34.4912 17.9668 34.7611C18.1383 35.0617 18.3059 35.3626 18.4774 35.6633C18.5075 35.3507 18.4813 35.0454 18.4628 34.7317C18.4567 34.6285 17.9286 33.8428 17.9521 33.8294C17.511 34.1026 17.2148 34.4987 16.97 34.9436C16.9446 34.9929 17.192 35.3449 17.2195 35.399C17.2389 35.4537 17.4944 35.8052 17.4688 35.8505Z" fill="#ADD3E7"/>
<path d="M16.133 37.9492C16.1184 38.1134 16.1556 38.2626 16.2331 38.4095C16.352 38.6415 16.4868 38.8687 16.6176 39.096C16.6807 39.2039 16.7404 39.3239 16.8231 39.4226C16.9492 39.5706 17.2501 39.7321 17.3435 39.4635C17.3677 39.3944 17.3673 39.3187 17.3631 39.2472C17.3602 39.1996 17.3531 39.1482 17.3423 39.101C17.3366 39.0734 17.3269 39.0461 17.3252 39.0183C17.3167 38.9431 17.3233 38.9865 17.362 39.0241C17.4781 39.1408 17.6211 39.2319 17.7814 39.2743C17.9498 39.3161 18.2774 39.3127 18.3126 39.0874C18.3217 39.0351 18.3027 38.9884 18.2838 38.9417C18.154 38.6625 17.9845 38.3975 17.8314 38.1356C17.7234 37.9507 17.5916 37.8429 17.3919 37.7512C17.5634 38.0518 17.731 38.3527 17.9025 38.6534C18.3408 38.743 18.9311 38.9393 19.2494 38.506C19.253 38.4978 19.1677 38.3554 19.1767 38.3708C19.1177 38.2627 19.0589 38.1586 18.9959 38.0508C18.9369 37.9427 18.8741 37.8388 18.8151 37.7307C18.8016 37.7076 18.7634 37.6102 18.7385 37.5998C18.5611 37.5425 18.4286 37.4228 18.2365 37.3904C18.4081 37.691 18.5756 37.9919 18.7471 38.2926C18.9229 38.3221 19.2787 38.317 19.3808 38.1276C19.4029 38.0904 19.4008 38.0547 19.3863 38.0157C19.3454 37.8707 19.2316 37.726 19.155 37.595C19.0238 37.3597 18.9222 37.0788 18.6867 36.9294C18.7036 36.9403 18.7552 37.0608 18.7595 37.0645C18.8185 37.1726 18.8772 37.2767 18.9403 37.3846C18.9993 37.4927 19.0621 37.5966 19.1211 37.7046C19.1393 37.7394 19.168 37.8134 19.1976 37.8356C19.2566 37.8759 19.3237 37.9158 19.3598 37.9774C19.197 37.6882 19.0299 37.3952 18.8671 37.106C19.0131 37.3843 18.3717 37.4182 18.2327 37.3946C18.2408 37.3941 18.3145 37.5451 18.3055 37.5297C18.3645 37.6378 18.4232 37.7419 18.4862 37.8498C18.5452 37.9579 18.608 38.0618 18.667 38.1698C18.6803 38.189 18.7232 38.298 18.7436 38.3008C18.9357 38.3333 19.0682 38.4529 19.2456 38.5102C19.074 38.2095 18.9065 37.9086 18.735 37.6079C18.4166 38.0412 17.8261 37.841 17.3881 37.7554C17.3962 37.7549 17.4698 37.9059 17.4608 37.8905C17.5198 37.9986 17.5786 38.1027 17.6416 38.2106C17.7006 38.3187 17.7634 38.4225 17.8224 38.5306C17.8402 38.5575 17.8738 38.6471 17.899 38.6616C18.0322 38.7254 18.1906 38.8037 18.2672 38.9347C18.1044 38.6455 17.9373 38.3525 17.7745 38.0632C17.879 38.2563 17.6641 38.3846 17.4949 38.3986C17.3661 38.4102 17.2347 38.3781 17.1183 38.3252C17.0474 38.2896 16.9801 38.2457 16.9206 38.1975C16.8867 38.1716 16.8599 38.1293 16.8262 38.1074C16.7956 38.0694 16.7918 38.0736 16.8153 38.128C16.821 38.1555 16.8266 38.1831 16.8323 38.2106C16.868 38.4038 16.8676 38.8063 16.5545 38.7132C16.439 38.6762 16.353 38.5897 16.2788 38.4984C16.0259 38.1906 16.8479 39.6363 16.6894 39.2153C16.6752 39.1803 16.665 39.145 16.6587 39.1056C16.6419 39.0269 16.6372 38.9474 16.6446 38.8673C16.6472 38.8432 16.5761 38.7359 16.5718 38.7321C16.5128 38.6241 16.4541 38.5199 16.391 38.4121C16.332 38.304 16.2692 38.2001 16.2102 38.092C16.1958 38.053 16.1306 37.9772 16.133 37.9492Z" fill="#ADD3E7"/>
<path d="M19.285 39.7261C19.2376 39.7448 19.1785 39.7722 19.1654 39.8248C19.1583 39.8412 19.1595 39.861 19.1647 39.8806C19.1864 39.975 19.2609 40.0702 19.3059 40.1473C19.3919 40.3016 19.4779 40.4559 19.568 40.6099C19.613 40.687 19.6542 40.7682 19.703 40.841C19.7206 40.8639 19.7381 40.8868 19.7594 40.9054C19.8066 40.9505 19.8654 40.9868 19.92 41.0195C20.0454 41.0878 20.5311 41.2942 20.5677 41.025C20.5789 40.9407 20.537 40.8475 20.5003 40.774C20.3674 40.5108 20.2147 40.2569 20.0659 39.9987C20.0029 39.8908 19.9396 39.779 19.8688 39.6756C20.0403 39.9763 20.2079 40.2772 20.3794 40.5779C20.6198 40.8107 20.9288 40.9718 21.2723 40.8956C21.2723 40.8956 21.1903 40.7411 21.1995 40.7605C21.1405 40.6524 21.0818 40.5483 21.0187 40.4404C20.9597 40.3323 20.8969 40.2285 20.8379 40.1204C20.8157 40.0858 20.7913 40.0155 20.7614 39.9894C20.7318 39.9673 20.7142 39.9444 20.6924 39.9178C20.6967 39.9215 20.7012 39.9292 20.7014 39.9332C20.9407 40.3534 20.9905 40.4421 20.8502 40.1914C20.814 40.1258 20.7737 40.0604 20.7372 39.9908C20.7102 39.9446 20.6874 39.9021 20.6604 39.8559C20.6291 39.806 20.5981 39.76 20.5552 39.7187C20.7268 40.0194 20.8943 40.3203 21.0658 40.6209C21.1579 40.6035 21.2487 40.5663 21.3358 40.5332C21.3754 40.5189 21.415 40.5046 21.4551 40.4983C21.4912 40.4922 21.4834 40.4966 21.4896 40.4644C21.4962 40.4401 21.482 40.405 21.4725 40.3817C21.4157 40.2416 21.3268 40.1074 21.2503 39.9764C21.1555 39.8107 21.0643 39.6368 20.9614 39.4715C20.9079 39.387 20.8244 39.3441 20.7476 39.2769C20.7689 39.2956 20.8113 39.3967 20.8203 39.4121C20.8793 39.5202 20.9381 39.6243 21.0011 39.7322C21.0601 39.8402 21.1229 39.9441 21.1819 40.0522C21.2044 40.0907 21.2283 40.1531 21.2584 40.1832C21.3225 40.2392 21.4019 40.2823 21.4545 40.3509C21.4502 40.3472 21.4457 40.3394 21.4455 40.3355C21.45 40.3432 21.4543 40.3469 21.4547 40.3549C21.2875 40.0579 21.1202 39.761 20.9531 39.468C20.9626 39.4913 20.9718 39.5107 20.9732 39.5346C20.9744 39.5544 20.9753 39.5703 20.9725 39.5904C20.9685 39.5906 20.9604 39.5911 20.9564 39.5913C20.921 39.6094 20.8686 39.6125 20.8328 39.6226C20.7376 39.6561 20.6468 39.6933 20.5509 39.715C20.5509 39.715 20.6329 39.8695 20.6237 39.8501C20.6827 39.9582 20.7414 40.0623 20.8045 40.1702C20.8635 40.2783 20.9263 40.3821 20.9853 40.4902C21.0078 40.5287 21.0315 40.5871 21.0618 40.6212C21.0876 40.6475 21.1094 40.6742 21.1313 40.7008C21.127 40.697 21.1225 40.6893 21.1222 40.6854C21.2156 40.8273 21.1479 40.7077 20.9189 40.3268C20.964 40.4038 21.0047 40.4771 21.0497 40.5542C21.09 40.6195 21.1265 40.6891 21.1668 40.7544C21.1938 40.8007 21.2249 40.8466 21.2675 40.884C21.096 40.5833 20.9285 40.2824 20.7569 39.9817C20.4134 40.0578 20.1004 39.897 19.864 39.6639C19.8896 39.6863 19.9233 39.776 19.9368 39.7991C19.9958 39.9072 20.0545 40.0113 20.1176 40.1192C20.2034 40.2695 20.2775 40.4285 20.3789 40.5699C20.3922 40.5891 20.4057 40.6122 20.419 40.6313C20.4147 40.6276 20.4102 40.6199 20.41 40.6159C20.6588 40.9917 19.8411 39.5497 20.0166 39.9179C20.0124 39.9142 20.0119 39.9062 20.0076 39.9025C20.0723 40.0382 20.0952 40.2201 19.9021 40.2395C19.7332 40.2575 19.5426 40.1811 19.4001 40.0978C19.3247 40.0545 19.2445 39.9995 19.1957 39.9266C19.2 39.9304 19.2045 39.9381 19.2047 39.942C19.0263 39.6617 19.1846 39.9432 19.6836 40.7864C19.6879 40.7901 19.6883 40.7981 19.6926 40.8018C19.6507 40.7087 19.72 40.6488 19.803 40.616C19.799 40.6162 19.5718 40.1953 19.5535 40.1605C19.5241 40.1423 19.3009 39.7212 19.285 39.7261Z" fill="#ADD3E7"/>
<g clip-path="url(#clip1_7316_69254)">
<path d="M20.2505 86.4923C25.9144 85.1283 30.8552 84.1147 35.9728 85.4899C41.0904 86.8651 52.8821 82.4835 53.3467 86.1195C53.8114 89.7554 55.2981 89.1595 57.4568 87.0835C59.6156 85.0075 63.0499 97.5185 64.1252 91.3666C65.2004 85.2147 67.5893 83.6074 73.2781 84.7785C78.9345 85.9519 83.24 81.6388 87.1826 85.1792C90.4621 88.1209 94.2849 94.8816 99.7312 92.7781C99.6824 89.921 101.054 87.3365 99.1899 85.9093C96.3245 83.7195 96.5307 83.8662 87.7982 77.6579C79.0656 71.4497 62.8895 74.2399 55.9516 79.0717C48.9813 83.9059 44.1361 83.1312 36.5775 80.0206C28.954 76.9148 21.9327 80.6193 19.2604 83.6779C18.6603 84.37 17.8902 84.9668 17.0798 85.4586C17.2485 86.4177 18.0433 87.0335 20.2505 86.4923Z" fill="#FEFDFD"/>
<path d="M19.6498 88.9385C27.2434 87.2427 32.7368 86.2152 36.7221 88.133C40.7094 90.0778 50.2868 83.944 51.566 88.4642C52.8777 92.982 51.5255 103.31 54.2177 93.0447C56.9119 82.8057 61.8991 95.1746 61.8991 95.1746C65.0285 98.2894 66.5149 108.246 67.3567 101.14C68.168 94.0627 62.5779 85.8675 72.2867 87.2266C82.0279 88.5833 83.3691 83.3833 86.239 88.2715C89.1089 93.1597 93.5239 103.52 98.748 101.055C100.29 100.32 101.61 99.6826 102.773 99.1107C102.466 98.4857 102.097 97.8923 101.567 97.3378C100.15 95.7965 99.7412 94.2345 99.729 92.7511C94.2847 94.8814 90.4619 88.1207 87.1805 85.1522C83.2703 81.6094 78.9647 85.9225 73.276 84.7515C67.6196 83.578 65.2307 85.1853 64.123 91.3396C63.0478 97.4915 59.6135 84.9805 57.4547 87.0565C55.296 89.1325 53.8093 89.7284 53.3446 86.0925C52.8799 82.4565 41.0579 86.8674 35.9727 85.4897C30.855 84.1145 25.9123 85.1012 20.2504 86.4921C18.0431 87.0334 17.2484 86.4175 17.0817 85.4853C15.6492 86.374 14.0674 87.0039 12.7975 87.4488C13.4436 88.6964 15.195 89.9161 19.6498 88.9385Z" fill="#D8ECF5"/>
<path d="M86.157 87.4953C83.2871 82.6071 81.9459 87.8071 72.2047 86.4504C62.4635 85.0937 68.086 93.2864 67.2746 100.363C66.4633 107.44 64.9465 97.5131 61.8171 94.3984C61.8171 94.3984 56.8603 82.0002 54.1357 92.2684C51.4415 102.507 52.7957 92.2057 51.484 87.6879C50.1724 83.1702 40.6274 89.3015 36.6401 87.3568C32.6528 85.4121 27.129 86.4688 19.5658 88.1354C15.1434 89.1106 14.6456 88.2472 13.9996 86.9996C12.8249 87.4105 10.6801 87.3361 10.4977 87.5115C7.29864 90.933 14.8141 88.6222 21.6485 89.8703C28.483 91.1184 30.5483 87.7809 34.135 89.5934C37.7216 91.4059 42.9501 91.6394 47.3869 89.0978C51.8216 86.5295 51.6985 105.538 54.524 110.268C57.3496 114.997 53.6252 95.4908 56.0554 91.8024C58.4856 88.114 60.6942 99.9061 63.8192 100.322C66.9442 100.739 66.589 111.776 68.8639 116.546C71.1388 121.317 68.0726 92.6667 69.3725 89.5478C70.6723 86.4289 74.4424 90.2789 79.8762 88.4462C85.31 86.6134 89.4252 103.041 95.7839 105.782C101.368 108.175 104.744 102.743 102.661 98.3637C101.53 98.9332 100.209 99.5707 98.6356 100.308C93.4743 102.741 89.0268 92.3835 86.157 87.4953Z" fill="#ADD3E7"/>
</g>
<g clip-path="url(#clip2_7316_69254)">
<path d="M7.87343 26.9098C7.85007 27.2602 8.13043 27.5639 8.45751 27.5639C8.80796 27.5873 9.08831 27.3069 9.11167 26.9799C9.13504 26.6294 8.87804 26.3491 8.5276 26.3257C8.17715 26.3023 7.8968 26.5593 7.87343 26.9098Z" fill="#FEFDFD"/>
<path d="M4.99986 45.6237C4.9765 46.2545 5.44376 46.7918 6.07456 46.8386C6.70536 46.8619 7.24272 46.3947 7.28944 45.7639C7.3128 45.1331 6.84554 44.5957 6.21474 44.549C5.58394 44.5023 5.04659 44.9929 4.99986 45.6237Z" fill="#FEFDFD"/>
<path d="M18.6205 67.4919C19.1495 67.4919 19.5784 67.0631 19.5784 66.5341C19.5784 66.005 19.1495 65.5762 18.6205 65.5762C18.0915 65.5762 17.6626 66.005 17.6626 66.5341C17.6626 67.0631 18.0915 67.4919 18.6205 67.4919Z" fill="#FEFDFD"/>
<path d="M66.6553 65.3418C66.6553 65.0147 66.3983 64.7344 66.0479 64.7344C65.7208 64.7344 65.4404 64.9914 65.4404 65.3418C65.4404 65.6689 65.6974 65.9493 66.0479 65.9493C66.3749 65.9259 66.6553 65.6689 66.6553 65.3418Z" fill="#FEFDFD"/>
<path d="M55.6275 74.804C55.6275 75.5983 54.9733 76.2525 54.179 76.2525C53.3846 76.2525 52.7305 75.5983 52.7305 74.804C52.7305 74.0096 53.3846 73.3555 54.179 73.3555C54.9733 73.3555 55.6275 74.0096 55.6275 74.804Z" fill="#FEFDFD"/>
<path d="M79.7243 24.4485C80.1242 24.4485 80.4485 24.1242 80.4485 23.7243C80.4485 23.3243 80.1242 23 79.7243 23C79.3243 23 79 23.3243 79 23.7243C79 24.1242 79.3243 24.4485 79.7243 24.4485Z" fill="#FEFDFD"/>
<path d="M74.8088 6.35045C74.8088 6.56071 74.6453 6.70089 74.4584 6.70089C74.2481 6.70089 74.1079 6.53735 74.1079 6.35045C74.1079 6.16354 74.2481 6 74.435 6C74.6453 6 74.8088 6.16354 74.8088 6.35045Z" fill="#FEFDFD"/>
<path d="M52.4906 10.9812C52.7616 10.9812 52.9812 10.7616 52.9812 10.4906C52.9812 10.2197 52.7616 10 52.4906 10C52.2197 10 52 10.2197 52 10.4906C52 10.7616 52.2197 10.9812 52.4906 10.9812Z" fill="#FEFDFD"/>
</g>
</g>
<defs>
<filter id="filter0_d_7316_69254" x="17" y="20" width="54.0156" height="52" filterUnits="userSpaceOnUse" color-interpolation-filters="sRGB">
<feFlood flood-opacity="0" result="BackgroundImageFix"/>
<feColorMatrix in="SourceAlpha" type="matrix" values="0 0 0 0 0 0 0 0 0 0 0 0 0 0 0 0 0 0 127 0" result="hardAlpha"/>
<feOffset dy="2"/>
<feGaussianBlur stdDeviation="2"/>
<feComposite in2="hardAlpha" operator="out"/>
<feColorMatrix type="matrix" values="0 0 0 0 0 0 0 0 0 0 0 0 0 0 0 0 0 0 0.25 0"/>
<feBlend mode="normal" in2="BackgroundImageFix" result="effect1_dropShadow_7316_69254"/>
<feBlend mode="normal" in="SourceGraphic" in2="effect1_dropShadow_7316_69254" result="shape"/>
</filter>
<clipPath id="clip0_7316_69254">
<rect width="88" height="88" fill="white"/>
</clipPath>
<clipPath id="clip1_7316_69254">
<rect width="92.409" height="43.4125" fill="white" transform="translate(9 78.8242) rotate(-4.23513)"/>
</clipPath>
<clipPath id="clip2_7316_69254">
<rect width="92.8214" height="76" fill="white" transform="translate(5 6)"/>
</clipPath>
</defs>
</svg>
