<svg width="200" height="200" viewBox="0 0 200 200" fill="none" xmlns="http://www.w3.org/2000/svg">
<path fill-rule="evenodd" clip-rule="evenodd" d="M55 61.3169C55 61.3169 75.2912 65.5372 83.3527 90.8412L88.1647 69.6408C88.1647 69.6408 78.8359 52.8129 61.8931 43.2383C61.8931 43.2383 56.6766 51.177 55 61.3169Z" fill="white"/>
<path fill-rule="evenodd" clip-rule="evenodd" d="M98.0495 48.0515C98.0495 48.0515 93.5565 53.5771 89.9859 63.789C89.9859 63.789 82.6354 49.2638 64.2344 40.1177C63.4845 39.745 72.5249 30.1551 75.9396 29.0625C75.9396 29.0625 86.1088 30.5085 98.0495 48.0515Z" fill="white"/>
<path fill-rule="evenodd" clip-rule="evenodd" d="M145.651 61.3169C145.651 61.3169 125.359 65.5372 117.298 90.8412L112.486 69.6408C112.486 69.6408 121.815 52.8129 138.758 43.2383C138.758 43.2383 143.975 51.177 145.651 61.3169Z" fill="white"/>
<path fill-rule="evenodd" clip-rule="evenodd" d="M102.602 48.0515C102.602 48.0515 107.095 53.5771 110.664 63.789C110.664 63.789 118.015 49.2638 136.417 40.1177C137.166 39.745 128.126 30.1551 124.711 29.0625C124.711 29.0625 114.542 30.5085 102.602 48.0515Z" fill="white"/>
<path fill-rule="evenodd" clip-rule="evenodd" d="M81.792 25.941C81.792 25.941 95.1541 34.8501 100.39 43.2392C100.39 43.2392 109.83 29.2567 117.948 26.071C117.948 26.0707 101.511 16.9987 81.792 25.941Z" fill="white"/>
<path fill-rule="evenodd" clip-rule="evenodd" d="M100.424 52.084C100.424 52.084 95.0728 61.5654 93.0107 69.2521C93.0107 69.2521 99.2842 82.9218 100.417 87.9858C100.417 87.9858 103.587 74.6066 106.744 69.2725C107.01 68.8218 103.378 56.635 100.424 52.084Z" fill="white"/>
<path fill-rule="evenodd" clip-rule="evenodd" d="M92.2251 77.8359C92.2251 77.8359 87.7122 98.4712 87.543 109.701C87.3738 120.931 87.543 172 87.543 172H95.8667V109.441C95.8667 109.441 96.696 104.144 92.2251 77.8359Z" fill="white"/>
<path fill-rule="evenodd" clip-rule="evenodd" d="M109.656 77.8359C109.656 77.8359 105.148 98.4712 104.979 109.701C104.809 120.931 104.979 172 104.979 172H113.294V109.441C113.294 109.441 114.123 104.144 109.656 77.8359Z" fill="white"/>
</svg>
