<svg width="200" height="200" viewBox="0 0 200 200" fill="none" xmlns="http://www.w3.org/2000/svg">
<path fill-rule="evenodd" clip-rule="evenodd" d="M100.321 25L63.3336 43.8561L48 112.236L100.321 141.97L152.641 105.812L136.168 42.9237L100.321 25Z" fill="white"/>
<path fill-rule="evenodd" clip-rule="evenodd" d="M74.8311 47.9749L98.2458 34.0918L121.557 45.592L100.318 60.7183L74.8311 47.9749Z" fill="black"/>
<path fill-rule="evenodd" clip-rule="evenodd" d="M68.7375 55.3405L100.648 70.8812L129.347 54.6152L143.748 99.6835L100.855 128.486L57.2373 105.589L68.7375 55.3405Z" fill="black"/>
<path fill-rule="evenodd" clip-rule="evenodd" d="M93.3047 137.174C93.3047 137.174 95.4872 163.565 100.039 173.643C104.591 183.722 108.845 134.377 108.845 134.377L93.3047 137.174Z" fill="white"/>
<path fill-rule="evenodd" clip-rule="evenodd" d="M121.747 124.973C121.747 124.973 127.817 153.416 131.9 155.432C135.983 157.449 135.423 111.504 135.423 111.504L121.747 124.973Z" fill="white"/>
<path fill-rule="evenodd" clip-rule="evenodd" d="M79.1233 124.984C79.1233 124.984 73.0646 153.454 68.9892 155.471C64.9138 157.488 65.4732 111.504 65.4732 111.504L79.1233 124.984Z" fill="white"/>
</svg>
