<svg width="1920" height="1080" viewBox="0 0 1920 1080" fill="none" xmlns="http://www.w3.org/2000/svg">
<path fill-rule="evenodd" clip-rule="evenodd" d="M1915.5 0H0V1074H1915.5V0ZM433.195 1073.78H350.599L348.711 1071.64V978.991H360.37V976.843H433.223L435.119 979.002V1071.59L433.195 1073.78ZM349.648 976.096H433.22L435.094 973.963V881.314L433.198 879.155H350.597L348.686 881.33V963.883H349.648V976.096ZM348.055 963.883V881.314L346.159 879.155H263.558L261.647 881.33V973.947L263.535 976.096H347.125V963.883H348.055ZM336.403 976.843H263.533L261.673 978.961V1071.64L263.56 1073.78H346.156L348.081 1071.59V978.991H336.403V976.843ZM261.017 978.973V1071.62L259.118 1073.78H176.522L174.609 1071.61V978.99L176.494 976.843H259.146L261.017 978.973ZM173.978 978.973V1071.62L172.079 1073.78H89.4831L87.57 1071.61V978.991H98.3249V976.843H172.107L173.978 978.973ZM87.5775 976.096H172.104L173.978 973.963V881.314L172.082 879.155H89.4806L87.57 881.33V963.883H87.5775V976.096ZM86.9392 963.883V881.314L85.0429 879.155H2.4419L0.531268 881.33V973.947L2.41922 976.096H85.0547V963.883H86.9392ZM85.0547 976.843H2.41665L0.531268 978.99V1071.61L2.44442 1073.78H85.0404L86.9392 1071.62V978.991H85.0547V976.843ZM85.0656 878.437H2.41923L0.531268 876.287V783.67L2.44185 781.495H85.043L86.9392 783.654V876.303L85.0656 878.437ZM85.0655 780.777H2.41927L0.531268 778.628V686.011L2.44184 683.836H85.0547V697.127H86.9392V778.644L85.0655 780.777ZM87.57 697.127V778.628L89.458 780.777H172.104L173.978 778.644V685.995L172.082 683.836H98.3249V684.92H87.5775V697.127H87.57ZM98.3249 683.117H172.104L173.978 680.984V588.335L172.082 586.176H89.4805L87.57 588.351V669.84H87.5775V682.047H98.3249V683.117ZM86.9392 669.84V588.335L85.043 586.176H2.44185L0.531268 588.351V680.968L2.41923 683.117H85.0547V669.84H86.9392ZM85.0655 585.458H2.41927L0.531268 583.308V490.692L2.44184 488.516H85.043L86.9392 490.675V583.325L85.0655 585.458ZM85.0655 487.798H2.41928L0.531268 485.649V393.032L2.44182 390.857H85.0547V404.147H86.9392V485.665L85.0655 487.798ZM87.57 404.147V485.649L89.458 487.798H172.104L173.978 485.665V393.016L172.082 390.857H98.3249V391.939H87.5775V404.147H87.57ZM98.3249 390.139H172.104L173.978 388.005V295.356L172.082 293.197H89.4805L87.57 295.372V376.859H87.5775V389.067H98.3249V390.139ZM86.9392 376.859V295.356L85.043 293.197H2.44177L0.531268 295.372V387.989L2.4193 390.139H85.0547V376.859H86.9392ZM85.0654 292.479H2.41936L0.531268 290.33V197.713L2.44175 195.538H85.043L86.9392 197.697V290.346L85.0654 292.479ZM85.0654 194.82H2.41936L0.531268 192.67V100.053L2.44175 97.8782H85.0547V110.109H86.9392V192.686L85.0654 194.82ZM87.57 110.109V192.67L89.458 194.82H172.104L173.978 192.686V100.037L172.082 97.8782H87.5775V110.109H87.57ZM98.3249 97.1601H172.104L173.978 95.0267V2.37751L172.082 0.218658H89.4804L87.57 2.39377V95H98.3249V97.1601ZM86.9392 95V2.37749L85.0431 0.218658H2.44174L0.531268 2.39377V95.0105L2.41936 97.1601H85.0547V95H86.9392ZM174.609 95.0105V2.39376L176.519 0.218658H259.12L261.017 2.37753V95.0267L259.143 97.1601H176.497L174.609 95.0105ZM261.647 95.0105V2.39376L263.558 0.218658H346.159L348.055 2.37746V95H336.403V97.1601H263.535L261.647 95.0105ZM347.125 97.8782H263.558L261.673 100.025V192.699L263.561 194.848H346.156L348.081 192.658V110.109H347.125V97.8782ZM348.711 110.109V192.699L350.599 194.848H433.195L435.119 192.658V100.066L433.198 97.8782H349.648V110.109H348.711ZM360.37 97.1601H433.22L435.094 95.0268V2.37746L433.198 0.218658H350.596L348.686 2.39379V95H360.37V97.1601ZM435.725 95.0104V2.39383L437.635 0.218658H520.237L522.133 2.37743V95.0268L520.259 97.1601H437.613L435.725 95.0104ZM522.763 95.0104V2.39382L524.674 0.218658H607.275L609.171 2.37743V95H597.529V97.1601H524.651L522.763 95.0104ZM608.251 97.8782H524.674L522.789 100.025V192.699L524.677 194.848H607.272L609.197 192.658V110.109H608.251V97.8782ZM609.827 110.109V192.699L611.715 194.848H694.311L696.235 192.658V100.066L694.314 97.8782H610.774V110.109H609.827ZM621.496 97.1601H694.336L696.21 95.0268V2.37749L694.314 0.218658H611.713L609.802 2.39382V95H621.496V97.1601ZM696.841 95.0105V2.39376L698.751 0.218658H781.353L783.249 2.37749V95.0268L781.375 97.1601H698.729L696.841 95.0105ZM783.879 95.0105V2.39376L785.79 0.218658H868.391L870.287 2.37749V95H859.58V97.1601H785.768L783.879 95.0105ZM870.943 110.109V192.699L872.831 194.848H955.427L957.351 192.658V100.066L955.43 97.8782H872.85V110.109H870.943ZM872.85 97.1601H955.452L957.326 95.0268V2.37749L955.43 0.218658H872.829L870.918 2.39376V95H872.85V97.1601ZM958.056 95.006V2.39827L959.97 0.218658H1042.57L1044.46 2.37304V95H1042.57V97.1601H959.948L958.056 95.006ZM1042.57 97.8782H959.97L958.056 100.058V192.666L959.948 194.82H1042.59L1044.46 192.691V110.109H1042.57V97.8782ZM1055.84 97.1601H1129.63L1131.5 95.0312V2.37304L1129.61 0.218658H1047.01L1045.09 2.39822V95H1055.84V97.1601ZM1132.13 95.0061V2.3982L1134.05 0.218658H1216.65L1218.54 2.37304V95.0312L1216.67 97.1601H1134.03L1132.13 95.0061ZM1219.17 95.0061V2.3982L1221.09 0.218658H1303.69L1305.58 2.3729V95H1293.91V97.1601H1221.06L1219.17 95.0061ZM1304.64 97.8782H1221.09L1219.2 100.029V192.694L1221.09 194.848H1303.68L1305.6 192.662V110.109H1304.64V97.8782ZM1306.24 110.109V192.694L1308.13 194.848H1390.72L1392.64 192.662V100.061L1390.73 97.8782H1307.16V110.109H1306.24ZM1317.88 97.1601H1390.75L1392.62 95.0312V2.37304L1390.73 0.218658H1308.12L1306.21 2.39834V95H1317.88V97.1601ZM1393.25 95.0059V2.39834L1395.16 0.218658H1477.76L1479.66 2.3729V95.0313L1477.79 97.1601H1395.14L1393.25 95.0059ZM1480.29 95.0059V2.39834L1482.2 0.218658H1564.8L1566.7 2.37306V95H1555.04V97.1601H1482.18L1480.29 95.0059ZM1565.77 97.8782H1482.2L1480.31 100.029V192.694L1482.2 194.848H1564.8L1566.72 192.662V110.109H1565.77V97.8782ZM1567.35 110.109V192.694L1569.24 194.848H1651.84L1653.76 192.662V100.061L1651.84 97.8782H1568.29V110.109H1567.35ZM1579.01 97.1601H1651.86L1653.73 95.0312V2.37302L1651.84 0.218658H1569.24L1567.33 2.39834V95H1579.01V97.1601ZM1654.37 95.006V2.39822L1656.28 0.218658H1738.88L1740.77 2.37292V95.0313L1738.9 97.1601H1656.26L1654.37 95.006ZM1741.4 95.0059V2.39834L1743.32 0.218658H1825.92L1827.81 2.37302V95H1817.09V97.1601H1743.3L1741.4 95.0059ZM1828.47 110.109V192.694L1830.36 194.848H1912.96L1914.88 192.662V100.061L1912.96 97.8782H1830.36V110.109H1828.47ZM1830.36 97.1601H1912.98L1914.85 95.0313V2.37292L1912.96 0.218658H1830.36L1828.44 2.39822V95H1830.36V97.1601ZM1830.36 195.538H1912.96L1914.88 197.721V290.322L1912.96 292.508H1830.36L1828.47 290.354V197.689L1830.36 195.538ZM1830.33 293.226H1912.98L1914.88 295.38V387.981L1912.96 390.168H1830.36V376.859H1828.47V295.348L1830.33 293.226ZM1827.84 389.067V295.38L1825.94 293.226H1743.29L1741.43 295.348V388.013L1743.32 390.168H1817.09V389.067H1827.84ZM1817.09 390.886H1743.29L1741.43 393.008V485.673L1743.32 487.827H1825.92L1827.84 485.641V391.939H1817.09V390.886ZM1828.47 404.147V485.673L1830.36 487.827H1912.96L1914.88 485.641V393.04L1912.98 390.886H1830.36V404.147H1828.47ZM1830.33 488.545H1912.98L1914.88 490.7V583.3L1912.96 585.487H1830.36L1828.47 583.333V490.667L1830.33 488.545ZM1830.33 586.205H1912.98L1914.88 588.359V680.96L1912.96 683.146H1830.36V669.84H1828.47V588.327L1830.33 586.205ZM1827.84 682.047V588.359L1825.94 586.205H1743.29L1741.43 588.327V680.992L1743.32 683.146H1817.09V682.047H1827.84ZM1817.09 683.864H1743.29L1741.43 685.987V778.652L1743.32 780.806H1825.92L1827.84 778.62V684.92H1817.09V683.864ZM1828.47 697.127V778.652L1830.36 780.806H1912.96L1914.88 778.62V686.019L1912.98 683.864H1830.36V697.127H1828.47ZM1830.33 781.524H1912.98L1914.88 783.678V876.279L1912.96 878.465H1830.36L1828.47 876.311V783.646L1830.33 781.524ZM1830.33 879.183H1912.98L1914.88 881.338V973.939L1912.96 976.125H1830.36V963.883H1828.47V881.306L1830.33 879.183ZM1827.84 976.119V881.338L1825.94 879.183H1743.29L1741.43 881.306V973.971L1743.32 976.125H1817.09V976.119H1827.84ZM1817.09 976.843H1743.29L1741.43 978.965V1071.63L1743.32 1073.78H1825.92L1827.84 1071.6V978.991H1817.09V976.843ZM1828.47 978.991V1071.63L1830.36 1073.78H1912.96L1914.88 1071.6V978.997L1912.98 976.843H1830.36V978.991H1828.47ZM1740.8 978.997V1071.6L1738.88 1073.78H1656.28L1654.39 1071.63V978.965L1656.25 976.843H1738.91L1740.8 978.997ZM1653.76 978.998V1071.6L1651.84 1073.78H1569.24L1567.35 1071.63V978.991H1579.01V976.843H1651.87L1653.76 978.998ZM1568.29 976.096H1651.86L1653.73 973.967V881.309L1651.84 879.155H1569.24L1567.33 881.335V963.883H1568.29V976.096ZM1566.7 963.883V881.309L1564.8 879.155H1482.2L1480.29 881.335V973.942L1482.18 976.096H1565.77V963.883H1566.7ZM1555.04 976.843H1482.18L1480.31 978.965V1071.63L1482.2 1073.78H1564.8L1566.72 1071.6V978.991H1555.04V976.843ZM1479.68 978.998V1071.6L1477.76 1073.78H1395.17L1393.27 1071.63V978.965L1395.14 976.843H1477.79L1479.68 978.998ZM1392.64 978.997V1071.6L1390.72 1073.78H1308.13L1306.24 1071.63V978.991H1317.88V976.843H1390.75L1392.64 978.997ZM1307.16 976.096H1390.75L1392.62 973.967V881.309L1390.73 879.155H1308.12L1306.21 881.335V963.883H1307.16V976.096ZM1305.58 963.883V881.309L1303.69 879.155H1221.09L1219.17 881.334V973.942L1221.06 976.096H1304.64V963.883H1305.58ZM1293.91 976.843H1221.06L1219.2 978.965V1071.63L1221.09 1073.78H1303.68L1305.6 1071.6V978.991H1293.91V976.843ZM1218.54 978.969V1071.63L1216.65 1073.78H1134.05L1132.13 1071.6V978.994L1134.02 976.843H1216.67L1218.54 978.969ZM1131.5 978.969V1071.63L1129.61 1073.78H1047.01L1045.09 1071.6V978.991H1055.84V976.843H1129.64L1131.5 978.969ZM1044.46 963.883V881.309L1042.57 879.155H959.97L958.056 881.334V973.942L959.948 976.096H1042.57V963.883H1044.46ZM1042.57 976.843H959.945L958.056 978.994V1071.6L959.973 1073.78H1042.57L1044.46 1071.63V978.991H1042.57V976.843ZM957.351 979.002V1071.59L955.427 1073.78H872.831L870.943 1071.64V978.991H872.85V976.843H955.455L957.351 979.002ZM872.85 976.125H955.427L957.351 973.934V881.342L955.455 879.183H872.804L870.943 881.301V963.883H872.85V976.125ZM870.313 976.119V881.342L868.416 879.183H785.765L783.905 881.301V973.975L785.793 976.125H859.58V976.119H870.313ZM859.58 976.843H785.765L783.905 978.961V1071.64L785.793 1073.78H868.389L870.313 1071.59V978.991H859.58V976.843ZM783.274 979.002V1071.59L781.35 1073.78H698.754L696.866 1071.64V978.961L698.726 976.843H781.378L783.274 979.002ZM696.235 979.002V1071.59L694.311 1073.78H611.715L609.827 1071.64V978.991H621.496V976.843H694.339L696.235 979.002ZM610.774 976.096H694.336L696.21 973.963V881.314L694.314 879.155H611.713L609.802 881.33V963.883H610.774V976.096ZM609.171 963.883V881.314L607.275 879.155H524.674L522.763 881.33V973.947L524.651 976.096H608.251V963.883H609.171ZM597.529 976.843H524.649L522.789 978.961V1071.64L524.677 1073.78H607.273L609.197 1071.59V978.991H597.529V976.843ZM522.158 979.002V1071.59L520.234 1073.78H437.638L435.75 1071.64V978.961L437.61 976.843H520.262L522.158 979.002ZM520.259 976.096H437.613L435.725 973.947V881.33L437.635 879.155H520.236L522.133 881.314V973.963L520.259 976.096ZM346.182 878.437L348.055 876.303V783.654L346.159 781.495H263.558L261.647 783.67V876.287L263.535 878.437H346.182ZM348.686 876.287L350.574 878.437H433.22L435.094 876.303V783.654L433.198 781.495H350.597L348.686 783.67V876.287ZM435.725 876.287L437.613 878.437H520.259L522.133 876.303V783.654L520.236 781.495H437.635L435.725 783.67V876.287ZM522.763 876.287L524.651 878.437H607.298L609.171 876.303V783.654L607.275 781.495H524.674L522.763 783.67V876.287ZM694.336 878.437H611.69L609.802 876.287V783.67L611.713 781.495H694.314L696.21 783.654V876.303L694.336 878.437ZM694.311 780.806H611.715L609.827 778.656V685.982L611.687 683.864H694.339L696.235 686.023V778.615L694.311 780.806ZM609.171 685.994V778.644L607.298 780.777H524.651L522.763 778.627V686.011L524.674 683.836H607.275L609.171 685.994ZM522.133 685.994V778.644L520.259 780.777H437.613L435.725 778.627V686.011L437.635 683.836H520.236L522.133 685.994ZM435.094 685.995V778.644L433.22 780.777H350.574L348.686 778.628V686.011L350.597 683.836H433.198L435.094 685.995ZM348.055 685.995V778.644L346.182 780.777H263.535L261.647 778.628V686.011L263.558 683.836H346.159L348.055 685.995ZM261.017 685.995V778.644L259.143 780.777H176.497L174.609 778.628V686.011L176.519 683.836H259.12L261.017 685.995ZM176.519 781.495H259.12L261.017 783.654V876.303L259.143 878.437H176.497L174.609 876.287V783.67L176.519 781.495ZM176.519 879.155H259.12L261.017 881.314V973.963L259.143 976.096H176.497L174.609 973.947V881.33L176.519 879.155ZM172.104 878.437H89.4579L87.57 876.287V783.67L89.4805 781.495H172.082L173.978 783.654V876.303L172.104 878.437ZM174.609 680.968L176.497 683.117H259.143L261.017 680.984V588.335L259.12 586.176H176.519L174.609 588.351V680.968ZM261.647 680.968L263.535 683.117H346.182L348.055 680.984V588.335L346.159 586.176H263.558L261.647 588.351V680.968ZM348.686 680.968L350.574 683.117H433.22L435.094 680.984V588.335L433.198 586.176H350.597L348.686 588.351V680.968ZM435.725 680.968L437.613 683.117H520.259L522.133 680.984V588.335L520.236 586.176H437.635L435.725 588.351V680.968ZM522.789 680.997L524.677 683.146H607.272L609.197 680.956V588.364L607.3 586.205H524.649L522.789 588.323V680.997ZM609.827 680.997L611.715 683.146H694.311L696.235 680.955V588.364L694.339 586.205H611.687L609.827 588.323V680.997ZM696.866 680.997L698.754 683.146H781.35L783.274 680.955V588.364L781.378 586.205H698.726L696.866 588.322V680.997ZM698.726 683.864L696.866 685.982V778.656L698.754 780.806H781.35L783.274 778.615V686.023L781.378 683.864H698.726ZM698.726 781.524L696.866 783.642V876.316L698.754 878.465H781.35L783.274 876.275V783.683L781.378 781.524H698.726ZM698.751 879.155L696.841 881.33V973.947L698.729 976.096H781.375L783.249 973.963V881.314L781.352 879.155H698.751ZM955.427 878.465H872.831L870.943 876.316V783.642L872.803 781.524H955.455L957.351 783.683V876.275L955.427 878.465ZM870.313 783.683V876.275L868.389 878.465H785.793L783.905 876.316V783.642L785.765 781.524H868.416L870.313 783.683ZM868.388 780.806H785.793L783.905 778.656V685.982L785.765 683.864H859.58V684.92H870.313V778.615L868.388 780.806ZM870.943 697.127V778.656L872.831 780.806H955.427L957.351 778.615V686.023L955.455 683.864H872.85V697.127H870.943ZM872.85 683.146H955.427L957.351 680.955V588.364L955.455 586.205H872.803L870.943 588.323V669.84H872.85V683.146ZM870.313 682.047V588.364L868.416 586.205H785.765L783.905 588.323V680.997L785.793 683.146H859.58V682.047H870.313ZM868.388 585.487H785.793L783.905 583.337V490.663L785.765 488.545H868.416L870.313 490.704V583.296L868.388 585.487ZM783.274 490.704V583.296L781.35 585.487H698.754L696.866 583.337V490.663L698.726 488.545H781.378L783.274 490.704ZM696.235 490.704V583.296L694.311 585.487H611.715L609.827 583.337V490.663L611.687 488.545H694.339L696.235 490.704ZM609.197 490.704V583.296L607.272 585.487H524.677L522.789 583.337V490.663L524.649 488.545H607.3L609.197 490.704ZM522.158 490.704V583.296L520.234 585.487H437.638L435.75 583.337V490.663L437.61 488.545H520.262L522.158 490.704ZM435.094 490.675V583.325L433.22 585.458H350.574L348.686 583.308V490.692L350.597 488.516H433.198L435.094 490.675ZM348.055 490.675V583.325L346.182 585.458H263.535L261.647 583.308V490.692L263.558 488.516H346.159L348.055 490.675ZM261.017 490.675V583.325L259.143 585.458H176.497L174.609 583.308V490.692L176.519 488.516H259.12L261.017 490.675ZM173.978 490.675V583.325L172.104 585.458H89.458L87.57 583.308V490.692L89.4805 488.516H172.082L173.978 490.675ZM174.609 387.989L176.497 390.139H259.143L261.017 388.005V295.356L259.12 293.197H176.519L174.609 295.372V387.989ZM176.519 390.857L174.609 393.032V485.649L176.497 487.798H259.143L261.017 485.665V393.016L259.12 390.857H176.519ZM261.647 485.649L263.535 487.798H346.182L348.055 485.665V393.016L346.159 390.857H263.558L261.647 393.032V485.649ZM348.686 485.649L350.574 487.798H433.22L435.094 485.665V393.016L433.198 390.857H350.597L348.686 393.032V485.649ZM435.75 485.678L437.638 487.827H520.234L522.158 485.636V393.045L520.262 390.886H437.61L435.75 393.003V485.678ZM522.789 485.678L524.677 487.827H607.272L609.197 485.636V393.045L607.3 390.886H524.649L522.789 393.003V485.678ZM609.827 485.678L611.715 487.827H694.311L696.235 485.636V393.045L694.339 390.886H611.687L609.827 393.003V485.678ZM696.866 485.678L698.754 487.827H781.35L783.274 485.636V393.045L781.378 390.886H698.726L696.866 393.003V485.678ZM783.905 485.677L785.793 487.827H868.388L870.313 485.636V391.939H859.58V390.886H785.765L783.905 393.003V485.677ZM859.58 390.168H785.793L783.905 388.018V295.344L785.765 293.226H868.416L870.313 295.385V389.067H859.58V390.168ZM870.943 376.859V295.344L872.803 293.226H955.455L957.351 295.385V387.977L955.427 390.168H872.85V376.859H870.943ZM872.85 390.886H955.455L957.351 393.045V485.636L955.427 487.827H872.831L870.943 485.677V404.147H872.85V390.886ZM872.803 488.545L870.943 490.663V583.337L872.831 585.487H955.427L957.351 583.296V490.704L955.455 488.545H872.803ZM958.056 778.623V686.015L959.97 683.836H1042.57V697.127H1044.46V778.648L1042.59 780.777H959.948L958.056 778.623ZM1045.09 684.92V778.623L1046.99 780.777H1129.63L1131.5 778.648V685.99L1129.61 683.836H1055.84V684.92H1045.09ZM1055.84 683.117H1129.63L1131.5 680.989V588.331L1129.61 586.176H1047.01L1045.09 588.356V682.047H1055.84V683.117ZM1044.46 669.84V588.331L1042.57 586.176H959.97L958.056 588.356V680.963L959.948 683.117H1042.57V669.84H1044.46ZM1042.59 585.458H959.948L958.056 583.304V490.696L959.97 488.516H1042.57L1044.46 490.671V583.329L1042.59 585.458ZM1042.59 487.798H959.948L958.056 485.644V393.037L959.97 390.857H1042.57V404.147H1044.46V485.67L1042.59 487.798ZM1045.09 391.939V485.644L1046.99 487.798H1129.63L1131.5 485.67V393.011L1129.61 390.857H1055.84V391.939H1045.09ZM1055.84 390.139H1129.63L1131.5 388.01V295.352L1129.61 293.197H1047.01L1045.09 295.377V389.067H1055.84V390.139ZM1044.46 376.859V295.352L1042.57 293.197H959.97L958.056 295.377V387.985L959.948 390.139H1042.57V376.859H1044.46ZM868.388 292.508L870.313 290.317V197.725L868.391 195.538H785.79L783.905 197.684V290.358L785.793 292.508H868.388ZM870.943 290.358L872.831 292.508H955.427L957.351 290.317V197.725L955.43 195.538H872.829L870.943 197.684V290.358ZM958.056 290.325L959.948 292.479H1042.59L1044.46 290.35V197.692L1042.57 195.538H959.97L958.056 197.717V290.325ZM1045.09 290.325L1046.99 292.479H1129.63L1131.5 290.35V197.692L1129.61 195.538H1047.01L1045.09 197.717V290.325ZM1132.13 485.644V393.036L1134.05 390.857H1216.65L1218.54 393.011V485.67L1216.67 487.798H1134.02L1132.13 485.644ZM1216.67 390.139H1134.02L1132.13 387.985V295.377L1134.05 293.197H1216.65L1218.54 295.352V388.01L1216.67 390.139ZM1216.67 292.479H1134.03L1132.13 290.325V197.717L1134.05 195.538H1216.65L1218.54 197.692V290.35L1216.67 292.479ZM1216.65 194.848H1134.05L1132.13 192.666V100.058L1134.05 97.8782H1216.65L1218.54 100.033V192.691L1216.65 194.848ZM1131.5 100.033V192.691L1129.63 194.82H1046.99L1045.09 192.666V97.8782H1129.61L1131.5 100.033ZM870.313 97.8782V192.658L868.388 194.848H785.793L783.905 192.699V100.025L785.79 97.8782H870.313ZM783.274 100.066V192.658L781.35 194.848H698.754L696.866 192.699V100.025L698.751 97.8782H781.353L783.274 100.066ZM698.751 195.538H781.353L783.274 197.725V290.317L781.35 292.508H698.754L696.866 290.358V197.684L698.751 195.538ZM698.726 293.226H781.378L783.274 295.385V387.977L781.35 390.168H698.754L696.866 388.018V295.344L698.726 293.226ZM696.235 295.385V387.977L694.311 390.168H611.715L609.827 388.018V295.344L611.687 293.226H694.339L696.235 295.385ZM609.197 295.385V387.977L607.272 390.168H524.677L522.789 388.018V295.344L524.649 293.226H607.3L609.197 295.385ZM522.158 295.385V387.977L520.234 390.168H437.638L435.75 388.018V295.344L437.61 293.226H520.262L522.158 295.385ZM435.119 295.385V387.977L433.195 390.168H350.599L348.711 388.018V295.344L350.571 293.226H433.223L435.119 295.385ZM348.055 295.356V388.006L346.182 390.139H263.535L261.647 387.989V295.372L263.558 293.197H346.159L348.055 295.356ZM346.156 292.508H263.561L261.673 290.358V197.684L263.558 195.538H346.159L348.081 197.725V290.317L346.156 292.508ZM261.017 197.697V290.346L259.143 292.479H176.497L174.609 290.33V197.713L176.519 195.538H259.12L261.017 197.697ZM173.978 197.697V290.346L172.104 292.479H89.458L87.57 290.33V197.713L89.4804 195.538H172.082L173.978 197.697ZM174.609 192.67V100.053L176.519 97.8782H259.12L261.017 100.037V192.686L259.118 194.848H176.522L174.609 192.67ZM350.596 195.538L348.711 197.684V290.358L350.599 292.508H433.195L435.119 290.317V197.725L433.198 195.538H350.596ZM435.75 290.358L437.638 292.508H520.234L522.158 290.317V197.725L520.236 195.538H437.635L435.75 197.684V290.358ZM522.789 290.358L524.677 292.508H607.272L609.197 290.317V197.725L607.275 195.538H524.674L522.789 197.684V290.358ZM609.827 290.358L611.715 292.508H694.311L696.235 290.317V197.725L694.314 195.538H611.713L609.827 197.684V290.358ZM522.158 100.066V192.658L520.234 194.848H437.638L435.75 192.699V100.025L437.635 97.8782H520.236L522.158 100.066ZM1308.12 195.538L1306.24 197.689V290.354L1308.13 292.508H1390.72L1392.64 290.322V197.721L1390.73 195.538H1308.12ZM1305.6 197.721L1303.69 195.538H1221.09L1219.2 197.689V290.354L1221.09 292.508H1303.68L1305.6 290.322V197.721ZM1221.09 293.197L1219.17 295.377V387.985L1221.06 390.139H1303.71L1305.58 388.01V295.352L1303.69 293.197H1221.09ZM1221.09 390.857L1219.17 393.036V485.644L1221.06 487.798H1303.71L1305.58 485.67V393.011L1303.69 390.857H1221.09ZM1221.09 488.516L1219.17 490.696V583.304L1221.06 585.458H1303.71L1305.58 583.329V490.671L1303.69 488.516H1221.09ZM1218.54 490.671L1216.65 488.516H1134.05L1132.13 490.696V583.304L1134.02 585.458H1216.67L1218.54 583.329V490.671ZM1131.5 490.671L1129.61 488.516H1047.01L1045.09 490.696V583.304L1046.99 585.458H1129.63L1131.5 583.329V490.671ZM1132.13 778.623V686.015L1134.05 683.836H1216.65L1218.54 685.99V778.648L1216.67 780.777H1134.03L1132.13 778.623ZM1216.67 683.117H1134.02L1132.13 680.964V588.356L1134.05 586.176H1216.65L1218.54 588.331V680.989L1216.67 683.117ZM1219.17 680.964V588.356L1221.09 586.176H1303.69L1305.58 588.33V680.989L1303.71 683.117H1221.06L1219.17 680.964ZM1306.21 680.963V588.356L1308.12 586.176H1390.73L1392.62 588.331V680.989L1390.75 683.117H1308.1L1306.21 680.963ZM1390.75 585.458H1308.1L1306.21 583.304V490.696L1308.12 488.516H1390.73L1392.62 490.671V583.329L1390.75 585.458ZM1390.75 487.798H1308.1L1306.21 485.644V393.037L1308.12 390.857H1390.73L1392.62 393.011V485.67L1390.75 487.798ZM1390.72 390.168H1308.13L1306.24 388.013V295.348L1308.1 293.226H1390.75L1392.64 295.38V387.981L1390.72 390.168ZM1393.27 388.013V295.348L1395.14 293.226H1477.79L1479.68 295.381V387.981L1477.76 390.168H1395.17L1393.27 388.013ZM1477.76 292.508H1395.17L1393.27 290.354V197.689L1395.16 195.538H1477.76L1479.68 197.721V290.322L1477.76 292.508ZM1477.76 194.848H1395.17L1393.27 192.694V100.029L1395.16 97.8782H1477.76L1479.68 100.061V192.662L1477.76 194.848ZM1569.24 195.538L1567.35 197.689V290.354L1569.24 292.508H1651.84L1653.76 290.322V197.721L1651.84 195.538H1569.24ZM1566.72 197.721L1564.8 195.538H1482.2L1480.31 197.689V290.354L1482.2 292.508H1564.8L1566.72 290.322V197.721ZM1482.18 293.226L1480.31 295.348V388.013L1482.2 390.168H1564.8L1566.72 387.981V295.38L1564.83 293.226H1482.18ZM1482.18 390.886L1480.31 393.008V485.673L1482.2 487.827H1564.8L1566.72 485.641V393.04L1564.83 390.886H1482.18ZM1479.68 393.04L1477.79 390.886H1395.14L1393.27 393.008V485.673L1395.17 487.827H1477.76L1479.68 485.641V393.04ZM1395.14 488.545L1393.27 490.667V583.333L1395.17 585.487H1477.76L1479.68 583.3V490.7L1477.79 488.545H1395.14ZM1395.16 586.176L1393.25 588.356V680.963L1395.14 683.117H1477.79L1479.66 680.989V588.33L1477.76 586.176H1395.16ZM1395.16 683.836L1393.25 686.015V778.623L1395.14 780.777H1477.79L1479.66 778.648V685.99L1477.76 683.836H1395.16ZM1392.62 685.99L1390.73 683.836H1308.12L1306.21 686.015V778.623L1308.1 780.777H1390.75L1392.62 778.648V685.99ZM1305.58 685.99L1303.69 683.836H1221.09L1219.17 686.015V778.623L1221.06 780.777H1303.71L1305.58 778.648V685.99ZM1221.09 781.495L1219.17 783.675V876.283L1221.06 878.437H1303.71L1305.58 876.308V783.65L1303.69 781.495H1221.09ZM1218.54 783.65L1216.65 781.495H1134.05L1132.13 783.675V876.283L1134.02 878.437H1216.67L1218.54 876.308V783.65ZM1131.5 783.65L1129.61 781.495H1047.01L1045.09 783.675V876.283L1046.99 878.437H1129.63L1131.5 876.308V783.65ZM1044.46 783.65L1042.57 781.495H959.97L958.056 783.675V876.283L959.948 878.437H1042.59L1044.46 876.308V783.65ZM1045.09 976.096V881.334L1047.01 879.155H1129.61L1131.5 881.309V973.967L1129.63 976.096H1045.09ZM1132.13 973.942V881.334L1134.05 879.155H1216.65L1218.54 881.309V973.967L1216.67 976.096H1134.02L1132.13 973.942ZM1390.75 878.437H1308.1L1306.21 876.283V783.675L1308.12 781.495H1390.73L1392.62 783.65V876.308L1390.75 878.437ZM1393.25 876.283V783.675L1395.16 781.495H1477.76L1479.66 783.65V876.308L1477.79 878.437H1395.14L1393.25 876.283ZM1480.29 876.283V783.675L1482.2 781.495H1564.8L1566.7 783.65V876.308L1564.83 878.437H1482.18L1480.29 876.283ZM1564.83 780.777H1482.18L1480.29 778.623V686.015L1482.2 683.836H1564.8L1566.7 685.99V778.648L1564.83 780.777ZM1564.8 683.146H1482.2L1480.31 680.992V588.327L1482.18 586.205H1564.83L1566.72 588.359V680.96L1564.8 683.146ZM1564.8 585.487H1482.2L1480.31 583.333V490.667L1482.18 488.545H1564.83L1566.72 490.7V583.3L1564.8 585.487ZM1567.35 583.333V490.667L1569.22 488.545H1651.87L1653.76 490.7V583.3L1651.84 585.487H1569.24L1567.35 583.333ZM1651.84 487.827H1569.24L1567.35 485.673V393.008L1569.22 390.886H1651.87L1653.76 393.04V485.641L1651.84 487.827ZM1651.84 390.168H1569.24L1567.35 388.013V295.348L1569.22 293.226H1651.87L1653.76 295.381V387.981L1651.84 390.168ZM1654.39 388.014V295.348L1656.25 293.226H1738.91L1740.8 295.38V387.981L1738.88 390.168H1656.28L1654.39 388.014ZM1738.88 292.508H1656.28L1654.39 290.354V197.689L1656.28 195.538H1738.88L1740.8 197.721V290.322L1738.88 292.508ZM1738.88 194.848H1656.28L1654.39 192.694V100.029L1656.28 97.8782H1738.88L1740.8 100.061V192.662L1738.88 194.848ZM1741.43 192.694V100.029L1743.32 97.8782H1827.84V192.662L1825.92 194.848H1743.32L1741.43 192.694ZM1743.32 195.538H1825.92L1827.84 197.721V290.322L1825.92 292.508H1743.32L1741.43 290.354V197.689L1743.32 195.538ZM1740.8 393.04L1738.91 390.886H1656.25L1654.39 393.008V485.673L1656.28 487.827H1738.88L1740.8 485.641V393.04ZM1656.25 488.545L1654.39 490.667V583.333L1656.28 585.487H1738.88L1740.8 583.3V490.7L1738.91 488.545H1656.25ZM1656.25 586.205L1654.39 588.327V680.992L1656.28 683.146H1738.88L1740.8 680.96V588.359L1738.91 586.205H1656.25ZM1653.76 588.359L1651.87 586.205H1569.22L1567.35 588.327V680.992L1569.24 683.146H1651.84L1653.76 680.96V588.359ZM1569.22 683.864L1567.35 685.987V778.652L1569.24 780.806H1651.84L1653.76 778.62V686.019L1651.87 683.864H1569.22ZM1569.24 781.495L1567.33 783.675V876.283L1569.22 878.437H1651.86L1653.73 876.308V783.65L1651.84 781.495H1569.24ZM1479.66 881.309L1477.76 879.155H1395.16L1393.25 881.335V973.942L1395.14 976.096H1477.79L1479.66 973.968V881.309ZM1654.37 973.942L1656.26 976.096H1738.9L1740.77 973.968V881.309L1738.88 879.155H1656.28L1654.37 881.334V973.942ZM1825.92 878.465L1827.84 876.279V783.678L1825.94 781.524H1743.29L1741.43 783.646V876.311L1743.32 878.465H1825.92ZM1825.92 585.487H1743.32L1741.43 583.332V490.668L1743.29 488.545H1825.94L1827.84 490.7V583.3L1825.92 585.487ZM1740.8 686.019L1738.91 683.864H1656.25L1654.39 685.986V778.652L1656.28 780.806H1738.88L1740.8 778.62V686.019ZM1656.25 781.524L1654.39 783.646V876.311L1656.28 878.465H1738.88L1740.8 876.279V783.678L1738.91 781.524H1656.25Z" fill="white" fill-opacity="0.1"/>
</svg>
